<svg xmlns="http://www.w3.org/2000/svg" viewBox="0 0 734.72 815.85"><defs><style>.cls-1{fill:#ecd245;}.cls-2{fill:#1a1a1a;}.cls-3{fill:none;stroke:#b9b9b9;stroke-miterlimit:10;}</style></defs><g id="Layer_2" data-name="Layer 2"><g id="Layer_1-2" data-name="Layer 1"><rect class="cls-1" x="114.35" y="327.52" width="114.14" height="54.88" rx="15.57"/><g id="Forward"><polygon points="175.54 348.65 178.52 345.67 194.14 361.28 209.76 345.67 212.74 348.65 194.14 367.25 175.54 348.65"/></g><path class="cls-1" d="M284.05,66.66l-6.17-8.29a26.83,26.83,0,0,1-5.34.55,25,25,0,0,1-12.44-3.16,23.49,23.49,0,0,1-9-8.8,24.59,24.59,0,0,1-3.33-12.72,24.4,24.4,0,0,1,3.33-12.68,23.65,23.65,0,0,1,9-8.78,26.14,26.14,0,0,1,24.88,0,23.19,23.19,0,0,1,8.91,8.78,24.84,24.84,0,0,1,3.26,12.68,25.3,25.3,0,0,1-2.51,11.28A23.18,23.18,0,0,1,287.69,54l10.55,12.68Zm-20.8-22.24a11.93,11.93,0,0,0,9.29,3.8,11.8,11.8,0,0,0,9.22-3.83q3.45-3.84,3.46-10.15t-3.46-10.18a11.85,11.85,0,0,0-9.22-3.8A12,12,0,0,0,263.25,24q-3.47,3.76-3.46,10.21T263.25,44.42Z" transform="translate(-2.37 -3.53)"/><path class="cls-1" d="M341.57,20.19V58.44H329.84V53.23A12.85,12.85,0,0,1,325,57.31a14.7,14.7,0,0,1-6.75,1.54,15.15,15.15,0,0,1-7.75-2,13.25,13.25,0,0,1-5.21-5.66,19.3,19.3,0,0,1-1.85-8.7V20.19h11.66V41a8.39,8.39,0,0,0,2,6,7,7,0,0,0,5.35,2.13,7.06,7.06,0,0,0,5.42-2.13,8.39,8.39,0,0,0,2-6V20.19Z" transform="translate(-2.37 -3.53)"/><path class="cls-1" d="M350.86,14.39a5.85,5.85,0,0,1-2-4.48,5.94,5.94,0,0,1,2-4.56,7.1,7.1,0,0,1,5-1.82,7,7,0,0,1,5,1.82,5.94,5.94,0,0,1,2,4.56,5.85,5.85,0,0,1-2,4.48,7,7,0,0,1-5,1.82A7.05,7.05,0,0,1,350.86,14.39Zm10.86,5.8V58.44H350V20.19Z" transform="translate(-2.37 -3.53)"/><path class="cls-1" d="M406.07,42.12H379.54a8,8,0,0,0,2.3,5.45,7,7,0,0,0,5,1.89,6.17,6.17,0,0,0,6.1-3.7h12.48a17.21,17.21,0,0,1-9.74,11.51A20,20,0,0,1,387.22,59a20.53,20.53,0,0,1-10-2.4,17.07,17.07,0,0,1-6.85-6.86,21.1,21.1,0,0,1-2.47-10.42,21.45,21.45,0,0,1,2.43-10.42A16.91,16.91,0,0,1,377.14,22,22.22,22.22,0,0,1,397.09,22a16.68,16.68,0,0,1,6.75,6.65,20.12,20.12,0,0,1,2.44,10.08A29.17,29.17,0,0,1,406.07,42.12Zm-11.79-6.51a6,6,0,0,0-2-4.8A7.59,7.59,0,0,0,387.08,29a7.45,7.45,0,0,0-5,1.71,7.68,7.68,0,0,0-2.5,4.87Z" transform="translate(-2.37 -3.53)"/><path class="cls-1" d="M429.31,21.59a13.27,13.27,0,0,1,6.86-1.81v12.4h-3.23q-4.38,0-6.58,1.89t-2.19,6.61V58.44H412.45V20.19h11.72v6.37A15.43,15.43,0,0,1,429.31,21.59Z" transform="translate(-2.37 -3.53)"/><path class="cls-1" d="M449.09,56.59A17.52,17.52,0,0,1,442,49.73a20.41,20.41,0,0,1-2.57-10.42,20.25,20.25,0,0,1,2.6-10.38A17.64,17.64,0,0,1,449.19,22a22.64,22.64,0,0,1,20.29,0,17.64,17.64,0,0,1,7.13,6.89,20.25,20.25,0,0,1,2.6,10.38,20.21,20.21,0,0,1-2.63,10.39,17.88,17.88,0,0,1-7.2,6.89A21.54,21.54,0,0,1,459.2,59,21.09,21.09,0,0,1,449.09,56.59Zm15.83-10.22q2.37-2.46,2.37-7.06T465,32.25a7.78,7.78,0,0,0-11.34,0c-1.51,1.62-2.27,4-2.27,7.09s.75,5.42,2.23,7.06a7.21,7.21,0,0,0,5.59,2.47A7.6,7.6,0,0,0,464.92,46.37Z" transform="translate(-2.37 -3.53)"/><path class="cls-1" d="M292.66,245v9.39H279.91V293.1H268.18V254.37H255.43V245Z" transform="translate(-2.37 -3.53)"/><path class="cls-1" d="M334.4,276.79H307.88a8,8,0,0,0,2.29,5.45,7,7,0,0,0,5,1.88,6.15,6.15,0,0,0,6.1-3.7h12.48A17.2,17.2,0,0,1,324,291.94a20.16,20.16,0,0,1-8.43,1.71,20.53,20.53,0,0,1-10-2.4,17,17,0,0,1-6.85-6.85A21.13,21.13,0,0,1,296.22,274a21.42,21.42,0,0,1,2.43-10.42,16.9,16.9,0,0,1,6.83-6.86,22.2,22.2,0,0,1,19.94-.07,16.89,16.89,0,0,1,6.76,6.65,20.22,20.22,0,0,1,2.43,10.08A29.34,29.34,0,0,1,334.4,276.79Zm-11.79-6.51a6,6,0,0,0-2.05-4.8,7.57,7.57,0,0,0-5.14-1.78,7.41,7.41,0,0,0-5,1.71,7.59,7.59,0,0,0-2.51,4.87Z" transform="translate(-2.37 -3.53)"/><path class="cls-1" d="M374.81,258.79c2.68,2.91,4,6.89,4,12V293.1H367.17V272.33a8.37,8.37,0,0,0-2-6,7.77,7.77,0,0,0-10.69,0,8.37,8.37,0,0,0-2,6V293.1H340.78V254.85H352.5v5.07a12.44,12.44,0,0,1,4.8-4,15.15,15.15,0,0,1,6.79-1.48A13.88,13.88,0,0,1,374.81,258.79Z" transform="translate(-2.37 -3.53)"/><path class="cls-1" d="M408.61,256a12.12,12.12,0,0,1,4.69,4.32v-5.42H425V293a21.59,21.59,0,0,1-2.09,9.56,16,16,0,0,1-6.38,6.82A20.64,20.64,0,0,1,405.9,312q-8.5,0-13.78-4a15.1,15.1,0,0,1-6-10.86h11.58a5.56,5.56,0,0,0,2.61,3.46,9.44,9.44,0,0,0,5.07,1.27,8,8,0,0,0,5.79-2.09c1.44-1.4,2.16-3.62,2.16-6.68v-5.42a13,13,0,0,1-4.73,4.35,14.26,14.26,0,0,1-7.06,1.68,15.7,15.7,0,0,1-8.57-2.43,16.72,16.72,0,0,1-6.06-6.93,25.2,25.2,0,0,1,0-20.73,16.58,16.58,0,0,1,6.06-6.86,15.85,15.85,0,0,1,8.57-2.4A14.71,14.71,0,0,1,408.61,256Zm2.26,11.1A8.25,8.25,0,0,0,399,267a9.48,9.48,0,0,0-2.43,6.89,9.74,9.74,0,0,0,2.43,7,8.16,8.16,0,0,0,11.86,0,11.08,11.08,0,0,0,0-13.85Z" transform="translate(-2.37 -3.53)"/><path class="cls-1" d="M440.83,291.25a17.5,17.5,0,0,1-7.06-6.85,22.16,22.16,0,0,1,0-20.81,17.7,17.7,0,0,1,7.13-6.89,22.64,22.64,0,0,1,20.29,0,17.7,17.7,0,0,1,7.13,6.89A20.42,20.42,0,0,1,471,274a20.08,20.08,0,0,1-2.64,10.38,17.79,17.79,0,0,1-7.19,6.89,21.54,21.54,0,0,1-10.18,2.4A21.09,21.09,0,0,1,440.83,291.25ZM456.66,281Q459,278.56,459,274c0-3.06-.77-5.42-2.3-7.06a7.8,7.8,0,0,0-11.35,0c-1.5,1.63-2.26,4-2.26,7.1s.75,5.41,2.23,7.06a7.23,7.23,0,0,0,5.59,2.47A7.65,7.65,0,0,0,456.66,281Z" transform="translate(-2.37 -3.53)"/><path class="cls-1" d="M230.38,491.46a21.54,21.54,0,0,1,8.81,8.47,26.84,26.84,0,0,1,0,25.12,21.44,21.44,0,0,1-8.84,8.5,28.08,28.08,0,0,1-13.27,3h-18V488.44h18A28,28,0,0,1,230.38,491.46Zm-3.7,31.33q3.7-3.63,3.7-10.29t-3.7-10.35q-3.7-3.69-10.35-3.7h-5.55v28h5.55Q223,526.42,226.68,522.79Z" transform="translate(-2.37 -3.53)"/><path class="cls-1" d="M249.75,492.52a5.85,5.85,0,0,1-2-4.49,6,6,0,0,1,2-4.56,7.09,7.09,0,0,1,5-1.81,7,7,0,0,1,5,1.81,6,6,0,0,1,2,4.56,5.85,5.85,0,0,1-2,4.49,7,7,0,0,1-5,1.82A7.1,7.1,0,0,1,249.75,492.52Zm10.86,5.8v38.25H248.89V498.32Z" transform="translate(-2.37 -3.53)"/><path class="cls-1" d="M275.76,535.4a15.3,15.3,0,0,1-6.17-4.69,12.42,12.42,0,0,1-2.54-6.69h11.59a4.43,4.43,0,0,0,1.85,3.22,6.5,6.5,0,0,0,4,1.24,5.79,5.79,0,0,0,3.4-.86,2.62,2.62,0,0,0,1.2-2.23,2.59,2.59,0,0,0-1.72-2.43,34,34,0,0,0-5.55-1.75,51.57,51.57,0,0,1-6.85-2,11.82,11.82,0,0,1-4.73-3.36,9.13,9.13,0,0,1-2-6.2,10.52,10.52,0,0,1,1.81-6,12.29,12.29,0,0,1,5.35-4.29,20.48,20.48,0,0,1,8.4-1.57q7.2,0,11.34,3.56a13.86,13.86,0,0,1,4.77,9.46H289.13a4.72,4.72,0,0,0-1.75-3.15,6,6,0,0,0-3.87-1.17,5.4,5.4,0,0,0-3.16.79,2.53,2.53,0,0,0-1.09,2.16,2.64,2.64,0,0,0,1.74,2.47,27.65,27.65,0,0,0,5.45,1.64,61.26,61.26,0,0,1,6.93,2.16,11.94,11.94,0,0,1,4.69,3.43,9.66,9.66,0,0,1,2.09,6.34,10,10,0,0,1-1.88,6,12.5,12.5,0,0,1-5.42,4.15,20.78,20.78,0,0,1-8.19,1.51A22,22,0,0,1,275.76,535.4Z" transform="translate(-2.37 -3.53)"/><path class="cls-1" d="M328.68,526.63v9.94h-6q-6.37,0-9.94-3.12t-3.57-10.18V508.05h-4.66v-9.73h4.66V489h11.72v9.33h7.68v9.73h-7.68V523.4a3.2,3.2,0,0,0,.83,2.47,4,4,0,0,0,2.74.76Z" transform="translate(-2.37 -3.53)"/><path class="cls-1" d="M335.09,507a16.58,16.58,0,0,1,6.07-6.85,15.8,15.8,0,0,1,8.57-2.4,14.78,14.78,0,0,1,7.09,1.64,12.23,12.23,0,0,1,4.7,4.32v-5.41h11.72v38.25H361.52v-5.42a12.81,12.81,0,0,1-4.77,4.32,14.67,14.67,0,0,1-7.09,1.65,15.55,15.55,0,0,1-8.5-2.44,16.78,16.78,0,0,1-6.07-6.92,23.06,23.06,0,0,1-2.23-10.39A22.79,22.79,0,0,1,335.09,507Zm24,3.5a8.24,8.24,0,0,0-11.86,0,9.48,9.48,0,0,0-2.43,6.89,9.71,9.71,0,0,0,2.43,7,8.16,8.16,0,0,0,11.86,0,11,11,0,0,0,0-13.84Z" transform="translate(-2.37 -3.53)"/><path class="cls-1" d="M415.77,502.26q4,4.35,4,12v22.35H408.13V515.8a8.44,8.44,0,0,0-2-6,7.8,7.8,0,0,0-10.69,0,8.39,8.39,0,0,0-2,6v20.77H381.74V498.32h11.72v5.07a12.38,12.38,0,0,1,4.8-4A15.27,15.27,0,0,1,405,497.9,13.89,13.89,0,0,1,415.77,502.26Z" transform="translate(-2.37 -3.53)"/><path class="cls-1" d="M428,507a16.9,16.9,0,0,1,6.79-6.85,20.29,20.29,0,0,1,10-2.4,18.92,18.92,0,0,1,12,3.77,17.7,17.7,0,0,1,6.34,10.62H450.7a6,6,0,0,0-6.1-4.38,6.14,6.14,0,0,0-5.14,2.5c-1.28,1.67-1.92,4.05-1.92,7.16s.64,5.5,1.92,7.16a6.15,6.15,0,0,0,5.14,2.51,6,6,0,0,0,6.1-4.39h12.47a18,18,0,0,1-6.37,10.56,18.77,18.77,0,0,1-12,3.84,20.29,20.29,0,0,1-10-2.4,16.93,16.93,0,0,1-6.79-6.86A23.56,23.56,0,0,1,428,507Z" transform="translate(-2.37 -3.53)"/><path class="cls-1" d="M470.27,492.52a5.88,5.88,0,0,1-1.95-4.49,6,6,0,0,1,1.95-4.56,7.1,7.1,0,0,1,5-1.81,7,7,0,0,1,5,1.81,6,6,0,0,1,2,4.56,5.88,5.88,0,0,1-2,4.49,7,7,0,0,1-5,1.82A7.11,7.11,0,0,1,470.27,492.52Zm10.86,5.8v38.25H469.41V498.32Z" transform="translate(-2.37 -3.53)"/><path class="cls-1" d="M489.53,507a16.64,16.64,0,0,1,6.07-6.85,15.82,15.82,0,0,1,8.57-2.4,14.78,14.78,0,0,1,7.09,1.64,12.23,12.23,0,0,1,4.7,4.32v-5.41h11.72v38.25H516v-5.42a12.73,12.73,0,0,1-4.77,4.32,14.67,14.67,0,0,1-7.09,1.65,15.57,15.57,0,0,1-8.5-2.44,16.85,16.85,0,0,1-6.07-6.92,23.19,23.19,0,0,1-2.23-10.39A22.93,22.93,0,0,1,489.53,507Zm24,3.5a7.91,7.91,0,0,0-5.93-2.54,8,8,0,0,0-5.93,2.5,9.48,9.48,0,0,0-2.43,6.89,9.71,9.71,0,0,0,2.43,7,8.16,8.16,0,0,0,11.86,0,11,11,0,0,0,0-13.84Z" transform="translate(-2.37 -3.53)"/><rect class="cls-1" x="65" y="729.99" width="513.38" height="85.86" rx="25.6"/><path class="cls-2" d="M264.56,763.58h8.51c4,0,6.37,2,6.37,5.27v0a4.64,4.64,0,0,1-3.71,4.54v.25a5,5,0,0,1,4.77,5.09v0c0,3.71-2.71,6-7.24,6h-8.7Zm3.29,2.69v6.33h3.9c2.91,0,4.42-1.09,4.42-3.14v0c0-2-1.42-3.16-3.86-3.16Zm0,8.84v7h4.75c3,0,4.54-1.22,4.54-3.49v0c0-2.28-1.63-3.45-4.73-3.45Z" transform="translate(-2.37 -3.53)"/><path class="cls-2" d="M284.69,777.47V763.58H288v13.64c0,3.07,1.92,5.15,5.29,5.15s5.29-2.08,5.29-5.15V763.58h3.29v13.89c0,4.65-3.25,7.81-8.58,7.81S284.69,782.12,284.69,777.47Z" transform="translate(-2.37 -3.53)"/><path class="cls-2" d="M306.15,779.29v-.19h3.23v.16c.18,1.92,2.22,3.16,5.05,3.16s4.62-1.35,4.62-3.32v0c0-1.62-1.14-2.68-3.94-3.28l-2.32-.5c-4.3-.91-6.15-2.91-6.15-6h0c0-3.66,3.18-6.18,7.67-6.18s7.43,2.54,7.67,5.83v.2h-3.18l0-.19c-.27-1.73-1.93-3-4.5-3s-4.32,1.16-4.32,3.16h0c0,1.57,1.12,2.6,3.86,3.19l2.31.51c4.45,1,6.27,2.75,6.27,5.89h0c0,4-3.16,6.58-8.09,6.58S306.44,782.86,306.15,779.29Z" transform="translate(-2.37 -3.53)"/><path class="cls-2" d="M325.84,774.2v0c0-6.84,3.65-11.1,9.54-11.1,4.67,0,8.25,2.95,8.81,7.16l0,.08h-3.26v0a5.45,5.45,0,0,0-5.53-4.28c-3.8,0-6.18,3.15-6.18,8.19v0c0,5,2.38,8.17,6.2,8.17,2.8,0,4.9-1.49,5.5-3.89l0-.06h3.26v.09c-.62,4.07-4.07,6.77-8.79,6.77C329.51,785.28,325.84,781,325.84,774.2Z" transform="translate(-2.37 -3.53)"/><path class="cls-2" d="M353.91,763.58h3.55l7.65,21.19h-3.47l-1.9-5.73h-8.11l-1.92,5.73h-3.45Zm-1.4,12.82h6.34l-3.05-9.1h-.25Z" transform="translate(-2.37 -3.53)"/><path class="cls-2" d="M368.78,763.58h8.35c4.35,0,7.05,2.53,7.05,6.46v0a6.09,6.09,0,0,1-4.11,6l4.75,8.66H381l-4.31-8.15h-4.64v8.15h-3.29Zm8,10.37c2.52,0,4-1.38,4-3.79v0c0-2.35-1.55-3.79-4.09-3.79h-4.64V774Z" transform="translate(-2.37 -3.53)"/><path class="cls-1" d="M2.37,655.3v0C2.37,647.12,5.7,642,11.3,642s9,5.09,9,13.23v0c0,8.14-3.37,13.24-9,13.24S2.37,663.44,2.37,655.3Zm14.72,0v0c0-6.46-2.16-10.46-5.79-10.46s-5.76,4-5.76,10.46v0c0,6.45,2.13,10.49,5.76,10.49S17.09,661.75,17.09,655.3Z" transform="translate(-2.37 -3.53)"/><path class="cls-1" d="M25.65,641.52H28.7V657.3H29L37.16,649h3.7l-8.24,8,8.79,11H37.56l-7.08-8.9-1.78,1.72V668H25.65Z" transform="translate(-2.37 -3.53)"/><path class="cls-1" d="M45,649H48v2.88h.28a5.15,5.15,0,0,1,5.1-3.21A5.47,5.47,0,0,1,58.65,652h.28a6.34,6.34,0,0,1,5.79-3.31c3.86,0,6,2.21,6,6.17V668h-3V655.58c0-2.79-1.28-4.18-3.95-4.18a4.26,4.26,0,0,0-4.37,4.39V668h-3V655.1a3.59,3.59,0,0,0-3.93-3.7A4.56,4.56,0,0,0,48,656.23V668H45Z" transform="translate(-2.37 -3.53)"/><path class="cls-1" d="M659.12,646.14h-.28l-6.44,4.66v-3.33l6.74-4.84h3.14V668h-3.16Z" transform="translate(-2.37 -3.53)"/><path class="cls-1" d="M669.46,661.46l0-.2h3l0,.14a5.22,5.22,0,0,0,5.46,4.35,5.49,5.49,0,0,0,5.68-5.82v0a5.49,5.49,0,0,0-5.63-5.77,5.94,5.94,0,0,0-4.21,1.54,6.12,6.12,0,0,0-1.16,1.51h-2.74l1.34-14.54h14.09v2.82h-11.6l-.86,8.56h.28a6.27,6.27,0,0,1,5.4-2.63c4.76,0,8.18,3.56,8.18,8.46v0c0,5.1-3.67,8.66-8.81,8.66C673.19,668.54,669.82,665.51,669.46,661.46Z" transform="translate(-2.37 -3.53)"/><path class="cls-1" d="M692,641.52h3V657.3h.28l8.18-8.27h3.7L699,657l8.79,11h-3.85l-7.08-8.9-1.78,1.72V668h-3Z" transform="translate(-2.37 -3.53)"/><path class="cls-1" d="M711.33,649h3.06v2.88h.28a5.15,5.15,0,0,1,5.1-3.21A5.47,5.47,0,0,1,725,652h.28a6.34,6.34,0,0,1,5.79-3.31c3.86,0,6,2.21,6,6.17V668H734V655.58c0-2.79-1.28-4.18-3.95-4.18a4.26,4.26,0,0,0-4.37,4.39V668h-3.05V655.1a3.59,3.59,0,0,0-3.93-3.7,4.56,4.56,0,0,0-4.35,4.83V668h-3.06Z" transform="translate(-2.37 -3.53)"/><line class="cls-3" x1="254.21" y1="379.08" x2="607.04" y2="379.08"/><line class="cls-3" x1="25.38" y1="614.87" x2="696.13" y2="614.87"/><circle class="cls-1" cx="446.29" cy="615.55" r="16.29"/><rect class="cls-1" x="114.35" y="5.26" width="114.14" height="54.88" rx="15.57"/><path d="M156.89,46.23a8.37,8.37,0,0,1-3.33,3,11.94,11.94,0,0,1-5.2,1.28v3.21h-2.53V50.48A11.72,11.72,0,0,1,139.06,48a7.7,7.7,0,0,1-2.73-5.88h7.2a3.24,3.24,0,0,0,2.3,3V38.89a39.36,39.36,0,0,1-4.93-1.55,8.15,8.15,0,0,1-3.23-2.41,6.92,6.92,0,0,1-1.38-4.55A7.07,7.07,0,0,1,139,24.6a11.85,11.85,0,0,1,6.87-2.46v-3.2h2.53v3.2a11,11,0,0,1,6.57,2.42,8.14,8.14,0,0,1,2.69,5.82h-7.24a3,3,0,0,0-2-2.78v6.14q3.28.91,5.07,1.62a8.19,8.19,0,0,1,3.18,2.36A6.66,6.66,0,0,1,158,42.21,7.58,7.58,0,0,1,156.89,46.23ZM144.06,31.72a5.21,5.21,0,0,0,1.77,1.19v-5.5a3.11,3.11,0,0,0-1.75.85,2.47,2.47,0,0,0-.63,1.8A2.41,2.41,0,0,0,144.06,31.72Zm6.18,12.59a2.64,2.64,0,0,0,.69-1.86,2.28,2.28,0,0,0-.65-1.68,5.27,5.27,0,0,0-1.92-1.13v5.62A3.17,3.17,0,0,0,150.24,44.31Z" transform="translate(-2.37 -3.53)"/><g id="Forward-2" data-name="Forward"><polygon points="175.54 26.4 178.52 23.41 194.14 39.02 209.76 23.41 212.74 26.4 194.14 45 175.54 26.4"/></g></g></g></svg>