<svg xmlns="http://www.w3.org/2000/svg" viewBox="0 0 337.62 312.54"><defs><style>.cls-1{fill:#f4c099;}.cls-2{fill:#e8ffce;}.cls-3{fill:#006e54;}.cls-4{fill:#6d6d6d;}.cls-5{fill:#b9b9b9;}</style></defs><g id="Layer_2" data-name="Layer 2"><g id="Layer_1-2" data-name="Layer 1"><path class="cls-1" d="M115.48,166.11q-6.39,1.56-12.74,3.3l47.74,56.4c-1.34-7.19,4.42-14.06,11.08-17.07s14.19-3.32,21.37-4.76a67.58,67.58,0,0,0,22.15-8.7c6.8-4.17,12.79-9.51,18.75-14.81l53.09-47.28c2.58-2.29,5.36-5,5.39-8.47,0-3.83-3.58-6.92-7.35-7.56s-7.6.58-11.17,2A110.38,110.38,0,0,0,225.86,144c-4,4-8.79,8.74-14.35,7.64a11.32,11.32,0,0,1-6.61-4.68c-4-5.39-4.7-12.66-3.19-19.18s5-12.39,9-17.76c12.47-16.83,29.54-29.68,43.17-45.59,8.73-10.18,16.35-23.7,12.2-36.44-1-2.93-2.84-5.92-5.84-6.62s-5.93,1.09-8.29,3c-18.15,14.9-24.5,43-46.16,52.05-1.89.79-4.2,1.37-5.88.19-2.91-2-1.05-6.58,1.08-9.41a236.86,236.86,0,0,1,40.05-41.54c4.41-3.58,9.37-7.78,9.53-13.47.19-7.26-8-12.24-15.23-12.2C225,.06,215.82,6.77,208.58,14.22c-15,15.47-25.14,35-38.58,51.89C157.65,81.62,142.53,94.82,131,111S111.74,147.58,117,166.7"/><path class="cls-2" d="M123.66,119.23,82.54,72c-1.65-1.89-1.65-1.9.29-3.59l44.64-38.84c1.8-1.56,1.81-1.56,3.34.2l82.58,94.91c1.54,1.77,1.54,1.77-.27,3.34q-22.38,19.49-44.77,39c-1.8,1.56-1.81,1.57-3.35-.2Zm12.87,8.19a10,10,0,0,0,.63.92q14.34,16.49,28.66,33c1.05,1.22,1.67.85,2.64,0q19.47-17,39-33.92c1.27-1.09,1.31-1.75.21-3Q193.48,108.25,179.4,92c-.27-.31-.61-.57-1.08-1C183.83,113.77,161.69,136.41,136.53,127.42Zm22.71-58.61-.9-1q-14-16.1-28-32.18c-1.48-1.71-1.49-1.7-3.2-.22L88.53,69c-1.72,1.51-1.72,1.52-.26,3.2l28,32.19c.32.36.68.68,1.19,1.19C112,79.88,136.92,60.46,159.24,68.81Zm-29.6,9.61a26.92,26.92,0,1,0,36.61,39.49,26.65,26.65,0,0,0,1.23-38.16A26.92,26.92,0,0,0,129.64,78.42Z"/><path class="cls-2" d="M167.62,97.72l-7.06.16-2.56-6c-2.19,1.91-4,3.46-5.79,5.1-.24.22-.16,1,0,1.4.51,1.29,1.18,2.51,1.71,3.79,1.85,4.42,1.22,7.87-2,11.07a10.26,10.26,0,0,1-11.23,2.07,19.8,19.8,0,0,1-4.29-2.56c-1.06-.84-1.78-.82-2.61.13s-1.49,1-2.37-.06-.87-1.68.21-2.37,1.11-1.5.26-2.62c-2.32-3.08-4.11-6.42-4-10.65l8,.1a9,9,0,0,0,2.36,7.23c2-1.72,4-3.37,5.83-5.15.27-.25.09-1.14-.08-1.67a61,61,0,0,1-2.16-6.85c-1-5.35,5.34-10.74,10.83-9.62a27.13,27.13,0,0,1,6.78,2.8c1,.55,1.75,1,2.64-.07s1.56-1.07,2.5,0,.68,1.69-.31,2.35c-1.15.75-1,1.47-.26,2.54C166,91.42,167.56,94.15,167.62,97.72ZM140.75,107c1.69,1.74,3.91,2.14,5.27,1s1.45-3.67,0-5.57Zm14.47-17.17c-1.81-1.71-3.48-1.85-4.85-.54s-1.41,3.13,0,4.78Z"/><path class="cls-3" d="M130,18.59,71.49,69.53l94.25,108.32,58.55-50.93ZM168.35,167c-1.8,1.56-1.81,1.57-3.35-.2l-41.34-47.52L82.54,72c-1.65-1.89-1.65-1.9.29-3.59l44.64-38.84c1.8-1.56,1.81-1.56,3.34.2l82.58,94.91c1.54,1.77,1.54,1.77-.27,3.34Q190.74,147.48,168.35,167Z"/><path class="cls-3" d="M207.67,124.42Q193.48,108.25,179.4,92c-.27-.31-.61-.57-1.08-1,5.51,22.8-16.63,45.44-41.79,36.45a10,10,0,0,0,.63.92q14.34,16.49,28.66,33c1.05,1.22,1.67.85,2.64,0q19.47-17,39-33.92C208.73,126.33,208.77,125.67,207.67,124.42Z"/><path class="cls-3" d="M159.24,68.81l-.9-1q-14-16.1-28-32.18c-1.48-1.71-1.49-1.7-3.2-.22L88.53,69c-1.72,1.51-1.72,1.52-.26,3.2l28,32.19c.32.36.68.68,1.19,1.19C112,79.88,136.92,60.46,159.24,68.81Z"/><path class="cls-3" d="M166.25,117.91a26.65,26.65,0,0,0,1.23-38.16,26.93,26.93,0,1,0-1.23,38.16Zm-25.53-2.61a19.8,19.8,0,0,1-4.29-2.56c-1.06-.84-1.78-.82-2.61.13s-1.49,1-2.37-.06-.87-1.68.21-2.37,1.11-1.5.26-2.62c-2.32-3.08-4.11-6.42-4-10.65l8,.1a9,9,0,0,0,2.36,7.23c2-1.72,4-3.37,5.83-5.15.27-.25.09-1.14-.08-1.67a61,61,0,0,1-2.16-6.85c-1-5.35,5.34-10.74,10.83-9.62a27.13,27.13,0,0,1,6.78,2.8c1,.55,1.75,1,2.64-.07s1.56-1.07,2.5,0,.68,1.69-.31,2.35c-1.15.75-1,1.47-.26,2.54,1.9,2.55,3.5,5.28,3.56,8.85l-7.06.16c-.87-2-1.64-3.85-2.56-6-2.19,1.91-4,3.46-5.79,5.1-.24.22-.16,1,0,1.4.51,1.29,1.18,2.51,1.71,3.79,1.85,4.42,1.22,7.87-2,11.07A10.26,10.26,0,0,1,140.72,115.3Z"/><path class="cls-3" d="M146,102.42,140.75,107c1.69,1.74,3.91,2.14,5.27,1S147.47,104.32,146,102.42Z"/><path class="cls-3" d="M150.37,89.27c-1.38,1.32-1.41,3.13,0,4.78l4.87-4.24C153.41,88.1,151.74,88,150.37,89.27Z"/><path class="cls-2" d="M146.17,93.3q-11.26-29.22-22.55-58.44c-.9-2.35-.9-2.35,1.5-3.28l55.2-21.3c2.23-.86,2.23-.86,3.08,1.33Q206.05,70.29,228.69,129c.84,2.18.84,2.18-1.39,3.05l-55.37,21.36c-2.23.86-2.23.86-3.08-1.33Zm9.32,12.08a10.17,10.17,0,0,0,.27,1.09c5.24,13.59,10.51,27.17,15.71,40.78.57,1.5,1.28,1.37,2.48.9q24.09-9.35,48.22-18.59c1.57-.6,1.83-1.21,1.22-2.76-5.22-13.35-10.36-26.74-15.52-40.11-.15-.39-.38-.75-.68-1.33C204.6,108.67,176.07,122.41,155.49,105.38ZM196.81,58l-.49-1.27Q188.64,36.85,181,16.94c-.81-2.1-.82-2.1-2.93-1.29L130.28,34.07c-2.13.83-2.14.83-1.33,2.92q7.67,19.9,15.36,39.8c.17.45.41.88.71,1.53C148.63,52.33,178.67,42.57,196.81,58ZM165.71,57a26.92,26.92,0,1,0,20.95,49.6A26.92,26.92,0,0,0,165.71,57Z"/><path class="cls-2" d="M194.83,88.06l-6.69-2.26-.36-6.52c-2.71,1-5,1.87-7.18,2.82-.3.13-.48.87-.47,1.32.05,1.38.26,2.76.33,4.15.23,4.78-1.54,7.81-5.64,9.73a10.27,10.27,0,0,1-11.26-1.88,19.53,19.53,0,0,1-3.16-3.87c-.71-1.15-1.4-1.38-2.51-.77s-1.72.41-2.2-.86-.25-1.87,1-2.15c1.42-.32,1.55-1,1.14-2.39-1.13-3.68-1.67-7.43-.1-11.36l7.46,2.82a9,9,0,0,0-.24,7.6c2.45-1,4.88-1.82,7.23-2.86.34-.15.47-1,.5-1.6a61,61,0,0,1,.3-7.17c.92-5.36,8.69-8.28,13.46-5.36a27,27,0,0,1,5.43,5c.79.87,1.31,1.51,2.51.83s1.82-.47,2.33.89.06,1.82-1.1,2.1c-1.33.32-1.48,1-1.1,2.3C195.42,81.57,196,84.68,194.83,88.06Zm-28.41-.45c1,2.21,2.94,3.34,4.6,2.74s2.62-3,1.88-5.24ZM185.88,76.4c-1.12-2.23-2.65-2.93-4.38-2.17s-2.39,2.46-1.64,4.49Z"/><path class="cls-3" d="M186.46.86,114.07,28.79l51.69,134,72.4-27.94ZM171.93,153.39c-2.23.86-2.23.86-3.08-1.33L146.17,93.3q-11.26-29.22-22.55-58.44c-.9-2.35-.9-2.35,1.5-3.28l55.2-21.3c2.23-.86,2.23-.86,3.08,1.33Q206.05,70.29,228.69,129c.84,2.18.84,2.18-1.39,3.05Z"/><path class="cls-3" d="M223.39,126.8c-5.22-13.35-10.36-26.74-15.52-40.11-.15-.39-.38-.75-.68-1.33-2.59,23.31-31.12,37.05-51.7,20a10.17,10.17,0,0,0,.27,1.09c5.24,13.59,10.51,27.17,15.71,40.78.57,1.5,1.28,1.37,2.48.9q24.09-9.35,48.22-18.59C223.74,129,224,128.35,223.39,126.8Z"/><path class="cls-3" d="M196.81,58l-.49-1.27Q188.64,36.85,181,16.94c-.81-2.1-.82-2.1-2.93-1.29L130.28,34.07c-2.13.83-2.14.83-1.33,2.92q7.67,19.9,15.36,39.8c.17.45.41.88.71,1.53C148.63,52.33,178.67,42.57,196.81,58Z"/><path class="cls-3" d="M186.66,106.57A26.92,26.92,0,0,0,165.71,57a26.92,26.92,0,1,0,20.95,49.6Zm-23.1-11.15a19.53,19.53,0,0,1-3.16-3.87c-.71-1.15-1.4-1.38-2.51-.77s-1.72.41-2.2-.86-.25-1.87,1-2.15c1.42-.32,1.55-1,1.14-2.39-1.13-3.68-1.67-7.43-.1-11.36l7.47,2.82a9,9,0,0,0-.25,7.6c2.45-1,4.88-1.82,7.23-2.86.34-.15.47-1,.5-1.6a61,61,0,0,1,.3-7.17c.92-5.36,8.69-8.28,13.46-5.36a27,27,0,0,1,5.43,5c.79.87,1.31,1.51,2.51.83s1.82-.47,2.33.89.06,1.82-1.1,2.1c-1.33.32-1.48,1-1.1,2.3.91,3,1.49,6.16.32,9.54l-6.69-2.26c-.12-2.2-.23-4.17-.36-6.52-2.71,1-5,1.87-7.18,2.82-.3.13-.48.87-.47,1.32.05,1.38.26,2.76.33,4.15.23,4.78-1.54,7.81-5.64,9.73A10.27,10.27,0,0,1,163.56,95.42Z"/><path class="cls-3" d="M172.9,85.11l-6.48,2.5c1,2.21,2.94,3.34,4.6,2.74S173.64,87.39,172.9,85.11Z"/><path class="cls-3" d="M181.5,74.23c-1.75.77-2.39,2.46-1.64,4.49l6-2.32C184.76,74.17,183.23,73.47,181.5,74.23Z"/><path class="cls-2" d="M180.16,73.92q1.8-31.26,3.59-62.54c.14-2.51.15-2.51,2.71-2.36l59.07,3.39c2.39.13,2.39.14,2.26,2.48l-7.2,125.6c-.14,2.33-.15,2.33-2.53,2.2l-59.25-3.4c-2.38-.14-2.39-.14-2.26-2.48Q178.35,105.37,180.16,73.92Zm3.49,14.85a10.23,10.23,0,0,0-.19,1.1c-.84,14.55-1.65,29.1-2.54,43.64-.1,1.59.61,1.77,1.89,1.84q25.8,1.44,51.6,3c1.67.1,2.16-.35,2.24-2,.76-14.32,1.61-28.63,2.43-42.94,0-.42,0-.85-.07-1.49C227,112.05,195.37,112.78,183.65,88.77ZM240.84,62.7c0-.45,0-.91.08-1.36q1.22-21.3,2.44-42.6c.13-2.25.12-2.26-2.14-2.39l-51.08-2.93c-2.28-.13-2.29-.12-2.42,2.1q-1.23,21.3-2.44,42.6c0,.48,0,1,0,1.68C199.31,37.63,230.7,41.13,240.84,62.7ZM213,48.9A26.92,26.92,0,1,0,239.1,76.28,26.93,26.93,0,0,0,213,48.9Z"/><path class="cls-2" d="M226.64,89.24l-5.16-4.82,2.36-6.09c-2.89-.16-5.3-.34-7.7-.39-.33,0-.8.59-1,1-.53,1.28-.91,2.62-1.42,3.91-1.76,4.45-4.63,6.48-9.15,6.53A10.25,10.25,0,0,1,195.12,83a19.25,19.25,0,0,1-1.28-4.83c-.18-1.34-.71-1.83-2-1.73s-1.74-.35-1.65-1.7.55-1.8,1.8-1.54c1.42.29,1.84-.3,2-1.7.5-3.82,1.55-7.46,4.6-10.39l5.64,5.64a9,9,0,0,0-3.36,6.83c2.62.15,5.19.35,7.77.38.37,0,.85-.75,1.11-1.25A61,61,0,0,1,213,66.33c3.05-4.51,11.34-4,14.48.68a27.07,27.07,0,0,1,2.89,6.75c.37,1.11.58,1.92,1.95,1.79s1.85.32,1.76,1.77-.7,1.69-1.87,1.46c-1.35-.26-1.78.32-2,1.64C229.85,83.57,229.1,86.65,226.64,89.24ZM201,77.1c0,2.42,1.3,4.26,3.06,4.4s3.61-1.61,3.87-4Zm22.35-2.18c-.1-2.49-1.2-3.75-3.09-3.77s-3.2,1.25-3.36,3.4Z"/><path class="cls-3" d="M255,6.36,177.55,1.92l-8.22,143.35,77.47,4.45ZM178.81,139.29c-2.38-.14-2.39-.14-2.26-2.48q1.8-31.44,3.61-62.89,1.8-31.26,3.59-62.54c.14-2.51.15-2.51,2.71-2.36l59.07,3.39c2.39.13,2.39.14,2.26,2.48l-7.2,125.6c-.14,2.33-.15,2.33-2.53,2.2Z"/><path class="cls-3" d="M236.65,136.32c.76-14.32,1.61-28.63,2.43-42.94,0-.42,0-.85-.07-1.49-12,20.16-43.64,20.89-55.36-3.12a10.23,10.23,0,0,0-.19,1.1c-.84,14.55-1.65,29.1-2.54,43.64-.1,1.59.61,1.77,1.89,1.84q25.8,1.44,51.6,3C236.08,138.43,236.57,138,236.65,136.32Z"/><path class="cls-3" d="M240.84,62.7l.08-1.36q1.22-21.3,2.44-42.6c.13-2.25.12-2.26-2.14-2.39l-51.08-2.93c-2.28-.13-2.29-.12-2.42,2.1q-1.23,21.3-2.44,42.6c0,.48,0,1,0,1.68C199.31,37.63,230.7,41.13,240.84,62.7Z"/><path class="cls-3" d="M211.56,102.73a26.92,26.92,0,1,0-26.32-27.3A26.67,26.67,0,0,0,211.56,102.73ZM195.12,83a19.25,19.25,0,0,1-1.28-4.83c-.18-1.34-.71-1.83-2-1.73s-1.74-.35-1.65-1.7.55-1.8,1.8-1.54c1.42.29,1.84-.3,2-1.7.5-3.82,1.55-7.46,4.6-10.39l5.64,5.64a9,9,0,0,0-3.36,6.83c2.62.15,5.19.35,7.77.38.37,0,.85-.75,1.11-1.25A61,61,0,0,1,213,66.33c3.05-4.51,11.34-4,14.48.68a27.07,27.07,0,0,1,2.89,6.75c.37,1.11.58,1.92,1.95,1.79s1.85.32,1.76,1.77-.7,1.69-1.87,1.46c-1.35-.26-1.78.32-2,1.64-.43,3.15-1.18,6.23-3.64,8.82l-5.16-4.82,2.36-6.09c-2.89-.16-5.3-.34-7.7-.39-.33,0-.8.59-1,1-.53,1.28-.91,2.62-1.42,3.91-1.76,4.45-4.63,6.48-9.15,6.53A10.25,10.25,0,0,1,195.12,83Z"/><path class="cls-3" d="M207.88,77.5,201,77.1c0,2.42,1.3,4.26,3.06,4.4S207.62,79.89,207.88,77.5Z"/><path class="cls-3" d="M220.21,71.15c-1.91,0-3.2,1.25-3.36,3.4l6.45.37C223.2,72.43,222.1,71.17,220.21,71.15Z"/><path class="cls-2" d="M236.82,76.67,280.1,31.39c1.74-1.82,1.75-1.82,3.6-.05l42.78,40.89c1.73,1.65,1.73,1.65.11,3.35l-86.92,91c-1.62,1.69-1.63,1.69-3.35,0q-21.47-20.49-42.91-41c-1.72-1.65-1.72-1.66-.1-3.35Zm-7,13.57c-.37.31-.64.49-.86.71q-15.11,15.8-30.22,31.58c-1.11,1.15-.69,1.74.24,2.62q18.72,17.83,37.35,35.73c1.21,1.16,1.87,1.13,3-.07q14.79-15.62,29.69-31.13c.28-.3.51-.66.91-1.17C247.79,136.09,223.21,116.12,229.85,90.24Zm60.45,17.23.94-1,29.48-30.85c1.56-1.64,1.55-1.65-.08-3.21l-37-35.35c-1.65-1.58-1.66-1.58-3.21,0Q265.7,52.53,251,68c-.34.35-.62.74-1.08,1.29C274.93,61.45,296.56,84.48,290.3,107.47ZM278,78.88a26.92,26.92,0,1,0,2.16,37.81A26.93,26.93,0,0,0,278,78.88Z"/><path class="cls-2" d="M262.28,118.47c-.3-2.58-.56-4.92-.81-7l5.75-3.1c-2.1-2-3.81-3.7-5.61-5.29-.24-.22-1-.07-1.39.14-1.23.63-2.39,1.4-3.62,2-4.23,2.25-7.72,1.94-11.2-1a10.27,10.27,0,0,1-3.1-11,19.83,19.83,0,0,1,2.16-4.5c.74-1.13.65-1.86-.37-2.59s-1.1-1.39-.16-2.37,1.59-1,2.38,0,1.59,1,2.64,0c2.85-2.59,6-4.68,10.23-4.93.21,2.63.41,5.19.64,8a9,9,0,0,0-7,3c1.9,1.82,3.73,3.64,5.67,5.33.28.24,1.14,0,1.66-.23a60.14,60.14,0,0,1,6.61-2.78c5.25-1.46,11.2,4.33,10.58,9.9a27,27,0,0,1-2.17,7c-.44,1.09-.81,1.84.32,2.63s1.2,1.44.19,2.49-1.62.83-2.37-.1-1.56-.91-2.55,0C268.4,116.24,265.83,118.09,262.28,118.47Zm-11.69-25.9c-1.58,1.84-1.77,4.09-.52,5.34s3.79,1.1,5.54-.54ZM269,105.4c1.53-2,1.52-3.63.09-4.88s-3.24-1.12-4.76.42Z"/><path class="cls-3" d="M337.62,73.78l-56.1-53.62L182.31,124l56.1,53.61ZM193.41,125.56c-1.72-1.65-1.72-1.66-.1-3.35l43.51-45.54L280.1,31.39c1.74-1.82,1.75-1.82,3.6-.05l42.78,40.89c1.73,1.65,1.73,1.65.11,3.35l-86.92,91c-1.62,1.69-1.63,1.69-3.35,0Q214.86,146.07,193.41,125.56Z"/><path class="cls-3" d="M239.38,160.81q14.79-15.62,29.69-31.13c.28-.3.51-.66.91-1.17-22.19,7.58-46.77-12.39-40.13-38.27-.37.31-.64.49-.86.71q-15.11,15.8-30.22,31.58c-1.11,1.15-.69,1.74.24,2.62q18.72,17.83,37.35,35.73C237.57,162,238.23,162,239.38,160.81Z"/><path class="cls-3" d="M290.3,107.47l.94-1,29.48-30.85c1.56-1.64,1.55-1.65-.08-3.21l-37-35.35c-1.65-1.58-1.66-1.58-3.21,0Q265.7,52.53,251,68c-.34.35-.62.74-1.08,1.29C274.93,61.45,296.56,84.48,290.3,107.47Z"/><path class="cls-3" d="M242.05,119a26.92,26.92,0,1,0-2.33-37.85A26.68,26.68,0,0,0,242.05,119Zm.25-25.66a19.83,19.83,0,0,1,2.16-4.5c.74-1.13.65-1.86-.37-2.59s-1.1-1.39-.16-2.37,1.59-1,2.38,0,1.59,1,2.64,0c2.85-2.59,6-4.68,10.23-4.93.21,2.63.41,5.19.64,8a9,9,0,0,0-7,3c1.9,1.82,3.73,3.64,5.67,5.33.28.25,1.14,0,1.66-.23a60.14,60.14,0,0,1,6.61-2.78c5.25-1.46,11.2,4.33,10.58,9.9a27,27,0,0,1-2.17,7c-.44,1.09-.81,1.84.32,2.63s1.2,1.44.19,2.49-1.62.83-2.37-.1-1.56-.91-2.55,0c-2.37,2.12-4.94,4-8.49,4.35-.3-2.58-.56-4.92-.81-7,1.95-1,3.68-2,5.75-3.1-2.1-2-3.81-3.7-5.61-5.29-.24-.22-1-.07-1.39.14-1.23.63-2.39,1.4-3.62,2-4.23,2.25-7.72,1.94-11.2-1A10.27,10.27,0,0,1,242.3,93.3Z"/><path class="cls-3" d="M255.61,97.37l-5-4.8c-1.58,1.84-1.77,4.09-.52,5.34S253.86,99,255.61,97.37Z"/><path class="cls-3" d="M269.11,100.52c-1.44-1.25-3.24-1.12-4.76.42L269,105.4C270.55,103.44,270.54,101.77,269.11,100.52Z"/><path class="cls-1" d="M209.07,157.74a37.49,37.49,0,0,0,1.4,4.4c.61,1.54,1.17,3.1,1.8,4.63,1.26,3.07,2.7,6.07,4.25,9,1.33,2.52,2.74,5,4.19,7.45,1-.91,2.08-1.84,3.12-2.76l53.09-47.28c2.58-2.29,5.36-5,5.39-8.47,0-3.83-3.58-6.92-7.35-7.56s-7.6.58-11.17,2A110.38,110.38,0,0,0,225.86,144c-4,4-8.79,8.74-14.35,7.64a9.76,9.76,0,0,1-4.6-2.44C207.75,152,208.32,154.89,209.07,157.74Z"/><rect class="cls-4" x="-3.52" y="211.75" width="126.02" height="36.42" transform="translate(-136.34 95.53) rotate(-41.03)"/><rect class="cls-5" x="20.39" y="239.23" width="126.02" height="36.42" transform="translate(-148.5 117.97) rotate(-41.03)"/></g></g></svg>