<svg xmlns="http://www.w3.org/2000/svg" viewBox="0 0 392.03 190.92"><defs><style>.cls-1{fill:#f4c099;}.cls-2{fill:#6d6d6d;}.cls-3{fill:#b9b9b9;}.cls-4{fill:#1a1a1a;}.cls-5{fill:#ecd245;}.cls-6{fill:#ecad2f;}</style></defs><g id="Layer_2" data-name="Layer 2"><g id="Layer_1-2" data-name="Layer 1"><path class="cls-1" d="M.52,92C2,87.32,6.09,84.34,11.36,84.33q27.47,0,54.94,0h0q27.78,0,55.56,0c1.56,0,3.16-.26,3.5-1.86a5.9,5.9,0,0,0-.78-3.74,43.53,43.53,0,0,0-3.21-4.29C112.6,62.34,107.32,49.07,108,33.88a46,46,0,0,1,5-19.77A13,13,0,0,1,122,7c6-1.33,9.88,1.83,10.3,8a90,90,0,0,0,1.85,14.28c2.31,10,7.35,18.68,13.9,26.43C154.28,63,161.07,70,167.21,77.51a43.32,43.32,0,0,0,19.63,13.83,2.68,2.68,0,0,1,1.35.86h26.35v85H188.16v-.26a1.88,1.88,0,0,1-.61.64c-3.8,2.17-7.76,4.09-11.48,6.41-5,3.11-10.15,5.69-16,6.27-5.45.53-11,.65-16.45.68-10.3.05-20.61-.11-30.91-.13-11.77,0-23.54,0-35.31,0a10.93,10.93,0,1,1,0-21.86c1.1,0,2.2,0,3.3,0,2.31-.13,3.63-1.29,3.64-3.11s-1.37-3.11-3.77-3.12c-4.68,0-9.36,0-14,0-6.65,0-11.51-4.62-11.58-10.88s4.76-11,11.57-11c3.37,0,6.75,0,10.12-.06a3.06,3.06,0,0,0,3.3-3.18c0-1.73-1.25-2.87-3.26-3-.62,0-1.24,0-1.86,0-5.85,0-11.7.06-17.55,0-6.33-.11-10.49-4.08-10.84-10.14a10.93,10.93,0,0,1,9.68-11.65,61.67,61.67,0,0,1,7.2-.16c3.16,0,6.34.18,9.48-.07a5,5,0,0,0,3.28-1.91c.43-.65,0-2.35-.65-3.12a4.16,4.16,0,0,0-2.9-1c-7.57-.08-15.15,0-22.72,0-12.94,0-25.89.07-38.83,0A10.84,10.84,0,0,1,.52,92Z"/><rect class="cls-2" x="219.23" y="132.75" width="172.8" height="42.68"/><rect class="cls-3" x="219.23" y="90.07" width="172.8" height="42.68"/><path class="cls-4" d="M332,105.35a5.85,5.85,0,0,1-5.19,4.86c-1.21.2-1.21.2-1.21,1.42,0,.79,0,.79-.8.79-1.21,0-1.09.14-1.1-1.08,0-1,.15-1-.93-1.15a12.45,12.45,0,0,1-5.82-2.74c-.26-.22-.26-.36,0-.6.51-.57,1-1.15,1.47-1.75.28-.36.51-.36.86-.08a9.64,9.64,0,0,0,3.85,2c.59.14.61.12.61-.49v-2.14c0-.73,0-1.45,0-2.18a.58.58,0,0,0-.53-.68,12.56,12.56,0,0,1-3.75-1.55,4.12,4.12,0,0,1-1.87-3c-.66-3.9,2-6.44,5.43-6.84.68-.08.71-.09.71-.78s0-.71.72-.72h.15c1,0,1,0,1,1,0,.36.15.47.5.52A11.93,11.93,0,0,1,331.15,92c.22.14.37.28.17.55-.49.67-1,1.34-1.44,2-.21.3-.38.28-.65.1a9,9,0,0,0-3.14-1.31c-.38-.08-.52,0-.51.41,0,1.44,0,2.88,0,4.32,0,.4.21.51.53.6a13.69,13.69,0,0,1,3.63,1.44A4.94,4.94,0,0,1,332,105.35Z"/><path class="cls-5" d="M324.23,79.62a20.91,20.91,0,1,0,21,20.79A20.94,20.94,0,0,0,324.23,79.62ZM332,105.35a5.85,5.85,0,0,1-5.19,4.86c-1.21.2-1.21.2-1.21,1.42,0,.79,0,.79-.8.79-1.21,0-1.09.14-1.1-1.08,0-1,.15-1-.93-1.15a12.45,12.45,0,0,1-5.82-2.74c-.26-.22-.26-.36,0-.6.51-.57,1-1.15,1.47-1.75.28-.36.51-.36.86-.08a9.64,9.64,0,0,0,3.85,2c.59.14.61.12.61-.49v-2.14c0-.73,0-1.45,0-2.18a.58.58,0,0,0-.53-.68,12.56,12.56,0,0,1-3.75-1.55,4.12,4.12,0,0,1-1.87-3c-.66-3.9,2-6.44,5.43-6.84.68-.08.71-.09.71-.78s0-.71.72-.72h.15c1,0,1,0,1,1,0,.36.15.47.5.52A11.93,11.93,0,0,1,331.15,92c.22.14.37.28.17.55-.49.67-1,1.34-1.44,2-.21.3-.38.28-.65.1a9,9,0,0,0-3.14-1.31c-.38-.08-.52,0-.51.41,0,1.44,0,2.88,0,4.32,0,.4.21.51.53.6a13.69,13.69,0,0,1,3.63,1.44A4.94,4.94,0,0,1,332,105.35Z"/><path class="cls-5" d="M327.62,103.32c-.43-.23-.9-.4-1.36-.6s-.46,0-.45.31c0,.7,0,1.39,0,2.09s0,1.38,0,2.08c0,.29.08.43.4.37a4,4,0,0,0,1.23-.4,2.16,2.16,0,0,0,1.25-2A1.94,1.94,0,0,0,327.62,103.32Z"/><path class="cls-5" d="M323.91,94c0-.3-.13-.42-.43-.36a3.69,3.69,0,0,0-1,.35,2.13,2.13,0,0,0-1.21,1.86,2,2,0,0,0,1.12,2c.34.19.72.31,1.09.47s.47.05.46-.31V94Z"/><path class="cls-6" d="M324.33,77a23.55,23.55,0,1,0,23.55,23.55A23.55,23.55,0,0,0,324.33,77Zm0,44.44a20.86,20.86,0,1,1,20.91-21A20.77,20.77,0,0,1,324.32,121.42Z"/><rect class="cls-5" x="324.57" y="121.72" width="0.29" height="1.37" transform="translate(-2.08 5.68) rotate(-1)"/><rect class="cls-5" x="321.74" y="122.18" width="1.37" height="0.29" transform="translate(172.39 432.82) rotate(-84.99)"/><rect class="cls-5" x="319.48" y="121.86" width="1.37" height="0.29" transform="translate(139.28 412.98) rotate(-78.99)"/><rect class="cls-5" x="317.26" y="121.3" width="1.37" height="0.29" transform="translate(108.81 389.96) rotate(-72.99)"/><rect class="cls-5" x="315.1" y="120.52" width="1.37" height="0.29" transform="translate(81.34 364.21) rotate(-67)"/><rect class="cls-5" x="313.05" y="119.52" width="1.37" height="0.29" transform="translate(56.95 336.02) rotate(-60.99)"/><rect class="cls-5" x="311.1" y="118.3" width="1.37" height="0.29" transform="translate(35.9 305.86) rotate(-54.99)"/><rect class="cls-5" x="309.3" y="116.89" width="1.37" height="0.29" transform="translate(18.26 274.15) rotate(-48.99)"/><rect class="cls-5" x="307.65" y="115.3" width="1.37" height="0.29" transform="translate(4.08 241.25) rotate(-42.99)"/><rect class="cls-5" x="306.18" y="113.55" width="1.37" height="0.29" transform="translate(-6.64 207.53) rotate(-36.99)"/><rect class="cls-5" x="304.9" y="111.65" width="1.37" height="0.29" transform="translate(-13.94 173.31) rotate(-30.99)"/><rect class="cls-5" x="303.83" y="109.63" width="1.37" height="0.29" transform="translate(-17.86 138.98) rotate(-25)"/><rect class="cls-5" x="302.97" y="107.51" width="1.37" height="0.29" transform="translate(-18.5 104.71) rotate(-19)"/><rect class="cls-5" x="302.34" y="105.3" width="1.37" height="0.29" transform="translate(-15.95 70.82) rotate(-12.99)"/><rect class="cls-5" x="301.94" y="103.05" width="1.37" height="0.29" transform="translate(-10.32 37.63) rotate(-7)"/><rect class="cls-5" x="301.78" y="100.77" width="1.37" height="0.29" transform="matrix(1, -0.02, 0.02, 1, -1.7, 5.26)"/><rect class="cls-5" x="302.4" y="97.94" width="0.29" height="1.37" transform="translate(177.91 391.41) rotate(-85)"/><rect class="cls-5" x="302.72" y="95.67" width="0.29" height="1.37" transform="translate(150.49 375.27) rotate(-79)"/><rect class="cls-5" x="303.27" y="93.45" width="0.29" height="1.37" transform="translate(124.67 356.76) rotate(-73)"/><rect class="cls-5" x="304.06" y="91.3" width="0.29" height="1.37" transform="translate(100.66 336.05) rotate(-67)"/><rect class="cls-5" x="305.06" y="89.24" width="0.29" height="1.37" transform="translate(78.58 313.26) rotate(-61)"/><rect class="cls-5" x="306.27" y="87.3" width="0.29" height="1.37" transform="translate(58.58 288.51) rotate(-55)"/><rect class="cls-5" x="307.68" y="85.49" width="0.29" height="1.37" transform="translate(40.83 261.95) rotate(-49)"/><rect class="cls-5" x="309.27" y="83.85" width="0.29" height="1.37" transform="translate(25.47 233.72) rotate(-43)"/><rect class="cls-5" x="311.03" y="82.38" width="0.29" height="1.37" transform="translate(12.67 203.98) rotate(-37)"/><rect class="cls-5" x="312.92" y="81.1" width="0.29" height="1.37" transform="translate(2.6 172.92) rotate(-31)"/><rect class="cls-5" x="314.95" y="80.02" width="0.29" height="1.37" transform="translate(-4.59 140.71) rotate(-25)"/><rect class="cls-5" x="317.07" y="79.16" width="0.29" height="1.37" transform="translate(-8.71 107.62) rotate(-19)"/><rect class="cls-5" x="319.27" y="78.53" width="0.29" height="1.37" transform="translate(-9.63 73.88) rotate(-13)"/><rect class="cls-5" x="321.52" y="78.13" width="0.29" height="1.37" transform="translate(-7.21 39.78) rotate(-7)"/><rect class="cls-5" x="323.81" y="77.98" width="0.29" height="1.37" transform="translate(-1.32 5.66) rotate(-1)"/><rect class="cls-5" x="325.56" y="78.59" width="1.37" height="0.29" transform="translate(219.29 396.85) rotate(-84.99)"/><rect class="cls-5" x="327.83" y="78.91" width="1.37" height="0.29" transform="translate(188.19 386.43) rotate(-78.99)"/><rect class="cls-5" x="330.05" y="79.47" width="1.37" height="0.29" transform="translate(157.87 372.59) rotate(-72.99)"/><rect class="cls-5" x="332.2" y="80.25" width="1.37" height="0.29" transform="translate(128.83 355.41) rotate(-67)"/><rect class="cls-5" x="334.26" y="81.25" width="1.37" height="0.29" transform="translate(101.34 334.86) rotate(-60.99)"/><rect class="cls-5" x="336.2" y="82.47" width="1.37" height="0.29" transform="translate(75.95 311.14) rotate(-54.99)"/><rect class="cls-5" x="338" y="83.88" width="1.37" height="0.29" transform="translate(53.04 284.45) rotate(-48.99)"/><rect class="cls-5" x="339.65" y="85.47" width="1.37" height="0.29" transform="translate(33.02 255.06) rotate(-42.99)"/><rect class="cls-5" x="341.12" y="87.22" width="1.37" height="0.29" transform="translate(16.23 223.25) rotate(-36.99)"/><rect class="cls-5" x="342.4" y="89.12" width="1.37" height="0.29" transform="translate(3 189.36) rotate(-30.99)"/><rect class="cls-5" x="343.48" y="91.14" width="1.37" height="0.29" transform="translate(-6.33 154.01) rotate(-25)"/><rect class="cls-5" x="344.33" y="93.26" width="1.37" height="0.29" transform="translate(-11.61 117.4) rotate(-19)"/><rect class="cls-5" x="344.96" y="95.46" width="1.37" height="0.29" transform="translate(-12.65 80.15) rotate(-12.99)"/><rect class="cls-5" x="345.36" y="97.72" width="1.37" height="0.29" transform="translate(-9.34 42.88) rotate(-7)"/><rect class="cls-5" x="345.52" y="100" width="1.37" height="0.29" transform="translate(-1.68 6.02) rotate(-0.99)"/><rect class="cls-5" x="345.98" y="101.75" width="0.29" height="1.37" transform="translate(213.91 438.31) rotate(-85)"/><rect class="cls-5" x="345.66" y="104.02" width="0.29" height="1.37" transform="matrix(0.19, -0.98, 0.98, 0.19, 177.04, 424.18)"/><rect class="cls-5" x="345.11" y="106.24" width="0.29" height="1.37" transform="matrix(0.29, -0.96, 0.96, 0.29, 142.04, 405.82)"/><rect class="cls-5" x="344.32" y="108.39" width="0.29" height="1.37" transform="translate(109.46 383.53) rotate(-67)"/><rect class="cls-5" x="343.32" y="110.45" width="0.29" height="1.37" transform="translate(79.74 357.65) rotate(-61)"/><rect class="cls-5" x="342.11" y="112.39" width="0.29" height="1.37" transform="translate(53.31 328.56) rotate(-55)"/><rect class="cls-5" x="340.7" y="114.2" width="0.29" height="1.37" transform="translate(30.53 296.74) rotate(-49)"/><rect class="cls-5" x="339.11" y="115.84" width="0.29" height="1.37" transform="translate(11.67 262.67) rotate(-43)"/><rect class="cls-5" x="337.35" y="117.31" width="0.29" height="1.37" transform="translate(-3.06 226.86) rotate(-37)"/><rect class="cls-5" x="335.46" y="118.6" width="0.29" height="1.37" transform="translate(-13.5 189.88) rotate(-31)"/><rect class="cls-5" x="333.43" y="119.67" width="0.29" height="1.37" transform="translate(-19.61 152.24) rotate(-25)"/><rect class="cls-5" x="331.31" y="120.53" width="0.29" height="1.37" transform="matrix(0.95, -0.33, 0.33, 0.95, -21.4, 114.5)"/><rect class="cls-5" x="329.11" y="121.16" width="0.29" height="1.37" transform="translate(-18.97 77.18) rotate(-13)"/><rect class="cls-5" x="326.86" y="121.56" width="0.29" height="1.37" transform="translate(-12.46 40.75) rotate(-7)"/><path class="cls-4" d="M271.19,93.31A5.86,5.86,0,0,1,266,98.18c-1.21.19-1.21.19-1.21,1.41,0,.79,0,.79-.8.79-1.21,0-1.09.15-1.1-1.08,0-1,.15-1-.93-1.15a12.45,12.45,0,0,1-5.82-2.74c-.26-.21-.26-.36,0-.6.5-.57,1-1.15,1.47-1.74.28-.36.51-.37.86-.09a9.4,9.4,0,0,0,3.85,2c.59.15.61.13.61-.49V92.35c0-.73,0-1.46,0-2.19a.58.58,0,0,0-.53-.68,12.56,12.56,0,0,1-3.75-1.55,4.12,4.12,0,0,1-1.87-3c-.66-3.9,2.05-6.43,5.43-6.84.68-.08.71-.08.71-.78s0-.71.72-.71h.15c1,0,1,0,1,1,0,.35.15.47.5.51A11.94,11.94,0,0,1,270.36,80c.22.14.37.27.17.55-.49.66-1,1.33-1.44,2-.21.29-.38.27-.65.09a9.15,9.15,0,0,0-3.14-1.31c-.38-.08-.52,0-.51.41,0,1.45,0,2.89,0,4.33,0,.39.21.51.53.59a14,14,0,0,1,3.63,1.44A5,5,0,0,1,271.19,93.31Z"/><path class="cls-5" d="M263.44,67.58a20.91,20.91,0,1,0,21,20.79A20.94,20.94,0,0,0,263.44,67.58Zm7.75,25.73A5.86,5.86,0,0,1,266,98.18c-1.21.19-1.21.19-1.21,1.41,0,.79,0,.79-.8.79-1.21,0-1.09.15-1.1-1.08,0-1,.15-1-.93-1.15a12.45,12.45,0,0,1-5.82-2.74c-.26-.21-.26-.36,0-.6.5-.57,1-1.15,1.47-1.74.28-.36.51-.37.86-.09a9.4,9.4,0,0,0,3.85,2c.59.15.61.13.61-.49V92.35c0-.73,0-1.46,0-2.19a.58.58,0,0,0-.53-.68,12.56,12.56,0,0,1-3.75-1.55,4.12,4.12,0,0,1-1.87-3c-.66-3.9,2.05-6.43,5.43-6.84.68-.08.71-.08.71-.78s0-.71.72-.71h.15c1,0,1,0,1,1,0,.35.15.47.5.51A11.94,11.94,0,0,1,270.36,80c.22.14.37.27.17.55-.49.66-1,1.33-1.44,2-.21.29-.38.27-.65.09a9.15,9.15,0,0,0-3.14-1.31c-.38-.08-.52,0-.51.41,0,1.45,0,2.89,0,4.33,0,.39.21.51.53.59a14,14,0,0,1,3.63,1.44A5,5,0,0,1,271.19,93.31Z"/><path class="cls-5" d="M266.83,91.28c-.44-.23-.9-.4-1.36-.6s-.46,0-.45.31c0,.7,0,1.39,0,2.09s0,1.39,0,2.08c0,.3.08.44.4.37a4,4,0,0,0,1.23-.39,2.18,2.18,0,0,0,1.25-2A1.94,1.94,0,0,0,266.83,91.28Z"/><path class="cls-5" d="M263.12,82c0-.3-.13-.42-.43-.35a3.39,3.39,0,0,0-1,.35,2.12,2.12,0,0,0-1.21,1.86,2,2,0,0,0,1.12,2,9.67,9.67,0,0,0,1.09.47c.31.14.47,0,.46-.3V82Z"/><path class="cls-6" d="M263.54,64.94a23.55,23.55,0,1,0,23.55,23.55A23.55,23.55,0,0,0,263.54,64.94Zm0,44.45a20.86,20.86,0,1,1,20.91-21A20.78,20.78,0,0,1,263.53,109.39Z"/><rect class="cls-5" x="263.78" y="109.68" width="0.29" height="1.37" transform="translate(-1.88 4.62) rotate(-1)"/><rect class="cls-5" x="260.95" y="110.14" width="1.37" height="0.29" transform="translate(128.91 361.28) rotate(-84.99)"/><rect class="cls-5" x="258.69" y="109.82" width="1.37" height="0.29" transform="translate(101.91 343.57) rotate(-78.99)"/><rect class="cls-5" x="256.46" y="109.27" width="1.37" height="0.29" transform="matrix(0.29, -0.96, 0.96, 0.29, 77.31, 323.31)"/><rect class="cls-5" x="254.31" y="108.48" width="1.37" height="0.29" transform="translate(55.38 300.92) rotate(-67)"/><rect class="cls-5" x="252.26" y="107.48" width="1.37" height="0.29" transform="translate(36.17 276.65) rotate(-60.99)"/><rect class="cls-5" x="250.31" y="106.27" width="1.37" height="0.29" transform="translate(19.84 250.94) rotate(-54.99)"/><rect class="cls-5" x="248.51" y="104.86" width="1.37" height="0.29" transform="translate(6.44 224.14) rotate(-48.99)"/><rect class="cls-5" x="246.86" y="103.26" width="1.37" height="0.29" transform="translate(-4.04 196.57) rotate(-42.99)"/><rect class="cls-5" x="245.39" y="101.51" width="1.37" height="0.29" transform="translate(-11.64 168.53) rotate(-36.99)"/><rect class="cls-5" x="244.11" y="99.61" width="1.37" height="0.29" transform="translate(-16.42 140.29) rotate(-30.99)"/><rect class="cls-5" x="243.04" y="97.59" width="1.37" height="0.29" transform="translate(-18.47 112.16) rotate(-25)"/><rect class="cls-5" x="242.18" y="95.47" width="1.37" height="0.29" transform="translate(-17.9 84.26) rotate(-19)"/><rect class="cls-5" x="241.55" y="93.27" width="1.37" height="0.29" transform="translate(-14.8 56.85) rotate(-12.99)"/><rect class="cls-5" x="241.15" y="91.01" width="1.37" height="0.29" transform="translate(-9.3 30.14) rotate(-7)"/><rect class="cls-5" x="240.99" y="88.73" width="1.37" height="0.29" transform="translate(-1.5 4.2) rotate(-0.99)"/><rect class="cls-5" x="241.61" y="85.9" width="0.29" height="1.37" transform="translate(134.42 319.87) rotate(-85)"/><rect class="cls-5" x="241.93" y="83.63" width="0.29" height="1.37" transform="translate(113.11 305.85) rotate(-79)"/><rect class="cls-5" x="242.48" y="81.41" width="0.29" height="1.37" transform="translate(93.17 290.11) rotate(-73)"/><rect class="cls-5" x="243.26" y="79.26" width="0.29" height="1.37" transform="translate(74.7 272.76) rotate(-67)"/><rect class="cls-5" x="244.27" y="77.2" width="0.29" height="1.37" transform="translate(57.79 253.89) rotate(-61)"/><rect class="cls-5" x="245.48" y="75.26" width="0.29" height="1.37" transform="translate(42.52 233.58) rotate(-55)"/><rect class="cls-5" x="246.89" y="73.46" width="0.29" height="1.37" transform="translate(29.01 211.94) rotate(-49)"/><rect class="cls-5" x="248.48" y="71.81" width="0.29" height="1.37" transform="translate(17.35 189.03) rotate(-43)"/><rect class="cls-5" x="250.24" y="70.34" width="0.29" height="1.37" transform="translate(7.67 164.98) rotate(-37)"/><rect class="cls-5" x="252.13" y="69.06" width="0.29" height="1.37" transform="translate(0.11 139.89) rotate(-31)"/><rect class="cls-5" x="254.16" y="67.98" width="0.29" height="1.37" transform="translate(-5.2 113.9) rotate(-25)"/><rect class="cls-5" x="256.28" y="67.13" width="0.29" height="1.37" transform="translate(-8.11 87.17) rotate(-19)"/><rect class="cls-5" x="258.48" y="66.5" width="0.29" height="1.37" transform="translate(-8.48 59.9) rotate(-13)"/><rect class="cls-5" x="260.73" y="66.1" width="0.29" height="1.37" transform="translate(-6.19 32.28) rotate(-7)"/><rect class="cls-5" x="263.02" y="65.94" width="0.29" height="1.37" transform="translate(-1.12 4.6) rotate(-1)"/><rect class="cls-5" x="264.77" y="66.56" width="1.37" height="0.29" transform="translate(175.8 325.31) rotate(-84.99)"/><rect class="cls-5" x="267.03" y="66.88" width="1.37" height="0.29" transform="translate(150.82 317.02) rotate(-78.99)"/><rect class="cls-5" x="269.26" y="67.43" width="1.37" height="0.29" transform="translate(126.37 305.95) rotate(-72.99)"/><rect class="cls-5" x="271.41" y="68.21" width="1.37" height="0.29" transform="translate(102.87 292.12) rotate(-67)"/><rect class="cls-5" x="273.47" y="69.22" width="1.37" height="0.29" transform="translate(80.55 275.49) rotate(-60.99)"/><rect class="cls-5" x="275.41" y="70.43" width="1.37" height="0.29" transform="translate(59.89 256.22) rotate(-54.99)"/><rect class="cls-5" x="277.21" y="71.84" width="1.37" height="0.29" transform="translate(41.22 234.44) rotate(-48.99)"/><rect class="cls-5" x="278.86" y="73.43" width="1.37" height="0.29" transform="translate(24.9 210.37) rotate(-42.99)"/><rect class="cls-5" x="280.33" y="75.18" width="1.37" height="0.29" transform="translate(11.24 184.25) rotate(-36.99)"/><rect class="cls-5" x="281.61" y="77.08" width="1.37" height="0.29" transform="matrix(0.86, -0.51, 0.51, 0.86, 0.53, 156.35)"/><rect class="cls-5" x="282.68" y="79.1" width="1.37" height="0.29" transform="translate(-6.94 127.19) rotate(-25)"/><rect class="cls-5" x="283.54" y="81.23" width="1.37" height="0.29" transform="translate(-11.01 96.95) rotate(-19)"/><rect class="cls-5" x="284.17" y="83.43" width="1.37" height="0.29" transform="translate(-11.5 66.18) rotate(-12.99)"/><rect class="cls-5" x="284.57" y="85.68" width="1.37" height="0.29" transform="translate(-8.33 35.39) rotate(-7)"/><rect class="cls-5" x="284.73" y="87.97" width="1.37" height="0.29" transform="translate(-1.48 4.96) rotate(-0.99)"/><rect class="cls-5" x="285.19" y="89.72" width="0.29" height="1.37" transform="translate(170.41 366.77) rotate(-85)"/><rect class="cls-5" x="284.87" y="91.98" width="0.29" height="1.37" transform="translate(139.67 354.76) rotate(-79)"/><rect class="cls-5" x="284.32" y="94.2" width="0.29" height="1.37" transform="translate(110.54 339.17) rotate(-73)"/><rect class="cls-5" x="283.53" y="96.36" width="0.29" height="1.37" transform="translate(83.5 320.24) rotate(-67)"/><rect class="cls-5" x="282.53" y="98.41" width="0.29" height="1.37" transform="translate(58.95 298.28) rotate(-61)"/><rect class="cls-5" x="281.32" y="100.36" width="0.29" height="1.37" transform="translate(37.25 273.63) rotate(-55)"/><rect class="cls-5" x="279.91" y="102.16" width="0.29" height="1.37" transform="translate(18.7 246.72) rotate(-49)"/><rect class="cls-5" x="278.32" y="103.81" width="0.29" height="1.37" transform="translate(3.55 217.98) rotate(-43)"/><rect class="cls-5" x="276.56" y="105.28" width="0.29" height="1.37" transform="translate(-8.05 187.85) rotate(-37)"/><rect class="cls-5" x="274.66" y="106.56" width="0.29" height="1.37" transform="translate(-15.98 156.85) rotate(-31)"/><rect class="cls-5" x="272.64" y="107.63" width="0.29" height="1.37" transform="translate(-20.22 125.42) rotate(-25)"/><rect class="cls-5" x="270.52" y="108.49" width="0.29" height="1.37" transform="translate(-20.8 94.06) rotate(-19)"/><rect class="cls-5" x="268.32" y="109.12" width="0.29" height="1.37" transform="translate(-17.82 63.2) rotate(-13)"/><rect class="cls-5" x="266.06" y="109.52" width="0.29" height="1.37" transform="translate(-11.44 33.26) rotate(-7)"/><path class="cls-4" d="M294.74,64.23c-.3,2.65-2.57,4.44-5.19,4.87-1.21.19-1.21.19-1.21,1.41,0,.79,0,.79-.8.79-1.21,0-1.09.15-1.1-1.08,0-1,.15-1-.93-1.15a12.45,12.45,0,0,1-5.82-2.74c-.26-.22-.26-.36,0-.6.51-.57,1-1.15,1.47-1.75.28-.35.51-.36.86-.08a9.4,9.4,0,0,0,3.85,2c.59.15.61.12.61-.49V63.26c0-.72,0-1.45,0-2.18a.58.58,0,0,0-.53-.68,12.56,12.56,0,0,1-3.75-1.55,4.12,4.12,0,0,1-1.87-3c-.66-3.9,2.05-6.43,5.43-6.84.68-.08.71-.08.71-.78s0-.71.72-.71h.15c1,0,1,0,1,1,0,.36.15.48.5.52a12.06,12.06,0,0,1,5.08,1.86c.22.14.37.28.17.56-.49.66-1,1.33-1.44,2-.21.3-.38.28-.65.1a9,9,0,0,0-3.14-1.31c-.38-.08-.52,0-.51.41,0,1.44,0,2.89,0,4.33,0,.39.21.51.53.59a13.69,13.69,0,0,1,3.63,1.44A5,5,0,0,1,294.74,64.23Z"/><path class="cls-5" d="M287,38.5a20.91,20.91,0,1,0,21,20.79A20.94,20.94,0,0,0,287,38.5Zm7.75,25.73c-.3,2.65-2.57,4.44-5.19,4.87-1.21.19-1.21.19-1.21,1.41,0,.79,0,.79-.8.79-1.21,0-1.09.15-1.1-1.08,0-1,.15-1-.93-1.15a12.45,12.45,0,0,1-5.82-2.74c-.26-.22-.26-.36,0-.6.51-.57,1-1.15,1.47-1.75.28-.35.51-.36.86-.08a9.4,9.4,0,0,0,3.85,2c.59.15.61.12.61-.49V63.26c0-.72,0-1.45,0-2.18a.58.58,0,0,0-.53-.68,12.56,12.56,0,0,1-3.75-1.55,4.12,4.12,0,0,1-1.87-3c-.66-3.9,2.05-6.43,5.43-6.84.68-.08.71-.08.71-.78s0-.71.72-.71h.15c1,0,1,0,1,1,0,.36.15.48.5.52a12.06,12.06,0,0,1,5.08,1.86c.22.14.37.28.17.56-.49.66-1,1.33-1.44,2-.21.3-.38.28-.65.1a9,9,0,0,0-3.14-1.31c-.38-.08-.52,0-.51.41,0,1.44,0,2.89,0,4.33,0,.39.21.51.53.59a13.69,13.69,0,0,1,3.63,1.44A5,5,0,0,1,294.74,64.23Z"/><path class="cls-5" d="M290.38,62.2c-.43-.23-.9-.4-1.36-.6s-.46,0-.45.31c0,.7,0,1.39,0,2.09s0,1.39,0,2.08c0,.29.08.44.4.37a4.31,4.31,0,0,0,1.23-.39,2.18,2.18,0,0,0,1.25-2A1.94,1.94,0,0,0,290.38,62.2Z"/><path class="cls-5" d="M286.67,52.92c0-.3-.13-.42-.43-.36a4,4,0,0,0-1,.35A2.14,2.14,0,0,0,284,54.78a2,2,0,0,0,1.12,1.95,9.67,9.67,0,0,0,1.09.47c.31.14.47,0,.46-.3v-4Z"/><path class="cls-6" d="M287.09,35.86a23.55,23.55,0,1,0,23.55,23.55A23.55,23.55,0,0,0,287.09,35.86Zm0,44.45a20.86,20.86,0,1,1,20.91-21A20.78,20.78,0,0,1,287.08,80.31Z"/><rect class="cls-5" x="287.33" y="80.6" width="0.29" height="1.37" transform="translate(-1.37 5.02) rotate(-1)"/><rect class="cls-5" x="284.5" y="81.06" width="1.37" height="0.29" transform="translate(179.37 358.2) rotate(-84.99)"/><rect class="cls-5" x="282.24" y="80.74" width="1.37" height="0.29" transform="translate(149.52 343.16) rotate(-78.99)"/><rect class="cls-5" x="280.02" y="80.18" width="1.37" height="0.29" transform="translate(121.79 325.26) rotate(-72.99)"/><rect class="cls-5" x="277.86" y="79.4" width="1.37" height="0.29" transform="translate(96.5 304.88) rotate(-67)"/><rect class="cls-5" x="275.81" y="78.4" width="1.37" height="0.29" transform="translate(73.73 282.27) rotate(-60.99)"/><rect class="cls-5" x="273.86" y="77.18" width="1.37" height="0.29" transform="translate(53.7 257.83) rotate(-54.99)"/><rect class="cls-5" x="272.06" y="75.77" width="1.37" height="0.29" transform="translate(36.48 231.91) rotate(-48.99)"/><rect class="cls-5" x="270.41" y="74.18" width="1.37" height="0.29" transform="translate(22.12 204.82) rotate(-42.99)"/><rect class="cls-5" x="268.94" y="72.43" width="1.37" height="0.29" transform="translate(10.6 176.85) rotate(-36.99)"/><rect class="cls-5" x="267.66" y="70.53" width="1.37" height="0.29" transform="translate(1.92 148.26) rotate(-30.99)"/><rect class="cls-5" x="266.59" y="68.51" width="1.37" height="0.29" transform="translate(-3.97 119.39) rotate(-25)"/><rect class="cls-5" x="265.73" y="66.39" width="1.37" height="0.29" transform="translate(-7.15 90.34) rotate(-19)"/><rect class="cls-5" x="265.1" y="64.19" width="1.37" height="0.29" transform="translate(-7.66 61.4) rotate(-12.99)"/><rect class="cls-5" x="264.7" y="61.93" width="1.37" height="0.29" transform="translate(-5.59 32.79) rotate(-7)"/><rect class="cls-5" x="264.54" y="59.65" width="1.37" height="0.29" transform="translate(-1 4.61) rotate(-0.99)"/><rect class="cls-5" x="265.16" y="56.82" width="0.29" height="1.37" transform="translate(184.88 316.78) rotate(-85)"/><rect class="cls-5" x="265.48" y="54.55" width="0.29" height="1.37" transform="translate(160.72 305.44) rotate(-79)"/><rect class="cls-5" x="266.03" y="52.33" width="0.29" height="1.37" transform="matrix(0.29, -0.96, 0.96, 0.29, 137.64, 292.05)"/><rect class="cls-5" x="266.82" y="50.18" width="0.29" height="1.37" transform="translate(115.82 276.72) rotate(-67)"/><rect class="cls-5" x="267.82" y="48.12" width="0.29" height="1.37" transform="translate(95.36 259.5) rotate(-61)"/><rect class="cls-5" x="269.03" y="46.18" width="0.29" height="1.37" transform="translate(76.38 240.47) rotate(-55)"/><rect class="cls-5" x="270.44" y="44.38" width="0.29" height="1.37" transform="translate(59.06 219.71) rotate(-49)"/><rect class="cls-5" x="272.03" y="42.73" width="0.29" height="1.37" transform="translate(43.51 197.28) rotate(-43)"/><rect class="cls-5" x="273.79" y="41.26" width="0.29" height="1.37" transform="translate(29.92 173.29) rotate(-37)"/><rect class="cls-5" x="275.68" y="39.98" width="0.29" height="1.37" transform="matrix(0.86, -0.52, 0.52, 0.86, 18.45, 147.87)"/><rect class="cls-5" x="277.71" y="38.9" width="0.29" height="1.37" transform="translate(9.3 121.13) rotate(-25)"/><rect class="cls-5" x="279.83" y="38.05" width="0.29" height="1.37" transform="translate(2.64 93.25) rotate(-19)"/><rect class="cls-5" x="282.03" y="37.41" width="0.29" height="1.37" transform="translate(-1.34 64.45) rotate(-13)"/><rect class="cls-5" x="284.28" y="37.02" width="0.29" height="1.37" transform="translate(-2.47 34.94) rotate(-7)"/><rect class="cls-5" x="286.57" y="36.86" width="0.29" height="1.37" transform="matrix(1, -0.02, 0.02, 1, -0.61, 5)"/><rect class="cls-5" x="288.32" y="37.48" width="1.37" height="0.29" transform="translate(226.26 322.23) rotate(-84.99)"/><rect class="cls-5" x="290.59" y="37.79" width="1.37" height="0.29" transform="translate(198.42 316.61) rotate(-78.99)"/><rect class="cls-5" x="292.81" y="38.35" width="1.37" height="0.29" transform="translate(170.84 307.89) rotate(-72.99)"/><rect class="cls-5" x="294.96" y="39.13" width="1.37" height="0.29" transform="translate(143.99 296.08) rotate(-67)"/><rect class="cls-5" x="297.02" y="40.14" width="1.37" height="0.29" transform="translate(118.12 281.11) rotate(-60.99)"/><rect class="cls-5" x="298.96" y="41.35" width="1.37" height="0.29" transform="translate(93.75 263.11) rotate(-54.99)"/><rect class="cls-5" x="300.76" y="42.76" width="1.37" height="0.29" transform="translate(71.26 242.22) rotate(-48.99)"/><rect class="cls-5" x="302.41" y="44.35" width="1.37" height="0.29" transform="translate(51.06 218.62) rotate(-42.99)"/><rect class="cls-5" x="303.88" y="46.1" width="1.37" height="0.29" transform="translate(33.48 192.57) rotate(-36.99)"/><rect class="cls-5" x="305.16" y="48" width="1.37" height="0.29" transform="translate(18.86 164.32) rotate(-30.99)"/><rect class="cls-5" x="306.24" y="50.02" width="1.37" height="0.29" transform="translate(7.56 134.41) rotate(-25)"/><rect class="cls-5" x="307.09" y="52.15" width="1.37" height="0.29" transform="translate(-0.26 103.03) rotate(-19)"/><rect class="cls-5" x="307.72" y="54.35" width="1.37" height="0.29" transform="translate(-4.36 70.73) rotate(-12.99)"/><rect class="cls-5" x="308.12" y="56.6" width="1.37" height="0.29" transform="translate(-4.61 38.04) rotate(-7)"/><rect class="cls-5" x="308.28" y="58.89" width="1.37" height="0.29" transform="translate(-0.98 5.36) rotate(-0.99)"/><rect class="cls-5" x="308.74" y="60.63" width="0.29" height="1.37" transform="translate(220.88 363.68) rotate(-85)"/><rect class="cls-5" x="308.42" y="62.9" width="0.29" height="1.37" transform="translate(187.27 354.35) rotate(-79)"/><rect class="cls-5" x="307.87" y="65.12" width="0.29" height="1.37" transform="translate(155.01 341.11) rotate(-73)"/><rect class="cls-5" x="307.08" y="67.27" width="0.29" height="1.37" transform="translate(124.62 324.2) rotate(-67)"/><rect class="cls-5" x="306.08" y="69.33" width="0.29" height="1.37" transform="translate(96.52 303.89) rotate(-61)"/><rect class="cls-5" x="304.87" y="71.27" width="0.29" height="1.37" transform="translate(71.11 280.52) rotate(-55)"/><rect class="cls-5" x="303.46" y="73.08" width="0.29" height="1.37" transform="matrix(0.66, -0.75, 0.75, 0.66, 48.75, 254.5)"/><rect class="cls-5" x="301.87" y="74.73" width="0.29" height="1.37" transform="translate(29.71 226.23) rotate(-43)"/><rect class="cls-5" x="300.11" y="76.2" width="0.29" height="1.37" transform="translate(14.19 196.17) rotate(-37)"/><rect class="cls-5" x="298.22" y="77.48" width="0.29" height="1.37" transform="translate(2.36 164.83) rotate(-31)"/><rect class="cls-5" x="296.19" y="78.55" width="0.29" height="1.37" transform="translate(-5.72 132.65) rotate(-25)"/><rect class="cls-5" x="294.07" y="79.41" width="0.29" height="1.37" transform="translate(-10.05 100.14) rotate(-19)"/><rect class="cls-5" x="291.87" y="80.04" width="0.29" height="1.37" transform="translate(-10.67 67.75) rotate(-13)"/><rect class="cls-5" x="289.62" y="80.44" width="0.29" height="1.37" transform="translate(-7.72 35.91) rotate(-7)"/><path class="cls-4" d="M325.92,39a5.84,5.84,0,0,1-5.19,4.87c-1.21.2-1.21.2-1.21,1.42,0,.78,0,.79-.8.78-1.21,0-1.09.15-1.1-1.07,0-1,.15-1-.93-1.16a12.26,12.26,0,0,1-5.82-2.74c-.26-.21-.26-.35,0-.6q.76-.84,1.47-1.74c.28-.36.52-.36.86-.08a9.64,9.64,0,0,0,3.85,2c.59.14.61.12.61-.49V38c0-.73,0-1.46,0-2.19,0-.4-.14-.58-.53-.68a12.53,12.53,0,0,1-3.75-1.54,4.16,4.16,0,0,1-1.87-3c-.65-3.9,2.06-6.44,5.43-6.84.68-.08.71-.09.71-.78s0-.72.72-.72h.15c1,0,1,0,1,1,0,.36.15.47.5.51a11.94,11.94,0,0,1,5.08,1.87c.22.14.37.27.17.55-.49.67-1,1.33-1.44,2-.21.3-.38.28-.65.1A9,9,0,0,0,320,27c-.38-.09-.52,0-.51.41,0,1.44,0,2.88,0,4.32,0,.39.21.51.53.59a14,14,0,0,1,3.63,1.44A4.94,4.94,0,0,1,325.92,39Z"/><path class="cls-5" d="M318.17,13.24a20.92,20.92,0,1,0,21,20.8A20.95,20.95,0,0,0,318.17,13.24ZM325.92,39a5.84,5.84,0,0,1-5.19,4.87c-1.21.2-1.21.2-1.21,1.42,0,.78,0,.79-.8.78-1.21,0-1.09.15-1.1-1.07,0-1,.15-1-.93-1.16a12.26,12.26,0,0,1-5.82-2.74c-.26-.21-.26-.35,0-.6q.76-.84,1.47-1.74c.28-.36.52-.36.86-.08a9.64,9.64,0,0,0,3.85,2c.59.14.61.12.61-.49V38c0-.73,0-1.46,0-2.19,0-.4-.14-.58-.53-.68a12.53,12.53,0,0,1-3.75-1.54,4.16,4.16,0,0,1-1.87-3c-.65-3.9,2.06-6.44,5.43-6.84.68-.08.71-.09.71-.78s0-.72.72-.72h.15c1,0,1,0,1,1,0,.36.15.47.5.51a11.94,11.94,0,0,1,5.08,1.87c.22.14.37.27.17.55-.49.67-1,1.33-1.44,2-.21.3-.38.28-.65.1A9,9,0,0,0,320,27c-.38-.09-.52,0-.51.41,0,1.44,0,2.88,0,4.32,0,.39.21.51.53.59a14,14,0,0,1,3.63,1.44A4.94,4.94,0,0,1,325.92,39Z"/><path class="cls-5" d="M321.56,36.94c-.43-.23-.9-.4-1.36-.59-.31-.14-.46-.05-.45.31,0,.69,0,1.39,0,2.08s0,1.39,0,2.09c0,.29.08.43.4.36a4,4,0,0,0,1.23-.39,2.19,2.19,0,0,0,1.26-2A2,2,0,0,0,321.56,36.94Z"/><path class="cls-5" d="M317.86,27.67c0-.31-.14-.43-.44-.36a3.8,3.8,0,0,0-1,.35,2.13,2.13,0,0,0-1.21,1.86,2,2,0,0,0,1.12,2c.35.18.73.31,1.09.47s.47,0,.47-.31c0-.64,0-1.29,0-1.94S317.85,28.35,317.86,27.67Z"/><path class="cls-6" d="M318.28,10.61a23.55,23.55,0,1,0,23.55,23.55A23.55,23.55,0,0,0,318.28,10.61Zm0,44.44a20.86,20.86,0,1,1,20.9-21A20.78,20.78,0,0,1,318.27,55.05Z"/><rect class="cls-5" x="318.51" y="55.34" width="0.29" height="1.37" transform="translate(-0.93 5.56) rotate(-1)"/><rect class="cls-5" x="315.69" y="55.8" width="1.37" height="0.29" transform="translate(232.98 366.21) rotate(-84.99)"/><rect class="cls-5" x="313.42" y="55.48" width="1.37" height="0.29" transform="translate(199.53 353.33) rotate(-78.99)"/><rect class="cls-5" x="311.2" y="54.93" width="1.37" height="0.29" transform="translate(168 337.21) rotate(-72.99)"/><rect class="cls-5" x="309.05" y="54.15" width="1.37" height="0.29" transform="translate(138.75 318.19) rotate(-67)"/><rect class="cls-5" x="306.99" y="53.14" width="1.37" height="0.29" transform="translate(111.88 296.53) rotate(-60.99)"/><rect class="cls-5" x="305.05" y="51.93" width="1.37" height="0.29" transform="translate(87.68 272.61) rotate(-54.99)"/><rect class="cls-5" x="303.24" y="50.52" width="1.37" height="0.29" transform="translate(66.26 246.75) rotate(-48.99)"/><rect class="cls-5" x="301.59" y="48.93" width="1.37" height="0.29" transform="translate(47.71 219.3) rotate(-42.99)"/><rect class="cls-5" x="300.12" y="47.18" width="1.37" height="0.29" transform="translate(32.08 190.52) rotate(-36.99)"/><rect class="cls-5" x="298.84" y="45.28" width="1.37" height="0.29" transform="translate(19.37 160.71) rotate(-30.99)"/><rect class="cls-5" x="297.77" y="43.26" width="1.37" height="0.29" transform="translate(9.62 130.2) rotate(-25)"/><rect class="cls-5" x="296.91" y="41.13" width="1.37" height="0.29" transform="translate(2.77 99.12) rotate(-19)"/><rect class="cls-5" x="296.28" y="38.93" width="1.37" height="0.29" transform="translate(-1.18 67.76) rotate(-12.99)"/><rect class="cls-5" x="295.88" y="36.68" width="1.37" height="0.29" transform="translate(-2.28 36.4) rotate(-7)"/><rect class="cls-5" x="295.72" y="34.39" width="1.37" height="0.29" transform="translate(-0.55 5.14) rotate(-0.99)"/><rect class="cls-5" x="296.34" y="31.57" width="0.29" height="1.37" transform="translate(238.5 324.79) rotate(-85)"/><rect class="cls-5" x="296.66" y="29.3" width="0.29" height="1.37" transform="translate(210.74 315.61) rotate(-79)"/><rect class="cls-5" x="297.21" y="27.08" width="0.29" height="1.37" transform="matrix(0.29, -0.96, 0.96, 0.29, 183.86, 304)"/><rect class="cls-5" x="298" y="24.93" width="0.29" height="1.37" transform="translate(158.06 290.04) rotate(-67)"/><rect class="cls-5" x="299" y="22.87" width="0.29" height="1.37" transform="translate(133.51 273.76) rotate(-61)"/><rect class="cls-5" x="300.21" y="20.93" width="0.29" height="1.37" transform="translate(110.37 255.24) rotate(-55)"/><rect class="cls-5" x="301.62" y="19.12" width="0.29" height="1.37" transform="translate(88.84 234.55) rotate(-49)"/><rect class="cls-5" x="303.21" y="17.47" width="0.29" height="1.37" transform="translate(69.1 211.76) rotate(-43)"/><rect class="cls-5" x="304.97" y="16" width="0.29" height="1.37" transform="translate(51.39 186.97) rotate(-37)"/><rect class="cls-5" x="306.87" y="14.72" width="0.29" height="1.37" transform="translate(35.91 160.32) rotate(-31)"/><rect class="cls-5" x="308.89" y="13.65" width="0.29" height="1.37" transform="translate(22.89 131.94) rotate(-25)"/><rect class="cls-5" x="311.01" y="12.79" width="0.29" height="1.37" transform="translate(12.56 102.03) rotate(-19)"/><rect class="cls-5" x="313.21" y="12.16" width="0.29" height="1.37" transform="translate(5.14 70.82) rotate(-13)"/><rect class="cls-5" x="315.47" y="11.76" width="0.29" height="1.37" transform="translate(0.84 38.55) rotate(-7)"/><rect class="cls-5" x="317.75" y="11.6" width="0.29" height="1.37" transform="translate(-0.17 5.54) rotate(-1)"/><rect class="cls-5" x="319.5" y="12.22" width="1.37" height="0.29" transform="translate(279.88 330.24) rotate(-84.99)"/><rect class="cls-5" x="321.77" y="12.54" width="1.37" height="0.29" transform="translate(248.44 326.78) rotate(-78.99)"/><rect class="cls-5" x="323.99" y="13.09" width="1.37" height="0.29" transform="matrix(0.29, -0.96, 0.96, 0.29, 217.05, 319.84)"/><rect class="cls-5" x="326.14" y="13.88" width="1.37" height="0.29" transform="translate(186.23 309.39) rotate(-67)"/><rect class="cls-5" x="328.2" y="14.88" width="1.37" height="0.29" transform="translate(156.27 295.37) rotate(-60.99)"/><rect class="cls-5" x="330.14" y="16.09" width="1.37" height="0.29" transform="translate(127.73 277.89) rotate(-54.99)"/><rect class="cls-5" x="331.94" y="17.5" width="1.37" height="0.29" transform="translate(101.04 257.06) rotate(-48.99)"/><rect class="cls-5" x="333.59" y="19.09" width="1.37" height="0.29" transform="translate(76.65 233.1) rotate(-42.99)"/><rect class="cls-5" x="335.06" y="20.85" width="1.37" height="0.29" transform="translate(54.95 206.25) rotate(-36.99)"/><rect class="cls-5" x="336.34" y="22.75" width="1.37" height="0.29" transform="translate(36.31 176.77) rotate(-30.99)"/><rect class="cls-5" x="337.42" y="24.77" width="1.37" height="0.29" transform="translate(21.15 145.23) rotate(-25)"/><rect class="cls-5" x="338.27" y="26.89" width="1.37" height="0.29" transform="translate(9.66 111.81) rotate(-19)"/><rect class="cls-5" x="338.91" y="29.09" width="1.37" height="0.29" transform="translate(2.12 77.09) rotate(-12.99)"/><rect class="cls-5" x="339.3" y="31.35" width="1.37" height="0.29" transform="translate(-1.3 41.65) rotate(-7)"/><rect class="cls-5" x="339.46" y="33.63" width="1.37" height="0.29" transform="translate(-0.53 5.9) rotate(-0.99)"/><rect class="cls-5" x="339.92" y="35.38" width="0.29" height="1.37" transform="translate(274.5 371.69) rotate(-85)"/><rect class="cls-5" x="339.6" y="37.65" width="0.29" height="1.37" transform="translate(237.29 364.52) rotate(-79)"/><rect class="cls-5" x="339.05" y="39.87" width="0.29" height="1.37" transform="translate(201.23 353.06) rotate(-73)"/><rect class="cls-5" x="338.27" y="42.02" width="0.29" height="1.37" transform="translate(166.86 337.52) rotate(-67)"/><rect class="cls-5" x="337.26" y="44.08" width="0.29" height="1.37" transform="translate(134.67 318.16) rotate(-61)"/><rect class="cls-5" x="336.05" y="46.02" width="0.29" height="1.37" transform="translate(105.09 295.29) rotate(-55)"/><rect class="cls-5" x="334.64" y="47.82" width="0.29" height="1.37" transform="translate(78.53 269.34) rotate(-49)"/><rect class="cls-5" x="333.05" y="49.47" width="0.29" height="1.37" transform="translate(55.31 240.71) rotate(-43)"/><rect class="cls-5" x="331.29" y="50.94" width="0.29" height="1.37" transform="translate(35.67 209.85) rotate(-37)"/><rect class="cls-5" x="329.4" y="52.22" width="0.29" height="1.37" transform="translate(19.82 177.28) rotate(-31)"/><rect class="cls-5" x="327.38" y="53.3" width="0.29" height="1.37" transform="translate(7.87 143.46) rotate(-25)"/><rect class="cls-5" x="325.25" y="54.15" width="0.29" height="1.37" transform="translate(-0.13 108.91) rotate(-19)"/><rect class="cls-5" x="323.05" y="54.79" width="0.29" height="1.37" transform="translate(-4.19 74.12) rotate(-13)"/><rect class="cls-5" x="320.8" y="55.18" width="0.29" height="1.37" transform="translate(-4.42 39.52) rotate(-7)"/><path class="cls-4" d="M292.83,28.37c-.3,2.65-2.57,4.44-5.19,4.87-1.21.19-1.21.19-1.21,1.41,0,.79,0,.79-.79.79-1.21,0-1.09.15-1.11-1.08,0-1,.16-1-.93-1.15a12.45,12.45,0,0,1-5.82-2.74c-.26-.21-.26-.36,0-.6q.76-.86,1.47-1.74c.28-.36.52-.37.86-.09a9.4,9.4,0,0,0,3.85,2c.59.15.61.12.61-.49s0-1.42,0-2.13,0-1.46,0-2.19c0-.41-.14-.58-.53-.68A12.56,12.56,0,0,1,280.26,23a4.12,4.12,0,0,1-1.87-3c-.65-3.9,2.06-6.43,5.43-6.84.69-.08.71-.08.72-.78s0-.71.71-.71h.15c1,0,1,0,1,1,0,.36.14.48.49.52A12,12,0,0,1,292,15.06c.22.14.37.28.17.56-.49.66-1,1.33-1.44,2-.2.3-.38.28-.65.1a9,9,0,0,0-3.14-1.31c-.38-.08-.51,0-.51.41,0,1.44,0,2.89,0,4.33,0,.39.2.51.52.59a13.69,13.69,0,0,1,3.63,1.44A4.93,4.93,0,0,1,292.83,28.37Z"/><path class="cls-5" d="M285.08,2.64a20.91,20.91,0,1,0,21,20.79A20.92,20.92,0,0,0,285.08,2.64Zm7.75,25.73c-.3,2.65-2.57,4.44-5.19,4.87-1.21.19-1.21.19-1.21,1.41,0,.79,0,.79-.79.79-1.21,0-1.09.15-1.11-1.08,0-1,.16-1-.93-1.15a12.45,12.45,0,0,1-5.82-2.74c-.26-.21-.26-.36,0-.6q.76-.86,1.47-1.74c.28-.36.52-.37.86-.09a9.4,9.4,0,0,0,3.85,2c.59.15.61.12.61-.49s0-1.42,0-2.13,0-1.46,0-2.19c0-.41-.14-.58-.53-.68A12.56,12.56,0,0,1,280.26,23a4.12,4.12,0,0,1-1.87-3c-.65-3.9,2.06-6.43,5.43-6.84.69-.08.71-.08.72-.78s0-.71.71-.71h.15c1,0,1,0,1,1,0,.36.14.48.49.52A12,12,0,0,1,292,15.06c.22.14.37.28.17.56-.49.66-1,1.33-1.44,2-.2.3-.38.28-.65.1a9,9,0,0,0-3.14-1.31c-.38-.08-.51,0-.51.41,0,1.44,0,2.89,0,4.33,0,.39.2.51.52.59a13.69,13.69,0,0,1,3.63,1.44A4.93,4.93,0,0,1,292.83,28.37Z"/><path class="cls-5" d="M288.48,26.34c-.44-.23-.91-.4-1.37-.6s-.45,0-.45.31c0,.7,0,1.39,0,2.09s0,1.39,0,2.08c0,.29.08.44.41.37a4,4,0,0,0,1.22-.39,2.19,2.19,0,0,0,1.26-2A2,2,0,0,0,288.48,26.34Z"/><path class="cls-5" d="M284.77,17.06c0-.3-.13-.42-.44-.36a4.18,4.18,0,0,0-1,.35,2.14,2.14,0,0,0-1.21,1.87,2,2,0,0,0,1.12,1.95,11.55,11.55,0,0,0,1.09.47c.32.14.47.05.47-.3,0-.65,0-1.3,0-1.94S284.76,17.74,284.77,17.06Z"/><path class="cls-6" d="M285.19,0a23.55,23.55,0,1,0,23.55,23.55A23.55,23.55,0,0,0,285.19,0Zm0,44.45a20.86,20.86,0,1,1,20.9-21A20.76,20.76,0,0,1,285.18,44.45Z"/><rect class="cls-5" x="285.42" y="44.74" width="0.29" height="1.37" transform="translate(-0.75 4.98) rotate(-1)"/><rect class="cls-5" x="282.6" y="45.2" width="1.37" height="0.29" transform="translate(213.35 323.57) rotate(-84.99)"/><rect class="cls-5" x="280.33" y="44.88" width="1.37" height="0.29" transform="translate(183.17 312.27) rotate(-78.99)"/><rect class="cls-5" x="278.11" y="44.32" width="1.37" height="0.29" transform="translate(154.73 298.06) rotate(-72.99)"/><rect class="cls-5" x="275.96" y="43.54" width="1.37" height="0.29" transform="translate(128.35 281.27) rotate(-67)"/><rect class="cls-5" x="273.9" y="42.54" width="1.37" height="0.29" transform="translate(104.11 262.13) rotate(-60.99)"/><rect class="cls-5" x="271.96" y="41.32" width="1.37" height="0.29" transform="translate(82.26 240.99) rotate(-54.99)"/><rect class="cls-5" x="270.15" y="39.91" width="1.37" height="0.29" transform="translate(62.89 218.14) rotate(-48.99)"/><rect class="cls-5" x="268.51" y="38.32" width="1.37" height="0.29" transform="translate(46.06 193.89) rotate(-42.99)"/><rect class="cls-5" x="267.03" y="36.57" width="1.37" height="0.29" transform="translate(31.8 168.48) rotate(-36.99)"/><rect class="cls-5" x="265.75" y="34.67" width="1.37" height="0.29" transform="translate(20.11 142.16) rotate(-30.99)"/><rect class="cls-5" x="264.68" y="32.65" width="1.37" height="0.29" transform="translate(11 115.22) rotate(-25)"/><rect class="cls-5" x="263.82" y="30.53" width="1.37" height="0.29" transform="translate(4.42 87.77) rotate(-19)"/><rect class="cls-5" x="263.19" y="28.33" width="1.37" height="0.29" transform="translate(0.35 60.05) rotate(-12.99)"/><rect class="cls-5" x="262.79" y="26.07" width="1.37" height="0.29" transform="translate(-1.23 32.29) rotate(-7)"/><rect class="cls-5" x="262.63" y="23.79" width="1.37" height="0.29" transform="translate(-0.38 4.57) rotate(-0.99)"/><rect class="cls-5" x="263.25" y="20.96" width="0.29" height="1.37" transform="translate(218.87 282.15) rotate(-85)"/><rect class="cls-5" x="263.57" y="18.69" width="0.29" height="1.37" transform="translate(194.37 274.55) rotate(-79)"/><rect class="cls-5" x="264.13" y="16.47" width="0.29" height="1.37" transform="translate(170.59 264.86) rotate(-73)"/><rect class="cls-5" x="264.91" y="14.32" width="0.29" height="1.37" transform="translate(147.67 253.12) rotate(-67)"/><rect class="cls-5" x="265.91" y="12.26" width="0.29" height="1.37" transform="translate(125.74 239.36) rotate(-61)"/><rect class="cls-5" x="267.13" y="10.32" width="0.29" height="1.37" transform="translate(104.94 223.62) rotate(-55)"/><rect class="cls-5" x="268.54" y="8.52" width="0.29" height="1.37" transform="translate(85.46 205.94) rotate(-49)"/><rect class="cls-5" x="270.13" y="6.87" width="0.29" height="1.37" transform="translate(67.45 186.34) rotate(-43)"/><rect class="cls-5" x="271.88" y="5.4" width="0.29" height="1.37" transform="translate(51.11 164.93) rotate(-37)"/><rect class="cls-5" x="273.78" y="4.12" width="0.29" height="1.37" transform="translate(36.65 141.76) rotate(-31)"/><rect class="cls-5" x="275.8" y="3.04" width="0.29" height="1.37" transform="translate(24.28 116.96) rotate(-25)"/><rect class="cls-5" x="277.92" y="2.19" width="0.29" height="1.37" transform="translate(14.21 90.68) rotate(-19)"/><rect class="cls-5" x="280.12" y="1.55" width="0.29" height="1.37" transform="translate(6.68 63.1) rotate(-13)"/><rect class="cls-5" x="282.38" y="1.16" width="0.29" height="1.37" transform="translate(1.88 34.44) rotate(-7)"/><rect class="cls-5" x="284.66" y="1" width="0.29" height="1.37" transform="translate(0.01 4.96) rotate(-1)"/><rect class="cls-5" x="286.41" y="1.62" width="1.37" height="0.29" transform="translate(260.25 287.6) rotate(-84.99)"/><rect class="cls-5" x="288.68" y="1.93" width="1.37" height="0.29" transform="translate(232.08 285.72) rotate(-78.99)"/><rect class="cls-5" x="290.9" y="2.49" width="1.37" height="0.29" transform="translate(203.79 280.7) rotate(-72.99)"/><rect class="cls-5" x="293.05" y="3.27" width="1.37" height="0.29" transform="translate(175.84 272.47) rotate(-67)"/><rect class="cls-5" x="295.11" y="4.28" width="1.37" height="0.29" transform="translate(148.5 260.97) rotate(-60.99)"/><rect class="cls-5" x="297.05" y="5.49" width="1.37" height="0.29" transform="translate(122.31 246.26) rotate(-54.99)"/><rect class="cls-5" x="298.85" y="6.9" width="1.37" height="0.29" transform="translate(97.67 228.45) rotate(-48.99)"/><rect class="cls-5" x="300.5" y="8.49" width="1.37" height="0.29" transform="translate(75 207.69) rotate(-42.99)"/><rect class="cls-5" x="301.97" y="10.24" width="1.37" height="0.29" transform="translate(54.67 184.2) rotate(-36.99)"/><rect class="cls-5" x="303.25" y="12.14" width="1.37" height="0.29" transform="translate(37.05 158.23) rotate(-30.99)"/><rect class="cls-5" x="304.33" y="14.16" width="1.37" height="0.29" transform="translate(22.53 130.25) rotate(-25)"/><rect class="cls-5" x="305.19" y="16.29" width="1.37" height="0.29" transform="translate(11.31 100.46) rotate(-19)"/><rect class="cls-5" x="305.82" y="18.49" width="1.37" height="0.29" transform="translate(3.66 69.38) rotate(-12.99)"/><rect class="cls-5" x="306.21" y="20.74" width="1.37" height="0.29" transform="translate(-0.26 37.54) rotate(-7)"/><rect class="cls-5" x="306.37" y="23.03" width="1.37" height="0.29" transform="translate(-0.36 5.33) rotate(-0.99)"/><rect class="cls-5" x="306.83" y="24.77" width="0.29" height="1.37" transform="translate(254.86 329.05) rotate(-85)"/><rect class="cls-5" x="306.51" y="27.04" width="0.29" height="1.37" transform="translate(220.93 323.46) rotate(-79)"/><rect class="cls-5" x="305.96" y="29.26" width="0.29" height="1.37" transform="translate(187.96 313.91) rotate(-73)"/><rect class="cls-5" x="305.18" y="31.41" width="0.29" height="1.37" transform="translate(156.46 300.6) rotate(-67)"/><rect class="cls-5" x="304.17" y="33.47" width="0.29" height="1.37" transform="translate(126.9 283.75) rotate(-61)"/><rect class="cls-5" x="302.96" y="35.41" width="0.29" height="1.37" transform="translate(99.67 263.67) rotate(-55)"/><rect class="cls-5" x="301.55" y="37.22" width="0.29" height="1.37" transform="matrix(0.66, -0.75, 0.75, 0.66, 75.16, 240.72)"/><rect class="cls-5" x="299.96" y="38.87" width="0.29" height="1.37" transform="translate(53.65 215.29) rotate(-43)"/><rect class="cls-5" x="298.21" y="40.34" width="0.29" height="1.37" transform="translate(35.39 187.8) rotate(-37)"/><rect class="cls-5" x="296.31" y="41.62" width="0.29" height="1.37" transform="translate(20.56 158.72) rotate(-31)"/><rect class="cls-5" x="294.29" y="42.69" width="0.29" height="1.37" transform="translate(9.25 128.49) rotate(-25)"/><rect class="cls-5" x="292.16" y="43.55" width="0.29" height="1.37" transform="matrix(0.95, -0.33, 0.33, 0.95, 1.52, 97.56)"/><rect class="cls-5" x="289.96" y="44.18" width="0.29" height="1.37" transform="translate(-2.66 66.4) rotate(-13)"/><rect class="cls-5" x="287.71" y="44.58" width="0.29" height="1.37" transform="translate(-3.37 35.41) rotate(-7)"/></g></g></svg>