<svg xmlns="http://www.w3.org/2000/svg" viewBox="0 0 1017.44 626.8"><defs><style>.cls-1{fill:#dfdfdf;}.cls-2{fill:#e6cc45;}.cls-3{fill:#b9b9b9;}.cls-4{fill:#1a1a1a;}.cls-5,.cls-6{fill:none;stroke-width:3px;}.cls-5{stroke:#e6cc45;}.cls-5,.cls-6,.cls-7{stroke-miterlimit:10;}.cls-6,.cls-7{stroke:#000;}.cls-7{fill:#ecd245;}</style></defs><g id="Layer_2" data-name="Layer 2"><g id="Layer_1-2" data-name="Layer 1"><rect class="cls-1" y="284.16" width="1017.44" height="171.86"/><path class="cls-2" d="M345.71,12V45.45c0,3.35.83,5.92,2.47,7.73s4.07,2.71,7.25,2.71,5.63-.91,7.33-2.71,2.55-4.38,2.55-7.73V12h13.62V45.37A23.81,23.81,0,0,1,375.75,58a20.4,20.4,0,0,1-8.57,7.8,26.81,26.81,0,0,1-12,2.63,26.21,26.21,0,0,1-11.83-2.59,19.23,19.23,0,0,1-8.24-7.8,24.94,24.94,0,0,1-3-12.71V12Z" transform="translate(0 -4.1)"/><path class="cls-2" d="M396.22,66.56a17.68,17.68,0,0,1-7.17-5.46,14.36,14.36,0,0,1-2.95-7.76h13.47a5.16,5.16,0,0,0,2.15,3.74,7.58,7.58,0,0,0,4.7,1.44,6.72,6.72,0,0,0,3.94-1,3.05,3.05,0,0,0,1.4-2.59,3,3,0,0,0-2-2.83,39.47,39.47,0,0,0-6.45-2,60.51,60.51,0,0,1-8-2.35,13.69,13.69,0,0,1-5.5-3.9,10.65,10.65,0,0,1-2.31-7.21,12.2,12.2,0,0,1,2.11-7,14.17,14.17,0,0,1,6.21-5,23.84,23.84,0,0,1,9.76-1.84q8.37,0,13.19,4.15a16.07,16.07,0,0,1,5.53,11H411.76a5.42,5.42,0,0,0-2-3.66,7,7,0,0,0-4.5-1.36,6.22,6.22,0,0,0-3.66.92,2.93,2.93,0,0,0-1.28,2.51,3.07,3.07,0,0,0,2,2.87,33.08,33.08,0,0,0,6.33,1.91,68.81,68.81,0,0,1,8.05,2.51,13.8,13.8,0,0,1,5.45,4A11.24,11.24,0,0,1,424.58,55a11.69,11.69,0,0,1-2.19,7,14.48,14.48,0,0,1-6.29,4.82,24.06,24.06,0,0,1-9.52,1.75A25.53,25.53,0,0,1,396.22,66.56Z" transform="translate(0 -4.1)"/><path class="cls-2" d="M476.85,23.46V67.92H463.22V61.86a14.86,14.86,0,0,1-5.61,4.74,17.1,17.1,0,0,1-7.85,1.79,17.5,17.5,0,0,1-9-2.27,15.27,15.27,0,0,1-6.06-6.57,22.43,22.43,0,0,1-2.15-10.12v-26h13.54V47.6a9.73,9.73,0,0,0,2.31,6.93A8.09,8.09,0,0,0,454.62,57a8.19,8.19,0,0,0,6.29-2.47,9.73,9.73,0,0,0,2.31-6.93V23.46Z" transform="translate(0 -4.1)"/><path class="cls-2" d="M486.52,33.58a19.4,19.4,0,0,1,7.05-8,18.43,18.43,0,0,1,10-2.79,17,17,0,0,1,8.25,1.92,14.11,14.11,0,0,1,5.46,5V23.46h13.62V67.92H517.24v-6.3a14.74,14.74,0,0,1-5.54,5,17,17,0,0,1-8.25,1.91,18.14,18.14,0,0,1-9.88-2.82,19.63,19.63,0,0,1-7.05-8.05,26.9,26.9,0,0,1-2.59-12.07A26.64,26.64,0,0,1,486.52,33.58Zm27.89,4.06a9.57,9.57,0,0,0-13.78,0q-2.83,2.91-2.83,8a11.28,11.28,0,0,0,2.83,8.09,9.49,9.49,0,0,0,13.78,0,11.14,11.14,0,0,0,2.83-8A11.18,11.18,0,0,0,514.41,37.64Z" transform="translate(0 -4.1)"/><path class="cls-2" d="M560.33,25.09a15.49,15.49,0,0,1,8-2.11V37.4h-3.74q-5.1,0-7.65,2.19t-2.55,7.69V67.92H540.74V23.46h13.62v7.41A18,18,0,0,1,560.33,25.09Z" transform="translate(0 -4.1)"/><path class="cls-2" d="M575.83,16.73a6.86,6.86,0,0,1-2.27-5.22,7,7,0,0,1,2.27-5.3,8.29,8.29,0,0,1,5.86-2.11,8.17,8.17,0,0,1,5.77,2.11,7,7,0,0,1,2.27,5.3,6.86,6.86,0,0,1-2.27,5.22,8.13,8.13,0,0,1-5.77,2.11A8.25,8.25,0,0,1,575.83,16.73Zm12.63,6.73V67.92H574.83V23.46Z" transform="translate(0 -4.1)"/><path class="cls-2" d="M606.82,65.76a20.41,20.41,0,0,1-8.21-8,23.82,23.82,0,0,1-3-12.11,23.69,23.69,0,0,1,3-12.07,20.54,20.54,0,0,1,8.29-8,26.31,26.31,0,0,1,23.58,0,20.54,20.54,0,0,1,8.29,8,23.59,23.59,0,0,1,3,12.07,23.41,23.41,0,0,1-3.06,12.07,20.72,20.72,0,0,1-8.37,8,25,25,0,0,1-11.83,2.79A24.54,24.54,0,0,1,606.82,65.76Zm18.4-11.87c1.84-1.91,2.75-4.64,2.75-8.2s-.89-6.3-2.67-8.21a9,9,0,0,0-13.18,0q-2.62,2.84-2.63,8.25t2.59,8.2a8.34,8.34,0,0,0,6.49,2.87A8.84,8.84,0,0,0,625.22,53.89Z" transform="translate(0 -4.1)"/><path class="cls-2" d="M656.81,66.56a17.68,17.68,0,0,1-7.17-5.46,14.36,14.36,0,0,1-2.95-7.76h13.47a5.16,5.16,0,0,0,2.15,3.74,7.58,7.58,0,0,0,4.7,1.44,6.72,6.72,0,0,0,3.94-1,3.05,3.05,0,0,0,1.4-2.59,3,3,0,0,0-2-2.83,39.47,39.47,0,0,0-6.45-2,61.17,61.17,0,0,1-8-2.35,13.72,13.72,0,0,1-5.49-3.9,10.65,10.65,0,0,1-2.31-7.21,12.2,12.2,0,0,1,2.11-7,14.17,14.17,0,0,1,6.21-5,23.84,23.84,0,0,1,9.76-1.84q8.37,0,13.19,4.15a16.07,16.07,0,0,1,5.53,11H672.35a5.42,5.42,0,0,0-2-3.66,7,7,0,0,0-4.5-1.36,6.22,6.22,0,0,0-3.66.92,2.93,2.93,0,0,0-1.28,2.51,3.07,3.07,0,0,0,2,2.87,33.08,33.08,0,0,0,6.33,1.91,68.81,68.81,0,0,1,8,2.51,13.8,13.8,0,0,1,5.45,4A11.24,11.24,0,0,1,685.17,55,11.69,11.69,0,0,1,683,62a14.48,14.48,0,0,1-6.29,4.82,24.06,24.06,0,0,1-9.52,1.75A25.53,25.53,0,0,1,656.81,66.56Z" transform="translate(0 -4.1)"/><path class="cls-2" d="M296.06,177.55H284.61L282.77,183H275l11.1-30.69h8.66L305.81,183H297.9Zm-1.92-5.77-3.8-11.24-3.76,11.24Z" transform="translate(0 -4.1)"/><path class="cls-2" d="M330.88,161.09a10.8,10.8,0,0,1,2.56,7.63V183H326V169.73a5.35,5.35,0,0,0-1.27-3.81,5,5,0,0,0-6.82,0,5.39,5.39,0,0,0-1.27,3.81V183h-7.47V158.58h7.47v3.23a7.94,7.94,0,0,1,3.06-2.56,9.86,9.86,0,0,1,4.33-.94A8.84,8.84,0,0,1,330.88,161.09Z" transform="translate(0 -4.1)"/><path class="cls-2" d="M352.44,159.28a7.74,7.74,0,0,1,3,2.75v-3.45h7.48v24.35a13.75,13.75,0,0,1-1.34,6.1,10.18,10.18,0,0,1-4.06,4.35,13.24,13.24,0,0,1-6.8,1.61,14.2,14.2,0,0,1-8.79-2.55,9.68,9.68,0,0,1-3.84-6.93h7.38a3.52,3.52,0,0,0,1.67,2.2,6,6,0,0,0,3.23.81,5,5,0,0,0,3.69-1.33,5.71,5.71,0,0,0,1.38-4.26v-3.46a8.25,8.25,0,0,1-3,2.78,9.2,9.2,0,0,1-4.51,1.07,10,10,0,0,1-5.46-1.55,10.73,10.73,0,0,1-3.87-4.42,16.09,16.09,0,0,1,0-13.22,10.53,10.53,0,0,1,3.87-4.37,10.08,10.08,0,0,1,5.46-1.53A9.41,9.41,0,0,1,352.44,159.28Zm1.44,7.08a5.24,5.24,0,0,0-7.56,0,6,6,0,0,0-1.56,4.39,6.17,6.17,0,0,0,1.56,4.44,5.2,5.2,0,0,0,7.56,0,7.06,7.06,0,0,0,0-8.83Z" transform="translate(0 -4.1)"/><path class="cls-2" d="M391.19,172.57H374.27a5.1,5.1,0,0,0,1.47,3.47,4.47,4.47,0,0,0,3.17,1.2,3.92,3.92,0,0,0,3.89-2.36h7.95a10.79,10.79,0,0,1-2.2,4.33,11.18,11.18,0,0,1-4,3,12.87,12.87,0,0,1-5.38,1.09,13.06,13.06,0,0,1-6.38-1.53,10.9,10.9,0,0,1-4.38-4.37,14.93,14.93,0,0,1,0-13.29,10.77,10.77,0,0,1,4.35-4.37,13.2,13.2,0,0,1,6.43-1.53,13,13,0,0,1,6.29,1.48,10.72,10.72,0,0,1,4.31,4.24,12.94,12.94,0,0,1,1.55,6.43A18.6,18.6,0,0,1,391.19,172.57Zm-7.52-4.16a3.86,3.86,0,0,0-1.31-3.06,4.86,4.86,0,0,0-3.28-1.13,4.73,4.73,0,0,0-3.17,1.09,4.82,4.82,0,0,0-1.59,3.1Z" transform="translate(0 -4.1)"/><path class="cls-2" d="M402.73,150.62V183h-7.47V150.62Z" transform="translate(0 -4.1)"/><path class="cls-2" d="M424.9,158.27v6.21h10v5.77h-10V177h11.32v6h-18.8V152.28h18.8v6Z" transform="translate(0 -4.1)"/><path class="cls-2" d="M441.36,182.16a3.74,3.74,0,0,1-1.25-2.86,3.88,3.88,0,0,1,1.25-2.93,4.46,4.46,0,0,1,3.21-1.18,4.41,4.41,0,0,1,3.17,1.18A3.87,3.87,0,0,1,449,179.3a3.73,3.73,0,0,1-1.24,2.86,4.44,4.44,0,0,1-3.17,1.16A4.49,4.49,0,0,1,441.36,182.16Z" transform="translate(0 -4.1)"/><path class="cls-2" d="M484.75,152.28v6h-8.14V183h-7.47v-24.7H461v-6Z" transform="translate(0 -4.1)"/><path class="cls-2" d="M493.16,181.79a11.2,11.2,0,0,1-4.5-4.37,14.17,14.17,0,0,1,0-13.27,11.24,11.24,0,0,1,4.55-4.39,14.45,14.45,0,0,1,12.94,0,11.28,11.28,0,0,1,4.54,4.39,14,14,0,0,1,0,13.25,11.34,11.34,0,0,1-4.59,4.39,13.72,13.72,0,0,1-6.49,1.53A13.48,13.48,0,0,1,493.16,181.79Zm10.1-6.51a6.28,6.28,0,0,0,1.51-4.51,6.35,6.35,0,0,0-1.47-4.5,5,5,0,0,0-7.23,0,6.41,6.41,0,0,0-1.44,4.52,6.49,6.49,0,0,0,1.42,4.51,4.57,4.57,0,0,0,3.56,1.57A4.87,4.87,0,0,0,503.26,175.28Z" transform="translate(0 -4.1)"/><path class="cls-2" d="M527.33,176l5.29-17.4h8L531.92,183h-9.23L514,158.58h8Z" transform="translate(0 -4.1)"/><path class="cls-2" d="M543.65,164.13a10.59,10.59,0,0,1,3.87-4.37,10.12,10.12,0,0,1,5.47-1.53,9.37,9.37,0,0,1,4.52,1.05,7.7,7.7,0,0,1,3,2.75v-3.45H568V183h-7.47v-3.45a8.19,8.19,0,0,1-3,2.75,9.41,9.41,0,0,1-4.53,1,10,10,0,0,1-5.42-1.55,10.8,10.8,0,0,1-3.87-4.42,16.09,16.09,0,0,1,0-13.22Zm15.3,2.23a5.24,5.24,0,0,0-7.56,0,6,6,0,0,0-1.55,4.39,6.2,6.2,0,0,0,1.55,4.44,5.2,5.2,0,0,0,7.56,0,7,7,0,0,0,0-8.83Z" transform="translate(0 -4.1)"/><path class="cls-2" d="M584.16,159.47a8.48,8.48,0,0,1,4.37-1.16v7.92h-2.06a6.29,6.29,0,0,0-4.19,1.2c-.94.8-1.4,2.21-1.4,4.22V183H573.4V158.58h7.48v4.06A9.92,9.92,0,0,1,584.16,159.47Z" transform="translate(0 -4.1)"/><path class="cls-2" d="M630.19,152.28,619.3,183H610l-10.89-30.69h8l7.61,23.17,7.65-23.17Z" transform="translate(0 -4.1)"/><path class="cls-3" d="M276.21,216.85v0c0-6.74,2.75-10.94,7.38-10.94s7.42,4.2,7.42,10.94v0c0,6.73-2.79,11-7.42,11S276.21,223.58,276.21,216.85Zm12.17,0v0c0-5.34-1.78-8.65-4.79-8.65s-4.76,3.31-4.76,8.65v0c0,5.34,1.76,8.67,4.76,8.67S288.38,222.19,288.38,216.85Z" transform="translate(0 -4.1)"/><path class="cls-3" d="M294.34,225.57a1.89,1.89,0,1,1,1.88,1.88A1.89,1.89,0,0,1,294.34,225.57Z" transform="translate(0 -4.1)"/><path class="cls-3" d="M301.43,216.85v0c0-6.74,2.76-10.94,7.39-10.94s7.42,4.2,7.42,10.94v0c0,6.73-2.79,11-7.42,11S301.43,223.58,301.43,216.85Zm12.18,0v0c0-5.34-1.79-8.65-4.79-8.65s-4.76,3.31-4.76,8.65v0c0,5.34,1.76,8.67,4.76,8.67S313.61,222.19,313.61,216.85Z" transform="translate(0 -4.1)"/><path class="cls-3" d="M329.23,206.37h2.62v10.17h.23l9.17-10.17h3.28l-8.38,9,9.15,11.9h-3.38l-7.57-10.09-2.5,2.78v7.31h-2.62Z" transform="translate(0 -4.1)"/><path class="cls-3" d="M348.81,206.37h3L359,223.84h.24l7.17-17.47h3v20.94H367v-16h-.16l-6.62,16H358l-6.62-16h-.16v16h-2.44Z" transform="translate(0 -4.1)"/><path class="cls-3" d="M383.16,206.37h2.35v26.16h-2.35Z" transform="translate(0 -4.1)"/><path class="cls-3" d="M398.5,216.85v0c0-6.74,2.76-10.94,7.39-10.94s7.41,4.2,7.41,10.94v0c0,6.73-2.78,11-7.41,11S398.5,223.58,398.5,216.85Zm12.18,0v0c0-5.34-1.79-8.65-4.79-8.65s-4.76,3.31-4.76,8.65v0c0,5.34,1.75,8.67,4.76,8.67S410.68,222.19,410.68,216.85Z" transform="translate(0 -4.1)"/><path class="cls-3" d="M425.2,219.5v0c0-5,2.75-8.08,7.21-8.08s7.21,3.06,7.21,8.08v0c0,5-2.76,8.08-7.21,8.08S425.2,224.51,425.2,219.5Zm11.84,0v0c0-3.7-1.67-5.84-4.63-5.84s-4.63,2.14-4.63,5.84v0c0,3.69,1.67,5.85,4.63,5.85S437,223.19,437,219.5Z" transform="translate(0 -4.1)"/><path class="cls-3" d="M443.54,211.67h2.53v2.49h.23a5.36,5.36,0,0,1,4.88-2.77c4,0,6.55,3.21,6.55,8.08v0c0,4.91-2.58,8.08-6.55,8.08a5.39,5.39,0,0,1-4.88-2.74h-.23v7.69h-2.53Zm11.61,7.83v0c0-3.64-1.7-5.84-4.55-5.84s-4.59,2.23-4.59,5.84v0c0,3.62,1.74,5.85,4.59,5.85S455.15,223.14,455.15,219.5Z" transform="translate(0 -4.1)"/><path class="cls-3" d="M461.28,206.91a1.74,1.74,0,1,1,1.74,1.74A1.74,1.74,0,0,1,461.28,206.91Zm.47,4.76h2.52v15.64h-2.52Z" transform="translate(0 -4.1)"/><path class="cls-3" d="M469,211.67h2.53V214h.23a4.59,4.59,0,0,1,4.56-2.63c3.51,0,5.47,2.08,5.47,5.79v10.13h-2.53v-9.52c0-2.82-1.16-4.16-3.66-4.16s-4.07,1.68-4.07,4.42v9.26H469Z" transform="translate(0 -4.1)"/><path class="cls-3" d="M486,206.91a1.74,1.74,0,1,1,1.74,1.74A1.75,1.75,0,0,1,486,206.91Zm.47,4.76H489v15.64h-2.52Z" transform="translate(0 -4.1)"/><path class="cls-3" d="M492.94,219.5v0c0-5,2.76-8.08,7.21-8.08s7.21,3.06,7.21,8.08v0c0,5-2.75,8.08-7.21,8.08S492.94,224.51,492.94,219.5Zm11.84,0v0c0-3.7-1.67-5.84-4.63-5.84s-4.63,2.14-4.63,5.84v0c0,3.69,1.67,5.85,4.63,5.85S504.78,223.19,504.78,219.5Z" transform="translate(0 -4.1)"/><path class="cls-3" d="M511.29,211.67h2.52V214H514a4.6,4.6,0,0,1,4.56-2.63c3.51,0,5.47,2.08,5.47,5.79v10.13h-2.52v-9.52c0-2.82-1.16-4.16-3.66-4.16s-4.08,1.68-4.08,4.42v9.26h-2.52Z" transform="translate(0 -4.1)"/><path class="cls-3" d="M527.85,219.55v0c0-4.83,2.76-8.14,7-8.14s6.83,3.16,6.83,7.84v1H530.43c.07,3.24,1.86,5.13,4.65,5.13a4,4,0,0,0,3.84-2l.06-.13h2.52l0,.12c-.53,2.12-2.77,4.2-6.45,4.2C530.55,227.58,527.85,224.45,527.85,219.55Zm2.62-1.35h8.65c-.26-3.09-2-4.56-4.28-4.56S530.75,215.22,530.47,218.2Z" transform="translate(0 -4.1)"/><path class="cls-3" d="M544.82,223.32h2.58c.42,1.3,1.67,2.16,3.67,2.16s3.6-1,3.6-2.42v0c0-1.06-.8-1.8-2.73-2.27l-2.42-.58c-2.93-.69-4.25-2-4.25-4.22h0c0-2.6,2.49-4.56,5.82-4.56s5.55,1.64,5.9,4.19h-2.48c-.33-1.23-1.55-2.09-3.44-2.09s-3.22,1-3.22,2.34v0c0,1.06.78,1.73,2.63,2.18l2.41.58c2.94.71,4.36,2,4.36,4.22v0c0,2.79-2.71,4.71-6.27,4.71S545.11,225.9,544.82,223.32Z" transform="translate(0 -4.1)"/><path class="cls-4" d="M276.31,403.52l0-.17h2.51l0,.14c.2,2.06,2.1,3.49,4.89,3.49s4.61-1.54,4.61-3.76v0c0-2.57-1.84-4-4.77-4h-2.63V397h2.51c2.5,0,4.24-1.54,4.24-3.63v0c0-2.19-1.44-3.45-4-3.45s-4.22,1.3-4.44,3.42v.15h-2.51v-.15c.33-3.41,3-5.69,6.95-5.69s6.62,2.22,6.62,5.4v0c0,2.58-1.83,4.35-4.44,4.91V398c3,.27,5.12,2.17,5.12,5.14v0c0,3.5-3.08,6.08-7.27,6.08S276.58,406.83,276.31,403.52Z" transform="translate(0 -4.1)"/><path class="cls-4" d="M294.4,407.15a1.89,1.89,0,1,1,1.88,1.89A1.89,1.89,0,0,1,294.4,407.15Z" transform="translate(0 -4.1)"/><path class="cls-4" d="M302,403.52v-.16h2.51v.12a4.32,4.32,0,0,0,4.52,3.6,4.55,4.55,0,0,0,4.7-4.82v0a4.55,4.55,0,0,0-4.66-4.77,4.91,4.91,0,0,0-3.48,1.27,4.83,4.83,0,0,0-1,1.25h-2.26l1.1-12h11.65v2.34H305.5l-.71,7.08H305a5.18,5.18,0,0,1,4.47-2.18,6.65,6.65,0,0,1,6.76,7v0a6.93,6.93,0,0,1-7.28,7.17C305.06,409.39,302.28,406.88,302,403.52Z" transform="translate(0 -4.1)"/><path class="cls-4" d="M329.16,388h2.61v10.17H332L341.18,388h3.27l-8.37,9,9.14,11.9h-3.38l-7.56-10.08-2.51,2.77v7.31h-2.61Z" transform="translate(0 -4.1)"/><path class="cls-4" d="M348.74,388h3l7.17,17.47h.24L366.34,388h3v20.94h-2.44v-16h-.16l-6.62,16H358l-6.62-16h-.16v16h-2.44Z" transform="translate(0 -4.1)"/><path class="cls-4" d="M383.09,388h2.35v26.17h-2.35Z" transform="translate(0 -4.1)"/><path class="cls-4" d="M408.37,404.55h-10.2v-2.38c2.83-4.74,6-9.85,9-14.22h3.78v14.27h3v2.33h-3v4.34h-2.55Zm0-2.32V390.38h-.17c-2.35,3.51-5.09,7.83-7.37,11.68v.17Z" transform="translate(0 -4.1)"/><path class="cls-4" d="M417.11,407.15A1.89,1.89,0,1,1,419,409,1.9,1.9,0,0,1,417.11,407.15Z" transform="translate(0 -4.1)"/><path class="cls-4" d="M424.69,403.52l0-.16h2.51l0,.12a4.31,4.31,0,0,0,4.51,3.6,4.55,4.55,0,0,0,4.7-4.82v0a4.54,4.54,0,0,0-4.66-4.77,4.91,4.91,0,0,0-3.48,1.27,5.06,5.06,0,0,0-1,1.25h-2.26l1.1-12H437.8v2.34h-9.59l-.71,7.08h.23a5.18,5.18,0,0,1,4.47-2.18,6.66,6.66,0,0,1,6.77,7v0a6.94,6.94,0,0,1-7.29,7.17C427.78,409.39,425,406.88,424.69,403.52Z" transform="translate(0 -4.1)"/><path class="cls-3" d="M276.31,597.38l0-.18h2.51l0,.15c.2,2.06,2.1,3.48,4.89,3.48s4.61-1.54,4.61-3.76v0c0-2.57-1.84-4-4.77-4h-2.63v-2.21h2.51c2.5,0,4.24-1.54,4.24-3.63v0c0-2.19-1.44-3.45-4-3.45s-4.22,1.31-4.44,3.43v.14h-2.51v-.14c.33-3.41,3-5.69,6.95-5.69s6.62,2.22,6.62,5.4v0c0,2.59-1.83,4.36-4.44,4.91v.06c3,.26,5.12,2.16,5.12,5.13v0c0,3.5-3.08,6.08-7.27,6.08S276.58,600.68,276.31,597.38Z" transform="translate(0 -4.1)"/><path class="cls-3" d="M294.4,601a1.89,1.89,0,1,1,1.88,1.89A1.88,1.88,0,0,1,294.4,601Z" transform="translate(0 -4.1)"/><path class="cls-3" d="M302,597.38v-.16h2.51v.11a4.32,4.32,0,0,0,4.52,3.6,4.55,4.55,0,0,0,4.7-4.82v0a4.55,4.55,0,0,0-4.66-4.77,4.87,4.87,0,0,0-3.48,1.28,4.67,4.67,0,0,0-1,1.25h-2.26l1.1-12h11.65v2.33H305.5l-.71,7.08H305a5.2,5.2,0,0,1,4.47-2.17,6.64,6.64,0,0,1,6.76,7v0a6.93,6.93,0,0,1-7.28,7.17C305.06,603.24,302.28,600.73,302,597.38Z" transform="translate(0 -4.1)"/><path class="cls-3" d="M329.16,581.81h2.61V592H332l9.18-10.17h3.27l-8.37,9,9.14,11.9h-3.38l-7.56-10.09-2.51,2.77v7.32h-2.61Z" transform="translate(0 -4.1)"/><path class="cls-3" d="M348.74,581.81h3l7.17,17.47h.24l7.16-17.47h3v20.94h-2.44v-16h-.16l-6.62,16H358l-6.62-16h-.16v16h-2.44Z" transform="translate(0 -4.1)"/><path class="cls-3" d="M383.09,581.81h2.35V608h-2.35Z" transform="translate(0 -4.1)"/><path class="cls-3" d="M408.37,598.41h-10.2V596c2.83-4.75,6-9.86,9-14.22h3.78v14.26h3v2.34h-3v4.34h-2.55Zm0-2.33V584.23h-.17c-2.35,3.51-5.09,7.84-7.37,11.68v.17Z" transform="translate(0 -4.1)"/><path class="cls-3" d="M417.11,601a1.89,1.89,0,1,1,1.89,1.89A1.89,1.89,0,0,1,417.11,601Z" transform="translate(0 -4.1)"/><path class="cls-3" d="M424.69,597.38l0-.16h2.51l0,.11a4.31,4.31,0,0,0,4.51,3.6,4.55,4.55,0,0,0,4.7-4.82v0a4.54,4.54,0,0,0-4.66-4.77,4.78,4.78,0,0,0-4.44,2.53h-2.26l1.1-12H437.8v2.33h-9.59l-.71,7.08h.23a5.2,5.2,0,0,1,4.47-2.17,6.65,6.65,0,0,1,6.77,7v0a6.94,6.94,0,0,1-7.29,7.17C427.78,603.24,425,600.73,424.69,597.38Z" transform="translate(0 -4.1)"/><path d="M284.43,360.35h9.8v5.77H277V335.43h7.47Z" transform="translate(0 -4.1)"/><path d="M320.68,355.72H303.76a5,5,0,0,0,1.46,3.47,4.49,4.49,0,0,0,3.17,1.21,3.92,3.92,0,0,0,3.89-2.37h8a11,11,0,0,1-6.21,7.35,12.8,12.8,0,0,1-5.38,1.09,13.09,13.09,0,0,1-6.38-1.53,10.88,10.88,0,0,1-4.37-4.37,14.85,14.85,0,0,1,0-13.29,10.71,10.71,0,0,1,4.35-4.37,14.19,14.19,0,0,1,12.72-.05,10.85,10.85,0,0,1,4.31,4.24,12.94,12.94,0,0,1,1.55,6.43A21,21,0,0,1,320.68,355.72Zm-7.52-4.16a3.86,3.86,0,0,0-1.31-3.06,4.88,4.88,0,0,0-3.28-1.13,4.72,4.72,0,0,0-3.17,1.09,4.83,4.83,0,0,0-1.6,3.1Z" transform="translate(0 -4.1)"/><path d="M329,365.38a9.69,9.69,0,0,1-3.93-3,7.87,7.87,0,0,1-1.62-4.26h7.39a2.86,2.86,0,0,0,1.18,2.06,4.21,4.21,0,0,0,2.58.78,3.71,3.71,0,0,0,2.16-.54,1.69,1.69,0,0,0,.77-1.42,1.66,1.66,0,0,0-1.1-1.56,23.06,23.06,0,0,0-3.54-1.11A33.93,33.93,0,0,1,328.5,355a7.61,7.61,0,0,1-3-2.14,5.88,5.88,0,0,1-1.26-4,6.64,6.64,0,0,1,1.16-3.82,7.71,7.71,0,0,1,3.4-2.74,13.12,13.12,0,0,1,5.36-1,10.79,10.79,0,0,1,7.24,2.27,8.86,8.86,0,0,1,3,6h-6.9a3,3,0,0,0-1.12-2,3.9,3.9,0,0,0-2.47-.74,3.47,3.47,0,0,0-2,.5,1.61,1.61,0,0,0-.7,1.38,1.67,1.67,0,0,0,1.12,1.57,17.78,17.78,0,0,0,3.47,1.05,39.18,39.18,0,0,1,4.42,1.38,7.6,7.6,0,0,1,3,2.19,6.17,6.17,0,0,1,1.34,4,6.41,6.41,0,0,1-1.21,3.82,7.88,7.88,0,0,1-3.45,2.65,13.21,13.21,0,0,1-5.22,1A14,14,0,0,1,329,365.38Z" transform="translate(0 -4.1)"/><path d="M356.61,333.77v32.35h-7.47V333.77Z" transform="translate(0 -4.1)"/><path d="M362.58,338a3.74,3.74,0,0,1-1.25-2.86,3.82,3.82,0,0,1,1.25-2.91,4.54,4.54,0,0,1,3.21-1.16,4.49,4.49,0,0,1,3.17,1.16,3.82,3.82,0,0,1,1.25,2.91A3.74,3.74,0,0,1,369,338a4.44,4.44,0,0,1-3.17,1.16A4.49,4.49,0,0,1,362.58,338Zm6.93,3.7v24.39H362V341.73Z" transform="translate(0 -4.1)"/><path d="M397.79,355.72H380.87a5.1,5.1,0,0,0,1.47,3.47,4.49,4.49,0,0,0,3.17,1.21A3.93,3.93,0,0,0,389.4,358h8a10.94,10.94,0,0,1-2.21,4.33,11.07,11.07,0,0,1-4,3,12.87,12.87,0,0,1-5.38,1.09,13.06,13.06,0,0,1-6.38-1.53,10.82,10.82,0,0,1-4.37-4.37,13.49,13.49,0,0,1-1.58-6.65,13.68,13.68,0,0,1,1.55-6.64,10.83,10.83,0,0,1,4.35-4.37,14.21,14.21,0,0,1,12.73-.05,10.76,10.76,0,0,1,4.3,4.24,12.83,12.83,0,0,1,1.55,6.43A18.6,18.6,0,0,1,397.79,355.72Zm-7.52-4.16A3.83,3.83,0,0,0,389,348.5a4.86,4.86,0,0,0-3.28-1.13,4.73,4.73,0,0,0-3.17,1.09,4.82,4.82,0,0,0-1.59,3.1Z" transform="translate(0 -4.1)"/><path d="M426.78,366.12l-6.39-11.58H418.6v11.58h-7.47V335.43h12.54a13.78,13.78,0,0,1,6.19,1.27,8.71,8.71,0,0,1,3.82,3.48,9.64,9.64,0,0,1,1.27,4.91,9.15,9.15,0,0,1-1.72,5.47,9.34,9.34,0,0,1-5.1,3.41l7.09,12.15Zm-8.18-16.87h4.64a4.25,4.25,0,0,0,3.08-1,3.82,3.82,0,0,0,1-2.84,3.68,3.68,0,0,0-1-2.75,4.25,4.25,0,0,0-3.08-1H418.6Z" transform="translate(0 -4.1)"/><path d="M444.29,364.94a11.28,11.28,0,0,1-4.51-4.37,14.17,14.17,0,0,1,0-13.27,11.3,11.3,0,0,1,4.55-4.39,14.45,14.45,0,0,1,12.94,0,11.24,11.24,0,0,1,4.55,4.39,14,14,0,0,1,0,13.25,11.47,11.47,0,0,1-4.59,4.39,13.76,13.76,0,0,1-6.5,1.53A13.41,13.41,0,0,1,444.29,364.94Zm10.09-6.51a6.24,6.24,0,0,0,1.51-4.51,6.4,6.4,0,0,0-1.46-4.5,5,5,0,0,0-7.24,0,6.41,6.41,0,0,0-1.44,4.52,6.49,6.49,0,0,0,1.42,4.51,4.6,4.6,0,0,0,3.56,1.57A4.85,4.85,0,0,0,454.38,358.43Z" transform="translate(0 -4.1)"/><path d="M475,369.27c0,3-.76,5.17-2.27,6.49a9.3,9.3,0,0,1-6.34,2h-2.93v-6.34h1.79a2.56,2.56,0,0,0,1.75-.48,2.05,2.05,0,0,0,.53-1.57V341.73H475ZM468,338a3.74,3.74,0,0,1-1.25-2.86,3.82,3.82,0,0,1,1.25-2.91,4.54,4.54,0,0,1,3.21-1.16,4.47,4.47,0,0,1,3.17,1.16,3.82,3.82,0,0,1,1.25,2.91,3.74,3.74,0,0,1-1.25,2.86,4.43,4.43,0,0,1-3.17,1.16A4.49,4.49,0,0,1,468,338Z" transform="translate(0 -4.1)"/><path d="M480.26,347.28a10.66,10.66,0,0,1,3.87-4.37,10.12,10.12,0,0,1,5.47-1.53,9.34,9.34,0,0,1,4.52,1.05,7.7,7.7,0,0,1,3,2.75v-3.45h7.47v24.39h-7.47v-3.45a8.11,8.11,0,0,1-3,2.75,9.41,9.41,0,0,1-4.53,1.05,10,10,0,0,1-5.42-1.55,10.74,10.74,0,0,1-3.87-4.42,16.09,16.09,0,0,1,0-13.22Zm15.31,2.23a5.25,5.25,0,0,0-7.57,0,6,6,0,0,0-1.55,4.39,6.2,6.2,0,0,0,1.55,4.44,5.21,5.21,0,0,0,7.57,0,7.06,7.06,0,0,0,0-8.83Z" transform="translate(0 -4.1)"/><path d="M514.25,365.38a9.69,9.69,0,0,1-3.93-3,7.87,7.87,0,0,1-1.62-4.26h7.39a2.86,2.86,0,0,0,1.18,2.06,4.21,4.21,0,0,0,2.58.78,3.71,3.71,0,0,0,2.16-.54,1.69,1.69,0,0,0,.77-1.42,1.66,1.66,0,0,0-1.09-1.56,22.9,22.9,0,0,0-3.55-1.11,34.42,34.42,0,0,1-4.37-1.29,7.58,7.58,0,0,1-3-2.14,5.83,5.83,0,0,1-1.27-4,6.72,6.72,0,0,1,1.16-3.82,7.74,7.74,0,0,1,3.41-2.74,13,13,0,0,1,5.35-1,10.79,10.79,0,0,1,7.24,2.27,8.91,8.91,0,0,1,3,6h-6.91a3,3,0,0,0-1.12-2,3.89,3.89,0,0,0-2.47-.74,3.47,3.47,0,0,0-2,.5,1.64,1.64,0,0,0-.7,1.38,1.69,1.69,0,0,0,1.12,1.57,17.78,17.78,0,0,0,3.47,1.05,39.18,39.18,0,0,1,4.42,1.38,7.53,7.53,0,0,1,3,2.19,6.17,6.17,0,0,1,1.34,4,6.4,6.4,0,0,1-1.2,3.82,8,8,0,0,1-3.46,2.65,13.21,13.21,0,0,1-5.22,1A14.05,14.05,0,0,1,514.25,365.38Z" transform="translate(0 -4.1)"/><path class="cls-2" d="M296.19,524.48v20.9q0,4.86-2.73,7.48a10.22,10.22,0,0,1-7.36,2.62,11,11,0,0,1-7.79-2.75q-2.93-2.76-2.92-7.83h7.43a4.63,4.63,0,0,0,.78,2.91,2.78,2.78,0,0,0,2.28,1,2.62,2.62,0,0,0,2.1-.87,3.87,3.87,0,0,0,.74-2.54v-20.9Z" transform="translate(0 -4.1)"/><path class="cls-2" d="M306.88,554a11.13,11.13,0,0,1-4.5-4.37,14.17,14.17,0,0,1,0-13.27A11.3,11.3,0,0,1,307,532a14.45,14.45,0,0,1,12.94,0,11.3,11.3,0,0,1,4.55,4.39A13.05,13.05,0,0,1,326.1,543a12.76,12.76,0,0,1-1.69,6.62,11.34,11.34,0,0,1-4.59,4.39,13.69,13.69,0,0,1-6.49,1.53A13.48,13.48,0,0,1,306.88,554Zm10.1-6.51a6.23,6.23,0,0,0,1.51-4.5,6.4,6.4,0,0,0-1.46-4.51,5,5,0,0,0-7.24,0,7.84,7.84,0,0,0,0,9,4.59,4.59,0,0,0,3.56,1.57A4.85,4.85,0,0,0,317,547.48Z" transform="translate(0 -4.1)"/><path class="cls-2" d="M340.83,531.67a8.47,8.47,0,0,1,4.37-1.15v7.91h-2.05a6.3,6.3,0,0,0-4.2,1.2c-.93.8-1.4,2.21-1.4,4.22v11.32h-7.47V530.78h7.47v4.06A10,10,0,0,1,340.83,531.67Z" transform="translate(0 -4.1)"/><path class="cls-2" d="M362.58,531.48a7.81,7.81,0,0,1,3,2.75v-3.45h7.48v24.35a13.86,13.86,0,0,1-1.33,6.1,10.21,10.21,0,0,1-4.07,4.35,13.14,13.14,0,0,1-6.8,1.62,14.2,14.2,0,0,1-8.79-2.56,9.68,9.68,0,0,1-3.84-6.93h7.38a3.57,3.57,0,0,0,1.67,2.21,6,6,0,0,0,3.23.81,5.09,5.09,0,0,0,3.7-1.34,5.75,5.75,0,0,0,1.37-4.26v-3.45a8.31,8.31,0,0,1-3,2.77,9.09,9.09,0,0,1-4.51,1.07,9.93,9.93,0,0,1-5.46-1.55,10.77,10.77,0,0,1-3.87-4.41,16.12,16.12,0,0,1,0-13.23,10.66,10.66,0,0,1,3.87-4.37,10.08,10.08,0,0,1,5.46-1.53A9.41,9.41,0,0,1,362.58,531.48Zm1.44,7.08a5.24,5.24,0,0,0-7.56,0,6,6,0,0,0-1.55,4.39,6.16,6.16,0,0,0,1.55,4.44,5.2,5.2,0,0,0,7.56,0,7.06,7.06,0,0,0,0-8.83Z" transform="translate(0 -4.1)"/><path class="cls-2" d="M401.33,544.77H384.41a5.1,5.1,0,0,0,1.47,3.47,4.45,4.45,0,0,0,3.17,1.21,3.94,3.94,0,0,0,3.89-2.36h8a11,11,0,0,1-6.21,7.34,12.87,12.87,0,0,1-5.38,1.09,13.06,13.06,0,0,1-6.38-1.53,10.76,10.76,0,0,1-4.37-4.37A13.47,13.47,0,0,1,377,543a13.72,13.72,0,0,1,1.55-6.65,10.83,10.83,0,0,1,4.35-4.37,13.2,13.2,0,0,1,6.43-1.53,13,13,0,0,1,6.3,1.49,10.64,10.64,0,0,1,4.3,4.24,12.77,12.77,0,0,1,1.55,6.42A18.6,18.6,0,0,1,401.33,544.77Zm-7.52-4.15a3.84,3.84,0,0,0-1.31-3.07,4.86,4.86,0,0,0-3.28-1.13,4.73,4.73,0,0,0-3.17,1.09,4.83,4.83,0,0,0-1.59,3.11Z" transform="translate(0 -4.1)"/><path class="cls-2" d="M430.32,555.17l-6.39-11.58h-1.79v11.58h-7.47V524.48h12.54a13.91,13.91,0,0,1,6.19,1.27,8.77,8.77,0,0,1,3.82,3.48,9.65,9.65,0,0,1,1.27,4.92,9.12,9.12,0,0,1-1.72,5.46,9.34,9.34,0,0,1-5.1,3.41l7.09,12.15Zm-8.18-16.87h4.64a4.25,4.25,0,0,0,3.08-1,3.8,3.8,0,0,0,1-2.84,3.7,3.7,0,0,0-1-2.75,4.25,4.25,0,0,0-3.08-1h-4.64Z" transform="translate(0 -4.1)"/><path class="cls-2" d="M447.83,554a11.22,11.22,0,0,1-4.51-4.37,14.13,14.13,0,0,1,0-13.27,11.22,11.22,0,0,1,4.54-4.39,14.45,14.45,0,0,1,12.94,0,11.24,11.24,0,0,1,4.55,4.39,14,14,0,0,1,0,13.25,11.47,11.47,0,0,1-4.59,4.39,13.76,13.76,0,0,1-6.5,1.53A13.41,13.41,0,0,1,447.83,554Zm10.09-6.51a6.23,6.23,0,0,0,1.51-4.5,6.4,6.4,0,0,0-1.46-4.51,5,5,0,0,0-7.24,0,7.84,7.84,0,0,0,0,9,4.6,4.6,0,0,0,3.56,1.57A4.85,4.85,0,0,0,457.92,547.48Z" transform="translate(0 -4.1)"/><path class="cls-2" d="M478.49,558.32c0,3-.76,5.17-2.27,6.49a9.3,9.3,0,0,1-6.34,2H467v-6.34h1.79a2.56,2.56,0,0,0,1.75-.48,2,2,0,0,0,.53-1.57V530.78h7.47Zm-7-31.24a3.74,3.74,0,0,1-1.25-2.86,3.83,3.83,0,0,1,1.25-2.91,4.53,4.53,0,0,1,3.21-1.15,4.46,4.46,0,0,1,3.17,1.15,3.83,3.83,0,0,1,1.25,2.91,3.74,3.74,0,0,1-1.25,2.86,4.43,4.43,0,0,1-3.17,1.16A4.49,4.49,0,0,1,471.52,527.08Z" transform="translate(0 -4.1)"/><path class="cls-2" d="M483.8,536.33a10.66,10.66,0,0,1,3.87-4.37,10.12,10.12,0,0,1,5.47-1.53,9.34,9.34,0,0,1,4.52,1.05,7.77,7.77,0,0,1,3,2.75v-3.45h7.47v24.39h-7.47v-3.45a8,8,0,0,1-3,2.75,9.41,9.41,0,0,1-4.53,1,9.87,9.87,0,0,1-5.42-1.55,10.77,10.77,0,0,1-3.87-4.41,16.12,16.12,0,0,1,0-13.23Zm15.31,2.23a5.25,5.25,0,0,0-7.57,0,6,6,0,0,0-1.55,4.39,6.2,6.2,0,0,0,1.55,4.44,5.21,5.21,0,0,0,7.57,0,7.06,7.06,0,0,0,0-8.83Z" transform="translate(0 -4.1)"/><path class="cls-2" d="M517.79,554.43a9.76,9.76,0,0,1-3.93-3,7.93,7.93,0,0,1-1.62-4.27h7.39a2.86,2.86,0,0,0,1.18,2.06,4.21,4.21,0,0,0,2.58.78,3.71,3.71,0,0,0,2.16-.54,1.69,1.69,0,0,0,.77-1.42,1.64,1.64,0,0,0-1.09-1.55,21.64,21.64,0,0,0-3.55-1.12,34.42,34.42,0,0,1-4.37-1.29,7.48,7.48,0,0,1-3-2.14,5.83,5.83,0,0,1-1.27-4,6.72,6.72,0,0,1,1.16-3.82,7.88,7.88,0,0,1,3.41-2.74,13,13,0,0,1,5.35-1,10.79,10.79,0,0,1,7.24,2.27,8.91,8.91,0,0,1,3,6h-6.91a3,3,0,0,0-1.12-2,3.89,3.89,0,0,0-2.47-.74,3.47,3.47,0,0,0-2,.5,1.64,1.64,0,0,0-.7,1.38,1.69,1.69,0,0,0,1.12,1.57,17.78,17.78,0,0,0,3.47,1.05,39.18,39.18,0,0,1,4.42,1.38,7.53,7.53,0,0,1,3,2.19,6.17,6.17,0,0,1,1.34,4,6.45,6.45,0,0,1-1.2,3.83,8,8,0,0,1-3.46,2.64,13.21,13.21,0,0,1-5.22,1A14.05,14.05,0,0,1,517.79,554.43Z" transform="translate(0 -4.1)"/><polyline class="cls-5" points="881.66 160.53 900.57 185.41 918.82 160.53"/><polyline class="cls-6" points="881.66 357.83 900.57 382.72 918.82 357.83"/><polyline class="cls-5" points="881.66 561.02 900.57 585.9 918.82 561.02"/><polygon class="cls-7" points="564.61 357.01 550.79 364.28 553.43 348.89 542.25 337.99 557.71 335.75 564.61 321.75 571.52 335.75 586.97 337.99 575.79 348.89 578.43 364.28 564.61 357.01"/><polygon class="cls-7" points="573.36 551.27 559.54 558.53 562.18 543.15 551 532.25 566.45 530 573.36 516 580.27 530 595.72 532.25 584.54 543.15 587.18 558.53 573.36 551.27"/><circle class="cls-2" cx="152.49" cy="371.9" r="68.26"/><circle class="cls-2" cx="152.49" cy="558.53" r="68.26"/><circle class="cls-2" cx="152.49" cy="183.05" r="68.26"/></g></g></svg>