<svg xmlns="http://www.w3.org/2000/svg" xmlns:xlink="http://www.w3.org/1999/xlink" viewBox="0 0 550.11 976.11"><defs><style>.cls-1{fill:none;}.cls-2{clip-path:url(#clip-path);}.cls-3,.cls-8{fill:#fff;}.cls-3{stroke:#000;stroke-miterlimit:10;stroke-width:0.88px;}.cls-4{fill:#f4da45;}.cls-5{fill:#1a1a1a;}.cls-6{fill:#ededed;}.cls-7{fill:#18150e;}</style><clipPath id="clip-path" transform="translate(0.55 139.57)"><rect class="cls-1" width="552.09" height="815" rx="29.23"/></clipPath></defs><g id="Layer_2" data-name="Layer 2"><g id="Layer_1-2" data-name="Layer 1"><g class="cls-2"><image width="1080" height="1920" transform="translate(1.05) scale(0.51)" xlink:href="../../../Entrega/3%20-%20Recursos%20Visuales%20-%20Universo/3/8.jpg"/><rect class="cls-3" x="0.55" y="783.76" width="467.21" height="61.96" rx="22.59"/><rect class="cls-4" y="869.42" width="550.11" height="61.36" rx="12.94"/><path class="cls-5" d="M190.3,751.24h2.57l5.51,15.28h-2.5l-1.37-4.13h-5.85l-1.39,4.13h-2.48Zm-1,9.24h4.57l-2.2-6.56h-.18Z" transform="translate(0.55 139.57)"/><path class="cls-5" d="M199.69,758.9v0c0-4.93,2.64-8,6.89-8a6.08,6.08,0,0,1,6.35,5.17v.05h-2.35v0a3.93,3.93,0,0,0-4-3.09c-2.75,0-4.46,2.27-4.46,5.9v0c0,3.62,1.71,5.89,4.47,5.89a3.83,3.83,0,0,0,4-2.8l0,0h2.35V762c-.45,2.93-2.93,4.88-6.34,4.88C202.34,766.89,199.69,763.82,199.69,758.9Z" transform="translate(0.55 139.57)"/><path class="cls-5" d="M215.43,758.89v0c0-4.91,2.75-8,7.13-8s7.13,3.09,7.13,8v0c0,4.89-2.71,8-7.13,8S215.43,763.79,215.43,758.89Zm11.83,0v0c0-3.61-1.81-5.89-4.7-5.89s-4.71,2.28-4.71,5.89v0c0,3.57,1.77,5.9,4.71,5.9S227.26,762.46,227.26,758.89Z" transform="translate(0.55 139.57)"/><path class="cls-5" d="M232.91,751.24h6c3.14,0,5.09,1.82,5.09,4.66v0a4.39,4.39,0,0,1-3,4.35l3.43,6.25h-2.74l-3.12-5.88h-3.34v5.88h-2.37Zm5.79,7.48a2.57,2.57,0,0,0,2.88-2.74v0a2.64,2.64,0,0,0-3-2.73h-3.34v5.49Z" transform="translate(0.55 139.57)"/><path class="cls-5" d="M247.4,751.24h5.52c4.53,0,7.19,2.79,7.19,7.59v0c0,4.85-2.64,7.67-7.19,7.67H247.4Zm5.25,13.24c3.2,0,5-2.05,5-5.59v0c0-3.51-1.87-5.58-5-5.58h-2.88v11.2Z" transform="translate(0.55 139.57)"/><path class="cls-5" d="M267,751.24h2.56L275,766.52h-2.5l-1.38-4.13h-5.84l-1.39,4.13h-2.49Zm-1,9.24h4.58l-2.21-6.56h-.18Z" transform="translate(0.55 139.57)"/><path class="cls-5" d="M277.68,751.24h6c3.13,0,5.08,1.82,5.08,4.66v0a4.38,4.38,0,0,1-3,4.35l3.43,6.25h-2.75l-3.11-5.88h-3.35v5.88h-2.37Zm5.79,7.48a2.57,2.57,0,0,0,2.88-2.74v0a2.63,2.63,0,0,0-3-2.73h-3.35v5.49Z" transform="translate(0.55 139.57)"/><path class="cls-5" d="M296.92,751.24h2.58l4.08,12.42h.18l4.09-12.42h2.57L305,766.52h-2.61Z" transform="translate(0.55 139.57)"/><path class="cls-5" d="M313.09,751.24h2.37v15.28h-2.37Z" transform="translate(0.55 139.57)"/><path class="cls-5" d="M318.58,762.57v-.14h2.33v.12c.13,1.39,1.6,2.28,3.64,2.28s3.34-1,3.34-2.4h0c0-1.17-.83-1.94-2.85-2.37l-1.67-.36c-3.11-.66-4.44-2.1-4.44-4.35h0c0-2.64,2.3-4.46,5.54-4.46s5.36,1.83,5.53,4.2v.15h-2.3l0-.14c-.2-1.25-1.4-2.16-3.25-2.15s-3.12.84-3.12,2.28h0c0,1.13.81,1.87,2.79,2.3l1.66.37c3.21.69,4.52,2,4.52,4.25h0c0,2.92-2.28,4.74-5.83,4.74S318.79,765.14,318.58,762.57Z" transform="translate(0.55 139.57)"/><path class="cls-5" d="M333.41,751.24h2.37v15.28h-2.37Z" transform="translate(0.55 139.57)"/><path class="cls-5" d="M343.49,753.28h-4.81v-2h12v2h-4.8v13.24h-2.37Z" transform="translate(0.55 139.57)"/><path class="cls-5" d="M356.16,751.24h2.56l5.52,15.28h-2.5l-1.38-4.13h-5.84l-1.39,4.13h-2.49Zm-1,9.24h4.58l-2.21-6.56h-.18Z" transform="translate(0.55 139.57)"/><path class="cls-6" d="M13.8,269.32H333.27a40.13,40.13,0,0,1,40.13,40.13v0a40.13,40.13,0,0,1-40.13,40.13H53.94A40.13,40.13,0,0,1,13.8,309.45V269.32a0,0,0,0,1,0,0Z"/><path class="cls-7" d="M205.79,217.14H485.12a40.13,40.13,0,0,1,40.13,40.13v0a40.13,40.13,0,0,1-40.13,40.13H165.65a0,0,0,0,1,0,0V257.27a40.13,40.13,0,0,1,40.13-40.13Z" transform="translate(691.45 654.12) rotate(-180)"/><path class="cls-5" d="M42.79,153.53h1.62v5.62h7.13v-5.62h1.62v13H51.54V160.6H44.41v5.92H42.79Z" transform="translate(0.55 139.57)"/><path class="cls-5" d="M55.8,161.68v0c0-3.12,1.71-5,4.47-5s4.48,1.9,4.48,5v0c0,3.1-1.71,5-4.48,5S55.8,164.78,55.8,161.68Zm7.34,0v0c0-2.3-1-3.63-2.87-3.63s-2.87,1.33-2.87,3.63v0c0,2.28,1,3.62,2.87,3.62S63.14,164,63.14,161.68Z" transform="translate(0.55 139.57)"/><path class="cls-5" d="M67.27,153h1.57v13.56H67.27Z" transform="translate(0.55 139.57)"/><path class="cls-5" d="M71.27,163.81v0c0-1.73,1.28-2.73,3.54-2.86l2.78-.17v-.88c0-1.2-.73-1.85-2.18-1.85-1.16,0-1.93.43-2.18,1.19v0H71.66v-.06c.26-1.52,1.73-2.55,3.8-2.55,2.37,0,3.7,1.22,3.7,3.24v6.64H77.59v-1.43h-.14a3.25,3.25,0,0,1-2.94,1.6A2.94,2.94,0,0,1,71.27,163.81Zm3.56,1.52a2.53,2.53,0,0,0,2.76-2.43V162l-2.59.16c-1.48.09-2.13.61-2.13,1.58h0C72.87,164.75,73.71,165.33,74.83,165.33Z" transform="translate(0.55 139.57)"/><path class="cls-5" d="M82.18,165.43a1.25,1.25,0,1,1,1.25,1.25A1.21,1.21,0,0,1,82.18,165.43Zm.35-11.91h1.8l-.16,8.68H82.68Z" transform="translate(0.55 139.57)"/><path class="cls-5" d="M96.52,155H92.33v-1.46h10V155H98.14v11.53H96.52Z" transform="translate(0.55 139.57)"/><path class="cls-5" d="M102.35,161.7h0c0-3,1.71-5.05,4.35-5.05s4.24,2,4.24,4.87v.61h-7c0,2,1.15,3.18,2.88,3.18a2.52,2.52,0,0,0,2.39-1.21l0-.08h1.57l0,.07a3.87,3.87,0,0,1-4,2.61C104,166.69,102.35,164.75,102.35,161.7Zm1.63-.83h5.36c-.16-1.92-1.22-2.83-2.65-2.83S104.15,159,104,160.87Z" transform="translate(0.55 139.57)"/><path class="cls-5" d="M113.37,156.81h1.57v1.46h.14a2.87,2.87,0,0,1,2.83-1.63c2.18,0,3.39,1.29,3.39,3.6v6.28h-1.56v-5.91c0-1.74-.72-2.58-2.27-2.58a2.45,2.45,0,0,0-2.53,2.75v5.74h-1.57Z" transform="translate(0.55 139.57)"/><path class="cls-5" d="M124.05,167.29h1.65c.17.74,1,1.26,2.43,1.26,1.74,0,2.77-.82,2.77-2.25v-2h-.14a3.37,3.37,0,0,1-3,1.67c-2.51,0-4.06-1.94-4.06-4.66v0c0-2.72,1.56-4.69,4.1-4.69a3.33,3.33,0,0,1,3,1.78h.1v-1.61h1.57v9.57c0,2.17-1.67,3.56-4.32,3.56C125.79,169.94,124.29,168.89,124.05,167.29Zm6.89-5.94v0c0-1.92-1.09-3.3-2.88-3.3s-2.81,1.38-2.81,3.3v0c0,1.93,1,3.28,2.81,3.28S130.94,163.28,130.94,161.35Z" transform="translate(0.55 139.57)"/><path class="cls-5" d="M134.89,161.68v0c0-3.12,1.71-5,4.47-5s4.47,1.9,4.47,5v0c0,3.1-1.71,5-4.47,5S134.89,164.78,134.89,161.68Zm7.34,0v0c0-2.3-1-3.63-2.87-3.63s-2.87,1.33-2.87,3.63v0c0,2.28,1,3.62,2.87,3.62S142.23,164,142.23,161.68Z" transform="translate(0.55 139.57)"/><path class="cls-5" d="M154.62,155.33h-.14l-3.3,2.39V156l3.45-2.48h1.62v13h-1.63Z" transform="translate(0.55 139.57)"/><path class="cls-5" d="M159.77,160v0c0-4.18,1.71-6.79,4.58-6.79s4.6,2.61,4.6,6.79v0c0,4.18-1.73,6.8-4.6,6.8S159.77,164.21,159.77,160Zm7.55,0v0c0-3.31-1.11-5.37-3-5.37s-2.95,2.06-2.95,5.37v0c0,3.31,1.09,5.38,2.95,5.38S167.32,163.34,167.32,160Z" transform="translate(0.55 139.57)"/><path class="cls-5" d="M171.39,160v0c0-4.18,1.71-6.79,4.58-6.79s4.6,2.61,4.6,6.79v0c0,4.18-1.73,6.8-4.6,6.8S171.39,164.21,171.39,160Zm7.55,0v0c0-3.31-1.11-5.37-3-5.37s-3,2.06-3,5.37v0c0,3.31,1.09,5.38,3,5.38S178.94,163.34,178.94,160Z" transform="translate(0.55 139.57)"/><path class="cls-5" d="M183,160v0c0-4.18,1.71-6.79,4.59-6.79s4.6,2.61,4.6,6.79v0c0,4.18-1.73,6.8-4.6,6.8S183,164.21,183,160Zm7.56,0v0c0-3.31-1.11-5.37-3-5.37s-3,2.06-3,5.37v0c0,3.31,1.09,5.38,3,5.38S190.56,163.34,190.56,160Z" transform="translate(0.55 139.57)"/><path class="cls-5" d="M199.57,161.68v0c0-3,1.6-5,4.06-5a3.35,3.35,0,0,1,3,1.7h.14V153h1.57v13.56H206.8V165h-.14a3.32,3.32,0,0,1-3,1.72C201.18,166.69,199.57,164.7,199.57,161.68Zm7.27,0v0c0-2.24-1.08-3.63-2.85-3.63s-2.82,1.37-2.82,3.63v0c0,2.26,1.05,3.62,2.82,3.62S206.84,163.92,206.84,161.68Z" transform="translate(0.55 139.57)"/><path class="cls-5" d="M210.89,161.68v0c0-3.12,1.71-5,4.48-5s4.47,1.9,4.47,5v0c0,3.1-1.71,5-4.47,5S210.89,164.78,210.89,161.68Zm7.35,0v0c0-2.3-1-3.63-2.87-3.63s-2.87,1.33-2.87,3.63v0c0,2.28,1,3.62,2.87,3.62S218.24,164,218.24,161.68Zm-3.65-6.22,1.6-3.06H218L216,155.46Z" transform="translate(0.55 139.57)"/><path class="cls-5" d="M222.37,153h1.56v13.56h-1.56Z" transform="translate(0.55 139.57)"/><path class="cls-5" d="M226.37,163.81v0c0-1.73,1.27-2.73,3.53-2.86l2.79-.17v-.88c0-1.2-.73-1.85-2.18-1.85-1.16,0-1.93.43-2.18,1.19v0h-1.57v-.06c.25-1.52,1.73-2.55,3.8-2.55,2.37,0,3.69,1.22,3.69,3.24v6.64h-1.56v-1.43h-.15a3.24,3.24,0,0,1-2.93,1.6A2.94,2.94,0,0,1,226.37,163.81Zm3.56,1.52a2.54,2.54,0,0,0,2.76-2.43V162l-2.6.16c-1.47.09-2.12.61-2.12,1.58h0C228,164.75,228.81,165.33,229.93,165.33Z" transform="translate(0.55 139.57)"/><path class="cls-5" d="M237.12,156.81h1.57v1.45h.14a2.53,2.53,0,0,1,2.59-1.62,4.89,4.89,0,0,1,.79.07v1.52a5.23,5.23,0,0,0-1-.09,2.35,2.35,0,0,0-2.55,2.37v6h-1.57Z" transform="translate(0.55 139.57)"/><path class="cls-5" d="M243.39,161.7h0c0-3,1.71-5.05,4.34-5.05s4.24,2,4.24,4.87v.61h-7c0,2,1.15,3.18,2.88,3.18a2.54,2.54,0,0,0,2.39-1.21l0-.08h1.57l0,.07a3.87,3.87,0,0,1-4,2.61C245.06,166.69,243.39,164.75,243.39,161.7Zm1.63-.83h5.36c-.16-1.92-1.22-2.83-2.65-2.83S245.19,159,245,160.87Z" transform="translate(0.55 139.57)"/><path class="cls-5" d="M253.91,164h1.61a2.14,2.14,0,0,0,2.27,1.35c1.31,0,2.24-.63,2.24-1.51v0c0-.65-.5-1.11-1.7-1.4l-1.5-.36c-1.82-.43-2.64-1.23-2.64-2.62h0c0-1.61,1.55-2.83,3.61-2.83s3.45,1,3.67,2.61h-1.54a2,2,0,0,0-2.14-1.3c-1.15,0-2,.59-2,1.45v0c0,.65.48,1.07,1.63,1.35l1.49.36c1.83.44,2.71,1.23,2.71,2.62h0c0,1.73-1.68,2.93-3.89,2.93S254.09,165.65,253.91,164Z" transform="translate(0.55 139.57)"/><path class="cls-5" d="M276,165.06h-.14a3.26,3.26,0,0,1-3,1.63c-2.46,0-4.07-2-4.07-5v0c0-3,1.6-5,4.07-5a3.49,3.49,0,0,1,3.07,1.79H276v-1.62h1.57v12.95H276Zm.05-3.38v0c0-2.23-1.11-3.63-2.87-3.63s-2.83,1.37-2.83,3.63v0c0,2.26,1.06,3.62,2.84,3.62S276.07,163.9,276.07,161.68Z" transform="translate(0.55 139.57)"/><path class="cls-5" d="M280.4,163.1v-6.29H282v5.91c0,1.75.63,2.58,2.18,2.58a2.44,2.44,0,0,0,2.62-2.74v-5.75h1.56v9.71h-1.56v-1.45h-.15a2.91,2.91,0,0,1-2.88,1.62C281.54,166.69,280.4,165.39,280.4,163.1Z" transform="translate(0.55 139.57)"/><path class="cls-5" d="M290.77,161.7h0c0-3,1.71-5.05,4.34-5.05s4.24,2,4.24,4.87v.61h-7c0,2,1.15,3.18,2.88,3.18a2.54,2.54,0,0,0,2.39-1.21l0-.08h1.57l0,.07a3.87,3.87,0,0,1-4,2.61C292.44,166.69,290.77,164.75,290.77,161.7Zm1.63-.83h5.36c-.16-1.92-1.22-2.83-2.65-2.83S292.57,159,292.4,160.87Z" transform="translate(0.55 139.57)"/><path class="cls-5" d="M307.59,164v-5.89h-1.53v-1.3h1.53V154.3h1.62v2.51h2.12v1.3h-2.12v5.49c0,1.15.39,1.6,1.4,1.6a5.86,5.86,0,0,0,.72,0v1.33a4.6,4.6,0,0,1-.91.09C308.43,166.59,307.59,165.85,307.59,164Z" transform="translate(0.55 139.57)"/><path class="cls-5" d="M313.06,161.7h0c0-3,1.71-5.05,4.34-5.05s4.24,2,4.24,4.87v.61h-7c0,2,1.15,3.18,2.88,3.18a2.51,2.51,0,0,0,2.38-1.21l0-.08h1.57l0,.07a3.87,3.87,0,0,1-4,2.61C314.73,166.69,313.06,164.75,313.06,161.7Zm1.62-.83h5.37c-.16-1.92-1.22-2.83-2.66-2.83S314.86,159,314.68,160.87Z" transform="translate(0.55 139.57)"/><path class="cls-5" d="M324.08,156.81h1.56v1.46h.15a2.86,2.86,0,0,1,2.83-1.63c2.17,0,3.39,1.29,3.39,3.6v6.28h-1.57v-5.91c0-1.74-.72-2.58-2.27-2.58a2.46,2.46,0,0,0-2.53,2.75v5.74h-1.56Z" transform="translate(0.55 139.57)"/><path class="cls-5" d="M334.76,167.29h1.65c.17.74,1,1.26,2.43,1.26,1.74,0,2.77-.82,2.77-2.25v-2h-.14a3.38,3.38,0,0,1-3.05,1.67c-2.51,0-4.07-1.94-4.07-4.66v0c0-2.72,1.57-4.69,4.11-4.69a3.3,3.3,0,0,1,3,1.78h.11v-1.61h1.57v9.57c0,2.17-1.68,3.56-4.32,3.56C336.5,169.94,335,168.89,334.76,167.29Zm6.89-5.94v0c0-1.92-1.09-3.3-2.88-3.3s-2.81,1.38-2.81,3.3v0c0,1.93,1,3.28,2.81,3.28S341.65,163.28,341.65,161.35Z" transform="translate(0.55 139.57)"/><path class="cls-5" d="M345.59,161.68v0c0-3.12,1.71-5,4.48-5s4.47,1.9,4.47,5v0c0,3.1-1.71,5-4.47,5S345.59,164.78,345.59,161.68Zm7.35,0v0c0-2.3-1-3.63-2.87-3.63s-2.87,1.33-2.87,3.63v0c0,2.28,1,3.62,2.87,3.62S352.94,164,352.94,161.68Z" transform="translate(0.55 139.57)"/><path class="cls-5" d="M49.36,184.59h-.14a3.25,3.25,0,0,1-3,1.63c-2.47,0-4.08-2-4.08-5h0c0-3.05,1.6-5,4.08-5A3.51,3.51,0,0,1,49.26,178h.1v-1.62h1.57v12.95H49.36Zm0-3.39h0c0-2.24-1.11-3.63-2.86-3.63s-2.84,1.37-2.84,3.63h0c0,2.26,1.06,3.63,2.85,3.63S49.41,183.43,49.41,181.2Z" transform="translate(0.55 139.57)"/><path class="cls-5" d="M53.74,182.63v-6.29h1.57v5.91c0,1.75.63,2.58,2.18,2.58a2.44,2.44,0,0,0,2.62-2.74v-5.75h1.56v9.71H60.11V184.6H60a2.9,2.9,0,0,1-2.88,1.62C54.88,186.22,53.74,184.92,53.74,182.63Z" transform="translate(0.55 139.57)"/><path class="cls-5" d="M64.11,181.23h0c0-3,1.71-5.05,4.35-5.05s4.24,2,4.24,4.86v.62h-7c.05,2,1.15,3.17,2.88,3.17a2.51,2.51,0,0,0,2.39-1.2l0-.08h1.57l0,.07a3.86,3.86,0,0,1-4,2.61C65.78,186.22,64.11,184.27,64.11,181.23Zm1.63-.84H71.1c-.16-1.91-1.22-2.82-2.65-2.82S65.91,178.55,65.74,180.39Z" transform="translate(0.55 139.57)"/><path class="cls-5" d="M80.32,176.34h1.57v1.48H82a2.65,2.65,0,0,1,2.62-1.65,2.81,2.81,0,0,1,2.68,1.7h.15a3.26,3.26,0,0,1,3-1.7,2.84,2.84,0,0,1,3.09,3.17v6.71H92V179.7c0-1.43-.66-2.14-2-2.14a2.18,2.18,0,0,0-2.24,2.25v6.24H86.14v-6.59a1.84,1.84,0,0,0-2-1.9A2.34,2.34,0,0,0,81.89,180v6H80.32Z" transform="translate(0.55 139.57)"/><path class="cls-5" d="M95.88,181.23h0c0-3,1.71-5.05,4.35-5.05s4.24,2,4.24,4.86v.62h-7c0,2,1.16,3.17,2.89,3.17a2.5,2.5,0,0,0,2.38-1.2l0-.08h1.56l0,.07a3.86,3.86,0,0,1-4,2.61C97.56,186.22,95.88,184.27,95.88,181.23Zm1.63-.84h5.37c-.17-1.91-1.23-2.82-2.66-2.82S97.68,178.55,97.51,180.39Z" transform="translate(0.55 139.57)"/><path class="cls-5" d="M111.6,183.57h1.6a2.14,2.14,0,0,0,2.28,1.34c1.3,0,2.23-.62,2.23-1.5v0c0-.65-.5-1.11-1.69-1.4l-1.51-.36c-1.82-.43-2.64-1.23-2.64-2.62h0c0-1.61,1.55-2.83,3.62-2.83s3.44,1,3.66,2.6h-1.54a2,2,0,0,0-2.13-1.29c-1.16,0-2,.59-2,1.45v0c0,.65.48,1.07,1.63,1.35l1.49.36c1.83.44,2.71,1.23,2.71,2.62h0c0,1.73-1.68,2.93-3.89,2.93S111.78,185.18,111.6,183.57Z" transform="translate(0.55 139.57)"/><path class="cls-5" d="M121.26,181.2h0c0-3.12,1.71-5,4.47-5s4.48,1.9,4.48,5h0c0,3.11-1.71,5-4.48,5S121.26,184.31,121.26,181.2Zm7.35,0h0c0-2.3-1-3.63-2.88-3.63s-2.87,1.33-2.87,3.63h0c0,2.29,1,3.63,2.87,3.63S128.61,183.49,128.61,181.2Z" transform="translate(0.55 139.57)"/><path class="cls-5" d="M134.44,184.5h-.14v1.55h-1.57V172.49h1.57v5.38h.14a3.36,3.36,0,0,1,3-1.7c2.47,0,4.07,2,4.07,5h0c0,3-1.61,5-4.07,5A3.33,3.33,0,0,1,134.44,184.5Zm5.5-3.3h0c0-2.26-1.06-3.63-2.83-3.63s-2.85,1.39-2.85,3.63h0c0,2.25,1.08,3.63,2.85,3.63S139.94,183.46,139.94,181.2Z" transform="translate(0.55 139.57)"/><path class="cls-5" d="M144,176.34h1.57v1.44h.14a2.54,2.54,0,0,1,2.6-1.61,4.75,4.75,0,0,1,.78.07v1.52a5.12,5.12,0,0,0-1-.09,2.35,2.35,0,0,0-2.56,2.36v6H144Z" transform="translate(0.55 139.57)"/><path class="cls-5" d="M150.42,183.34v0c0-1.73,1.28-2.73,3.54-2.86l2.78-.17v-.89c0-1.19-.73-1.84-2.18-1.84-1.16,0-1.93.43-2.18,1.19v0h-1.56v-.05c.25-1.52,1.72-2.55,3.8-2.55,2.36,0,3.69,1.22,3.69,3.23v6.65h-1.57v-1.43h-.14a3.25,3.25,0,0,1-2.94,1.6A2.94,2.94,0,0,1,150.42,183.34Zm3.57,1.52a2.53,2.53,0,0,0,2.75-2.43v-.88l-2.59.16c-1.48.09-2.13.61-2.13,1.57v0C152,184.28,152.86,184.86,154,184.86Z" transform="translate(0.55 139.57)"/><path class="cls-5" d="M161.17,176.34h1.57v1.44h.14a2.54,2.54,0,0,1,2.6-1.61,4.75,4.75,0,0,1,.78.07v1.52a5,5,0,0,0-1-.09,2.35,2.35,0,0,0-2.56,2.36v6h-1.57Z" transform="translate(0.55 139.57)"/><path class="cls-5" d="M167.44,181.2h0c0-3.12,1.71-5,4.47-5s4.48,1.9,4.48,5h0c0,3.11-1.71,5-4.48,5S167.44,184.31,167.44,181.2Zm7.35,0h0c0-2.3-1-3.63-2.88-3.63s-2.87,1.33-2.87,3.63h0c0,2.29,1,3.63,2.87,3.63S174.79,183.49,174.79,181.2Z" transform="translate(0.55 139.57)"/><path class="cls-5" d="M178.82,176.34h1.57v1.46h.15a2.85,2.85,0,0,1,2.82-1.63c2.18,0,3.4,1.29,3.4,3.59v6.29h-1.57v-5.91c0-1.74-.72-2.58-2.27-2.58a2.45,2.45,0,0,0-2.53,2.74v5.75h-1.57Z" transform="translate(0.55 139.57)"/><path class="cls-5" d="M194.29,181.2h0c0-3.05,1.6-5,4.07-5a3.34,3.34,0,0,1,3,1.7h.15v-5.38h1.56v13.56h-1.56V184.5h-.15a3.31,3.31,0,0,1-3,1.72C195.9,186.22,194.29,184.23,194.29,181.2Zm7.27,0h0c0-2.24-1.08-3.63-2.84-3.63s-2.83,1.37-2.83,3.63h0c0,2.26,1.05,3.63,2.83,3.63S201.56,183.45,201.56,181.2Z" transform="translate(0.55 139.57)"/><path class="cls-5" d="M205.62,181.23h0c0-3,1.71-5.05,4.34-5.05s4.25,2,4.25,4.86v.62h-7c0,2,1.15,3.17,2.88,3.17a2.53,2.53,0,0,0,2.39-1.2l0-.08h1.57l0,.07a3.87,3.87,0,0,1-4,2.61C207.29,186.22,205.62,184.27,205.62,181.23Zm1.63-.84h5.36c-.16-1.91-1.22-2.82-2.65-2.82S207.42,178.55,207.25,180.39Z" transform="translate(0.55 139.57)"/><path class="cls-5" d="M221.83,176.34h1.56v1.48h.15a2.65,2.65,0,0,1,2.62-1.65,2.81,2.81,0,0,1,2.68,1.7H229a3.27,3.27,0,0,1,3-1.7,2.83,2.83,0,0,1,3.08,3.17v6.71h-1.56V179.7c0-1.43-.66-2.14-2-2.14a2.18,2.18,0,0,0-2.24,2.25v6.24h-1.57v-6.59a1.84,1.84,0,0,0-2-1.9,2.34,2.34,0,0,0-2.24,2.47v6h-1.56Z" transform="translate(0.55 139.57)"/><path class="cls-5" d="M237.62,173.39a1.08,1.08,0,1,1,1.08,1.08A1.09,1.09,0,0,1,237.62,173.39Zm.29,3h1.57v9.71h-1.57Z" transform="translate(0.55 139.57)"/><path class="cls-5" d="M246.77,176.34h1.66l2.66,8h.14l2.66-8h1.65L252,186.05h-1.58Z" transform="translate(0.55 139.57)"/><path class="cls-5" d="M257.36,173.39a1.08,1.08,0,1,1,1.08,1.08A1.09,1.09,0,0,1,257.36,173.39Zm.29,3h1.57v9.71h-1.57Z" transform="translate(0.55 139.57)"/><path class="cls-5" d="M261.6,183.34v0c0-1.73,1.27-2.73,3.53-2.86l2.79-.17v-.89c0-1.19-.73-1.84-2.18-1.84-1.16,0-1.93.43-2.18,1.19v0H262v-.05c.25-1.52,1.73-2.55,3.8-2.55,2.37,0,3.69,1.22,3.69,3.23v6.65h-1.56v-1.43h-.15a3.24,3.24,0,0,1-2.93,1.6A2.94,2.94,0,0,1,261.6,183.34Zm3.56,1.52a2.54,2.54,0,0,0,2.76-2.43v-.88l-2.6.16c-1.47.09-2.12.61-2.12,1.57v0C263.2,184.28,264,184.86,265.16,184.86Z" transform="translate(0.55 139.57)"/><path class="cls-5" d="M270.69,189.38V188h.24c1.05,0,1.45-.37,1.45-1.44V176.34h1.56v10.19c0,2-.94,2.85-3,2.85Zm1.39-16a1.08,1.08,0,1,1,1.08,1.08A1.09,1.09,0,0,1,272.08,173.39Z" transform="translate(0.55 139.57)"/><path class="cls-5" d="M276.41,181.23h0c0-3,1.71-5.05,4.35-5.05s4.24,2,4.24,4.86v.62h-7c.05,2,1.16,3.17,2.88,3.17a2.51,2.51,0,0,0,2.39-1.2l0-.08h1.56l0,.07a3.86,3.86,0,0,1-4,2.61C278.08,186.22,276.41,184.27,276.41,181.23Zm1.63-.84h5.37c-.17-1.91-1.23-2.82-2.66-2.82S278.21,178.55,278,180.39Z" transform="translate(0.55 139.57)"/><path class="cls-5" d="M292,183.34v0c0-1.73,1.28-2.73,3.54-2.86l2.79-.17v-.89c0-1.19-.73-1.84-2.18-1.84-1.16,0-1.93.43-2.18,1.19v0h-1.57v-.05c.25-1.52,1.73-2.55,3.8-2.55,2.37,0,3.69,1.22,3.69,3.23v6.65h-1.56v-1.43h-.15a3.24,3.24,0,0,1-2.93,1.6A3,3,0,0,1,292,183.34Zm3.57,1.52a2.54,2.54,0,0,0,2.76-2.43v-.88l-2.6.16c-1.47.09-2.12.61-2.12,1.57v0C293.65,184.28,294.49,184.86,295.61,184.86Z" transform="translate(0.55 139.57)"/><path class="cls-5" d="M308.18,173.06h8.05v1.46H309.8v4.16h6.1v1.44h-6.1v4.47h6.43v1.46h-8.05Z" transform="translate(0.55 139.57)"/><path class="cls-5" d="M319.15,181.58v-8.52h1.62v8.41a3.54,3.54,0,0,0,7.08,0v-8.41h1.62v8.52c0,2.83-1.93,4.77-5.15,4.77S319.15,184.41,319.15,181.58Z" transform="translate(0.55 139.57)"/><path class="cls-5" d="M17.34,669.2h9.29v1.69H19.21v4.81h7v1.66h-7v5.15h7.42v1.69H17.34Z" transform="translate(0.55 139.57)"/><path class="cls-5" d="M29.22,681.34h1.85a2.48,2.48,0,0,0,2.63,1.55c1.5,0,2.57-.72,2.57-1.74v0c0-.76-.57-1.29-2-1.62l-1.74-.42c-2.09-.49-3-1.41-3-3h0c0-1.86,1.79-3.26,4.17-3.26s4,1.17,4.23,3H36.16a2.3,2.3,0,0,0-2.46-1.5c-1.33,0-2.31.69-2.31,1.68v0c0,.76.56,1.23,1.88,1.56L35,678c2.1.51,3.12,1.43,3.12,3v0c0,2-1.94,3.37-4.49,3.37S29.42,683.19,29.22,681.34Z" transform="translate(0.55 139.57)"/><path class="cls-5" d="M40.37,678.56v0c0-3.48,2-5.74,5.13-5.74,2.72,0,4.35,1.57,4.69,3.56v.06H48.4v0a2.76,2.76,0,0,0-2.89-2c-2,0-3.28,1.62-3.28,4.14v0c0,2.58,1.28,4.23,3.28,4.23a2.73,2.73,0,0,0,2.88-1.91l0-.06h1.79l0,.11c-.45,2-2,3.47-4.65,3.47C42.37,684.39,40.37,682.12,40.37,678.56Z" transform="translate(0.55 139.57)"/><path class="cls-5" d="M52.83,673h1.81v1.67h.17a2.91,2.91,0,0,1,3-1.86,6.48,6.48,0,0,1,.91.07v1.76a5.91,5.91,0,0,0-1.12-.11,2.72,2.72,0,0,0-3,2.74v6.94H52.83Z" transform="translate(0.55 139.57)"/><path class="cls-5" d="M60.65,669.59a1.25,1.25,0,1,1,1.25,1.24A1.25,1.25,0,0,1,60.65,669.59ZM61,673h1.81V684.2H61Z" transform="translate(0.55 139.57)"/><path class="cls-5" d="M68.28,682.41h-.17v1.79H66.3V668.55h1.81v6.21h.17a3.85,3.85,0,0,1,3.49-2c2.84,0,4.69,2.27,4.69,5.79v0c0,3.49-1.86,5.78-4.69,5.78A3.81,3.81,0,0,1,68.28,682.41Zm6.33-3.8v0c0-2.61-1.21-4.19-3.26-4.19s-3.28,1.6-3.28,4.19v0c0,2.58,1.24,4.18,3.28,4.18S74.61,681.21,74.61,678.61Z" transform="translate(0.55 139.57)"/><path class="cls-5" d="M79,669.59a1.25,1.25,0,1,1,1.24,1.24A1.25,1.25,0,0,1,79,669.59Zm.33,3.4h1.81V684.2H79.31Z" transform="translate(0.55 139.57)"/><path class="cls-5" d="M84.53,673h1.8v1.67h.17a2.91,2.91,0,0,1,3-1.86,6.48,6.48,0,0,1,.91.07v1.76a5.91,5.91,0,0,0-1.12-.11,2.72,2.72,0,0,0-3,2.74v6.94h-1.8Z" transform="translate(0.55 139.57)"/><path class="cls-5" d="M98.61,673h1.81v1.71h.17a3,3,0,0,1,3-1.9,3.24,3.24,0,0,1,3.1,2h.16a3.77,3.77,0,0,1,3.43-2c2.29,0,3.57,1.31,3.57,3.66v7.74h-1.81v-7.33c0-1.65-.76-2.47-2.34-2.47a2.52,2.52,0,0,0-2.59,2.6v7.2h-1.8v-7.61A2.12,2.12,0,0,0,103,674.4a2.7,2.7,0,0,0-2.58,2.86v6.94H98.61Z" transform="translate(0.55 139.57)"/><path class="cls-5" d="M116.57,678.64h0c0-3.46,2-5.83,5-5.83s4.89,2.26,4.89,5.61v.71h-8.06c0,2.31,1.33,3.66,3.32,3.66a2.89,2.89,0,0,0,2.76-1.39l0-.09h1.81l0,.08c-.39,1.52-2,3-4.63,3C118.5,684.39,116.57,682.15,116.57,678.64Zm1.88-1h6.19c-.18-2.21-1.41-3.26-3.06-3.26S118.65,675.54,118.45,677.67Z" transform="translate(0.55 139.57)"/><path class="cls-5" d="M129.29,673h1.8v1.69h.17a3.28,3.28,0,0,1,3.26-1.88c2.52,0,3.92,1.48,3.92,4.14v7.26h-1.81v-6.82c0-2-.83-3-2.62-3s-2.92,1.2-2.92,3.17v6.63h-1.8Z" transform="translate(0.55 139.57)"/><path class="cls-5" d="M141.13,681.34H143a2.49,2.49,0,0,0,2.63,1.55c1.51,0,2.58-.72,2.58-1.74v0c0-.76-.57-1.29-2-1.62l-1.73-.42c-2.1-.49-3.05-1.41-3.05-3h0c0-1.86,1.79-3.26,4.17-3.26s4,1.17,4.23,3h-1.78a2.3,2.3,0,0,0-2.46-1.5c-1.33,0-2.31.69-2.31,1.68v0c0,.76.56,1.23,1.88,1.56l1.73.41c2.11.51,3.13,1.43,3.13,3v0c0,2-1.95,3.37-4.49,3.37S141.34,683.19,141.13,681.34Z" transform="translate(0.55 139.57)"/><path class="cls-5" d="M152.18,681.07v0c0-2,1.47-3.15,4.08-3.31l3.21-.19v-1c0-1.38-.84-2.13-2.51-2.13-1.34,0-2.23.5-2.52,1.37v0h-1.81v-.06c.29-1.76,2-2.94,4.39-2.94,2.73,0,4.26,1.4,4.26,3.73v7.67h-1.81v-1.66h-.17a3.71,3.71,0,0,1-3.38,1.85C153.79,684.39,152.18,683.11,152.18,681.07Zm4.11,1.75a2.92,2.92,0,0,0,3.18-2.8v-1l-3,.19c-1.71.1-2.45.7-2.45,1.82v0C154,682.16,155,682.82,156.29,682.82Z" transform="translate(0.55 139.57)"/><path class="cls-5" d="M162.67,688v-1.6h.27c1.22,0,1.67-.43,1.67-1.66V673h1.81v11.76c0,2.3-1.09,3.29-3.44,3.29Zm1.6-18.45a1.25,1.25,0,1,1,1.25,1.24A1.25,1.25,0,0,1,164.27,669.59Z" transform="translate(0.55 139.57)"/><path class="cls-5" d="M169.27,678.64h0c0-3.46,2-5.83,5-5.83s4.89,2.26,4.89,5.61v.71h-8.06c0,2.31,1.33,3.66,3.32,3.66a2.9,2.9,0,0,0,2.76-1.39l0-.09h1.81l0,.08c-.39,1.52-2,3-4.63,3C171.2,684.39,169.27,682.15,169.27,678.64Zm1.88-1h6.19c-.19-2.21-1.41-3.26-3.06-3.26S171.35,675.54,171.15,677.67Z" transform="translate(0.55 139.57)"/><path class="cls-8" d="M217.38,242.44h4.32a3.51,3.51,0,0,1,3.68,3.66v0a3.54,3.54,0,0,1-3.68,3.7h-2.89v4.09h-1.43Zm1.43,1.27v4.84h2.52a2.29,2.29,0,0,0,2.59-2.41v0a2.29,2.29,0,0,0-2.59-2.41Z" transform="translate(0.55 139.57)"/><path class="cls-8" d="M226.87,249.66h0c0-2.65,1.51-4.46,3.84-4.46s3.75,1.73,3.75,4.29V250h-6.17c0,1.78,1,2.81,2.54,2.81a2.21,2.21,0,0,0,2.11-1.07l0-.07h1.38v.07a3.42,3.42,0,0,1-3.54,2.3C228.35,254.06,226.87,252.35,226.87,249.66Zm1.44-.74h4.74c-.14-1.69-1.08-2.5-2.35-2.5A2.41,2.41,0,0,0,228.31,248.92Z" transform="translate(0.55 139.57)"/><path class="cls-8" d="M236.6,245.34H238v1.27h.13a2.24,2.24,0,0,1,2.29-1.42,3.91,3.91,0,0,1,.69.06v1.34a4.8,4.8,0,0,0-.85-.08A2.07,2.07,0,0,0,238,248.6v5.31H236.6Z" transform="translate(0.55 139.57)"/><path class="cls-8" d="M243.84,246.49h-1.42v-1.15h1.42v-1a2.22,2.22,0,0,1,2.49-2.53,4.38,4.38,0,0,1,.92.08V243a3.82,3.82,0,0,0-.64,0c-1,0-1.38.49-1.38,1.43v.91h2v1.15h-2v7.42h-1.39Z" transform="translate(0.55 139.57)"/><path class="cls-8" d="M248.37,249.66h0c0-2.65,1.51-4.46,3.84-4.46s3.75,1.73,3.75,4.29V250h-6.17c0,1.78,1,2.81,2.54,2.81a2.21,2.21,0,0,0,2.11-1.07l0-.07h1.39l0,.07a3.42,3.42,0,0,1-3.54,2.3C249.85,254.06,248.37,252.35,248.37,249.66Zm1.44-.74h4.74c-.14-1.69-1.08-2.5-2.34-2.5A2.41,2.41,0,0,0,249.81,248.92Z" transform="translate(0.55 139.57)"/><path class="cls-8" d="M257.67,249.6h0c0-2.67,1.53-4.4,3.93-4.4a3.32,3.32,0,0,1,3.58,2.73V248h-1.37v0a2.12,2.12,0,0,0-2.21-1.52c-1.54,0-2.51,1.24-2.51,3.17h0c0,2,1,3.24,2.51,3.24a2.09,2.09,0,0,0,2.2-1.46l0,0h1.36v.09a3.32,3.32,0,0,1-3.56,2.65C259.21,254.06,257.67,252.32,257.67,249.6Z" transform="translate(0.55 139.57)"/><path class="cls-8" d="M267.91,251.69v-5.2h-1.36v-1.15h1.36v-2.22h1.43v2.22h1.87v1.15h-1.87v4.85c0,1,.35,1.41,1.24,1.41.24,0,.38,0,.63,0v1.18a5.42,5.42,0,0,1-.8.08C268.65,254,267.91,253.32,267.91,251.69Z" transform="translate(0.55 139.57)"/><path class="cls-8" d="M272.73,249.63h0c0-2.75,1.51-4.43,3.95-4.43s3.95,1.68,3.95,4.43h0c0,2.75-1.51,4.43-3.95,4.43S272.73,252.38,272.73,249.63Zm6.49,0h0c0-2-.92-3.2-2.54-3.2s-2.54,1.17-2.54,3.2h0c0,2,.92,3.21,2.54,3.21S279.22,251.65,279.22,249.63Z" transform="translate(0.55 139.57)"/><path class="cls-8" d="M282.92,253a1.1,1.1,0,1,1,1.1,1.1A1.06,1.06,0,0,1,282.92,253Zm.3-10.52h1.59l-.14,7.67h-1.32Z" transform="translate(0.55 139.57)"/><path class="cls-8" d="M295.74,249l-4.07-6.53h1.63l3.09,5.1h.13l3.09-5.1h1.63L297.17,249v4.94h-1.43Z" transform="translate(0.55 139.57)"/><path class="cls-8" d="M301.3,249.63h0c0-2.75,1.51-4.43,3.95-4.43s3.95,1.68,3.95,4.43h0c0,2.75-1.51,4.43-3.95,4.43S301.3,252.38,301.3,249.63Zm6.48,0h0c0-2-.91-3.2-2.53-3.2s-2.54,1.17-2.54,3.2h0c0,2,.91,3.21,2.54,3.21S307.78,251.65,307.78,249.63Z" transform="translate(0.55 139.57)"/><path class="cls-8" d="M315.49,249.66h0c0-2.65,1.51-4.46,3.84-4.46s3.74,1.73,3.74,4.29V250H316.9c0,1.78,1,2.81,2.55,2.81a2.19,2.19,0,0,0,2.1-1.07l0-.07H323l0,.07a3.4,3.4,0,0,1-3.53,2.3C317,254.06,315.49,252.35,315.49,249.66Zm1.44-.74h4.73c-.14-1.69-1.08-2.5-2.34-2.5A2.41,2.41,0,0,0,316.93,248.92Z" transform="translate(0.55 139.57)"/><path class="cls-8" d="M324.78,251.73h1.41a1.9,1.9,0,0,0,2,1.18c1.16,0,2-.55,2-1.33h0c0-.58-.44-1-1.5-1.24l-1.33-.32c-1.6-.38-2.33-1.08-2.33-2.32h0c0-1.43,1.37-2.5,3.19-2.5s3.05.9,3.24,2.3h-1.36a1.76,1.76,0,0,0-1.89-1.15c-1,0-1.76.53-1.76,1.28v0c0,.58.43,1,1.44,1.19l1.32.32c1.61.39,2.39,1.09,2.39,2.31v0c0,1.53-1.49,2.58-3.43,2.58S324.94,253.14,324.78,251.73Z" transform="translate(0.55 139.57)"/><path class="cls-8" d="M334.19,251.69v-5.2h-1.35v-1.15h1.35v-2.22h1.43v2.22h1.88v1.15h-1.88v4.85c0,1,.35,1.41,1.25,1.41.24,0,.38,0,.63,0v1.18a5.42,5.42,0,0,1-.8.08C334.93,254,334.19,253.32,334.19,251.69Z" transform="translate(0.55 139.57)"/><path class="cls-8" d="M339,249.63h0c0-2.75,1.51-4.43,4-4.43s3.95,1.68,3.95,4.43h0c0,2.75-1.51,4.43-3.95,4.43S339,252.38,339,249.63Zm6.48,0h0c0-2-.91-3.2-2.53-3.2s-2.54,1.17-2.54,3.2h0c0,2,.92,3.21,2.54,3.21S345.5,251.65,345.5,249.63Z" transform="translate(0.55 139.57)"/><path class="cls-8" d="M348.86,256.87v-1.14a3.48,3.48,0,0,0,.57,0c.79,0,1.27-.36,1.58-1.34l.16-.51L348,245.34h1.47l2.36,7H352l2.34-7h1.45l-3.34,9.1c-.71,1.92-1.42,2.48-2.94,2.48A4.3,4.3,0,0,1,348.86,256.87Z" transform="translate(0.55 139.57)"/><path class="cls-8" d="M363.75,252.54h-.13v1.37h-1.38v-12h1.38v4.75h.13a3,3,0,0,1,2.67-1.5c2.18,0,3.59,1.74,3.59,4.43h0c0,2.68-1.42,4.43-3.59,4.43A2.92,2.92,0,0,1,363.75,252.54Zm4.85-2.91h0c0-2-.93-3.2-2.5-3.2s-2.51,1.22-2.51,3.2h0c0,2,1,3.21,2.51,3.21S368.6,251.63,368.6,249.63Z" transform="translate(0.55 139.57)"/><path class="cls-8" d="M372.07,250.89v-5.55h1.39v5.22c0,1.54.55,2.28,1.92,2.28a2.16,2.16,0,0,0,2.31-2.43v-5.07h1.39v8.57h-1.39v-1.28h-.12a2.57,2.57,0,0,1-2.55,1.43C373.08,254.06,372.07,252.92,372.07,250.89Z" transform="translate(0.55 139.57)"/><path class="cls-8" d="M381.21,251.73h1.42a1.9,1.9,0,0,0,2,1.18c1.15,0,2-.55,2-1.33h0c0-.58-.44-1-1.49-1.24l-1.33-.32c-1.61-.38-2.33-1.08-2.33-2.32h0c0-1.43,1.37-2.5,3.19-2.5s3,.9,3.23,2.3h-1.36a1.75,1.75,0,0,0-1.88-1.15c-1,0-1.77.53-1.77,1.28v0c0,.58.43,1,1.44,1.19l1.32.32c1.62.39,2.4,1.09,2.4,2.31v0c0,1.53-1.49,2.58-3.44,2.58S381.37,253.14,381.21,251.73Z" transform="translate(0.55 139.57)"/><path class="cls-8" d="M389.74,249.6h0c0-2.67,1.52-4.4,3.92-4.4a3.33,3.33,0,0,1,3.59,2.73V248h-1.38v0a2.1,2.1,0,0,0-2.21-1.52c-1.54,0-2.51,1.24-2.51,3.17h0c0,2,1,3.24,2.51,3.24a2.09,2.09,0,0,0,2.21-1.46v0h1.37l0,.09a3.31,3.31,0,0,1-3.56,2.65C391.27,254.06,389.74,252.32,389.74,249.6Z" transform="translate(0.55 139.57)"/><path class="cls-8" d="M398.76,251.52v0c0-1.52,1.13-2.41,3.13-2.53l2.46-.15V248c0-1-.65-1.62-1.93-1.62-1,0-1.7.38-1.92,1v0h-1.38v-.05c.23-1.34,1.53-2.25,3.36-2.25,2.09,0,3.26,1.07,3.26,2.85v5.87h-1.38v-1.26h-.13a2.86,2.86,0,0,1-2.59,1.41A2.6,2.6,0,0,1,398.76,251.52Zm3.15,1.34a2.24,2.24,0,0,0,2.44-2.14v-.78l-2.29.14c-1.31.08-1.88.54-1.88,1.39v0C400.18,252.35,400.92,252.86,401.91,252.86Z" transform="translate(0.55 139.57)"/><path class="cls-8" d="M408.25,245.34h1.39v1.29h.12a2.52,2.52,0,0,1,2.5-1.44c1.92,0,3,1.14,3,3.17v5.55h-1.39V248.7c0-1.55-.63-2.28-2-2.28a2.16,2.16,0,0,0-2.23,2.42v5.07h-1.39Z" transform="translate(0.55 139.57)"/><path class="cls-8" d="M417.32,249.63h0c0-2.69,1.41-4.43,3.59-4.43a2.94,2.94,0,0,1,2.67,1.5h.13v-4.75h1.38v12h-1.38v-1.37h-.13a2.91,2.91,0,0,1-2.67,1.52C418.74,254.06,417.32,252.31,417.32,249.63Zm6.42,0h0c0-2-.95-3.2-2.51-3.2s-2.5,1.2-2.5,3.2h0c0,2,.93,3.21,2.5,3.21S423.74,251.61,423.74,249.63Z" transform="translate(0.55 139.57)"/><path class="cls-8" d="M427.32,249.63h0c0-2.75,1.51-4.43,3.95-4.43s4,1.68,4,4.43h0c0,2.75-1.51,4.43-4,4.43S427.32,252.38,427.32,249.63Zm6.48,0h0c0-2-.91-3.2-2.53-3.2s-2.54,1.17-2.54,3.2h0c0,2,.91,3.21,2.54,3.21S433.8,251.65,433.8,249.63Z" transform="translate(0.55 139.57)"/><path class="cls-8" d="M441.51,249.6h0c0-2.67,1.52-4.4,3.93-4.4a3.32,3.32,0,0,1,3.58,2.73V248h-1.38v0a2.12,2.12,0,0,0-2.21-1.52c-1.55,0-2.52,1.24-2.52,3.17h0c0,2,1,3.24,2.52,3.24a2.09,2.09,0,0,0,2.2-1.46v0H449l0,.09a3.3,3.3,0,0,1-3.56,2.65C443,254.06,441.51,252.32,441.51,249.6Z" transform="translate(0.55 139.57)"/><path class="cls-8" d="M450.61,249.63h0c0-2.75,1.51-4.43,4-4.43s3.95,1.68,3.95,4.43h0c0,2.75-1.51,4.43-3.95,4.43S450.61,252.38,450.61,249.63Zm6.49,0h0c0-2-.91-3.2-2.53-3.2s-2.54,1.17-2.54,3.2h0c0,2,.91,3.21,2.54,3.21S457.1,251.65,457.1,249.63Z" transform="translate(0.55 139.57)"/><path class="cls-8" d="M460.66,245.34H462v1.31h.13a2.33,2.33,0,0,1,2.31-1.46,2.48,2.48,0,0,1,2.37,1.5H467a2.88,2.88,0,0,1,2.62-1.5,2.5,2.5,0,0,1,2.73,2.8v5.92H471v-5.6c0-1.27-.58-1.89-1.79-1.89a1.92,1.92,0,0,0-2,2v5.51h-1.39v-5.82a1.62,1.62,0,0,0-1.78-1.67,2.06,2.06,0,0,0-2,2.18v5.31h-1.38Z" transform="translate(0.55 139.57)"/><path class="cls-8" d="M474.82,245.34h1.38v1.37h.13a2.93,2.93,0,0,1,2.67-1.52c2.17,0,3.59,1.76,3.59,4.43h0c0,2.69-1.41,4.43-3.59,4.43a3,3,0,0,1-2.67-1.5h-.13v4.21h-1.38Zm6.36,4.29h0c0-2-.93-3.2-2.5-3.2s-2.51,1.22-2.51,3.2h0c0,2,.95,3.21,2.51,3.21S481.18,251.63,481.18,249.63Z" transform="translate(0.55 139.57)"/><path class="cls-8" d="M484.75,245.34h1.38v1.27h.13a2.24,2.24,0,0,1,2.29-1.42,3.82,3.82,0,0,1,.69.06v1.34a4.63,4.63,0,0,0-.85-.08,2.07,2.07,0,0,0-2.26,2.09v5.31h-1.38Z" transform="translate(0.55 139.57)"/><path class="cls-8" d="M490.44,251.52v0c0-1.52,1.13-2.41,3.13-2.53l2.45-.15V248c0-1-.64-1.62-1.92-1.62-1,0-1.7.38-1.93,1v0h-1.39v-.05c.22-1.34,1.53-2.25,3.36-2.25,2.09,0,3.26,1.07,3.26,2.85v5.87H496v-1.26h-.13a2.85,2.85,0,0,1-2.59,1.41A2.59,2.59,0,0,1,490.44,251.52Zm3.15,1.34a2.23,2.23,0,0,0,2.43-2.14v-.78l-2.29.14c-1.3.08-1.87.54-1.87,1.39v0C491.86,252.35,492.6,252.86,493.59,252.86Z" transform="translate(0.55 139.57)"/><path class="cls-8" d="M499.93,245.34h1.38v1.27h.13a2.24,2.24,0,0,1,2.29-1.42,3.82,3.82,0,0,1,.69.06v1.34a4.8,4.8,0,0,0-.85-.08,2.07,2.07,0,0,0-2.26,2.09v5.31h-1.38Z" transform="translate(0.55 139.57)"/><path class="cls-8" d="M216.77,269.16h0c0-2.69,1.42-4.43,3.6-4.43a3,3,0,0,1,2.67,1.5h.12v-4.75h1.39v12h-1.39v-1.37H223a2.93,2.93,0,0,1-2.67,1.52C218.19,273.59,216.77,271.83,216.77,269.16Zm6.43,0h0c0-2-1-3.21-2.52-3.21s-2.49,1.21-2.49,3.21h0c0,2,.93,3.21,2.49,3.21S223.2,271.14,223.2,269.16Z" transform="translate(0.55 139.57)"/><path class="cls-8" d="M226.77,269.16h0c0-2.75,1.51-4.43,3.95-4.43s3.95,1.68,3.95,4.43h0c0,2.75-1.51,4.43-3.95,4.43S226.77,271.91,226.77,269.16Zm6.48,0h0c0-2-.91-3.21-2.53-3.21s-2.54,1.18-2.54,3.21h0c0,2,.92,3.21,2.54,3.21S233.25,271.18,233.25,269.16Z" transform="translate(0.55 139.57)"/><path class="cls-8" d="M236.89,261.47h1.39v12h-1.39Z" transform="translate(0.55 139.57)"/><path class="cls-8" d="M240.42,271.05v0c0-1.52,1.13-2.41,3.12-2.53l2.46-.15v-.78c0-1.05-.64-1.63-1.92-1.63-1,0-1.71.39-1.93,1.05v0h-1.38v0c.22-1.34,1.53-2.25,3.35-2.25,2.09,0,3.26,1.07,3.26,2.85v5.87H246v-1.26h-.13a2.86,2.86,0,0,1-2.59,1.41A2.59,2.59,0,0,1,240.42,271.05Zm3.15,1.34a2.24,2.24,0,0,0,2.43-2.15v-.77l-2.29.14c-1.3.08-1.88.54-1.88,1.39v0C241.83,271.88,242.57,272.39,243.57,272.39Z" transform="translate(0.55 139.57)"/><path class="cls-8" d="M249.91,264.87h1.38v1.27h.13a2.22,2.22,0,0,1,2.29-1.42,3.91,3.91,0,0,1,.69.06v1.34a4.8,4.8,0,0,0-.85-.08,2.07,2.07,0,0,0-2.26,2.09v5.31h-1.38Z" transform="translate(0.55 139.57)"/><path class="cls-8" d="M255.44,269.19h0c0-2.65,1.51-4.46,3.84-4.46S263,266.45,263,269v.54h-6.17c0,1.78,1,2.81,2.55,2.81a2.19,2.19,0,0,0,2.1-1.07l0-.07h1.38l0,.07a3.4,3.4,0,0,1-3.53,2.3C256.92,273.59,255.44,271.87,255.44,269.19Zm1.44-.74h4.74c-.15-1.7-1.09-2.5-2.35-2.5A2.41,2.41,0,0,0,256.88,268.45Z" transform="translate(0.55 139.57)"/><path class="cls-8" d="M264.73,271.25h1.41a1.9,1.9,0,0,0,2,1.19c1.16,0,2-.55,2-1.33v0c0-.58-.44-1-1.5-1.24l-1.33-.31c-1.6-.38-2.33-1.08-2.33-2.32h0c0-1.43,1.37-2.5,3.19-2.5s3,.9,3.24,2.3H270a1.76,1.76,0,0,0-1.89-1.15c-1,0-1.76.53-1.76,1.28v0c0,.58.43.94,1.44,1.19l1.32.32c1.61.39,2.39,1.09,2.39,2.31v0c0,1.52-1.49,2.58-3.43,2.58S264.89,272.67,264.73,271.25Z" transform="translate(0.55 139.57)"/><path class="cls-6" d="M13.8,444H360.35a40.13,40.13,0,0,1,40.13,40.13v0a40.13,40.13,0,0,1-40.13,40.13H53.94A40.13,40.13,0,0,1,13.8,484.13V444a0,0,0,0,1,0,0Z"/><path class="cls-7" d="M197.8,391.82H493.1A32.15,32.15,0,0,1,525.25,424v0a32.15,32.15,0,0,1-32.15,32.15H165.65a0,0,0,0,1,0,0V424A32.15,32.15,0,0,1,197.8,391.82Z" transform="translate(691.45 987.52) rotate(-180)"/><path class="cls-5" d="M42.79,320.61h1.88l4.45,10.84h.15l4.44-10.84h1.88v13H54.08v-9.92H54l-4.1,9.92H48.51l-4.11-9.92h-.1v9.92H42.79Z" transform="translate(0.55 139.57)"/><path class="cls-5" d="M58.62,330.18V323.9h1.57v5.9c0,1.75.63,2.59,2.18,2.59A2.45,2.45,0,0,0,65,329.64V323.9h1.57v9.7H65v-1.45h-.15A2.89,2.89,0,0,1,62,333.77C59.76,333.77,58.62,332.48,58.62,330.18Z" transform="translate(0.55 139.57)"/><path class="cls-5" d="M69.61,337v-1.29a3.36,3.36,0,0,0,.65,0c.89,0,1.43-.41,1.78-1.52l.18-.58-3.59-9.71H70.3l2.67,8h.14l2.66-8h1.65l-3.79,10.3C72.83,336.37,72,337,70.3,337A4.2,4.2,0,0,1,69.61,337Z" transform="translate(0.55 139.57)"/><path class="cls-5" d="M86.48,332.05h-.15v1.55H84.77V320h1.56v5.39h.15a3.32,3.32,0,0,1,3-1.7c2.47,0,4.07,2,4.07,5v0c0,3-1.61,5-4.07,5A3.31,3.31,0,0,1,86.48,332.05ZM92,328.76v0c0-2.26-1-3.63-2.83-3.63s-2.84,1.39-2.84,3.63v0c0,2.24,1.08,3.63,2.84,3.63S92,331,92,328.76Z" transform="translate(0.55 139.57)"/><path class="cls-5" d="M95.75,320.94A1.09,1.09,0,1,1,96.84,322,1.09,1.09,0,0,1,95.75,320.94Zm.29,3h1.57v9.7H96Z" transform="translate(0.55 139.57)"/><path class="cls-5" d="M100.08,328.79h0c0-3,1.71-5,4.35-5s4.24,2,4.24,4.86v.61h-7c0,2,1.15,3.18,2.88,3.18a2.51,2.51,0,0,0,2.39-1.21l0-.08h1.57l0,.07a3.85,3.85,0,0,1-4,2.61C101.75,333.77,100.08,331.83,100.08,328.79Zm1.63-.84h5.36c-.16-1.92-1.22-2.83-2.65-2.83S101.88,326.1,101.71,328Z" transform="translate(0.55 139.57)"/><path class="cls-5" d="M111.1,323.9h1.57v1.46h.14a2.86,2.86,0,0,1,2.83-1.63c2.18,0,3.39,1.28,3.39,3.59v6.28h-1.56v-5.9c0-1.75-.72-2.59-2.27-2.59a2.46,2.46,0,0,0-2.53,2.75v5.74H111.1Z" transform="translate(0.55 139.57)"/><path class="cls-5" d="M122,332.51a1.21,1.21,0,0,1,1.26-1.26,1.26,1.26,0,0,1,0,2.51A1.21,1.21,0,0,1,122,332.51Zm.35-11.91h1.8l-.16,8.68h-1.49Z" transform="translate(0.55 139.57)"/><path class="cls-5" d="M133,320.61H141v1.46h-6.42v4.17h6.09v1.44h-6.09v4.46H141v1.46H133Z" transform="translate(0.55 139.57)"/><path class="cls-5" d="M143.77,323.9h1.57v1.46h.14a2.86,2.86,0,0,1,2.83-1.63c2.18,0,3.4,1.28,3.4,3.59v6.28h-1.57v-5.9c0-1.75-.72-2.59-2.27-2.59a2.46,2.46,0,0,0-2.53,2.75v5.74h-1.57Z" transform="translate(0.55 139.57)"/><path class="cls-5" d="M159.81,320h1.57V333.6h-1.57Z" transform="translate(0.55 139.57)"/><path class="cls-5" d="M163.81,330.89v0c0-1.72,1.28-2.72,3.54-2.86l2.78-.17V327c0-1.2-.73-1.85-2.18-1.85-1.16,0-1.92.43-2.18,1.19v0H164.2v-.06c.25-1.52,1.73-2.54,3.8-2.54,2.36,0,3.69,1.21,3.69,3.23v6.64h-1.57v-1.43H170a3.22,3.22,0,0,1-2.94,1.6A2.94,2.94,0,0,1,163.81,330.89Zm3.57,1.52a2.53,2.53,0,0,0,2.75-2.43v-.88l-2.59.16c-1.48.09-2.13.62-2.13,1.58v0C165.41,331.84,166.25,332.41,167.38,332.41Z" transform="translate(0.55 139.57)"/><path class="cls-5" d="M179.27,328.72v0c0-3,1.73-5,4.44-5a3.77,3.77,0,0,1,4.06,3.08v.06h-1.55v0a2.41,2.41,0,0,0-2.51-1.73c-1.74,0-2.84,1.41-2.84,3.59v0c0,2.24,1.12,3.67,2.84,3.67a2.37,2.37,0,0,0,2.5-1.66l0-.05h1.54v.1a3.77,3.77,0,0,1-4,3C181,333.77,179.27,331.8,179.27,328.72Z" transform="translate(0.55 139.57)"/><path class="cls-5" d="M189.5,330.89v0c0-1.72,1.28-2.72,3.53-2.86l2.79-.17V327c0-1.2-.73-1.85-2.18-1.85-1.16,0-1.93.43-2.18,1.19v0h-1.57v-.06c.25-1.52,1.73-2.54,3.8-2.54,2.37,0,3.69,1.21,3.69,3.23v6.64h-1.56v-1.43h-.15a3.22,3.22,0,0,1-2.93,1.6A2.93,2.93,0,0,1,189.5,330.89Zm3.56,1.52a2.53,2.53,0,0,0,2.76-2.43v-.88l-2.6.16c-1.47.09-2.12.62-2.12,1.58v0C191.1,331.84,191.94,332.41,193.06,332.41Z" transform="translate(0.55 139.57)"/><path class="cls-5" d="M199.75,331.13h1.61a2.14,2.14,0,0,0,2.27,1.34c1.31,0,2.24-.62,2.24-1.51h0c0-.66-.5-1.12-1.7-1.41l-1.5-.36c-1.82-.43-2.64-1.22-2.64-2.62h0c0-1.61,1.55-2.82,3.61-2.82s3.45,1,3.67,2.6h-1.54a2,2,0,0,0-2.14-1.3c-1.15,0-2,.6-2,1.45v0c0,.66.48,1.07,1.63,1.35l1.49.36c1.83.44,2.71,1.23,2.71,2.62v0c0,1.73-1.68,2.92-3.89,2.92S199.93,332.73,199.75,331.13Z" transform="translate(0.55 139.57)"/><path class="cls-5" d="M209.33,330.89v0c0-1.72,1.28-2.72,3.53-2.86l2.79-.17V327c0-1.2-.73-1.85-2.18-1.85-1.16,0-1.93.43-2.18,1.19v0h-1.57v-.06c.25-1.52,1.73-2.54,3.8-2.54,2.37,0,3.69,1.21,3.69,3.23v6.64h-1.56v-1.43h-.15a3.22,3.22,0,0,1-2.93,1.6A2.93,2.93,0,0,1,209.33,330.89Zm3.56,1.52a2.53,2.53,0,0,0,2.76-2.43v-.88l-2.6.16c-1.47.09-2.12.62-2.12,1.58v0C210.93,331.84,211.77,332.41,212.89,332.41Z" transform="translate(0.55 139.57)"/><path class="cls-5" d="M224.78,328.76v0c0-3,1.6-5,4.07-5a3.32,3.32,0,0,1,3,1.7H232V320h1.57V333.6H232v-1.55h-.15a3.31,3.31,0,0,1-3,1.72C226.39,333.77,224.78,331.78,224.78,328.76Zm7.27,0v0c0-2.24-1.08-3.63-2.84-3.63s-2.83,1.37-2.83,3.63v0c0,2.26,1.06,3.63,2.83,3.63S232.05,331,232.05,328.76Z" transform="translate(0.55 139.57)"/><path class="cls-5" d="M236.11,328.79h0c0-3,1.71-5,4.35-5s4.24,2,4.24,4.86v.61h-7c0,2,1.16,3.18,2.88,3.18a2.5,2.5,0,0,0,2.39-1.21l0-.08h1.57l0,.07a3.85,3.85,0,0,1-4,2.61C237.78,333.77,236.11,331.83,236.11,328.79Zm1.63-.84h5.37c-.17-1.92-1.23-2.83-2.66-2.83S237.91,326.1,237.74,328Z" transform="translate(0.55 139.57)"/><path class="cls-5" d="M251.83,328.72v0c0-3,1.73-5,4.45-5a3.77,3.77,0,0,1,4.06,3.08v.06h-1.56v0a2.41,2.41,0,0,0-2.51-1.73c-1.74,0-2.84,1.41-2.84,3.59v0c0,2.24,1.11,3.67,2.84,3.67a2.37,2.37,0,0,0,2.5-1.66v-.05h1.55l0,.1a3.75,3.75,0,0,1-4,3C253.57,333.77,251.83,331.8,251.83,328.72Z" transform="translate(0.55 139.57)"/><path class="cls-5" d="M262.06,330.89v0c0-1.72,1.28-2.72,3.54-2.86l2.78-.17V327c0-1.2-.72-1.85-2.17-1.85-1.17,0-1.93.43-2.18,1.19v0h-1.57v-.06c.25-1.52,1.73-2.54,3.8-2.54,2.37,0,3.69,1.21,3.69,3.23v6.64h-1.57v-1.43h-.14a3.22,3.22,0,0,1-2.93,1.6C263.46,333.77,262.06,332.66,262.06,330.89Zm3.57,1.52a2.53,2.53,0,0,0,2.75-2.43v-.88l-2.59.16c-1.47.09-2.12.62-2.12,1.58v0C263.67,331.84,264.5,332.41,265.63,332.41Z" transform="translate(0.55 139.57)"/><path class="cls-5" d="M272.82,323.9h1.56v1.47h.15a2.65,2.65,0,0,1,2.62-1.64,2.8,2.8,0,0,1,2.68,1.7H280a3.25,3.25,0,0,1,3-1.7,2.82,2.82,0,0,1,3.08,3.16v6.71h-1.56v-6.34c0-1.44-.66-2.15-2-2.15a2.18,2.18,0,0,0-2.24,2.25v6.24h-1.57V327a1.84,1.84,0,0,0-2-1.9,2.35,2.35,0,0,0-2.24,2.48v6h-1.56Z" transform="translate(0.55 139.57)"/><path class="cls-5" d="M290.67,332.05h-.15v1.55H289V320h1.56v5.39h.15a3.32,3.32,0,0,1,3-1.7c2.47,0,4.07,2,4.07,5v0c0,3-1.61,5-4.07,5A3.31,3.31,0,0,1,290.67,332.05Zm5.49-3.29v0c0-2.26-1.06-3.63-2.83-3.63s-2.84,1.39-2.84,3.63v0c0,2.24,1.08,3.63,2.84,3.63S296.16,331,296.16,328.76Z" transform="translate(0.55 139.57)"/><path class="cls-5" d="M299.94,320.94a1.08,1.08,0,0,1,2.16,0,1.08,1.08,0,1,1-2.16,0Zm.29,3h1.57v9.7h-1.57Z" transform="translate(0.55 139.57)"/><path class="cls-5" d="M304.27,328.76v0c0-3.11,1.71-5,4.47-5s4.47,1.9,4.47,5v0c0,3.1-1.71,5-4.47,5S304.27,331.86,304.27,328.76Zm7.34,0v0c0-2.3-1-3.63-2.87-3.63s-2.87,1.33-2.87,3.63v0c0,2.29,1,3.63,2.87,3.63S311.61,331.05,311.61,328.76Z" transform="translate(0.55 139.57)"/><path class="cls-5" d="M320.35,328.79h0c0-3,1.71-5,4.35-5s4.24,2,4.24,4.86v.61h-7c.05,2,1.16,3.18,2.88,3.18a2.5,2.5,0,0,0,2.39-1.21l0-.08h1.57l0,.07a3.85,3.85,0,0,1-4,2.61C322,333.77,320.35,331.83,320.35,328.79ZM322,328h5.37c-.17-1.92-1.23-2.83-2.66-2.83S322.15,326.1,322,328Z" transform="translate(0.55 139.57)"/><path class="cls-5" d="M330.88,331.13h1.6a2.15,2.15,0,0,0,2.28,1.34c1.3,0,2.23-.62,2.23-1.51h0c0-.66-.49-1.12-1.69-1.41l-1.51-.36c-1.81-.43-2.63-1.22-2.63-2.62h0c0-1.61,1.55-2.82,3.61-2.82s3.44,1,3.66,2.6h-1.54a2,2,0,0,0-2.13-1.3c-1.15,0-2,.6-2,1.45v0c0,.66.49,1.07,1.63,1.35l1.49.36c1.83.44,2.71,1.23,2.71,2.62v0c0,1.73-1.68,2.92-3.89,2.92S331.06,332.73,330.88,331.13Z" transform="translate(0.55 139.57)"/><path class="cls-5" d="M341.55,331.08v-5.89H340V323.9h1.53v-2.51h1.62v2.51h2.12v1.29h-2.12v5.5c0,1.14.4,1.6,1.4,1.6a5.79,5.79,0,0,0,.72,0v1.33a4.6,4.6,0,0,1-.91.09C342.39,333.67,341.55,332.94,341.55,331.08Z" transform="translate(0.55 139.57)"/><path class="cls-5" d="M347.06,330.89v0c0-1.72,1.28-2.72,3.54-2.86l2.78-.17V327c0-1.2-.73-1.85-2.18-1.85-1.16,0-1.92.43-2.18,1.19v0h-1.56v-.06c.25-1.52,1.73-2.54,3.8-2.54,2.36,0,3.69,1.21,3.69,3.23v6.64h-1.57v-1.43h-.14a3.24,3.24,0,0,1-2.94,1.6A2.94,2.94,0,0,1,347.06,330.89Zm3.57,1.52a2.53,2.53,0,0,0,2.75-2.43v-.88l-2.59.16c-1.48.09-2.13.62-2.13,1.58v0C348.66,331.84,349.5,332.41,350.63,332.41Z" transform="translate(0.55 139.57)"/><path class="cls-5" d="M42.11,348.31h0c0-3,1.71-5.05,4.35-5.05s4.24,2,4.24,4.86v.61h-7c0,2,1.15,3.18,2.88,3.18A2.5,2.5,0,0,0,49,350.7l0-.08h1.57l0,.07a3.85,3.85,0,0,1-4,2.61C43.78,353.3,42.11,351.36,42.11,348.31Zm1.63-.83H49.1c-.16-1.92-1.22-2.83-2.65-2.83S43.91,345.63,43.74,347.48Z" transform="translate(0.55 139.57)"/><path class="cls-5" d="M53.13,343.43H54.7v1.45h.14a2.86,2.86,0,0,1,2.83-1.62c2.18,0,3.39,1.28,3.39,3.59v6.28H59.5v-5.91c0-1.74-.72-2.58-2.27-2.58a2.46,2.46,0,0,0-2.53,2.75v5.74H53.13Z" transform="translate(0.55 139.57)"/><path class="cls-5" d="M72.25,341.94h-.14l-3.31,2.4v-1.72l3.46-2.48h1.61v13H72.25Z" transform="translate(0.55 139.57)"/><path class="cls-5" d="M86.76,346.4h0c0,4.43-1.84,7-5,7a4.13,4.13,0,0,1-4.24-3.2l0-.12h1.63l0,.1A2.6,2.6,0,0,0,81.79,352c2.35,0,3.32-2.31,3.42-5,0-.1,0-.2,0-.3H85a3.66,3.66,0,0,1-3.45,2,4.19,4.19,0,0,1-4.26-4.34v0a4.38,4.38,0,0,1,4.54-4.48C84.25,339.83,86.76,341.51,86.76,346.4Zm-1.93-2.06h0a2.94,2.94,0,1,0-5.87-.06v0a2.94,2.94,0,1,0,5.87,0Z" transform="translate(0.55 139.57)"/><path class="cls-5" d="M88.77,352.05a1.17,1.17,0,1,1,1.17,1.17A1.17,1.17,0,0,1,88.77,352.05Z" transform="translate(0.55 139.57)"/><path class="cls-5" d="M93.41,349.8v-.11H95v.09c.13,1.28,1.31,2.16,3,2.16s2.86-.95,2.86-2.33v0c0-1.59-1.15-2.48-3-2.48H96.28v-1.37h1.55a2.37,2.37,0,0,0,2.63-2.25v0c0-1.36-.89-2.14-2.47-2.14a2.49,2.49,0,0,0-2.76,2.12v.09H93.67v-.09c.21-2.11,1.89-3.53,4.32-3.53s4.1,1.38,4.1,3.35v0a3.12,3.12,0,0,1-2.75,3v0a3.15,3.15,0,0,1,3.18,3.19h0c0,2.17-1.91,3.78-4.51,3.78S93.58,351.85,93.41,349.8Z" transform="translate(0.55 139.57)"/><path class="cls-5" d="M104.91,346.64v0c0-4.18,1.71-6.79,4.59-6.79s4.6,2.61,4.6,6.79v0c0,4.18-1.73,6.8-4.6,6.8S104.91,350.82,104.91,346.64Zm7.56,0v0c0-3.31-1.11-5.36-3-5.36s-3,2.05-3,5.36v0c0,3.31,1.09,5.38,3,5.38S112.47,350,112.47,346.64Z" transform="translate(0.55 139.57)"/><path class="cls-5" d="M121.39,350.42v0c0-1.73,1.27-2.72,3.53-2.86l2.79-.17v-.88c0-1.2-.73-1.85-2.18-1.85-1.16,0-1.93.43-2.18,1.19v0h-1.57v-.06c.25-1.52,1.73-2.54,3.8-2.54,2.37,0,3.69,1.21,3.69,3.23v6.64h-1.56V351.7h-.15a3.24,3.24,0,0,1-2.93,1.6A2.93,2.93,0,0,1,121.39,350.42Zm3.56,1.52a2.54,2.54,0,0,0,2.76-2.43v-.88l-2.6.16c-1.47.09-2.12.61-2.12,1.58v0C123,351.37,123.83,351.94,125,351.94Z" transform="translate(0.55 139.57)"/><path class="cls-5" d="M137.42,339.57H139v13.56h-1.56Z" transform="translate(0.55 139.57)"/><path class="cls-5" d="M141.41,350.42v0c0-1.73,1.28-2.72,3.54-2.86l2.78-.17v-.88c0-1.2-.73-1.85-2.17-1.85-1.17,0-1.93.43-2.18,1.19v0H141.8v-.06c.25-1.52,1.73-2.54,3.8-2.54,2.37,0,3.69,1.21,3.69,3.23v6.64h-1.57V351.7h-.14a3.24,3.24,0,0,1-2.93,1.6C142.81,353.3,141.41,352.19,141.41,350.42Zm3.57,1.52a2.53,2.53,0,0,0,2.75-2.43v-.88l-2.59.16c-1.48.09-2.12.61-2.12,1.58v0C143,351.37,143.85,351.94,145,351.94Z" transform="translate(0.55 139.57)"/><path class="cls-5" d="M156.87,348.25v0c0-3,1.73-5,4.45-5a3.77,3.77,0,0,1,4.06,3.08v.06h-1.56v0a2.4,2.4,0,0,0-2.5-1.73c-1.75,0-2.85,1.41-2.85,3.59v0c0,2.23,1.12,3.67,2.85,3.67a2.37,2.37,0,0,0,2.49-1.66l0-.05h1.55l0,.1a3.76,3.76,0,0,1-4,3C158.61,353.3,156.87,351.33,156.87,348.25Z" transform="translate(0.55 139.57)"/><path class="cls-5" d="M167.19,348.29v0c0-3.12,1.71-5,4.47-5s4.48,1.89,4.48,5v0c0,3.1-1.71,5-4.48,5S167.19,351.39,167.19,348.29Zm7.35,0v0c0-2.3-1-3.63-2.88-3.63s-2.87,1.33-2.87,3.63v0c0,2.28,1,3.63,2.87,3.63S174.54,350.57,174.54,348.29Z" transform="translate(0.55 139.57)"/><path class="cls-5" d="M178.57,343.43h1.57v1.47h.14a2.65,2.65,0,0,1,2.62-1.64,2.79,2.79,0,0,1,2.68,1.7h.15a3.24,3.24,0,0,1,3-1.7,2.83,2.83,0,0,1,3.09,3.16v6.71h-1.57v-6.35c0-1.43-.66-2.14-2-2.14a2.19,2.19,0,0,0-2.25,2.25v6.24h-1.56v-6.59a1.84,1.84,0,0,0-2-1.9,2.34,2.34,0,0,0-2.23,2.48v6h-1.57Z" transform="translate(0.55 139.57)"/><path class="cls-5" d="M194.62,343.43h1.57V345h.14a3.31,3.31,0,0,1,3-1.71c2.45,0,4.06,2,4.06,5v0c0,3-1.6,5-4.06,5a3.33,3.33,0,0,1-3-1.7h-.14v4.77h-1.57Zm7.2,4.86v0c0-2.26-1-3.63-2.82-3.63s-2.85,1.39-2.85,3.63v0c0,2.24,1.08,3.63,2.85,3.63S201.82,350.55,201.82,348.29Z" transform="translate(0.55 139.57)"/><path class="cls-5" d="M205.88,343.43h1.56v1.44h.15a2.52,2.52,0,0,1,2.59-1.61,4.84,4.84,0,0,1,.78.06v1.52a6,6,0,0,0-1-.09,2.35,2.35,0,0,0-2.56,2.37v6h-1.56Z" transform="translate(0.55 139.57)"/><path class="cls-5" d="M212.33,350.42v0c0-1.73,1.27-2.72,3.53-2.86l2.79-.17v-.88c0-1.2-.73-1.85-2.18-1.85-1.16,0-1.93.43-2.18,1.19v0h-1.57v-.06c.25-1.52,1.73-2.54,3.8-2.54,2.37,0,3.69,1.21,3.69,3.23v6.64h-1.56V351.7h-.15a3.24,3.24,0,0,1-2.93,1.6A2.93,2.93,0,0,1,212.33,350.42Zm3.56,1.52a2.54,2.54,0,0,0,2.76-2.43v-.88l-2.6.16c-1.47.09-2.12.61-2.12,1.58v0C213.93,351.37,214.77,351.94,215.89,351.94Z" transform="translate(0.55 139.57)"/><path class="cls-5" d="M228.4,356.48v-1.29a3.36,3.36,0,0,0,.65.05c.89,0,1.43-.41,1.78-1.52l.18-.58-3.59-9.71h1.67l2.67,8h.14l2.66-8h1.65l-3.79,10.29c-.8,2.18-1.61,2.81-3.33,2.81A4.15,4.15,0,0,1,228.4,356.48Z" transform="translate(0.55 139.57)"/><path class="cls-5" d="M243.46,352l4.39-4.75c1.66-1.79,2.14-2.47,2.14-3.6v0a2.29,2.29,0,0,0-2.45-2.39,2.43,2.43,0,0,0-2.6,2.55h-1.57a4,4,0,0,1,4.27-4,3.75,3.75,0,0,1,4,3.64v0c0,1.48-.64,2.56-3,5l-2.95,3v.14h6.16v1.46h-8.41Z" transform="translate(0.55 139.57)"/><path class="cls-5" d="M254.36,346.64v0c0-4.18,1.71-6.79,4.58-6.79s4.6,2.61,4.6,6.79v0c0,4.18-1.73,6.8-4.6,6.8S254.36,350.82,254.36,346.64Zm7.55,0v0c0-3.31-1.11-5.36-3-5.36s-2.95,2.05-2.95,5.36v0c0,3.31,1.09,5.38,2.95,5.38S261.91,350,261.91,346.64Z" transform="translate(0.55 139.57)"/><path class="cls-5" d="M265.6,352.05a1.17,1.17,0,1,1,1.17,1.17A1.17,1.17,0,0,1,265.6,352.05Z" transform="translate(0.55 139.57)"/><path class="cls-5" d="M279.38,346.4h0c0,4.43-1.85,7-5,7a4.13,4.13,0,0,1-4.24-3.2l0-.12h1.63l0,.1A2.62,2.62,0,0,0,274.4,352c2.36,0,3.32-2.31,3.42-5,0-.1,0-.2,0-.3h-.17a3.67,3.67,0,0,1-3.46,2,4.19,4.19,0,0,1-4.26-4.34v0a4.38,4.38,0,0,1,4.55-4.48C276.87,339.83,279.38,341.51,279.38,346.4Zm-1.94-2.06h0a2.94,2.94,0,1,0-5.87-.06v0a2.94,2.94,0,1,0,5.87,0Z" transform="translate(0.55 139.57)"/><path class="cls-5" d="M286.61,350.42v0c0-1.73,1.27-2.72,3.53-2.86l2.79-.17v-.88c0-1.2-.73-1.85-2.18-1.85-1.16,0-1.93.43-2.18,1.19v0H287v-.06c.25-1.52,1.73-2.54,3.8-2.54,2.37,0,3.69,1.21,3.69,3.23v6.64h-1.56V351.7h-.15a3.24,3.24,0,0,1-2.93,1.6A2.93,2.93,0,0,1,286.61,350.42Zm3.56,1.52a2.54,2.54,0,0,0,2.76-2.43v-.88l-2.6.16c-1.47.09-2.12.61-2.12,1.58v0C288.21,351.37,289.05,351.94,290.17,351.94Z" transform="translate(0.55 139.57)"/><path class="cls-5" d="M302.64,339.57h1.56v13.56h-1.56Z" transform="translate(0.55 139.57)"/><path class="cls-5" d="M306.63,350.42v0c0-1.73,1.28-2.72,3.54-2.86l2.78-.17v-.88c0-1.2-.73-1.85-2.17-1.85-1.17,0-1.93.43-2.18,1.19v0H307v-.06c.25-1.52,1.73-2.54,3.8-2.54,2.37,0,3.69,1.21,3.69,3.23v6.64H313V351.7h-.14a3.24,3.24,0,0,1-2.94,1.6A2.94,2.94,0,0,1,306.63,350.42Zm3.57,1.52a2.53,2.53,0,0,0,2.75-2.43v-.88l-2.59.16c-1.48.09-2.12.61-2.12,1.58v0C308.24,351.37,309.07,351.94,310.2,351.94Z" transform="translate(0.55 139.57)"/><path class="cls-5" d="M321.73,343.43h1.65l2.66,8h.14l2.66-8h1.66l-3.59,9.7h-1.59Z" transform="translate(0.55 139.57)"/><path class="cls-5" d="M331.72,348.31h0c0-3,1.71-5.05,4.35-5.05s4.24,2,4.24,4.86v.61h-7c0,2,1.15,3.18,2.88,3.18a2.49,2.49,0,0,0,2.38-1.21l0-.08h1.57l0,.07a3.87,3.87,0,0,1-4,2.61C333.4,353.3,331.72,351.36,331.72,348.31Zm1.63-.83h5.37c-.16-1.92-1.22-2.83-2.66-2.83S333.52,345.63,333.35,347.48Z" transform="translate(0.55 139.57)"/><path class="cls-5" d="M342.75,343.43h1.56v1.45h.15a2.85,2.85,0,0,1,2.83-1.62c2.17,0,3.39,1.28,3.39,3.59v6.28h-1.57v-5.91c0-1.74-.72-2.58-2.27-2.58a2.46,2.46,0,0,0-2.53,2.75v5.74h-1.56Z" transform="translate(0.55 139.57)"/><path class="cls-5" d="M354.12,350.61v-5.89h-1.53v-1.29h1.53v-2.52h1.62v2.52h2.13v1.29h-2.13v5.49c0,1.15.4,1.61,1.41,1.61a5.9,5.9,0,0,0,.72,0v1.33a4.76,4.76,0,0,1-.91.09C355,353.2,354.12,352.46,354.12,350.61Z" transform="translate(0.55 139.57)"/><path class="cls-5" d="M359.63,350.42v0c0-1.73,1.28-2.72,3.54-2.86l2.78-.17v-.88c0-1.2-.73-1.85-2.18-1.85-1.16,0-1.92.43-2.17,1.19v0H360v-.06c.25-1.52,1.73-2.54,3.8-2.54,2.37,0,3.69,1.21,3.69,3.23v6.64H366V351.7h-.14a3.24,3.24,0,0,1-2.94,1.6A2.94,2.94,0,0,1,359.63,350.42Zm3.57,1.52a2.53,2.53,0,0,0,2.75-2.43v-.88l-2.59.16c-1.48.09-2.12.61-2.12,1.58v0C361.24,351.37,362.07,351.94,363.2,351.94Z" transform="translate(0.55 139.57)"/><path class="cls-5" d="M370.77,351.31h1.79l-1.41,5.12H370Z" transform="translate(0.55 139.57)"/><path class="cls-5" d="M43.21,370.14v-5.89H41.68V363h1.53v-2.51h1.62V363H47v1.3H44.83v5.49c0,1.15.39,1.6,1.4,1.6a5.86,5.86,0,0,0,.72,0v1.33a4.6,4.6,0,0,1-.91.09C44,372.73,43.21,372,43.21,370.14Z" transform="translate(0.55 139.57)"/><path class="cls-5" d="M48.67,367.84h0c0-3,1.71-5.05,4.35-5.05s4.24,2,4.24,4.86v.62h-7c0,2,1.15,3.17,2.88,3.17a2.5,2.5,0,0,0,2.38-1.2l0-.08h1.56v.07a3.88,3.88,0,0,1-4,2.61C50.35,372.83,48.67,370.89,48.67,367.84ZM50.3,367h5.37c-.16-1.92-1.23-2.83-2.66-2.83S50.47,365.16,50.3,367Z" transform="translate(0.55 139.57)"/><path class="cls-5" d="M64.88,363h1.57v1.55h.14a3.33,3.33,0,0,1,3-1.72c2.46,0,4.07,2,4.07,5v0c0,3-1.61,5-4.07,5a3.36,3.36,0,0,1-3-1.7h-.14v4.77H64.88Zm7.2,4.87v0c0-2.26-1-3.63-2.82-3.63s-2.85,1.39-2.85,3.63v0c0,2.24,1.08,3.62,2.85,3.62S72.08,370.08,72.08,367.82Z" transform="translate(0.55 139.57)"/><path class="cls-5" d="M75.56,370v0c0-1.73,1.28-2.73,3.54-2.86l2.78-.17V366c0-1.2-.72-1.85-2.17-1.85-1.17,0-1.93.43-2.18,1.19v0H76v-.06c.25-1.52,1.73-2.55,3.8-2.55,2.37,0,3.69,1.22,3.69,3.24v6.64H81.88v-1.43h-.14a3.24,3.24,0,0,1-2.93,1.6A3,3,0,0,1,75.56,370Zm3.57,1.52A2.53,2.53,0,0,0,81.88,369v-.88l-2.59.16c-1.47.09-2.12.61-2.12,1.58h0C77.17,370.89,78,371.47,79.13,371.47Z" transform="translate(0.55 139.57)"/><path class="cls-5" d="M86.32,363h1.56v1.44H88a2.54,2.54,0,0,1,2.59-1.61,4.64,4.64,0,0,1,.78.07v1.52a5,5,0,0,0-1-.09,2.35,2.35,0,0,0-2.56,2.37v6H86.32Z" transform="translate(0.55 139.57)"/><path class="cls-5" d="M92.59,367.84h0c0-3,1.71-5.05,4.34-5.05s4.24,2,4.24,4.86v.62h-7c0,2,1.15,3.17,2.88,3.17a2.53,2.53,0,0,0,2.39-1.2l0-.08h1.57l0,.07a3.87,3.87,0,0,1-4,2.61C94.26,372.83,92.59,370.89,92.59,367.84Zm1.62-.83h5.37c-.16-1.92-1.22-2.83-2.66-2.83S94.39,365.16,94.21,367Z" transform="translate(0.55 139.57)"/><path class="cls-5" d="M103.12,367.78v0c0-3,1.73-5,4.45-5a3.77,3.77,0,0,1,4.06,3.09v.06h-1.56v0a2.39,2.39,0,0,0-2.5-1.73c-1.75,0-2.85,1.4-2.85,3.59v0c0,2.23,1.12,3.66,2.85,3.66a2.36,2.36,0,0,0,2.49-1.65l0-.06h1.55l0,.1a3.76,3.76,0,0,1-4,3C104.86,372.83,103.12,370.86,103.12,367.78Z" transform="translate(0.55 139.57)"/><path class="cls-5" d="M113.44,367.84h0c0-3,1.71-5.05,4.35-5.05s4.24,2,4.24,4.86v.62h-7c0,2,1.15,3.17,2.88,3.17a2.5,2.5,0,0,0,2.38-1.2l0-.08h1.56v.07a3.88,3.88,0,0,1-4,2.61C115.12,372.83,113.44,370.89,113.44,367.84Zm1.63-.83h5.37c-.16-1.92-1.23-2.83-2.66-2.83S115.24,365.16,115.07,367Z" transform="translate(0.55 139.57)"/><path class="cls-5" d="M136.42,371.2h-.14a3.25,3.25,0,0,1-3,1.63c-2.47,0-4.08-2-4.08-5v0c0-3,1.6-5,4.08-5a3.48,3.48,0,0,1,3.06,1.79h.11V363H138V375.9h-1.57Zm.05-3.38v0c0-2.23-1.11-3.63-2.87-3.63s-2.83,1.37-2.83,3.63v0c0,2.26,1.06,3.62,2.84,3.62S136.47,370,136.47,367.82Z" transform="translate(0.55 139.57)"/><path class="cls-5" d="M140.8,369.24V363h1.57v5.91c0,1.75.63,2.58,2.18,2.58a2.44,2.44,0,0,0,2.62-2.74V363h1.56v9.71h-1.56v-1.45H147a2.9,2.9,0,0,1-2.88,1.62C141.94,372.83,140.8,371.53,140.8,369.24Z" transform="translate(0.55 139.57)"/><path class="cls-5" d="M151.17,367.84h0c0-3,1.71-5.05,4.35-5.05s4.24,2,4.24,4.86v.62h-7c0,2,1.15,3.17,2.88,3.17a2.52,2.52,0,0,0,2.39-1.2l0-.08h1.57l0,.07a3.86,3.86,0,0,1-4,2.61C152.84,372.83,151.17,370.89,151.17,367.84Zm1.63-.83h5.36c-.16-1.92-1.22-2.83-2.65-2.83S153,365.16,152.8,367Z" transform="translate(0.55 139.57)"/><path class="cls-5" d="M166.89,367.78v0c0-3,1.73-5,4.45-5a3.77,3.77,0,0,1,4.06,3.09v.06h-1.56v0a2.38,2.38,0,0,0-2.5-1.73c-1.75,0-2.84,1.4-2.84,3.59v0c0,2.23,1.11,3.66,2.84,3.66a2.36,2.36,0,0,0,2.49-1.65l0-.06h1.55l0,.1a3.75,3.75,0,0,1-4,3C168.63,372.83,166.89,370.86,166.89,367.78Z" transform="translate(0.55 139.57)"/><path class="cls-5" d="M177.12,370v0c0-1.73,1.28-2.73,3.54-2.86l2.78-.17V366c0-1.2-.73-1.85-2.18-1.85-1.16,0-1.92.43-2.18,1.19v0h-1.57v-.06c.25-1.52,1.73-2.55,3.8-2.55,2.37,0,3.69,1.22,3.69,3.24v6.64h-1.57v-1.43h-.14a3.24,3.24,0,0,1-2.94,1.6A2.94,2.94,0,0,1,177.12,370Zm3.57,1.52a2.53,2.53,0,0,0,2.75-2.43v-.88l-2.59.16c-1.48.09-2.13.61-2.13,1.58h0C178.72,370.89,179.56,371.47,180.69,371.47Z" transform="translate(0.55 139.57)"/><path class="cls-5" d="M187.87,363h1.57v1.48h.15a2.65,2.65,0,0,1,2.62-1.65,2.81,2.81,0,0,1,2.68,1.71H195a3.25,3.25,0,0,1,3-1.71,2.84,2.84,0,0,1,3.09,3.17v6.71h-1.56v-6.35c0-1.43-.66-2.14-2-2.14a2.18,2.18,0,0,0-2.24,2.25v6.24h-1.57v-6.59a1.84,1.84,0,0,0-2-1.9,2.35,2.35,0,0,0-2.23,2.48v6h-1.57Z" transform="translate(0.55 139.57)"/><path class="cls-5" d="M205.72,371.11h-.14v1.55H204V359.1h1.57v5.39h.14a3.35,3.35,0,0,1,3-1.71c2.47,0,4.07,2,4.07,5v0c0,3-1.61,5-4.07,5A3.33,3.33,0,0,1,205.72,371.11Zm5.5-3.29v0c0-2.26-1.06-3.63-2.83-3.63s-2.85,1.39-2.85,3.63v0c0,2.24,1.08,3.62,2.85,3.62S211.22,370.08,211.22,367.82Z" transform="translate(0.55 139.57)"/><path class="cls-5" d="M215,360a1.08,1.08,0,1,1,1.08,1.08A1.09,1.09,0,0,1,215,360Zm.29,2.95h1.56v9.71h-1.56Z" transform="translate(0.55 139.57)"/><path class="cls-5" d="M219.32,367.84h0c0-3,1.71-5.05,4.35-5.05s4.24,2,4.24,4.86v.62h-7c0,2,1.15,3.17,2.88,3.17a2.5,2.5,0,0,0,2.38-1.2l0-.08h1.56v.07a3.88,3.88,0,0,1-4,2.61C221,372.83,219.32,370.89,219.32,367.84ZM221,367h5.37c-.16-1.92-1.23-2.83-2.66-2.83S221.12,365.16,221,367Z" transform="translate(0.55 139.57)"/><path class="cls-5" d="M230.35,363h1.56v1.48h.15a2.65,2.65,0,0,1,2.62-1.65,2.81,2.81,0,0,1,2.68,1.71h.14a3.26,3.26,0,0,1,3-1.71,2.83,2.83,0,0,1,3.09,3.17v6.71H242v-6.35c0-1.43-.66-2.14-2-2.14a2.18,2.18,0,0,0-2.24,2.25v6.24h-1.57v-6.59a1.84,1.84,0,0,0-2-1.9,2.35,2.35,0,0,0-2.24,2.48v6h-1.56Z" transform="translate(0.55 139.57)"/><path class="cls-5" d="M245.91,367.82v0c0-3.12,1.71-5,4.47-5s4.48,1.9,4.48,5v0c0,3.1-1.71,5-4.48,5S245.91,370.92,245.91,367.82Zm7.34,0v0c0-2.3-1-3.63-2.87-3.63s-2.87,1.33-2.87,3.63v0c0,2.28,1,3.62,2.87,3.62S253.25,370.1,253.25,367.82Z" transform="translate(0.55 139.57)"/><path class="cls-5" d="M256.8,370.18h1.6a2.15,2.15,0,0,0,2.28,1.35c1.3,0,2.23-.63,2.23-1.51v0c0-.65-.5-1.11-1.69-1.4l-1.51-.36c-1.82-.43-2.63-1.23-2.63-2.62h0c0-1.61,1.54-2.83,3.61-2.83s3.44,1,3.66,2.61h-1.54a2,2,0,0,0-2.13-1.3c-1.16,0-2,.59-2,1.45v0c0,.65.48,1.07,1.63,1.35l1.49.36c1.83.44,2.71,1.23,2.71,2.62h0c0,1.73-1.68,2.93-3.89,2.93S257,371.79,256.8,370.18Z" transform="translate(0.55 139.57)"/><path class="cls-5" d="M271.56,370v0c0-1.73,1.28-2.73,3.53-2.86l2.79-.17V366c0-1.2-.73-1.85-2.18-1.85-1.16,0-1.93.43-2.18,1.19v0h-1.57v-.06c.26-1.52,1.73-2.55,3.8-2.55,2.37,0,3.69,1.22,3.69,3.24v6.64h-1.56v-1.43h-.15a3.24,3.24,0,0,1-2.93,1.6A2.94,2.94,0,0,1,271.56,370Zm3.56,1.52a2.53,2.53,0,0,0,2.76-2.43v-.88l-2.6.16c-1.47.09-2.12.61-2.12,1.58h0C273.16,370.89,274,371.47,275.12,371.47Z" transform="translate(0.55 139.57)"/><path class="cls-5" d="M287.49,371.54l4.39-4.75c1.66-1.79,2.14-2.47,2.14-3.6v0a2.29,2.29,0,0,0-2.45-2.39,2.43,2.43,0,0,0-2.6,2.54v0H287.4a4,4,0,0,1,4.27-4,3.75,3.75,0,0,1,4,3.64v0c0,1.48-.64,2.56-3,5l-2.95,3.05v.14h6.16v1.46h-8.41Z" transform="translate(0.55 139.57)"/><path class="cls-5" d="M298.39,366.17v0c0-4.18,1.71-6.79,4.58-6.79s4.6,2.61,4.6,6.79v0c0,4.18-1.73,6.8-4.6,6.8S298.39,370.35,298.39,366.17Zm7.55,0v0c0-3.31-1.11-5.37-3-5.37s-3,2.06-3,5.37v0c0,3.31,1.09,5.38,3,5.38S305.94,369.48,305.94,366.17Z" transform="translate(0.55 139.57)"/><path class="cls-5" d="M309.63,371.58a1.17,1.17,0,1,1,1.17,1.17A1.17,1.17,0,0,1,309.63,371.58Z" transform="translate(0.55 139.57)"/><path class="cls-5" d="M317.63,361.47h-.14l-3.31,2.39v-1.71l3.46-2.48h1.61v13h-1.62Z" transform="translate(0.55 139.57)"/><path class="cls-5" d="M325.1,367.82a3,3,0,0,1,1.8-2.74c1-.64,1.45-1.21,1.45-2.16v0a2,2,0,0,0-2.21-1.93,2.13,2.13,0,0,0-2.31,2.08h-1.55v0a3.56,3.56,0,0,1,3.92-3.48c2.27,0,3.82,1.4,3.82,3.25v0a3.48,3.48,0,0,1-1.88,3.09c-1.14.68-1.47,1.18-1.47,2.13v.58H325.1Zm-.35,3.75a1.25,1.25,0,1,1,1.25,1.25A1.21,1.21,0,0,1,324.75,371.57Z" transform="translate(0.55 139.57)"/><path class="cls-8" d="M217.38,417.12H219l3.92,9.57h.13l3.93-9.57h1.66v11.47h-1.34v-8.76h-.08l-3.63,8.76h-1.21l-3.62-8.76h-.09v8.76h-1.33Z" transform="translate(0.55 139.57)"/><path class="cls-8" d="M231,424.34h0c0-2.64,1.51-4.46,3.83-4.46s3.75,1.74,3.75,4.3v.54h-6.17c0,1.77,1,2.8,2.54,2.8a2.21,2.21,0,0,0,2.11-1.06l0-.07h1.39l0,.06a3.42,3.42,0,0,1-3.54,2.31C232.47,428.75,231,427,231,424.34Zm1.43-.74h4.74c-.14-1.69-1.08-2.49-2.34-2.49A2.4,2.4,0,0,0,232.43,423.6Z" transform="translate(0.55 139.57)"/><path class="cls-8" d="M245.3,420h1.38v1.37h.13a2.93,2.93,0,0,1,2.67-1.52c2.17,0,3.59,1.76,3.59,4.43v0c0,2.68-1.41,4.43-3.59,4.43a2.94,2.94,0,0,1-2.67-1.51h-.13v4.22H245.3Zm6.36,4.3v0c0-2-.93-3.2-2.5-3.2s-2.51,1.22-2.51,3.2v0c0,2,.95,3.2,2.51,3.2S251.66,426.31,251.66,424.32Z" transform="translate(0.55 139.57)"/><path class="cls-8" d="M254.72,426.2h0c0-1.53,1.13-2.41,3.13-2.53l2.45-.15v-.78c0-1.06-.64-1.63-1.92-1.63-1,0-1.7.38-1.92,1v0h-1.38v-.05c.23-1.34,1.53-2.25,3.36-2.25,2.09,0,3.26,1.08,3.26,2.86v5.86H260.3v-1.26h-.12a2.87,2.87,0,0,1-2.6,1.42A2.6,2.6,0,0,1,254.72,426.2Zm3.15,1.34a2.23,2.23,0,0,0,2.43-2.14v-.78l-2.29.14c-1.3.08-1.87.54-1.87,1.39v0C256.14,427,256.88,427.54,257.87,427.54Z" transform="translate(0.55 139.57)"/><path class="cls-8" d="M264.21,420h1.38v1.28h.13a2.24,2.24,0,0,1,2.29-1.43,3.82,3.82,0,0,1,.69.06v1.34a4.71,4.71,0,0,0-.85-.08,2.08,2.08,0,0,0-2.26,2.09v5.31h-1.38Z" transform="translate(0.55 139.57)"/><path class="cls-8" d="M269.74,424.34h0c0-2.64,1.51-4.46,3.84-4.46s3.75,1.74,3.75,4.3v.54h-6.17c0,1.77,1,2.8,2.54,2.8a2.23,2.23,0,0,0,2.11-1.06l0-.07h1.38v.06a3.42,3.42,0,0,1-3.54,2.31C271.22,428.75,269.74,427,269.74,424.34Zm1.44-.74h4.74c-.14-1.69-1.08-2.49-2.35-2.49A2.4,2.4,0,0,0,271.18,423.6Z" transform="translate(0.55 139.57)"/><path class="cls-8" d="M279,424.29v0c0-2.66,1.52-4.4,3.93-4.4a3.32,3.32,0,0,1,3.58,2.73v0h-1.38v0A2.12,2.12,0,0,0,283,421.1c-1.55,0-2.52,1.24-2.52,3.17v0c0,2,1,3.23,2.52,3.23a2.09,2.09,0,0,0,2.2-1.46V426h1.37v.09a3.33,3.33,0,0,1-3.57,2.66C280.57,428.75,279,427,279,424.29Z" transform="translate(0.55 139.57)"/><path class="cls-8" d="M288.14,424.34h0c0-2.64,1.52-4.46,3.84-4.46s3.75,1.74,3.75,4.3v.54h-6.17c0,1.77,1,2.8,2.54,2.8a2.23,2.23,0,0,0,2.11-1.06l0-.07h1.39l0,.06a3.42,3.42,0,0,1-3.54,2.31C289.62,428.75,288.14,427,288.14,424.34Zm1.44-.74h4.74c-.14-1.69-1.08-2.49-2.34-2.49A2.4,2.4,0,0,0,289.58,423.6Z" transform="translate(0.55 139.57)"/><path class="cls-8" d="M302,424.34h0c0-2.64,1.51-4.46,3.84-4.46s3.74,1.74,3.74,4.3v.54h-6.17c0,1.77,1,2.8,2.55,2.8a2.21,2.21,0,0,0,2.1-1.06l0-.07h1.38l0,.06a3.41,3.41,0,0,1-3.53,2.31C303.5,428.75,302,427,302,424.34Zm1.44-.74h4.74c-.15-1.69-1.09-2.49-2.35-2.49A2.4,2.4,0,0,0,303.46,423.6Z" transform="translate(0.55 139.57)"/><path class="cls-8" d="M313.68,424.31l-3-4.29h1.63l2,3.19h.12l2-3.19h1.55l-2.91,4.23,2.95,4.34h-1.63l-2-3.23h-.13l-2,3.23h-1.55Z" transform="translate(0.55 139.57)"/><path class="cls-8" d="M319.13,424.29v0c0-2.66,1.53-4.4,3.93-4.4a3.34,3.34,0,0,1,3.59,2.73v0h-1.38v0a2.11,2.11,0,0,0-2.21-1.52c-1.54,0-2.51,1.24-2.51,3.17v0c0,2,1,3.23,2.51,3.23a2.08,2.08,0,0,0,2.2-1.46l0-.05h1.37l0,.09a3.32,3.32,0,0,1-3.56,2.66C320.67,428.75,319.13,427,319.13,424.29Z" transform="translate(0.55 139.57)"/><path class="cls-8" d="M328.24,424.34h0c0-2.64,1.51-4.46,3.84-4.46s3.75,1.74,3.75,4.3v.54h-6.17c0,1.77,1,2.8,2.54,2.8a2.23,2.23,0,0,0,2.11-1.06l0-.07h1.38v.06a3.42,3.42,0,0,1-3.54,2.31C329.72,428.75,328.24,427,328.24,424.34Zm1.44-.74h4.74c-.14-1.69-1.08-2.49-2.35-2.49A2.4,2.4,0,0,0,329.68,423.6Z" transform="translate(0.55 139.57)"/><path class="cls-8" d="M338.05,416.62h1.38v12h-1.38Z" transform="translate(0.55 139.57)"/><path class="cls-8" d="M341.66,424.34h0c0-2.64,1.51-4.46,3.84-4.46s3.74,1.74,3.74,4.3v.54h-6.17c0,1.77,1,2.8,2.54,2.8a2.21,2.21,0,0,0,2.11-1.06l0-.07h1.39l0,.06a3.42,3.42,0,0,1-3.54,2.31C343.13,428.75,341.66,427,341.66,424.34Zm1.43-.74h4.74c-.14-1.69-1.08-2.49-2.34-2.49A2.41,2.41,0,0,0,343.09,423.6Z" transform="translate(0.55 139.57)"/><path class="cls-8" d="M351.38,420h1.38v1.29h.13a2.53,2.53,0,0,1,2.5-1.44c1.92,0,3,1.14,3,3.18v5.54H357v-5.21c0-1.54-.63-2.28-2-2.28a2.17,2.17,0,0,0-2.24,2.42v5.07h-1.38Z" transform="translate(0.55 139.57)"/><path class="cls-8" d="M361.42,426.37v-5.2h-1.35V420h1.35v-2.21h1.43V420h1.88v1.15h-1.88V426c0,1,.35,1.41,1.24,1.41a4.64,4.64,0,0,0,.64,0v1.18a4.45,4.45,0,0,1-.81.08C362.16,428.66,361.42,428,361.42,426.37Z" transform="translate(0.55 139.57)"/><path class="cls-8" d="M366.24,424.34h0c0-2.64,1.51-4.46,3.84-4.46s3.74,1.74,3.74,4.3v.54h-6.16c0,1.77,1,2.8,2.54,2.8a2.23,2.23,0,0,0,2.11-1.06l0-.07h1.38v.06a3.42,3.42,0,0,1-3.54,2.31C367.72,428.75,366.24,427,366.24,424.34Zm1.44-.74h4.74c-.15-1.69-1.08-2.49-2.35-2.49A2.4,2.4,0,0,0,367.68,423.6Z" transform="translate(0.55 139.57)"/><path class="cls-8" d="M376.11,427.63a1.1,1.1,0,1,1,1.11,1.11A1.07,1.07,0,0,1,376.11,427.63Zm.3-10.52H378l-.13,7.67h-1.32Z" transform="translate(0.55 139.57)"/><path class="cls-8" d="M385.78,417.12h1.43v10.19h5.54v1.28h-7Z" transform="translate(0.55 139.57)"/><path class="cls-8" d="M394,424.32v0c0-2.75,1.51-4.43,4-4.43s3.95,1.68,3.95,4.43v0c0,2.74-1.51,4.43-3.95,4.43S394,427.06,394,424.32Zm6.49,0v0c0-2-.92-3.2-2.54-3.2s-2.53,1.17-2.53,3.2v0c0,2,.91,3.2,2.53,3.2S400.51,426.34,400.51,424.32Z" transform="translate(0.55 139.57)"/><path class="cls-8" d="M403.63,426.41H405a1.9,1.9,0,0,0,2,1.18c1.16,0,2-.55,2-1.33h0c0-.58-.44-1-1.5-1.24l-1.33-.32c-1.6-.38-2.33-1.08-2.33-2.31h0c0-1.42,1.37-2.5,3.19-2.5s3.05.9,3.24,2.3h-1.36a1.75,1.75,0,0,0-1.89-1.14c-1,0-1.76.52-1.76,1.28h0c0,.58.43.95,1.44,1.19l1.32.32c1.61.39,2.39,1.09,2.39,2.32h0c0,1.53-1.49,2.59-3.43,2.59S403.79,427.82,403.63,426.41Z" transform="translate(0.55 139.57)"/><path class="cls-8" d="M417.15,427.61l3.88-4.2c1.47-1.58,1.89-2.18,1.89-3.18h0a2,2,0,0,0-2.17-2.12,2.15,2.15,0,0,0-2.29,2.25v0h-1.39a3.53,3.53,0,0,1,3.78-3.5,3.31,3.31,0,0,1,3.54,3.21v0c0,1.31-.57,2.27-2.64,4.4l-2.61,2.7v.13h5.44v1.28h-7.43Z" transform="translate(0.55 139.57)"/><path class="cls-8" d="M431.49,429.28h1.45c.15.65.92,1.11,2.15,1.11,1.53,0,2.45-.72,2.45-2v-1.73h-.13a3,3,0,0,1-2.69,1.48c-2.21,0-3.59-1.72-3.59-4.12v0c0-2.4,1.38-4.14,3.62-4.14a2.94,2.94,0,0,1,2.68,1.57h.09V420h1.39v8.45c0,1.92-1.48,3.14-3.82,3.14C433,431.61,431.7,430.68,431.49,429.28Zm6.08-5.25v0c0-1.7-1-2.91-2.54-2.91s-2.49,1.21-2.49,2.91v0c0,1.7.9,2.89,2.49,2.89S437.57,425.73,437.57,424Z" transform="translate(0.55 139.57)"/><path class="cls-8" d="M441,426.2h0c0-1.53,1.13-2.41,3.12-2.53l2.46-.15v-.78c0-1.06-.65-1.63-1.93-1.63-1,0-1.7.38-1.92,1v0h-1.38v-.05c.22-1.34,1.52-2.25,3.35-2.25,2.09,0,3.26,1.08,3.26,2.86v5.86h-1.38v-1.26h-.13a2.87,2.87,0,0,1-2.59,1.42A2.6,2.6,0,0,1,441,426.2Zm3.15,1.34a2.24,2.24,0,0,0,2.43-2.14v-.78l-2.29.14c-1.3.08-1.88.54-1.88,1.39v0C442.38,427,443.12,427.54,444.12,427.54Z" transform="translate(0.55 139.57)"/><path class="cls-8" d="M450.46,420h1.38v1.29H452a2.52,2.52,0,0,1,2.49-1.44c1.93,0,3,1.14,3,3.18v5.54h-1.38v-5.21c0-1.54-.64-2.28-2-2.28a2.17,2.17,0,0,0-2.23,2.42v5.07h-1.38Z" transform="translate(0.55 139.57)"/><path class="cls-8" d="M459.44,426.2h0c0-1.53,1.13-2.41,3.13-2.53l2.45-.15v-.78c0-1.06-.64-1.63-1.92-1.63-1,0-1.7.38-1.93,1v0h-1.39v-.05c.22-1.34,1.53-2.25,3.36-2.25,2.09,0,3.26,1.08,3.26,2.86v5.86H465v-1.26h-.12a2.87,2.87,0,0,1-2.6,1.42A2.6,2.6,0,0,1,459.44,426.2Zm3.15,1.34A2.23,2.23,0,0,0,465,425.4v-.78l-2.29.14c-1.3.08-1.87.54-1.87,1.39v0C460.86,427,461.6,427.54,462.59,427.54Z" transform="translate(0.55 139.57)"/><path class="cls-8" d="M468.93,420h1.38v1.31h.13a2.34,2.34,0,0,1,2.31-1.46,2.48,2.48,0,0,1,2.37,1.51h.13a2.87,2.87,0,0,1,2.62-1.51,2.5,2.5,0,0,1,2.73,2.8v5.92h-1.38V423c0-1.26-.58-1.89-1.79-1.89a1.93,1.93,0,0,0-2,2v5.51h-1.38v-5.82a1.62,1.62,0,0,0-1.78-1.67,2.07,2.07,0,0,0-2,2.18v5.31h-1.38Z" transform="translate(0.55 139.57)"/><path class="cls-8" d="M482.66,424.32v0c0-2.75,1.51-4.43,3.95-4.43s3.95,1.68,3.95,4.43v0c0,2.74-1.51,4.43-3.95,4.43S482.66,427.06,482.66,424.32Zm6.49,0v0c0-2-.92-3.2-2.54-3.2s-2.53,1.17-2.53,3.2v0c0,2,.91,3.2,2.53,3.2S489.15,426.34,489.15,424.32Z" transform="translate(0.55 139.57)"/><path class="cls-8" d="M492.27,426.41h1.41a1.91,1.91,0,0,0,2,1.18c1.15,0,2-.55,2-1.33h0c0-.58-.44-1-1.5-1.24l-1.33-.32c-1.6-.38-2.33-1.08-2.33-2.31h0c0-1.42,1.37-2.5,3.19-2.5s3.05.9,3.24,2.3h-1.36A1.75,1.75,0,0,0,495.7,421c-1,0-1.77.52-1.77,1.28h0c0,.58.43.95,1.44,1.19l1.32.32c1.61.39,2.39,1.09,2.39,2.32h0c0,1.53-1.49,2.59-3.43,2.59S492.43,427.82,492.27,426.41Z" transform="translate(0.55 139.57)"/><path class="cls-8" d="M501.37,427.63a1.1,1.1,0,1,1,1.1,1.11A1.06,1.06,0,0,1,501.37,427.63Zm.3-10.52h1.59l-.14,7.67H501.8Z" transform="translate(0.55 139.57)"/><path class="cls-6" d="M13.8,603.92H360.35a40.13,40.13,0,0,1,40.13,40.13v0a40.13,40.13,0,0,1-40.13,40.13H53.94A40.13,40.13,0,0,1,13.8,644.05V603.92a0,0,0,0,1,0,0Z"/><path class="cls-7" d="M197.8,551.74H493.1a32.15,32.15,0,0,1,32.15,32.15v0A32.15,32.15,0,0,1,493.1,616H165.65a0,0,0,0,1,0,0V583.89A32.15,32.15,0,0,1,197.8,551.74Z" transform="translate(691.45 1307.36) rotate(180)"/><path class="cls-5" d="M42.79,488.67h1.88l4.45,10.84h.15l4.44-10.84h1.88v13H54.08v-9.92H54l-4.1,9.92H48.51l-4.11-9.92h-.1v9.92H42.79Z" transform="translate(0.55 139.57)"/><path class="cls-5" d="M58.62,498.24V492h1.57v5.91c0,1.74.63,2.58,2.18,2.58A2.45,2.45,0,0,0,65,497.7V492h1.57v9.7H65v-1.44h-.15A2.9,2.9,0,0,1,62,501.84C59.76,501.84,58.62,500.54,58.62,498.24Z" transform="translate(0.55 139.57)"/><path class="cls-5" d="M69.61,505v-1.28a4.45,4.45,0,0,0,.65,0c.89,0,1.43-.4,1.78-1.52l.18-.58L68.63,492H70.3l2.67,8h.14l2.66-8h1.65l-3.79,10.3c-.8,2.18-1.61,2.81-3.33,2.81A4.2,4.2,0,0,1,69.61,505Z" transform="translate(0.55 139.57)"/><path class="cls-5" d="M86.48,500.12h-.15v1.54H84.77V488.11h1.56v5.38h.15a3.32,3.32,0,0,1,3-1.7c2.47,0,4.07,2,4.07,5v0c0,3-1.61,5-4.07,5A3.31,3.31,0,0,1,86.48,500.12Zm5.49-3.3v0c0-2.26-1-3.62-2.83-3.62s-2.84,1.38-2.84,3.62v0c0,2.24,1.08,3.63,2.84,3.63S92,499.08,92,496.82Z" transform="translate(0.55 139.57)"/><path class="cls-5" d="M95.75,489a1.09,1.09,0,1,1,1.09,1.08A1.08,1.08,0,0,1,95.75,489ZM96,492h1.57v9.7H96Z" transform="translate(0.55 139.57)"/><path class="cls-5" d="M100.08,496.85h0c0-3,1.71-5,4.35-5s4.24,2,4.24,4.86v.61h-7c0,2,1.15,3.18,2.88,3.18a2.51,2.51,0,0,0,2.39-1.21l0-.08h1.57l0,.07a3.86,3.86,0,0,1-4,2.62C101.75,501.84,100.08,499.89,100.08,496.85Zm1.63-.84h5.36c-.16-1.92-1.22-2.83-2.65-2.83S101.88,494.17,101.71,496Z" transform="translate(0.55 139.57)"/><path class="cls-5" d="M111.1,492h1.57v1.46h.14a2.86,2.86,0,0,1,2.83-1.63c2.18,0,3.39,1.29,3.39,3.59v6.28h-1.56v-5.9c0-1.75-.72-2.58-2.27-2.58a2.45,2.45,0,0,0-2.53,2.74v5.74H111.1Z" transform="translate(0.55 139.57)"/><path class="cls-5" d="M129.71,493.05a1.25,1.25,0,1,1-1.25-1.25A1.21,1.21,0,0,1,129.71,493.05ZM129.36,505h-1.8l.16-8.68h1.49Z" transform="translate(0.55 139.57)"/><path class="cls-5" d="M137.13,492h1.65l2.66,8h.14l2.66-8h1.66l-3.6,9.7h-1.58Z" transform="translate(0.55 139.57)"/><path class="cls-5" d="M147.12,496.85h0c0-3,1.71-5,4.35-5s4.24,2,4.24,4.86v.61h-7c0,2,1.15,3.18,2.88,3.18a2.49,2.49,0,0,0,2.38-1.21l0-.08h1.57l0,.07a3.86,3.86,0,0,1-4,2.62C148.8,501.84,147.12,499.89,147.12,496.85Zm1.63-.84h5.37c-.16-1.92-1.22-2.83-2.66-2.83S148.92,494.17,148.75,496Z" transform="translate(0.55 139.57)"/><path class="cls-5" d="M157.66,496.82v0c0-3.11,1.71-5,4.47-5s4.48,1.9,4.48,5v0c0,3.11-1.71,5-4.48,5S157.66,499.93,157.66,496.82Zm7.35,0v0c0-2.29-1-3.62-2.88-3.62s-2.87,1.33-2.87,3.62v0c0,2.29,1,3.63,2.87,3.63S165,499.11,165,496.82Z" transform="translate(0.55 139.57)"/><path class="cls-5" d="M181,500.21h-.14a3.27,3.27,0,0,1-3,1.63c-2.46,0-4.07-2-4.07-5v0c0-3,1.6-5,4.07-5a3.47,3.47,0,0,1,3.07,1.79H181V492h1.57v13H181Zm.05-3.39v0c0-2.23-1.11-3.62-2.87-3.62s-2.83,1.36-2.83,3.62v0c0,2.26,1.06,3.63,2.84,3.63S181.05,499,181.05,496.82Z" transform="translate(0.55 139.57)"/><path class="cls-5" d="M185.38,498.24V492H187v5.91c0,1.74.63,2.58,2.17,2.58a2.45,2.45,0,0,0,2.63-2.75V492h1.56v9.7h-1.56v-1.44h-.15a2.92,2.92,0,0,1-2.88,1.62C186.51,501.84,185.38,500.54,185.38,498.24Z" transform="translate(0.55 139.57)"/><path class="cls-5" d="M195.75,496.85h0c0-3,1.71-5,4.34-5s4.24,2,4.24,4.86v.61h-7c0,2,1.15,3.18,2.88,3.18a2.52,2.52,0,0,0,2.39-1.21l0-.08h1.57l0,.07a3.86,3.86,0,0,1-4,2.62C197.42,501.84,195.75,499.89,195.75,496.85Zm1.63-.84h5.36c-.16-1.92-1.22-2.83-2.65-2.83S197.55,494.17,197.38,496Z" transform="translate(0.55 139.57)"/><path class="cls-5" d="M211.47,496.85h0c0-3,1.71-5,4.35-5s4.24,2,4.24,4.86v.61h-7c.05,2,1.16,3.18,2.88,3.18a2.5,2.5,0,0,0,2.39-1.21l0-.08h1.57l0,.07a3.86,3.86,0,0,1-4,2.62C213.14,501.84,211.47,499.89,211.47,496.85Zm1.63-.84h5.37c-.17-1.92-1.23-2.83-2.66-2.83S213.27,494.17,213.1,496Z" transform="translate(0.55 139.57)"/><path class="cls-5" d="M222,499.19h1.6a2.15,2.15,0,0,0,2.28,1.34c1.3,0,2.23-.62,2.23-1.5v0c0-.66-.49-1.12-1.69-1.41l-1.51-.36c-1.81-.43-2.63-1.22-2.63-2.62h0c0-1.62,1.55-2.83,3.61-2.83s3.45,1,3.66,2.6H228a2,2,0,0,0-2.13-1.3c-1.15,0-2,.6-2,1.45v0c0,.66.49,1.07,1.63,1.35l1.49.36c1.83.44,2.71,1.24,2.71,2.62v0c0,1.73-1.68,2.93-3.89,2.93S222.18,500.79,222,499.19Z" transform="translate(0.55 139.57)"/><path class="cls-5" d="M232.67,499.14v-5.88h-1.53V492h1.53v-2.51h1.62V492h2.12v1.3h-2.12v5.49c0,1.14.4,1.6,1.4,1.6a5.79,5.79,0,0,0,.72,0v1.34a5.5,5.5,0,0,1-.91.09C233.51,501.74,232.67,501,232.67,499.14Z" transform="translate(0.55 139.57)"/><path class="cls-5" d="M238.18,499h0c0-1.73,1.28-2.73,3.54-2.87l2.78-.17V495c0-1.2-.73-1.84-2.18-1.84-1.16,0-1.92.43-2.18,1.18v0h-1.56v-.05c.25-1.53,1.73-2.55,3.8-2.55,2.36,0,3.69,1.21,3.69,3.23v6.64H244.5v-1.43h-.14a3.23,3.23,0,0,1-2.94,1.61A2.94,2.94,0,0,1,238.18,499Zm3.57,1.53a2.54,2.54,0,0,0,2.75-2.43v-.89l-2.59.16c-1.48.1-2.13.62-2.13,1.58v0C239.78,499.9,240.62,500.48,241.75,500.48Z" transform="translate(0.55 139.57)"/><path class="cls-5" d="M248.93,492h1.57v1.48h.14a2.66,2.66,0,0,1,2.62-1.65,2.8,2.8,0,0,1,2.69,1.7h.14a3.24,3.24,0,0,1,3-1.7,2.83,2.83,0,0,1,3.09,3.17v6.7h-1.57v-6.34c0-1.43-.65-2.14-2-2.14a2.18,2.18,0,0,0-2.24,2.25v6.23h-1.57v-6.59a1.83,1.83,0,0,0-2-1.89,2.33,2.33,0,0,0-2.23,2.47v6h-1.57Z" transform="translate(0.55 139.57)"/><path class="cls-5" d="M264.5,496.82v0c0-3.11,1.71-5,4.47-5s4.48,1.9,4.48,5v0c0,3.11-1.72,5-4.48,5S264.5,499.93,264.5,496.82Zm7.34,0v0c0-2.29-1-3.62-2.87-3.62s-2.87,1.33-2.87,3.62v0c0,2.29,1,3.63,2.87,3.63S271.84,499.11,271.84,496.82Z" transform="translate(0.55 139.57)"/><path class="cls-5" d="M275.38,499.19H277a2.14,2.14,0,0,0,2.27,1.34c1.31,0,2.24-.62,2.24-1.5v0c0-.66-.5-1.12-1.7-1.41l-1.5-.36c-1.82-.43-2.64-1.22-2.64-2.62h0c0-1.62,1.55-2.83,3.61-2.83s3.45,1,3.67,2.6H281.4a2,2,0,0,0-2.14-1.3c-1.15,0-2,.6-2,1.45v0c0,.66.48,1.07,1.63,1.35l1.49.36c1.83.44,2.71,1.24,2.71,2.62v0c0,1.73-1.68,2.93-3.89,2.93S275.56,500.79,275.38,499.19Z" transform="translate(0.55 139.57)"/><path class="cls-5" d="M290.64,498.33v-.1h1.56v.08a2.68,2.68,0,0,0,2.8,2.23,2.81,2.81,0,0,0,2.91-3v0a2.81,2.81,0,0,0-2.89-3,3,3,0,0,0-2.16.79,3.14,3.14,0,0,0-.59.78h-1.4l.68-7.47h7.23v1.45h-5.95l-.44,4.4h.14a3.2,3.2,0,0,1,2.77-1.35,4.12,4.12,0,0,1,4.2,4.34h0A4.3,4.3,0,0,1,295,502,4.09,4.09,0,0,1,290.64,498.33Z" transform="translate(0.55 139.57)"/><path class="cls-5" d="M302.21,488.11h1.57v8.09h.14l4.2-4.24H310L305.79,496l4.51,5.62h-2l-3.64-4.56-.91.88v3.68h-1.57Z" transform="translate(0.55 139.57)"/><path class="cls-5" d="M312.14,492h1.56v1.48h.15a2.64,2.64,0,0,1,2.62-1.65,2.8,2.8,0,0,1,2.68,1.7h.14a3.25,3.25,0,0,1,3-1.7,2.83,2.83,0,0,1,3.09,3.17v6.7h-1.56v-6.34c0-1.43-.66-2.14-2-2.14a2.18,2.18,0,0,0-2.24,2.25v6.23H318v-6.59a1.83,1.83,0,0,0-2-1.89,2.34,2.34,0,0,0-2.24,2.47v6h-1.56Z" transform="translate(0.55 139.57)"/><path class="cls-5" d="M333.37,492h1.57v1.46h.14a2.86,2.86,0,0,1,2.83-1.63c2.18,0,3.39,1.29,3.39,3.59v6.28h-1.56v-5.9c0-1.75-.72-2.58-2.27-2.58a2.45,2.45,0,0,0-2.53,2.74v5.74h-1.57Z" transform="translate(0.55 139.57)"/><path class="cls-5" d="M343.65,496.82v0c0-3.11,1.71-5,4.47-5s4.48,1.9,4.48,5v0c0,3.11-1.71,5-4.48,5S343.65,499.93,343.65,496.82Zm7.34,0v0c0-2.29-1-3.62-2.87-3.62s-2.87,1.33-2.87,3.62v0c0,2.29,1,3.63,2.87,3.63S351,499.11,351,496.82Z" transform="translate(0.55 139.57)"/><path class="cls-5" d="M354.54,499.19h1.6a2.14,2.14,0,0,0,2.28,1.34c1.3,0,2.23-.62,2.23-1.5v0c0-.66-.5-1.12-1.69-1.41l-1.51-.36c-1.82-.43-2.64-1.22-2.64-2.62h0c0-1.62,1.55-2.83,3.61-2.83s3.45,1,3.67,2.6h-1.54a2,2,0,0,0-2.13-1.3c-1.16,0-2,.6-2,1.45v0c0,.66.48,1.07,1.63,1.35l1.49.36c1.83.44,2.71,1.24,2.71,2.62v0c0,1.73-1.68,2.93-3.89,2.93S354.72,500.79,354.54,499.19Z" transform="translate(0.55 139.57)"/><path class="cls-5" d="M41.75,511.49H43.4l2.66,8h.14l2.66-8h1.66l-3.6,9.7H45.34Z" transform="translate(0.55 139.57)"/><path class="cls-5" d="M51.74,516.38h0c0-3,1.71-5.05,4.35-5.05s4.24,2,4.24,4.86v.61h-7c0,2,1.15,3.18,2.88,3.18a2.49,2.49,0,0,0,2.38-1.21l0-.08h1.56v.07a3.87,3.87,0,0,1-4,2.61C53.42,521.36,51.74,519.42,51.74,516.38Zm1.63-.84h5.37c-.16-1.92-1.23-2.83-2.66-2.83S53.54,513.69,53.37,515.54Z" transform="translate(0.55 139.57)"/><path class="cls-5" d="M62.77,511.49h1.56V513h.15a2.65,2.65,0,0,1,2.62-1.64,2.8,2.8,0,0,1,2.68,1.7h.14a3.25,3.25,0,0,1,3-1.7A2.82,2.82,0,0,1,76,514.49v6.7H74.42v-6.34c0-1.44-.66-2.15-2-2.15A2.18,2.18,0,0,0,70.15,515v6.24H68.58V514.6a1.84,1.84,0,0,0-2-1.9,2.35,2.35,0,0,0-2.24,2.48v6H62.77Z" transform="translate(0.55 139.57)"/><path class="cls-5" d="M78.33,516.35v0c0-3.11,1.71-5,4.47-5s4.48,1.9,4.48,5v0c0,3.11-1.71,5-4.48,5S78.33,519.46,78.33,516.35Zm7.35,0v0c0-2.29-1-3.63-2.88-3.63s-2.87,1.34-2.87,3.63v0c0,2.29,1,3.63,2.87,3.63S85.68,518.64,85.68,516.35Z" transform="translate(0.55 139.57)"/><path class="cls-5" d="M89.22,518.72h1.6a2.15,2.15,0,0,0,2.28,1.34c1.3,0,2.23-.62,2.23-1.5v0c0-.66-.5-1.12-1.69-1.41l-1.51-.36c-1.81-.43-2.63-1.22-2.63-2.62h0c0-1.61,1.54-2.82,3.61-2.82s3.44,1,3.66,2.6H95.23a2,2,0,0,0-2.13-1.3c-1.15,0-2,.6-2,1.45v0c0,.66.48,1.07,1.63,1.35l1.49.36c1.83.44,2.71,1.23,2.71,2.62v0c0,1.73-1.68,2.92-3.89,2.92S89.4,520.32,89.22,518.72Z" transform="translate(0.55 139.57)"/><path class="cls-5" d="M104.07,516.38h0c0-3,1.71-5.05,4.35-5.05s4.24,2,4.24,4.86v.61h-7c0,2,1.15,3.18,2.88,3.18a2.5,2.5,0,0,0,2.39-1.21l0-.08h1.57l0,.07a3.85,3.85,0,0,1-4,2.61C105.74,521.36,104.07,519.42,104.07,516.38Zm1.63-.84h5.36c-.16-1.92-1.22-2.83-2.65-2.83S105.87,513.69,105.7,515.54Z" transform="translate(0.55 139.57)"/><path class="cls-5" d="M115.09,511.49h1.57V513h.14a2.86,2.86,0,0,1,2.83-1.63c2.18,0,3.39,1.28,3.39,3.59v6.28h-1.56v-5.9c0-1.75-.72-2.59-2.27-2.59a2.46,2.46,0,0,0-2.53,2.75v5.74h-1.57Z" transform="translate(0.55 139.57)"/><path class="cls-5" d="M130.55,516.38h0c0-3,1.71-5.05,4.35-5.05s4.24,2,4.24,4.86v.61h-7c0,2,1.15,3.18,2.88,3.18a2.49,2.49,0,0,0,2.38-1.21l0-.08H139v.07a3.87,3.87,0,0,1-4,2.61C132.23,521.36,130.55,519.42,130.55,516.38Zm1.63-.84h5.37c-.16-1.92-1.23-2.83-2.66-2.83S132.35,513.69,132.18,515.54Z" transform="translate(0.55 139.57)"/><path class="cls-5" d="M141.67,507.64h1.56v13.55h-1.56Z" transform="translate(0.55 139.57)"/><path class="cls-5" d="M151,517.89v-.1h1.62v.1c.11,1.3,1.46,2.11,3.34,2.11s3.05-.9,3.05-2.23h0c0-1.08-.75-1.82-2.53-2.21l-1.44-.32c-2.6-.57-3.73-1.77-3.73-3.65h0c0-2.15,1.89-3.67,4.57-3.67s4.41,1.53,4.54,3.46v.13h-1.62l0-.12c-.18-1.14-1.26-2-2.95-2s-2.87.77-2.87,2.13h0c0,1,.71,1.74,2.47,2.13l1.44.32c2.71.61,3.78,1.69,3.78,3.57h0c0,2.43-1.9,3.94-4.79,3.94S151.2,520,151,517.89Z" transform="translate(0.55 139.57)"/><path class="cls-5" d="M163.79,518.67v-5.89h-1.53v-1.29h1.53V509h1.62v2.51h2.13v1.29h-2.13v5.5c0,1.14.4,1.6,1.41,1.6a5.9,5.9,0,0,0,.72,0v1.34a5.59,5.59,0,0,1-.91.08C164.63,521.26,163.79,520.53,163.79,518.67Z" transform="translate(0.55 139.57)"/><path class="cls-5" d="M169.3,518.48h0c0-1.73,1.28-2.73,3.54-2.87l2.78-.17v-.88c0-1.2-.72-1.85-2.17-1.85-1.16,0-1.93.44-2.18,1.19v0h-1.57v-.06c.25-1.52,1.73-2.54,3.8-2.54,2.37,0,3.69,1.21,3.69,3.23v6.64h-1.57v-1.43h-.14a3.22,3.22,0,0,1-2.93,1.6C170.7,521.36,169.3,520.25,169.3,518.48Zm3.57,1.52a2.53,2.53,0,0,0,2.75-2.43v-.88l-2.59.16c-1.47.09-2.12.62-2.12,1.58v0C170.91,519.43,171.75,520,172.87,520Z" transform="translate(0.55 139.57)"/><path class="cls-5" d="M180.06,511.49h1.56v1.44h.15a2.52,2.52,0,0,1,2.59-1.61,4.84,4.84,0,0,1,.78.06v1.52a6,6,0,0,0-1-.09,2.36,2.36,0,0,0-2.56,2.37v6h-1.56Z" transform="translate(0.55 139.57)"/><path class="cls-5" d="M188.88,519.64h-.14v1.55h-1.57V507.64h1.57V513h.14a3.34,3.34,0,0,1,3-1.7c2.46,0,4.07,2,4.07,5v0c0,3-1.61,5-4.07,5A3.33,3.33,0,0,1,188.88,519.64Zm5.49-3.29v0c0-2.26-1.05-3.63-2.82-3.63s-2.85,1.39-2.85,3.63v0c0,2.24,1.08,3.63,2.85,3.63S194.37,518.61,194.37,516.35Z" transform="translate(0.55 139.57)"/><path class="cls-5" d="M198.32,517.77v-6.28h1.57v5.9c0,1.75.63,2.59,2.18,2.59a2.45,2.45,0,0,0,2.62-2.75v-5.74h1.56v9.7h-1.56v-1.45h-.15a2.9,2.9,0,0,1-2.88,1.62C199.46,521.36,198.32,520.07,198.32,517.77Z" transform="translate(0.55 139.57)"/><path class="cls-5" d="M208.69,516.31h0c0-3,1.73-5,4.44-5a3.77,3.77,0,0,1,4.06,3.09v.05h-1.55v0a2.41,2.41,0,0,0-2.51-1.73c-1.74,0-2.84,1.41-2.84,3.6h0c0,2.24,1.12,3.67,2.84,3.67a2.37,2.37,0,0,0,2.5-1.66l0-.05h1.54v.1a3.76,3.76,0,0,1-4,3C210.42,521.36,208.69,519.39,208.69,516.31Z" transform="translate(0.55 139.57)"/><path class="cls-5" d="M219.58,507.64h1.57v8.09h.14l4.2-4.24h1.9l-4.23,4.08,4.51,5.62h-2l-3.64-4.56-.91.88v3.68h-1.57Z" transform="translate(0.55 139.57)"/><path class="cls-5" d="M228.65,518.72h1.61a2.14,2.14,0,0,0,2.27,1.34c1.31,0,2.24-.62,2.24-1.5v0c0-.66-.5-1.12-1.7-1.41l-1.5-.36c-1.82-.43-2.64-1.22-2.64-2.62h0c0-1.61,1.55-2.82,3.61-2.82s3.45,1,3.67,2.6h-1.54a2,2,0,0,0-2.14-1.3c-1.15,0-2,.6-2,1.45v0c0,.66.48,1.07,1.62,1.35l1.5.36c1.83.44,2.71,1.23,2.71,2.62v0c0,1.73-1.68,2.92-3.89,2.92S228.83,520.32,228.65,518.72Z" transform="translate(0.55 139.57)"/><path class="cls-5" d="M243.5,516.35v0c0-3,1.61-5,4.07-5a3.33,3.33,0,0,1,3,1.7h.14v-5.38h1.57v13.55h-1.57v-1.55h-.14a3.33,3.33,0,0,1-3,1.72C245.12,521.36,243.5,519.37,243.5,516.35Zm7.28,0v0c0-2.24-1.08-3.63-2.85-3.63s-2.82,1.37-2.82,3.63v0c0,2.26,1,3.63,2.82,3.63S250.78,518.59,250.78,516.35Z" transform="translate(0.55 139.57)"/><path class="cls-5" d="M254.83,516.38h0c0-3,1.71-5.05,4.35-5.05s4.24,2,4.24,4.86v.61h-7c0,2,1.15,3.18,2.88,3.18a2.49,2.49,0,0,0,2.38-1.21l0-.08h1.56v.07a3.87,3.87,0,0,1-4,2.61C256.51,521.36,254.83,519.42,254.83,516.38Zm1.63-.84h5.37c-.16-1.92-1.23-2.83-2.66-2.83S256.63,513.69,256.46,515.54Z" transform="translate(0.55 139.57)"/><path class="cls-5" d="M271,511.49h1.57V513h.14a3.33,3.33,0,0,1,3-1.72c2.46,0,4.07,2,4.07,5v0c0,3-1.6,5-4.07,5a3.35,3.35,0,0,1-3-1.7h-.14v4.77H271Zm7.21,4.86v0c0-2.26-1.06-3.63-2.83-3.63s-2.85,1.39-2.85,3.63v0c0,2.24,1.08,3.63,2.85,3.63S278.25,518.61,278.25,516.35Z" transform="translate(0.55 139.57)"/><path class="cls-5" d="M282.39,507.64H284v13.55h-1.57Z" transform="translate(0.55 139.57)"/><path class="cls-5" d="M286.39,518.48h0c0-1.73,1.28-2.73,3.54-2.87l2.78-.17v-.88c0-1.2-.73-1.85-2.18-1.85-1.16,0-1.93.44-2.18,1.19v0h-1.56v-.06c.25-1.52,1.72-2.54,3.79-2.54,2.37,0,3.7,1.21,3.7,3.23v6.64h-1.57v-1.43h-.15a3.21,3.21,0,0,1-2.93,1.6A2.93,2.93,0,0,1,286.39,518.48ZM290,520a2.53,2.53,0,0,0,2.76-2.43v-.88l-2.59.16c-1.48.09-2.13.62-2.13,1.58v0C288,519.43,288.83,520,290,520Z" transform="translate(0.55 139.57)"/><path class="cls-5" d="M296.92,520.06l5.6-7.13v-.15h-5.59v-1.29h7.43v1.16l-5.57,7.1v.15h5.6v1.29h-7.47Z" transform="translate(0.55 139.57)"/><path class="cls-5" d="M306.51,518.48h0c0-1.73,1.28-2.73,3.54-2.87l2.78-.17v-.88c0-1.2-.73-1.85-2.18-1.85-1.16,0-1.93.44-2.18,1.19v0H306.9v-.06c.26-1.52,1.73-2.54,3.8-2.54,2.37,0,3.69,1.21,3.69,3.23v6.64h-1.56v-1.43h-.15a3.22,3.22,0,0,1-2.93,1.6A2.93,2.93,0,0,1,306.51,518.48Zm3.56,1.52a2.53,2.53,0,0,0,2.76-2.43v-.88l-2.59.16c-1.48.09-2.13.62-2.13,1.58v0C308.11,519.43,309,520,310.07,520Z" transform="translate(0.55 139.57)"/><path class="cls-5" d="M322.45,511.49H324v1.44h.14a2.52,2.52,0,0,1,2.59-1.61,5.08,5.08,0,0,1,.79.06v1.52a6.25,6.25,0,0,0-1-.09,2.35,2.35,0,0,0-2.55,2.37v6h-1.57Z" transform="translate(0.55 139.57)"/><path class="cls-5" d="M328.72,516.38h0c0-3,1.71-5.05,4.34-5.05s4.24,2,4.24,4.86v.61h-7c0,2,1.15,3.18,2.88,3.18a2.52,2.52,0,0,0,2.39-1.21l0-.08h1.57l0,.07c-.33,1.32-1.72,2.61-4,2.61C330.39,521.36,328.72,519.42,328.72,516.38Zm1.63-.84h5.36c-.16-1.92-1.22-2.83-2.65-2.83S330.52,513.69,330.35,515.54Z" transform="translate(0.55 139.57)"/><path class="cls-5" d="M339.16,518.48h0c0-1.73,1.28-2.73,3.54-2.87l2.78-.17v-.88c0-1.2-.73-1.85-2.18-1.85-1.16,0-1.92.44-2.17,1.19v0h-1.57v-.06c.25-1.52,1.73-2.54,3.8-2.54,2.37,0,3.69,1.21,3.69,3.23v6.64h-1.57v-1.43h-.14a3.22,3.22,0,0,1-2.94,1.6A2.94,2.94,0,0,1,339.16,518.48Zm3.57,1.52a2.53,2.53,0,0,0,2.75-2.43v-.88l-2.59.16c-1.48.09-2.12.62-2.12,1.58v0C340.77,519.43,341.6,520,342.73,520Z" transform="translate(0.55 139.57)"/><path class="cls-5" d="M350,507.64h1.56v13.55H350Z" transform="translate(0.55 139.57)"/><path class="cls-5" d="M356.66,516.35a3,3,0,0,1,1.8-2.74c1-.64,1.45-1.2,1.45-2.16v0a2,2,0,0,0-2.21-1.92,2.13,2.13,0,0,0-2.31,2.08h-1.55v0a3.57,3.57,0,0,1,3.93-3.49c2.27,0,3.81,1.41,3.81,3.25v0a3.48,3.48,0,0,1-1.88,3.1c-1.14.67-1.46,1.18-1.46,2.12v.59h-1.58Zm-.34,3.75a1.25,1.25,0,1,1,1.25,1.26A1.21,1.21,0,0,1,356.32,520.1Z" transform="translate(0.55 139.57)"/><path class="cls-8" d="M217.38,577h7.1v1.29h-5.67V582h5.38v1.27h-5.38v4h5.67v1.28h-7.1Z" transform="translate(0.55 139.57)"/><path class="cls-8" d="M229.15,584.23l-3-4.29h1.63l2,3.19H230l2-3.19h1.55l-2.91,4.23,2.95,4.34H232l-2-3.23h-.12l-2,3.23h-1.55Z" transform="translate(0.55 139.57)"/><path class="cls-8" d="M234.6,584.21v0c0-2.66,1.53-4.4,3.93-4.4a3.34,3.34,0,0,1,3.59,2.73v.05h-1.37v0a2.11,2.11,0,0,0-2.21-1.52c-1.54,0-2.51,1.24-2.51,3.17v0c0,2,1,3.23,2.51,3.23a2.09,2.09,0,0,0,2.2-1.46l0-.05h1.37l0,.09a3.32,3.32,0,0,1-3.56,2.66C236.14,588.67,234.6,586.92,234.6,584.21Z" transform="translate(0.55 139.57)"/><path class="cls-8" d="M243.71,584.26h0c0-2.64,1.51-4.46,3.84-4.46s3.74,1.74,3.74,4.3v.54h-6.17c0,1.77,1,2.8,2.55,2.8a2.21,2.21,0,0,0,2.1-1.06l0-.07h1.38l0,.06a3.4,3.4,0,0,1-3.53,2.31C245.19,588.67,243.71,587,243.71,584.26Zm1.44-.74h4.74c-.15-1.69-1.09-2.49-2.35-2.49A2.4,2.4,0,0,0,245.15,583.52Z" transform="translate(0.55 139.57)"/><path class="cls-8" d="M253.52,576.54h1.38v12h-1.38Z" transform="translate(0.55 139.57)"/><path class="cls-8" d="M257.12,584.26h0c0-2.64,1.51-4.46,3.84-4.46s3.75,1.74,3.75,4.3v.54h-6.17c0,1.77,1,2.8,2.54,2.8a2.23,2.23,0,0,0,2.11-1.06l0-.07h1.38v.06a3.42,3.42,0,0,1-3.54,2.31C258.6,588.67,257.12,587,257.12,584.26Zm1.44-.74h4.74c-.14-1.69-1.08-2.49-2.34-2.49A2.4,2.4,0,0,0,258.56,583.52Z" transform="translate(0.55 139.57)"/><path class="cls-8" d="M266.85,579.94h1.38v1.29h.13a2.53,2.53,0,0,1,2.5-1.44c1.92,0,3,1.14,3,3.18v5.54h-1.38V583.3c0-1.54-.64-2.28-2-2.28a2.17,2.17,0,0,0-2.24,2.42v5.07h-1.38Z" transform="translate(0.55 139.57)"/><path class="cls-8" d="M276.88,586.29v-5.2h-1.35v-1.15h1.35v-2.21h1.44v2.21h1.87v1.15h-1.87v4.85c0,1,.35,1.41,1.24,1.41a4.5,4.5,0,0,0,.63,0v1.18a4.34,4.34,0,0,1-.8.08C277.62,588.58,276.88,587.93,276.88,586.29Z" transform="translate(0.55 139.57)"/><path class="cls-8" d="M281.71,584.26h0c0-2.64,1.51-4.46,3.84-4.46s3.74,1.74,3.74,4.3v.54h-6.17c0,1.77,1,2.8,2.55,2.8a2.21,2.21,0,0,0,2.1-1.06l0-.07h1.38l0,.06a3.41,3.41,0,0,1-3.53,2.31C283.19,588.67,281.71,587,281.71,584.26Zm1.44-.74h4.73c-.14-1.69-1.08-2.49-2.34-2.49A2.4,2.4,0,0,0,283.15,583.52Z" transform="translate(0.55 139.57)"/><path class="cls-8" d="M291.58,587.55a1.1,1.1,0,1,1,1.1,1.11A1.06,1.06,0,0,1,291.58,587.55Zm.3-10.52h1.59l-.14,7.67H292Z" transform="translate(0.55 139.57)"/><path class="cls-8" d="M301.25,577h4.32a3.51,3.51,0,0,1,3.68,3.67h0a3.53,3.53,0,0,1-3.68,3.7h-2.89v4.09h-1.43Zm1.43,1.27v4.84h2.53a2.28,2.28,0,0,0,2.58-2.41v0a2.28,2.28,0,0,0-2.58-2.41Z" transform="translate(0.55 139.57)"/><path class="cls-8" d="M311.33,585.49v-5.55h1.39v5.22c0,1.54.55,2.28,1.92,2.28A2.15,2.15,0,0,0,317,585v-5.08h1.39v8.57H317v-1.28h-.12a2.58,2.58,0,0,1-2.55,1.44C312.33,588.67,311.33,587.52,311.33,585.49Z" transform="translate(0.55 139.57)"/><path class="cls-8" d="M320.48,584.26h0c0-2.64,1.51-4.46,3.84-4.46s3.74,1.74,3.74,4.3v.54h-6.17c0,1.77,1,2.8,2.55,2.8a2.21,2.21,0,0,0,2.1-1.06l0-.07H328l0,.06a3.41,3.41,0,0,1-3.53,2.31C322,588.67,320.48,587,320.48,584.26Zm1.44-.74h4.74c-.15-1.69-1.09-2.49-2.35-2.49A2.4,2.4,0,0,0,321.92,583.52Z" transform="translate(0.55 139.57)"/><path class="cls-8" d="M329.78,584.24v0c0-2.69,1.41-4.43,3.59-4.43A2.94,2.94,0,0,1,336,581.3h.13v-4.76h1.38v12h-1.38v-1.36H336a2.93,2.93,0,0,1-2.67,1.52C331.2,588.67,329.78,586.91,329.78,584.24Zm6.42,0v0c0-2-.95-3.2-2.51-3.2s-2.5,1.21-2.5,3.2v0c0,2,.93,3.2,2.5,3.2S336.2,586.22,336.2,584.24Z" transform="translate(0.55 139.57)"/><path class="cls-8" d="M339.77,584.24v0c0-2.75,1.51-4.43,4-4.43s3.95,1.68,3.95,4.43v0c0,2.74-1.51,4.43-3.95,4.43S339.77,587,339.77,584.24Zm6.49,0v0c0-2-.92-3.2-2.54-3.2s-2.53,1.17-2.53,3.2v0c0,2,.91,3.2,2.53,3.2S346.26,586.26,346.26,584.24Z" transform="translate(0.55 139.57)"/><path class="cls-8" d="M354,584.26h0c0-2.64,1.51-4.46,3.84-4.46s3.75,1.74,3.75,4.3v.54h-6.17c0,1.77,1,2.8,2.54,2.8a2.23,2.23,0,0,0,2.11-1.06l0-.07h1.39l0,.06a3.42,3.42,0,0,1-3.54,2.31C355.44,588.67,354,587,354,584.26Zm1.44-.74h4.74c-.14-1.69-1.08-2.49-2.34-2.49A2.4,2.4,0,0,0,355.4,583.52Z" transform="translate(0.55 139.57)"/><path class="cls-8" d="M363.25,586.33h1.42a1.9,1.9,0,0,0,2,1.18c1.15,0,2-.55,2-1.33h0c0-.58-.44-1-1.49-1.24l-1.33-.32c-1.61-.38-2.33-1.08-2.33-2.31h0c0-1.42,1.37-2.5,3.19-2.5s3,.9,3.23,2.3h-1.36a1.76,1.76,0,0,0-1.88-1.14c-1,0-1.77.52-1.77,1.28h0c0,.58.43,1,1.44,1.19l1.32.32c1.62.39,2.4,1.09,2.4,2.32h0c0,1.53-1.49,2.59-3.44,2.59S363.41,587.74,363.25,586.33Z" transform="translate(0.55 139.57)"/><path class="cls-8" d="M372.67,586.29v-5.2h-1.35v-1.15h1.35v-2.21h1.43v2.21H376v1.15H374.1v4.85c0,1,.35,1.41,1.24,1.41a4.64,4.64,0,0,0,.64,0v1.18a4.45,4.45,0,0,1-.81.08C373.41,588.58,372.67,587.93,372.67,586.29Z" transform="translate(0.55 139.57)"/><path class="cls-8" d="M377.53,586.12h0c0-1.53,1.13-2.41,3.13-2.53l2.45-.15v-.78c0-1.06-.64-1.63-1.92-1.63-1,0-1.7.38-1.93,1.05v0h-1.39V582c.22-1.34,1.53-2.25,3.36-2.25,2.09,0,3.26,1.08,3.26,2.86v5.86h-1.39v-1.26H383a2.87,2.87,0,0,1-2.6,1.42A2.6,2.6,0,0,1,377.53,586.12Zm3.15,1.35a2.24,2.24,0,0,0,2.43-2.15v-.78l-2.29.14c-1.3.08-1.87.54-1.87,1.39v0C379,587,379.69,587.47,380.68,587.47Z" transform="translate(0.55 139.57)"/><path class="cls-8" d="M387,579.94h1.38v1.28h.13a2.24,2.24,0,0,1,2.29-1.43,3.82,3.82,0,0,1,.69.06v1.34a4.71,4.71,0,0,0-.85-.08,2.08,2.08,0,0,0-2.26,2.09v5.31H387Z" transform="translate(0.55 139.57)"/><path class="cls-8" d="M397.29,586.12h0c0-1.53,1.13-2.41,3.12-2.53l2.46-.15v-.78c0-1.06-.65-1.63-1.93-1.63-1,0-1.7.38-1.92,1.05v0h-1.38V582c.22-1.34,1.52-2.25,3.35-2.25,2.09,0,3.26,1.08,3.26,2.86v5.86h-1.38v-1.26h-.13a2.87,2.87,0,0,1-2.59,1.42A2.6,2.6,0,0,1,397.29,586.12Zm3.14,1.35a2.25,2.25,0,0,0,2.44-2.15v-.78l-2.29.14c-1.31.08-1.88.54-1.88,1.39v0C398.7,587,399.44,587.47,400.43,587.47Z" transform="translate(0.55 139.57)"/><path class="cls-8" d="M406.85,576.54h1.39v4.69h.13a2.51,2.51,0,0,1,2.49-1.44c1.93,0,3,1.14,3,3.18v5.54h-1.38V583.3c0-1.54-.64-2.28-2-2.28a2.16,2.16,0,0,0-2.23,2.42v5.07h-1.39Z" transform="translate(0.55 139.57)"/><path class="cls-8" d="M416.38,579.94h1.39v8.57h-1.39Zm0-1.19,1.41-2.7h1.63l-1.83,2.7Z" transform="translate(0.55 139.57)"/><path class="cls-8" d="M424.52,584.26h0c0-2.64,1.51-4.46,3.84-4.46s3.74,1.74,3.74,4.3v.54h-6.17c0,1.77,1,2.8,2.55,2.8a2.21,2.21,0,0,0,2.1-1.06l0-.07H432l0,.06a3.41,3.41,0,0,1-3.53,2.31C426,588.67,424.52,587,424.52,584.26Zm1.44-.74h4.74c-.15-1.69-1.09-2.49-2.35-2.49A2.4,2.4,0,0,0,426,583.52Z" transform="translate(0.55 139.57)"/><path class="cls-8" d="M434.25,579.94h1.38v1.29h.13a2.51,2.51,0,0,1,2.49-1.44c1.93,0,3,1.14,3,3.18v5.54h-1.38V583.3c0-1.54-.64-2.28-2-2.28a2.17,2.17,0,0,0-2.23,2.42v5.07h-1.38Z" transform="translate(0.55 139.57)"/><path class="cls-8" d="M448.16,585.57v-.09h1.38v.08c.12,1.13,1.16,1.91,2.68,1.91s2.53-.85,2.53-2.06v0c0-1.41-1-2.19-2.61-2.19h-1.44V582h1.37a2.1,2.1,0,0,0,2.32-2v0c0-1.2-.78-1.89-2.18-1.89a2.2,2.2,0,0,0-2.44,1.88v.08h-1.38V580a3.5,3.5,0,0,1,3.81-3.12c2.18,0,3.62,1.22,3.62,3h0a2.76,2.76,0,0,1-2.43,2.69v0a2.79,2.79,0,0,1,2.81,2.82h0c0,1.92-1.69,3.33-4,3.33S448.31,587.39,448.16,585.57Z" transform="translate(0.55 139.57)"/><path class="cls-8" d="M458.31,582.78h0c0-3.69,1.51-6,4-6s4.06,2.31,4.06,6h0c0,3.69-1.52,6-4.06,6S458.31,586.47,458.31,582.78Zm6.67,0h0c0-2.93-1-4.74-2.63-4.74s-2.6,1.81-2.6,4.74h0c0,2.93,1,4.76,2.6,4.76S465,585.71,465,582.78Z" transform="translate(0.55 139.57)"/><path class="cls-8" d="M468.77,579.94h1.38v1.31h.13a2.34,2.34,0,0,1,2.31-1.46A2.47,2.47,0,0,1,475,581.3h.13a2.87,2.87,0,0,1,2.62-1.51,2.51,2.51,0,0,1,2.73,2.8v5.92h-1.38v-5.6c0-1.26-.58-1.89-1.79-1.89a1.93,1.93,0,0,0-2,2v5.5h-1.38v-5.82a1.62,1.62,0,0,0-1.78-1.67,2.07,2.07,0,0,0-2,2.18v5.31h-1.38Z" transform="translate(0.55 139.57)"/><path class="cls-8" d="M482.71,577.34a1,1,0,1,1,1,.95A1,1,0,0,1,482.71,577.34Zm.25,2.6h1.39v8.57H483Z" transform="translate(0.55 139.57)"/><path class="cls-8" d="M487,579.94h1.39v1.29h.12a2.54,2.54,0,0,1,2.5-1.44c1.92,0,3,1.14,3,3.18v5.54h-1.39V583.3c0-1.54-.63-2.28-2-2.28a2.16,2.16,0,0,0-2.23,2.42v5.07H487Z" transform="translate(0.55 139.57)"/><path class="cls-8" d="M496.54,587.56a1,1,0,1,1,1,1A1,1,0,0,1,496.54,587.56Z" transform="translate(0.55 139.57)"/><path class="cls-4" d="M513.86,706.84a30.61,30.61,0,1,1,30.6-30.61A30.64,30.64,0,0,1,513.86,706.84Zm0-56.12a25.51,25.51,0,1,0,25.51,25.51A25.55,25.55,0,0,0,513.86,650.72Z" transform="translate(0.55 139.57)"/><g id="Forward"><polygon class="cls-4" points="510.6 832.16 507.97 829.54 521.7 815.81 507.97 802.08 510.6 799.46 526.95 815.81 510.6 832.16"/></g></g></g></g></svg>