<svg xmlns="http://www.w3.org/2000/svg" viewBox="0 0 481.42 240.23"><defs><style>.cls-1{fill:#f4c099;}.cls-2{fill:#6d6d6d;}.cls-3{fill:#b9b9b9;}.cls-4{fill:#e8ffce;}.cls-5{fill:#006e54;}.cls-6{fill:#1a1a1a;}.cls-7{fill:#ecd245;}.cls-8{fill:#ecad2f;}</style></defs><g id="Layer_2" data-name="Layer 2"><g id="Layer_1-2" data-name="Layer 1"><path class="cls-1" d="M480.89,141.27c-1.43-4.64-5.56-7.62-10.83-7.63q-27.46,0-54.94,0h0q-27.78,0-55.56,0c-1.56,0-3.17-.27-3.51-1.87a6,6,0,0,1,.79-3.74,43.53,43.53,0,0,1,3.21-4.29c8.77-12.09,14-25.35,13.38-40.55a46.09,46.09,0,0,0-4.95-19.77,13,13,0,0,0-9-7.14c-6-1.33-9.88,1.83-10.3,8a92.22,92.22,0,0,1-1.85,14.28C345,88.48,340,97.19,333.4,105c-6.26,7.4-13,14.37-19.2,21.87a43.24,43.24,0,0,1-19.62,13.83,2.68,2.68,0,0,0-1.35.86H266.88v85h26.38v-.25a1.92,1.92,0,0,0,.6.63c3.81,2.17,7.77,4.09,11.48,6.41,5,3.11,10.16,5.69,16,6.27,5.46.54,11,.65,16.45.68,10.31.06,20.61-.11,30.92-.13,11.77,0,23.54,0,35.3,0a10.93,10.93,0,1,0,0-21.86c-1.1,0-2.21,0-3.3,0-2.31-.13-3.63-1.29-3.65-3.11s1.38-3.1,3.78-3.12c4.68,0,9.36,0,14,0,6.65,0,11.51-4.62,11.58-10.88s-4.77-11-11.57-11c-3.38,0-6.75,0-10.12-.06a3.06,3.06,0,0,1-3.3-3.18c0-1.73,1.25-2.87,3.26-3,.61,0,1.24,0,1.86,0,5.85,0,11.7.06,17.55,0,6.33-.11,10.49-4.08,10.84-10.13a11,11,0,0,0-9.68-11.66,61.67,61.67,0,0,0-7.2-.16c-3.16,0-6.34.18-9.48-.07a5,5,0,0,1-3.28-1.91c-.43-.65,0-2.35.65-3.12a4.2,4.2,0,0,1,2.9-1c7.57-.08,15.14,0,22.72-.05,12.94,0,25.88.07,38.83,0A10.83,10.83,0,0,0,480.89,141.27Z"/><rect class="cls-2" y="182.06" width="262.19" height="42.68"/><rect class="cls-3" y="139.38" width="262.19" height="42.68"/><path class="cls-4" d="M60.51,118.37,19.4,71.12c-1.65-1.9-1.65-1.91.28-3.59L64.32,28.69c1.8-1.57,1.81-1.57,3.35.2Q109,76.34,150.25,123.8c1.53,1.76,1.53,1.77-.27,3.34l-44.77,39c-1.8,1.57-1.81,1.57-3.35-.2Zm12.88,8.19a10.38,10.38,0,0,0,.63.93q14.34,16.49,28.66,33c1,1.21,1.67.84,2.64,0q19.46-17,39-33.91c1.27-1.1,1.3-1.76.21-3q-14.19-16.17-28.27-32.42a14.5,14.5,0,0,0-1.08-1C120.68,112.91,98.55,135.55,73.39,126.56ZM96.1,68l-.9-1q-14-16.08-28-32.18C65.71,33,65.7,33,64,34.52L25.39,68.11c-1.72,1.5-1.73,1.51-.26,3.19q14,16.11,28,32.19c.31.36.68.69,1.19,1.19C48.86,79,73.78,59.6,96.1,68ZM66.5,77.57a26.92,26.92,0,1,0,37.84,1.32A26.92,26.92,0,0,0,66.5,77.57Z"/><path class="cls-4" d="M104.48,96.86,97.41,97l-2.55-6c-2.2,1.91-4,3.46-5.79,5.11-.24.22-.16,1,0,1.39.51,1.29,1.18,2.51,1.71,3.79,1.85,4.42,1.22,7.88-2,11.07a10.27,10.27,0,0,1-11.23,2.07,19.41,19.41,0,0,1-4.29-2.56c-1.06-.84-1.79-.82-2.62.13s-1.48,1-2.36-.06-.87-1.67.21-2.36,1.11-1.5.26-2.63c-2.32-3.08-4.11-6.42-4-10.64l8,.1a9,9,0,0,0,2.36,7.23c2-1.73,4-3.38,5.82-5.15.27-.26.09-1.14-.07-1.68A61.58,61.58,0,0,1,78.73,90c-1-5.36,5.35-10.75,10.84-9.63a26.79,26.79,0,0,1,6.78,2.81c1,.54,1.75,1,2.64-.08s1.55-1.06,2.5,0,.68,1.7-.32,2.35-1,1.47-.25,2.54C102.81,90.57,104.42,93.29,104.48,96.86Zm-26.87,9.27c1.69,1.74,3.91,2.13,5.26,1s1.46-3.68,0-5.57ZM92.08,89c-1.81-1.7-3.48-1.84-4.85-.54s-1.41,3.13,0,4.78Z"/><path class="cls-5" d="M66.89,17.74,8.35,68.67,102.6,177l58.54-50.94Zm38.32,148.35c-1.8,1.57-1.81,1.57-3.35-.2L60.51,118.37,19.4,71.12c-1.65-1.9-1.65-1.91.28-3.59L64.32,28.69c1.8-1.57,1.81-1.57,3.35.2Q109,76.34,150.25,123.8c1.53,1.76,1.53,1.77-.27,3.34Z"/><path class="cls-5" d="M144.53,123.56q-14.19-16.17-28.27-32.42a14.5,14.5,0,0,0-1.08-1c5.5,22.79-16.63,45.43-41.79,36.44a10.38,10.38,0,0,0,.63.93q14.34,16.49,28.66,33c1,1.21,1.67.84,2.64,0q19.46-17,39-33.91C145.59,125.47,145.62,124.81,144.53,123.56Z"/><path class="cls-5" d="M96.1,68l-.9-1q-14-16.08-28-32.18C65.71,33,65.7,33,64,34.52L25.39,68.11c-1.72,1.5-1.73,1.51-.26,3.19q14,16.11,28,32.19c.31.36.68.69,1.19,1.19C48.86,79,73.78,59.61,96.1,68Z"/><path class="cls-5" d="M103.11,117.06A26.92,26.92,0,1,0,65.2,115.9,26.68,26.68,0,0,0,103.11,117.06Zm-25.53-2.62a19.41,19.41,0,0,1-4.29-2.56c-1.06-.84-1.79-.82-2.62.13s-1.48,1-2.36-.06-.87-1.67.21-2.36,1.11-1.5.26-2.63c-2.32-3.08-4.11-6.42-4-10.64l8,.1a9,9,0,0,0,2.36,7.23c2-1.73,4-3.38,5.82-5.15.27-.26.09-1.14-.07-1.68A61.58,61.58,0,0,1,78.73,90c-1-5.36,5.35-10.75,10.84-9.63a26.79,26.79,0,0,1,6.78,2.81c1,.54,1.75,1,2.64-.08s1.55-1.06,2.5,0,.68,1.7-.32,2.35-1,1.47-.25,2.54c1.9,2.56,3.5,5.28,3.56,8.85L97.41,97l-2.55-6c-2.2,1.91-4,3.46-5.79,5.11-.24.22-.16,1,0,1.39.51,1.29,1.18,2.51,1.71,3.79,1.85,4.42,1.22,7.88-2,11.07A10.27,10.27,0,0,1,77.58,114.44Z"/><path class="cls-5" d="M82.85,101.57l-5.24,4.56c1.69,1.74,3.91,2.13,5.26,1S84.33,103.46,82.85,101.57Z"/><path class="cls-5" d="M87.23,88.41c-1.38,1.32-1.41,3.13,0,4.78L92.08,89C90.27,87.25,88.6,87.11,87.23,88.41Z"/><path class="cls-4" d="M83,92.44,60.48,34c-.91-2.34-.9-2.35,1.49-3.27L117.18,9.42c2.22-.86,2.23-.85,3.08,1.33q22.63,58.68,45.29,117.37c.84,2.18.84,2.19-1.4,3l-55.36,21.37c-2.23.85-2.24.85-3.08-1.33Zm9.31,12.08c.12.47.17.79.28,1.09,5.24,13.59,10.51,27.17,15.71,40.79.57,1.49,1.28,1.36,2.47.89Q134.91,138,159,128.7c1.56-.6,1.82-1.2,1.22-2.75-5.22-13.36-10.36-26.74-15.53-40.12-.15-.39-.37-.75-.67-1.33C141.46,107.81,112.93,121.55,92.34,104.52Zm41.33-47.35c-.17-.43-.33-.85-.49-1.28q-7.69-19.9-15.37-39.8C117,14,117,14,114.88,14.79L67.14,33.22C65,34,65,34.05,65.8,36.13Q73.48,56,81.17,75.94c.17.45.41.87.71,1.52C85.48,51.48,115.53,41.71,133.67,57.17Zm-31.11-1.05a26.92,26.92,0,1,0,35.13,14.14A26.92,26.92,0,0,0,102.56,56.12Z"/><path class="cls-4" d="M131.69,87.2,125,84.94l-.36-6.52c-2.71,1-5,1.88-7.18,2.83-.3.12-.48.87-.47,1.31.05,1.39.26,2.77.32,4.15.24,4.79-1.53,7.82-5.64,9.73a10.26,10.26,0,0,1-11.26-1.88,19.55,19.55,0,0,1-3.15-3.87c-.72-1.15-1.4-1.38-2.51-.77s-1.73.41-2.2-.86-.25-1.87,1-2.15c1.41-.32,1.55-1,1.14-2.38-1.13-3.69-1.68-7.43-.11-11.36L102.05,76a9,9,0,0,0-.24,7.6c2.45-.94,4.87-1.82,7.23-2.85.34-.15.47-1,.5-1.6a61.13,61.13,0,0,1,.3-7.18c.92-5.36,8.69-8.28,13.46-5.35a26.44,26.44,0,0,1,5.42,5c.8.86,1.32,1.51,2.51.82s1.82-.47,2.34.89.06,1.83-1.1,2.11c-1.33.31-1.48,1-1.1,2.3C132.28,80.72,132.86,83.83,131.69,87.2Zm-28.41-.45c1,2.21,2.94,3.34,4.6,2.75s2.62-3,1.88-5.25Zm19.45-11.21c-1.12-2.22-2.64-2.92-4.37-2.16s-2.4,2.46-1.65,4.48Z"/><path class="cls-5" d="M123.32,0,50.92,27.94l51.7,134L175,134ZM108.79,152.54c-2.23.85-2.24.85-3.08-1.33L83,92.44,60.48,34c-.91-2.34-.9-2.35,1.49-3.27L117.18,9.42c2.22-.86,2.23-.85,3.08,1.33q22.63,58.68,45.29,117.37c.84,2.18.84,2.19-1.4,3Z"/><path class="cls-5" d="M160.25,126c-5.22-13.36-10.36-26.74-15.53-40.12-.15-.39-.37-.75-.67-1.33-2.59,23.31-31.12,37.05-51.71,20,.12.47.17.79.28,1.09,5.24,13.59,10.51,27.17,15.71,40.79.57,1.49,1.28,1.36,2.47.89Q134.91,138,159,128.7C160.59,128.1,160.85,127.5,160.25,126Z"/><path class="cls-5" d="M133.67,57.17l-.49-1.28q-7.69-19.9-15.37-39.8C117,14,117,14,114.88,14.79L67.14,33.22C65,34,65,34.05,65.8,36.13Q73.48,56,81.17,75.94c.17.45.41.87.71,1.52C85.48,51.48,115.53,41.71,133.67,57.17Z"/><path class="cls-5" d="M123.52,105.72a26.92,26.92,0,1,0-35.24-14A26.67,26.67,0,0,0,123.52,105.72ZM100.41,94.56a19.55,19.55,0,0,1-3.15-3.87c-.72-1.15-1.4-1.38-2.51-.77s-1.73.41-2.2-.86-.25-1.87,1-2.15c1.41-.32,1.55-1,1.14-2.38-1.13-3.69-1.68-7.43-.11-11.36L102.05,76a9,9,0,0,0-.24,7.6c2.45-.94,4.87-1.82,7.23-2.85.34-.15.47-1,.5-1.6a61.13,61.13,0,0,1,.3-7.18c.92-5.36,8.69-8.28,13.46-5.35a26.44,26.44,0,0,1,5.42,5c.8.86,1.32,1.51,2.51.82s1.82-.47,2.34.89.06,1.83-1.1,2.11c-1.33.31-1.48,1-1.1,2.3.91,3,1.49,6.16.32,9.53L125,84.94c-.12-2.2-.23-4.17-.36-6.52-2.71,1-5,1.88-7.18,2.83-.3.12-.48.87-.47,1.31.05,1.39.26,2.77.32,4.15.24,4.79-1.53,7.82-5.64,9.73A10.26,10.26,0,0,1,100.41,94.56Z"/><path class="cls-5" d="M109.76,84.25l-6.48,2.5c1,2.21,2.94,3.34,4.6,2.75S110.5,86.54,109.76,84.25Z"/><path class="cls-5" d="M118.36,73.38c-1.75.77-2.4,2.46-1.65,4.48l6-2.32C121.61,73.32,120.09,72.62,118.36,73.38Z"/><path class="cls-4" d="M117,73.07q1.78-31.27,3.58-62.54c.15-2.51.15-2.52,2.72-2.37l59.07,3.39c2.38.14,2.39.14,2.26,2.48q-3.6,62.8-7.21,125.6c-.13,2.33-.14,2.34-2.53,2.2l-59.24-3.4c-2.39-.13-2.39-.14-2.26-2.48Q115.21,104.51,117,73.07Zm3.49,14.85a9.81,9.81,0,0,0-.2,1.1c-.83,14.54-1.64,29.09-2.53,43.63-.1,1.6.6,1.77,1.89,1.84q25.8,1.44,51.59,3c1.68.1,2.16-.34,2.25-2,.76-14.31,1.61-28.63,2.42-42.94a14.43,14.43,0,0,0-.06-1.49C163.89,111.19,132.23,111.93,120.51,87.92ZM177.7,61.84c0-.45.05-.91.08-1.36q1.22-21.3,2.44-42.6c.12-2.25.11-2.26-2.14-2.39L127,12.56c-2.29-.13-2.3-.12-2.42,2.11q-1.23,21.3-2.44,42.59c0,.49,0,1,0,1.69C136.16,36.77,167.56,40.28,177.7,61.84ZM149.8,48.05A26.92,26.92,0,1,0,176,75.43,26.92,26.92,0,0,0,149.8,48.05Z"/><path class="cls-4" d="M163.5,88.38l-5.16-4.82,2.36-6.08c-2.9-.17-5.3-.35-7.7-.4-.33,0-.8.6-1,1-.53,1.28-.91,2.62-1.42,3.91-1.77,4.46-4.63,6.48-9.16,6.54A10.29,10.29,0,0,1,132,82.18a19.74,19.74,0,0,1-1.27-4.84c-.18-1.33-.71-1.83-2-1.73s-1.74-.34-1.65-1.69.55-1.81,1.8-1.55c1.42.3,1.84-.3,2-1.7.5-3.82,1.55-7.46,4.6-10.39l5.64,5.65a9,9,0,0,0-3.37,6.82c2.63.15,5.2.35,7.77.39.38,0,.86-.76,1.12-1.26a63,63,0,0,1,3.23-6.41c3.05-4.5,11.33-3.95,14.48.68a27.39,27.39,0,0,1,2.89,6.75c.37,1.12.57,1.92,1.94,1.79s1.86.32,1.77,1.78-.7,1.68-1.87,1.45c-1.35-.26-1.78.33-2,1.64C166.71,82.72,166,85.79,163.5,88.38ZM137.81,76.24c0,2.43,1.3,4.26,3.06,4.41s3.6-1.62,3.87-4Zm22.35-2.17c-.11-2.49-1.2-3.76-3.09-3.78s-3.2,1.25-3.36,3.41Z"/><path class="cls-5" d="M191.88,5.51,114.41,1.06l-8.23,143.36,77.48,4.44ZM115.67,138.43c-2.39-.13-2.39-.14-2.26-2.48q1.8-31.44,3.61-62.88,1.78-31.27,3.58-62.54c.15-2.51.15-2.52,2.72-2.37l59.07,3.39c2.38.14,2.39.14,2.26,2.48q-3.6,62.8-7.21,125.6c-.13,2.33-.14,2.34-2.53,2.2Z"/><path class="cls-5" d="M173.51,135.46c.76-14.31,1.61-28.63,2.42-42.94a14.43,14.43,0,0,0-.06-1.49c-12,20.16-43.64,20.9-55.36-3.11a9.81,9.81,0,0,0-.2,1.1c-.83,14.54-1.64,29.09-2.53,43.63-.1,1.6.6,1.77,1.89,1.84q25.8,1.44,51.59,3C172.94,137.57,173.42,137.13,173.51,135.46Z"/><path class="cls-5" d="M177.7,61.84l.08-1.36q1.22-21.3,2.44-42.6c.12-2.25.11-2.26-2.14-2.39L127,12.56c-2.29-.13-2.3-.12-2.42,2.11q-1.23,21.3-2.44,42.59c0,.49,0,1,0,1.69C136.16,36.77,167.56,40.28,177.7,61.84Z"/><path class="cls-5" d="M148.41,101.88A26.92,26.92,0,1,0,122.1,74.57,26.68,26.68,0,0,0,148.41,101.88ZM132,82.18a19.74,19.74,0,0,1-1.27-4.84c-.18-1.33-.71-1.83-2-1.73s-1.74-.34-1.65-1.69.55-1.81,1.8-1.55c1.42.3,1.84-.3,2-1.7.49-3.82,1.55-7.46,4.6-10.39l5.64,5.65a9,9,0,0,0-3.37,6.82c2.63.15,5.2.35,7.77.39.38,0,.86-.76,1.12-1.26a63,63,0,0,1,3.23-6.41c3.05-4.5,11.33-3.95,14.48.68a27.39,27.39,0,0,1,2.89,6.75c.37,1.12.57,1.92,1.94,1.79s1.86.32,1.77,1.78-.7,1.68-1.87,1.45c-1.35-.26-1.78.33-2,1.64-.43,3.16-1.19,6.23-3.64,8.82l-5.16-4.82c.8-2,1.51-3.89,2.36-6.08-2.9-.17-5.3-.35-7.7-.4-.33,0-.8.6-1,1-.53,1.28-.91,2.62-1.42,3.91-1.77,4.46-4.63,6.48-9.16,6.54A10.29,10.29,0,0,1,132,82.18Z"/><path class="cls-5" d="M144.74,76.64l-6.93-.4c0,2.43,1.3,4.26,3.06,4.41S144.47,79,144.74,76.64Z"/><path class="cls-5" d="M157.07,70.29c-1.92,0-3.2,1.25-3.36,3.41l6.45.37C160.05,71.58,159,70.31,157.07,70.29Z"/><path class="cls-4" d="M173.68,75.82Q195.33,53.17,217,30.53c1.74-1.82,1.74-1.82,3.6,0l42.78,40.88c1.72,1.65,1.72,1.66.11,3.35l-86.92,90.95c-1.62,1.69-1.63,1.69-3.36,0l-42.9-41c-1.72-1.65-1.73-1.66-.11-3.36Q151.92,98.58,173.68,75.82Zm-7,13.57a9.88,9.88,0,0,0-.86.71q-15.1,15.8-30.22,31.57c-1.11,1.16-.69,1.74.24,2.63q18.7,17.82,37.35,35.72c1.21,1.16,1.87,1.14,3-.07q14.81-15.62,29.69-31.12c.29-.31.52-.67.92-1.18C184.65,135.23,160.07,115.27,166.71,89.39Zm60.45,17.23.94-1q14.75-15.42,29.47-30.85c1.56-1.63,1.56-1.64-.07-3.2l-37-35.36c-1.66-1.57-1.67-1.58-3.21,0L187.82,67.1c-.33.35-.62.75-1.07,1.3C211.79,60.6,233.42,83.62,227.16,106.62ZM214.87,78a26.93,26.93,0,1,0,2.15,37.8A26.92,26.92,0,0,0,214.87,78Z"/><path class="cls-4" d="M199.14,117.62q-.45-3.87-.81-7l5.75-3.1c-2.1-2-3.81-3.7-5.61-5.3-.25-.21-1-.06-1.39.14-1.24.63-2.39,1.41-3.62,2.06-4.23,2.25-7.73,1.93-11.21-1a10.29,10.29,0,0,1-3.09-11,19.9,19.9,0,0,1,2.16-4.51c.74-1.13.65-1.85-.37-2.59s-1.1-1.39-.16-2.36,1.59-1,2.38,0,1.59,1,2.64,0c2.85-2.58,6-4.67,10.23-4.93.21,2.63.41,5.19.63,8a9,9,0,0,0-7,3c1.9,1.82,3.73,3.64,5.66,5.33.28.25,1.15,0,1.66-.22a60.37,60.37,0,0,1,6.62-2.79c5.25-1.45,11.19,4.34,10.58,9.9a27,27,0,0,1-2.17,7c-.44,1.08-.81,1.83.32,2.62s1.2,1.45.19,2.49-1.63.83-2.37-.1-1.56-.9-2.55,0C205.26,115.38,202.69,117.23,199.14,117.62ZM187.45,91.71c-1.58,1.84-1.77,4.09-.53,5.34s3.8,1.11,5.55-.54Zm18.43,12.84c1.53-2,1.52-3.64.09-4.88s-3.24-1.12-4.76.42Z"/><path class="cls-5" d="M274.48,72.92,218.38,19.3,119.17,123.11l56.1,53.62ZM130.27,124.71c-1.72-1.65-1.73-1.66-.11-3.36q21.76-22.77,43.52-45.53T217,30.53c1.74-1.82,1.74-1.82,3.6,0l42.78,40.88c1.72,1.65,1.72,1.66.11,3.35l-86.92,90.95c-1.62,1.69-1.63,1.69-3.36,0Z"/><path class="cls-5" d="M176.23,160q14.81-15.62,29.69-31.12c.29-.31.52-.67.92-1.18-22.19,7.58-46.77-12.38-40.13-38.26a9.88,9.88,0,0,0-.86.71q-15.1,15.8-30.22,31.57c-1.11,1.16-.69,1.74.24,2.63q18.7,17.82,37.35,35.72C174.43,161.18,175.09,161.16,176.23,160Z"/><path class="cls-5" d="M227.16,106.62l.94-1q14.75-15.42,29.47-30.85c1.56-1.63,1.56-1.64-.07-3.2l-37-35.36c-1.66-1.57-1.67-1.58-3.21,0L187.82,67.1c-.33.35-.62.75-1.07,1.3C211.79,60.6,233.42,83.62,227.16,106.62Z"/><path class="cls-5" d="M178.9,118.11a26.93,26.93,0,1,0-2.32-37.85A26.67,26.67,0,0,0,178.9,118.11Zm.26-25.66a19.9,19.9,0,0,1,2.16-4.51c.74-1.13.65-1.85-.37-2.59s-1.1-1.39-.16-2.36,1.59-1,2.38,0,1.59,1,2.64,0c2.85-2.58,6-4.67,10.23-4.93.21,2.63.41,5.19.63,8a9,9,0,0,0-7,3c1.9,1.82,3.73,3.64,5.66,5.33.28.25,1.15,0,1.66-.22a60.37,60.37,0,0,1,6.62-2.79c5.25-1.45,11.19,4.34,10.58,9.9a27,27,0,0,1-2.17,7c-.44,1.08-.81,1.83.32,2.62s1.2,1.45.19,2.49-1.63.83-2.37-.1-1.56-.9-2.55,0c-2.37,2.12-4.94,4-8.49,4.36q-.45-3.87-.81-7l5.75-3.1c-2.1-2-3.81-3.7-5.61-5.3-.25-.21-1-.06-1.39.14-1.24.63-2.39,1.41-3.62,2.06-4.23,2.25-7.73,1.93-11.21-1A10.29,10.29,0,0,1,179.16,92.45Z"/><path class="cls-5" d="M192.47,96.51l-5-4.8c-1.58,1.84-1.77,4.09-.53,5.34S190.72,98.16,192.47,96.51Z"/><path class="cls-5" d="M206,99.67c-1.44-1.26-3.24-1.12-4.76.42l4.67,4.46C207.41,102.59,207.4,100.91,206,99.67Z"/><path class="cls-6" d="M140.21,154.66c-.3,2.65-2.57,4.44-5.19,4.87-1.21.19-1.21.19-1.21,1.41,0,.79,0,.79-.8.79-1.21,0-1.09.15-1.1-1.08,0-1,.15-1-.93-1.15a12.45,12.45,0,0,1-5.82-2.74c-.26-.22-.26-.36,0-.6.51-.57,1-1.15,1.47-1.75.28-.35.52-.36.86-.08a9.4,9.4,0,0,0,3.85,2c.59.14.61.12.61-.49v-2.14c0-.72,0-1.45,0-2.18,0-.41-.14-.58-.53-.68a12.56,12.56,0,0,1-3.75-1.55,4.12,4.12,0,0,1-1.87-3c-.65-3.9,2-6.43,5.43-6.84.68-.08.71-.08.71-.78s0-.71.72-.71h.15c1,0,1,0,1,1,0,.36.15.48.5.52a12.06,12.06,0,0,1,5.08,1.86c.22.14.37.28.17.55-.49.67-1,1.34-1.44,2-.21.3-.38.28-.65.1a9,9,0,0,0-3.14-1.31c-.38-.08-.52,0-.51.41,0,1.44,0,2.88,0,4.33,0,.39.21.51.53.59a13.69,13.69,0,0,1,3.63,1.44A4.93,4.93,0,0,1,140.21,154.66Z"/><path class="cls-7" d="M132.46,128.93a20.91,20.91,0,1,0,21,20.79A20.94,20.94,0,0,0,132.46,128.93Zm7.75,25.73c-.3,2.65-2.57,4.44-5.19,4.87-1.21.19-1.21.19-1.21,1.41,0,.79,0,.79-.8.79-1.21,0-1.09.15-1.1-1.08,0-1,.15-1-.93-1.15a12.45,12.45,0,0,1-5.82-2.74c-.26-.22-.26-.36,0-.6.51-.57,1-1.15,1.47-1.75.28-.35.52-.36.86-.08a9.4,9.4,0,0,0,3.85,2c.59.14.61.12.61-.49v-2.14c0-.72,0-1.45,0-2.18,0-.41-.14-.58-.53-.68a12.56,12.56,0,0,1-3.75-1.55,4.12,4.12,0,0,1-1.87-3c-.65-3.9,2-6.43,5.43-6.84.68-.08.71-.08.71-.78s0-.71.72-.71h.15c1,0,1,0,1,1,0,.36.15.48.5.52a12.06,12.06,0,0,1,5.08,1.86c.22.14.37.28.17.55-.49.67-1,1.34-1.44,2-.21.3-.38.28-.65.1a9,9,0,0,0-3.14-1.31c-.38-.08-.52,0-.51.41,0,1.44,0,2.88,0,4.33,0,.39.21.51.53.59a13.69,13.69,0,0,1,3.63,1.44A4.93,4.93,0,0,1,140.21,154.66Z"/><path class="cls-7" d="M135.85,152.63c-.43-.23-.9-.4-1.36-.6s-.46,0-.45.31c0,.7,0,1.39,0,2.09s0,1.39,0,2.08c0,.29.08.44.4.37a4.31,4.31,0,0,0,1.23-.39,2.19,2.19,0,0,0,1.25-2A1.94,1.94,0,0,0,135.85,152.63Z"/><path class="cls-7" d="M132.15,143.35c0-.3-.14-.42-.44-.36a4,4,0,0,0-1,.35,2.13,2.13,0,0,0-1.21,1.87,2,2,0,0,0,1.12,1.95c.35.19.73.31,1.09.47s.47.05.47-.3c0-.65,0-1.3,0-1.94S132.14,144,132.15,143.35Z"/><path class="cls-8" d="M132.56,126.29a23.55,23.55,0,1,0,23.56,23.55A23.55,23.55,0,0,0,132.56,126.29Zm0,44.45a20.86,20.86,0,1,1,20.9-21A20.78,20.78,0,0,1,132.56,170.74Z"/><rect class="cls-7" x="132.8" y="171.03" width="0.29" height="1.37" transform="translate(-2.97 2.34) rotate(-1)"/><rect class="cls-7" x="129.98" y="171.49" width="1.37" height="0.29" transform="translate(-51.74 286.79) rotate(-84.99)"/><rect class="cls-7" x="127.71" y="171.17" width="1.37" height="0.29" transform="translate(-64.28 264.64) rotate(-78.99)"/><rect class="cls-7" x="125.49" y="170.61" width="1.37" height="0.29" transform="translate(-74.02 241.47) rotate(-72.99)"/><rect class="cls-7" x="123.33" y="169.83" width="1.37" height="0.29" transform="translate(-80.9 217.73) rotate(-67)"/><rect class="cls-7" x="121.28" y="168.83" width="1.37" height="0.29" transform="translate(-84.96 193.7) rotate(-60.99)"/><rect class="cls-7" x="119.34" y="167.61" width="1.37" height="0.29" transform="translate(-86.24 169.82) rotate(-54.99)"/><rect class="cls-7" x="117.53" y="166.2" width="1.37" height="0.29" transform="translate(-84.88 146.39) rotate(-48.99)"/><rect class="cls-7" x="115.88" y="164.61" width="1.37" height="0.29" transform="translate(-81.04 123.73) rotate(-42.99)"/><rect class="cls-7" x="114.41" y="162.86" width="1.37" height="0.29" transform="translate(-74.91 102.07) rotate(-36.99)"/><rect class="cls-7" x="113.13" y="160.96" width="1.37" height="0.29" transform="translate(-66.71 81.6) rotate(-30.99)"/><rect class="cls-7" x="112.06" y="158.94" width="1.37" height="0.29" transform="translate(-56.67 62.55) rotate(-25)"/><rect class="cls-7" x="111.2" y="156.82" width="1.37" height="0.29" transform="translate(-45 44.97) rotate(-19)"/><rect class="cls-7" x="110.57" y="154.62" width="1.37" height="0.29" transform="translate(-31.94 28.97) rotate(-12.99)"/><rect class="cls-7" x="110.17" y="152.36" width="1.37" height="0.29" transform="translate(-17.75 14.64) rotate(-7)"/><rect class="cls-7" x="110.01" y="150.08" width="1.37" height="0.29" transform="translate(-2.59 1.94) rotate(-0.99)"/><rect class="cls-7" x="110.63" y="147.25" width="0.29" height="1.37" transform="translate(-46.26 245.38) rotate(-85)"/><rect class="cls-7" x="110.95" y="144.98" width="0.29" height="1.37" transform="translate(-53.09 226.92) rotate(-79)"/><rect class="cls-7" x="111.5" y="142.76" width="0.29" height="1.37" transform="translate(-58.17 208.27) rotate(-73)"/><rect class="cls-7" x="112.29" y="140.61" width="0.29" height="1.37" transform="translate(-61.56 189.57) rotate(-67)"/><rect class="cls-7" x="113.29" y="138.55" width="0.29" height="1.37" transform="translate(-63.34 170.94) rotate(-61)"/><rect class="cls-7" x="114.5" y="136.61" width="0.29" height="1.37" transform="translate(-63.58 152.45) rotate(-55)"/><rect class="cls-7" x="115.91" y="134.81" width="0.29" height="1.37" transform="translate(-62.34 134.19) rotate(-49)"/><rect class="cls-7" x="117.5" y="133.16" width="0.29" height="1.37" transform="translate(-59.67 116.18) rotate(-43)"/><rect class="cls-7" x="119.26" y="131.69" width="0.29" height="1.37" transform="translate(-55.62 98.51) rotate(-37)"/><rect class="cls-7" x="121.16" y="130.41" width="0.29" height="1.37" transform="translate(-50.19 81.2) rotate(-31)"/><rect class="cls-7" x="123.18" y="129.33" width="0.29" height="1.37" transform="translate(-43.39 64.29) rotate(-25)"/><rect class="cls-7" x="125.3" y="128.47" width="0.29" height="1.37" transform="translate(-35.21 47.87) rotate(-19)"/><rect class="cls-7" x="127.5" y="127.84" width="0.29" height="1.37" transform="translate(-25.64 32.01) rotate(-13)"/><rect class="cls-7" x="129.76" y="127.45" width="0.29" height="1.37" transform="translate(-14.64 16.78) rotate(-7)"/><rect class="cls-7" x="132.04" y="127.29" width="0.29" height="1.37" transform="translate(-2.21 2.32) rotate(-1)"/><rect class="cls-7" x="133.79" y="127.91" width="1.37" height="0.29" transform="translate(-4.84 250.81) rotate(-84.99)"/><rect class="cls-7" x="136.06" y="128.22" width="1.37" height="0.29" transform="translate(-15.37 238.09) rotate(-78.99)"/><rect class="cls-7" x="138.28" y="128.78" width="1.37" height="0.29" transform="translate(-24.97 224.1) rotate(-72.99)"/><rect class="cls-7" x="140.43" y="129.56" width="1.37" height="0.29" transform="translate(-33.41 208.93) rotate(-67)"/><rect class="cls-7" x="142.49" y="130.57" width="1.37" height="0.29" transform="translate(-40.57 192.54) rotate(-60.99)"/><rect class="cls-7" x="144.43" y="131.78" width="1.37" height="0.29" transform="translate(-46.19 175.09) rotate(-54.99)"/><rect class="cls-7" x="146.23" y="133.19" width="1.37" height="0.29" transform="translate(-50.1 156.7) rotate(-48.99)"/><rect class="cls-7" x="147.88" y="134.78" width="1.37" height="0.29" transform="translate(-52.11 137.54) rotate(-42.99)"/><rect class="cls-7" x="149.35" y="136.53" width="1.37" height="0.29" transform="translate(-52.04 117.79) rotate(-36.99)"/><rect class="cls-7" x="150.63" y="138.43" width="1.37" height="0.29" transform="translate(-49.75 97.67) rotate(-30.99)"/><rect class="cls-7" x="151.71" y="140.45" width="1.37" height="0.29" transform="translate(-45.14 77.58) rotate(-25)"/><rect class="cls-7" x="152.56" y="142.58" width="1.37" height="0.29" transform="translate(-38.11 57.66) rotate(-19)"/><rect class="cls-7" x="153.2" y="144.78" width="1.37" height="0.29" transform="translate(-28.64 38.3) rotate(-12.99)"/><rect class="cls-7" x="153.59" y="147.03" width="1.37" height="0.29" transform="translate(-16.78 19.89) rotate(-7)"/><rect class="cls-7" x="153.75" y="149.31" width="1.37" height="0.29" transform="translate(-2.57 2.7) rotate(-0.99)"/><rect class="cls-7" x="154.21" y="151.06" width="0.29" height="1.37" transform="translate(-10.27 292.29) rotate(-85)"/><rect class="cls-7" x="153.89" y="153.33" width="0.29" height="1.37" transform="translate(-26.54 275.83) rotate(-79)"/><rect class="cls-7" x="153.34" y="155.55" width="0.29" height="1.37" transform="translate(-40.81 257.32) rotate(-73)"/><rect class="cls-7" x="152.56" y="157.7" width="0.29" height="1.37" transform="translate(-52.77 237.05) rotate(-67)"/><rect class="cls-7" x="151.55" y="159.76" width="0.29" height="1.37" transform="translate(-62.18 215.33) rotate(-61)"/><rect class="cls-7" x="150.34" y="161.7" width="0.29" height="1.37" transform="translate(-68.85 192.5) rotate(-55)"/><rect class="cls-7" x="148.93" y="163.51" width="0.29" height="1.37" transform="translate(-72.64 168.97) rotate(-49)"/><rect class="cls-7" x="147.34" y="165.15" width="0.29" height="1.37" transform="translate(-73.48 145.13) rotate(-43)"/><rect class="cls-7" x="145.58" y="166.63" width="0.29" height="1.37" transform="translate(-71.34 121.39) rotate(-37)"/><rect class="cls-7" x="143.69" y="167.91" width="0.29" height="1.37" transform="translate(-66.29 98.15) rotate(-31)"/><rect class="cls-7" x="141.66" y="168.98" width="0.29" height="1.37" transform="translate(-58.41 75.82) rotate(-25)"/><rect class="cls-7" x="139.54" y="169.84" width="0.29" height="1.37" transform="translate(-47.9 54.76) rotate(-19)"/><rect class="cls-7" x="137.34" y="170.47" width="0.29" height="1.37" transform="translate(-34.97 35.31) rotate(-13)"/><rect class="cls-7" x="135.09" y="170.87" width="0.29" height="1.37" transform="translate(-19.89 17.75) rotate(-7)"/><path class="cls-6" d="M79.42,142.62a5.86,5.86,0,0,1-5.19,4.87c-1.21.19-1.21.19-1.21,1.41,0,.79,0,.8-.8.79-1.21,0-1.09.15-1.1-1.08,0-1,.15-1-.93-1.15a12.35,12.35,0,0,1-5.82-2.74c-.26-.21-.26-.36,0-.6q.77-.84,1.47-1.74c.28-.36.51-.37.86-.08a9.64,9.64,0,0,0,3.85,2c.59.14.61.12.61-.5v-2.13c0-.73,0-1.46,0-2.19,0-.41-.14-.58-.53-.68a12.8,12.8,0,0,1-3.75-1.54,4.16,4.16,0,0,1-1.87-3c-.65-3.89,2-6.43,5.43-6.83.68-.09.71-.09.71-.78s0-.72.72-.72H72c1,0,1,0,1,1,0,.36.15.47.5.51a11.94,11.94,0,0,1,5.08,1.87c.22.14.37.27.17.55-.49.66-1,1.33-1.44,2-.21.3-.38.27-.65.09a9.15,9.15,0,0,0-3.14-1.31c-.38-.08-.52,0-.51.42,0,1.44,0,2.88,0,4.32,0,.39.21.51.53.59a14,14,0,0,1,3.63,1.44A5,5,0,0,1,79.42,142.62Z"/><path class="cls-7" d="M71.67,116.89a20.91,20.91,0,1,0,21,20.79A20.94,20.94,0,0,0,71.67,116.89Zm7.75,25.73a5.86,5.86,0,0,1-5.19,4.87c-1.21.19-1.21.19-1.21,1.41,0,.79,0,.8-.8.79-1.21,0-1.09.15-1.1-1.08,0-1,.15-1-.93-1.15a12.35,12.35,0,0,1-5.82-2.74c-.26-.21-.26-.36,0-.6q.77-.84,1.47-1.74c.28-.36.51-.37.86-.08a9.64,9.64,0,0,0,3.85,2c.59.14.61.12.61-.5v-2.13c0-.73,0-1.46,0-2.19,0-.41-.14-.58-.53-.68a12.8,12.8,0,0,1-3.75-1.54,4.16,4.16,0,0,1-1.87-3c-.65-3.89,2-6.43,5.43-6.83.68-.09.71-.09.71-.78s0-.72.72-.72H72c1,0,1,0,1,1,0,.36.15.47.5.51a11.94,11.94,0,0,1,5.08,1.87c.22.14.37.27.17.55-.49.66-1,1.33-1.44,2-.21.3-.38.27-.65.09a9.15,9.15,0,0,0-3.14-1.31c-.38-.08-.52,0-.51.42,0,1.44,0,2.88,0,4.32,0,.39.21.51.53.59a14,14,0,0,1,3.63,1.44A5,5,0,0,1,79.42,142.62Z"/><path class="cls-7" d="M75.06,140.59c-.43-.23-.9-.4-1.36-.59s-.46-.05-.45.31c0,.69,0,1.39,0,2.08s0,1.39,0,2.08c0,.3.08.44.4.37a4,4,0,0,0,1.23-.39,2.16,2.16,0,0,0,1.25-2A2,2,0,0,0,75.06,140.59Z"/><path class="cls-7" d="M71.35,131.32c0-.31-.13-.43-.43-.36a3.69,3.69,0,0,0-1,.35,2.12,2.12,0,0,0-1.21,1.86,2,2,0,0,0,1.12,2c.35.19.72.32,1.09.48s.47,0,.47-.31c0-.65,0-1.29,0-1.94Z"/><path class="cls-8" d="M71.77,114.25A23.55,23.55,0,1,0,95.32,137.8,23.56,23.56,0,0,0,71.77,114.25Zm0,44.45a20.86,20.86,0,1,1,20.9-21A20.78,20.78,0,0,1,71.77,158.7Z"/><rect class="cls-7" x="72.01" y="158.99" width="0.29" height="1.37" transform="matrix(1, -0.02, 0.02, 1, -2.77, 1.28)"/><rect class="cls-7" x="69.18" y="159.45" width="1.37" height="0.29" transform="translate(-95.22 215.24) rotate(-84.99)"/><rect class="cls-7" x="66.92" y="159.13" width="1.37" height="0.29" transform="translate(-101.65 195.23) rotate(-78.99)"/><rect class="cls-7" x="64.7" y="158.58" width="1.37" height="0.29" transform="translate(-105.52 174.82) rotate(-72.99)"/><rect class="cls-7" x="62.54" y="157.79" width="1.37" height="0.29" transform="translate(-106.86 154.44) rotate(-67)"/><rect class="cls-7" x="60.49" y="156.79" width="1.37" height="0.29" transform="translate(-105.74 134.33) rotate(-60.99)"/><rect class="cls-7" x="58.54" y="155.58" width="1.37" height="0.29" transform="translate(-102.3 114.89) rotate(-54.99)"/><rect class="cls-7" x="56.74" y="154.17" width="1.37" height="0.29" transform="translate(-96.7 96.38) rotate(-48.99)"/><rect class="cls-7" x="55.09" y="152.58" width="1.37" height="0.29" transform="translate(-89.16 79.05) rotate(-42.99)"/><rect class="cls-7" x="53.62" y="150.82" width="1.37" height="0.29" transform="translate(-79.91 63.06) rotate(-36.99)"/><rect class="cls-7" x="52.34" y="148.92" width="1.37" height="0.29" transform="translate(-69.19 48.58) rotate(-30.99)"/><rect class="cls-7" x="51.27" y="146.9" width="1.37" height="0.29" transform="translate(-57.28 35.73) rotate(-25)"/><rect class="cls-7" x="50.41" y="144.78" width="1.37" height="0.29" transform="translate(-44.39 24.52) rotate(-19)"/><rect class="cls-7" x="49.78" y="142.58" width="1.37" height="0.29" transform="translate(-30.79 15) rotate(-12.99)"/><rect class="cls-7" x="49.38" y="140.32" width="1.37" height="0.29" transform="translate(-16.74 7.14) rotate(-7)"/><rect class="cls-7" x="49.22" y="138.04" width="1.37" height="0.29" transform="translate(-2.39 0.89) rotate(-0.99)"/><rect class="cls-7" x="49.84" y="135.21" width="0.29" height="1.37" transform="translate(-89.75 173.84) rotate(-85)"/><rect class="cls-7" x="50.16" y="132.95" width="0.29" height="1.37" transform="translate(-90.47 157.51) rotate(-79)"/><rect class="cls-7" x="50.71" y="130.72" width="0.29" height="1.37" transform="translate(-89.68 141.61) rotate(-73)"/><rect class="cls-7" x="51.5" y="128.57" width="0.29" height="1.37" transform="translate(-87.52 126.28) rotate(-67)"/><rect class="cls-7" x="52.5" y="126.51" width="0.29" height="1.37" transform="translate(-84.13 111.57) rotate(-61)"/><rect class="cls-7" x="53.71" y="124.57" width="0.29" height="1.37" transform="translate(-79.64 97.52) rotate(-55)"/><rect class="cls-7" x="55.12" y="122.77" width="0.29" height="1.37" transform="translate(-74.16 84.17) rotate(-49)"/><rect class="cls-7" x="56.71" y="121.12" width="0.29" height="1.37" transform="translate(-67.79 71.49) rotate(-43)"/><rect class="cls-7" x="58.47" y="119.65" width="0.29" height="1.37" transform="translate(-60.61 59.5) rotate(-37)"/><rect class="cls-7" x="60.37" y="118.37" width="0.29" height="1.37" transform="translate(-52.67 48.17) rotate(-31)"/><rect class="cls-7" x="62.39" y="117.3" width="0.29" height="1.37" transform="translate(-44 37.48) rotate(-25)"/><rect class="cls-7" x="64.51" y="116.44" width="0.29" height="1.37" transform="translate(-34.61 27.43) rotate(-19)"/><rect class="cls-7" x="66.71" y="115.81" width="0.29" height="1.37" transform="translate(-24.49 18.02) rotate(-13)"/><rect class="cls-7" x="68.97" y="115.41" width="0.29" height="1.37" transform="translate(-13.63 9.29) rotate(-7)"/><rect class="cls-7" x="71.25" y="115.25" width="0.29" height="1.37" transform="translate(-2.01 1.26) rotate(-1)"/><rect class="cls-7" x="73" y="115.87" width="1.37" height="0.29" transform="translate(-48.33 179.27) rotate(-84.99)"/><rect class="cls-7" x="75.27" y="116.19" width="1.37" height="0.29" transform="translate(-52.74 168.68) rotate(-78.99)"/><rect class="cls-7" x="77.49" y="116.74" width="1.37" height="0.29" transform="translate(-56.47 157.45) rotate(-72.99)"/><rect class="cls-7" x="79.64" y="117.52" width="1.37" height="0.29" transform="translate(-59.38 145.64) rotate(-67)"/><rect class="cls-7" x="81.7" y="118.53" width="1.37" height="0.29" transform="translate(-61.35 133.18) rotate(-60.99)"/><rect class="cls-7" x="83.64" y="119.74" width="1.37" height="0.29" transform="translate(-62.25 120.17) rotate(-54.99)"/><rect class="cls-7" x="85.44" y="121.15" width="1.37" height="0.29" transform="translate(-61.92 106.69) rotate(-48.99)"/><rect class="cls-7" x="87.09" y="122.74" width="1.37" height="0.29" transform="translate(-60.22 92.85) rotate(-42.99)"/><rect class="cls-7" x="88.56" y="124.5" width="1.37" height="0.29" transform="translate(-57.03 78.79) rotate(-36.99)"/><rect class="cls-7" x="89.84" y="126.39" width="1.37" height="0.29" transform="translate(-52.23 64.66) rotate(-30.99)"/><rect class="cls-7" x="90.92" y="128.42" width="1.37" height="0.29" transform="translate(-45.75 50.76) rotate(-25)"/><rect class="cls-7" x="91.77" y="130.54" width="1.37" height="0.29" transform="translate(-37.5 37.21) rotate(-19)"/><rect class="cls-7" x="92.4" y="132.74" width="1.37" height="0.29" transform="translate(-27.49 24.33) rotate(-12.99)"/><rect class="cls-7" x="92.8" y="134.99" width="1.37" height="0.29" transform="translate(-15.77 12.39) rotate(-7)"/><rect class="cls-7" x="92.96" y="137.28" width="1.37" height="0.29" transform="translate(-2.37 1.64) rotate(-0.99)"/><rect class="cls-7" x="93.42" y="139.03" width="0.29" height="1.37" transform="translate(-53.77 220.74) rotate(-85)"/><rect class="cls-7" x="93.1" y="141.29" width="0.29" height="1.37" transform="translate(-63.92 206.42) rotate(-79)"/><rect class="cls-7" x="92.55" y="143.52" width="0.29" height="1.37" transform="translate(-72.31 190.67) rotate(-73)"/><rect class="cls-7" x="91.77" y="145.67" width="0.29" height="1.37" transform="translate(-78.72 173.76) rotate(-67)"/><rect class="cls-7" x="90.76" y="147.73" width="0.29" height="1.37" transform="translate(-82.97 155.96) rotate(-61)"/><rect class="cls-7" x="89.55" y="149.67" width="0.29" height="1.37" transform="translate(-84.91 137.57) rotate(-55)"/><rect class="cls-7" x="88.14" y="151.47" width="0.29" height="1.37" transform="translate(-84.47 118.96) rotate(-49)"/><rect class="cls-7" x="86.55" y="153.12" width="0.29" height="1.37" transform="translate(-81.6 100.44) rotate(-43)"/><rect class="cls-7" x="84.79" y="154.59" width="0.29" height="1.37" transform="translate(-76.34 82.38) rotate(-37)"/><rect class="cls-7" x="82.9" y="155.87" width="0.29" height="1.37" transform="translate(-68.77 65.13) rotate(-31)"/><rect class="cls-7" x="80.87" y="156.94" width="0.29" height="1.37" transform="translate(-59.02 49) rotate(-25)"/><rect class="cls-7" x="78.75" y="157.8" width="0.29" height="1.37" transform="translate(-47.29 34.32) rotate(-19)"/><rect class="cls-7" x="76.55" y="158.43" width="0.29" height="1.37" transform="translate(-33.82 21.33) rotate(-13)"/><rect class="cls-7" x="74.3" y="158.83" width="0.29" height="1.37" transform="translate(-18.88 10.26) rotate(-7)"/><path class="cls-6" d="M114,181.82a5.86,5.86,0,0,1-5.19,4.86c-1.21.2-1.21.2-1.21,1.42,0,.79,0,.79-.8.79-1.21,0-1.09.14-1.1-1.08,0-1,.15-1-.93-1.15A12.45,12.45,0,0,1,99,183.92c-.26-.22-.26-.36,0-.6.5-.57,1-1.15,1.47-1.75.28-.36.51-.36.86-.08a9.67,9.67,0,0,0,3.84,2c.6.14.62.12.62-.49v-2.14c0-.73,0-1.45,0-2.18,0-.41-.15-.58-.54-.68a12.61,12.61,0,0,1-3.74-1.55,4.12,4.12,0,0,1-1.87-3c-.66-3.9,2-6.44,5.43-6.84.68-.08.71-.09.71-.78s0-.71.72-.72h.15c1,0,1,0,1,1,0,.36.15.47.5.52a11.93,11.93,0,0,1,5.08,1.86c.22.14.37.28.17.55-.49.67-1,1.34-1.45,2-.2.3-.37.28-.64.1a9,9,0,0,0-3.15-1.31c-.38-.08-.51,0-.51.41,0,1.44,0,2.88,0,4.32,0,.4.21.51.52.6a13.75,13.75,0,0,1,3.64,1.44A5,5,0,0,1,114,181.82Z"/><path class="cls-7" d="M106.27,156.09a20.91,20.91,0,1,0,21,20.79A20.93,20.93,0,0,0,106.27,156.09ZM114,181.82a5.86,5.86,0,0,1-5.19,4.86c-1.21.2-1.21.2-1.21,1.42,0,.79,0,.79-.8.79-1.21,0-1.09.14-1.1-1.08,0-1,.15-1-.93-1.15A12.45,12.45,0,0,1,99,183.92c-.26-.22-.26-.36,0-.6.5-.57,1-1.15,1.47-1.75.28-.36.51-.36.86-.08a9.67,9.67,0,0,0,3.84,2c.6.14.62.12.62-.49v-2.14c0-.73,0-1.45,0-2.18,0-.41-.15-.58-.54-.68a12.61,12.61,0,0,1-3.74-1.55,4.12,4.12,0,0,1-1.87-3c-.66-3.9,2-6.44,5.43-6.84.68-.08.71-.09.71-.78s0-.71.72-.72h.15c1,0,1,0,1,1,0,.36.15.47.5.52a11.93,11.93,0,0,1,5.08,1.86c.22.14.37.28.17.55-.49.67-1,1.34-1.45,2-.2.3-.37.28-.64.1a9,9,0,0,0-3.15-1.31c-.38-.08-.51,0-.51.41,0,1.44,0,2.88,0,4.32,0,.4.21.51.52.6a13.75,13.75,0,0,1,3.64,1.44A5,5,0,0,1,114,181.82Z"/><path class="cls-7" d="M109.66,179.79c-.44-.23-.91-.4-1.36-.6s-.46-.05-.45.31c0,.7,0,1.39,0,2.09s0,1.38,0,2.08c0,.29.08.43.4.37a4,4,0,0,0,1.22-.4,2.17,2.17,0,0,0,1.26-2A2,2,0,0,0,109.66,179.79Z"/><path class="cls-7" d="M106,170.51c0-.3-.13-.42-.43-.36a3.69,3.69,0,0,0-1,.35,2.13,2.13,0,0,0-1.21,1.86,2,2,0,0,0,1.11,2c.35.19.73.31,1.1.47s.47.05.46-.31v-4Z"/><path class="cls-8" d="M106.37,153.45A23.55,23.55,0,1,0,129.92,177,23.55,23.55,0,0,0,106.37,153.45Zm0,44.44a20.86,20.86,0,1,1,20.91-21A20.77,20.77,0,0,1,106.36,197.89Z"/><rect class="cls-7" x="106.61" y="198.19" width="0.29" height="1.37" transform="translate(-3.45 1.89) rotate(-1)"/><rect class="cls-7" x="103.78" y="198.65" width="1.37" height="0.29" transform="translate(-102.69 285.48) rotate(-84.99)"/><rect class="cls-7" x="101.51" y="198.33" width="1.37" height="0.29" transform="translate(-112.13 260.9) rotate(-78.99)"/><rect class="cls-7" x="99.29" y="197.77" width="1.37" height="0.29" transform="translate(-118.53 235.64) rotate(-72.99)"/><rect class="cls-7" x="97.14" y="196.99" width="1.37" height="0.29" transform="translate(-121.86 210.17) rotate(-67)"/><rect class="cls-7" x="95.08" y="195.99" width="1.37" height="0.29" transform="translate(-122.2 184.78) rotate(-60.99)"/><rect class="cls-7" x="93.14" y="194.77" width="1.37" height="0.29" transform="translate(-119.65 159.94) rotate(-54.99)"/><rect class="cls-7" x="91.34" y="193.36" width="1.37" height="0.29" transform="translate(-114.38 135.96) rotate(-48.99)"/><rect class="cls-7" x="89.69" y="191.77" width="1.37" height="0.29" transform="translate(-106.6 113.16) rotate(-42.99)"/><rect class="cls-7" x="88.22" y="190.02" width="1.37" height="0.29" transform="translate(-96.53 91.77) rotate(-36.99)"/><rect class="cls-7" x="86.94" y="188.12" width="1.37" height="0.29" transform="translate(-84.43 71.99) rotate(-30.99)"/><rect class="cls-7" x="85.86" y="186.1" width="1.37" height="0.29" transform="translate(-70.6 54.03) rotate(-25)"/><rect class="cls-7" x="85.01" y="183.98" width="1.37" height="0.29" transform="translate(-55.27 37.92) rotate(-19)"/><rect class="cls-7" x="84.38" y="181.77" width="1.37" height="0.29" transform="translate(-38.72 23.78) rotate(-12.99)"/><rect class="cls-7" x="83.98" y="179.52" width="1.37" height="0.29" transform="translate(-21.25 11.65) rotate(-7)"/><rect class="cls-7" x="83.82" y="177.24" width="1.37" height="0.29" transform="translate(-3.06 1.49) rotate(-0.99)"/><rect class="cls-7" x="84.44" y="174.41" width="0.29" height="1.37" transform="translate(-97.22 244.08) rotate(-85)"/><rect class="cls-7" x="84.76" y="172.14" width="0.29" height="1.37" transform="translate(-100.95 223.19) rotate(-79)"/><rect class="cls-7" x="85.31" y="169.92" width="0.29" height="1.37" transform="translate(-102.68 202.43) rotate(-73)"/><rect class="cls-7" x="86.09" y="167.77" width="0.29" height="1.37" transform="translate(-102.52 182) rotate(-67)"/><rect class="cls-7" x="87.1" y="165.71" width="0.29" height="1.37" transform="translate(-100.59 162.02) rotate(-61)"/><rect class="cls-7" x="88.31" y="163.77" width="0.29" height="1.37" transform="translate(-96.99 142.57) rotate(-55)"/><rect class="cls-7" x="89.72" y="161.96" width="0.29" height="1.37" transform="translate(-91.84 123.76) rotate(-49)"/><rect class="cls-7" x="91.31" y="160.32" width="0.29" height="1.37" transform="translate(-85.23 105.62) rotate(-43)"/><rect class="cls-7" x="93.06" y="158.85" width="0.29" height="1.37" transform="translate(-77.24 88.21) rotate(-37)"/><rect class="cls-7" x="94.96" y="157.57" width="0.29" height="1.37" transform="translate(-67.92 71.58) rotate(-31)"/><rect class="cls-7" x="96.98" y="156.49" width="0.29" height="1.37" transform="translate(-57.32 55.77) rotate(-25)"/><rect class="cls-7" x="99.11" y="155.63" width="0.29" height="1.37" transform="translate(-45.48 40.83) rotate(-19)"/><rect class="cls-7" x="101.31" y="155" width="0.29" height="1.37" transform="translate(-32.42 26.81) rotate(-13)"/><rect class="cls-7" x="103.56" y="154.6" width="0.29" height="1.37" transform="translate(-18.15 13.79) rotate(-7)"/><rect class="cls-7" x="105.85" y="154.45" width="0.29" height="1.37" transform="translate(-2.69 1.87) rotate(-1)"/><rect class="cls-7" x="107.6" y="155.06" width="1.37" height="0.29" transform="translate(-55.8 249.51) rotate(-84.99)"/><rect class="cls-7" x="109.86" y="155.38" width="1.37" height="0.29" transform="translate(-63.22 234.35) rotate(-78.99)"/><rect class="cls-7" x="112.08" y="155.94" width="1.37" height="0.29" transform="translate(-69.47 218.27) rotate(-72.99)"/><rect class="cls-7" x="114.24" y="156.72" width="1.37" height="0.29" transform="translate(-74.37 201.37) rotate(-67)"/><rect class="cls-7" x="116.29" y="157.72" width="1.37" height="0.29" transform="translate(-77.81 183.62) rotate(-60.99)"/><rect class="cls-7" x="118.24" y="158.94" width="1.37" height="0.29" transform="translate(-79.6 165.22) rotate(-54.99)"/><rect class="cls-7" x="120.04" y="160.35" width="1.37" height="0.29" transform="translate(-79.6 146.27) rotate(-48.99)"/><rect class="cls-7" x="121.69" y="161.94" width="1.37" height="0.29" transform="translate(-77.66 126.97) rotate(-42.99)"/><rect class="cls-7" x="123.16" y="163.69" width="1.37" height="0.29" transform="translate(-73.65 107.5) rotate(-36.99)"/><rect class="cls-7" x="124.44" y="165.59" width="1.37" height="0.29" transform="translate(-67.47 88.07) rotate(-30.99)"/><rect class="cls-7" x="125.51" y="167.61" width="1.37" height="0.29" transform="translate(-59.07 69.05) rotate(-25)"/><rect class="cls-7" x="126.37" y="169.73" width="1.37" height="0.29" transform="translate(-48.38 50.61) rotate(-19)"/><rect class="cls-7" x="127" y="171.93" width="1.37" height="0.29" transform="translate(-35.42 33.11) rotate(-12.99)"/><rect class="cls-7" x="127.4" y="174.19" width="1.37" height="0.29" transform="translate(-20.28 16.9) rotate(-7)"/><rect class="cls-7" x="127.56" y="176.47" width="1.37" height="0.29" transform="translate(-3.04 2.25) rotate(-0.99)"/><rect class="cls-7" x="128.02" y="178.22" width="0.29" height="1.37" transform="translate(-61.23 290.99) rotate(-85)"/><rect class="cls-7" x="127.7" y="180.49" width="0.29" height="1.37" transform="translate(-74.4 272.1) rotate(-79)"/><rect class="cls-7" x="127.15" y="182.71" width="0.29" height="1.37" transform="translate(-85.31 251.49) rotate(-73)"/><rect class="cls-7" x="126.36" y="184.86" width="0.29" height="1.37" transform="translate(-93.72 229.49) rotate(-67)"/><rect class="cls-7" x="125.36" y="186.92" width="0.29" height="1.37" transform="translate(-99.42 206.41) rotate(-61)"/><rect class="cls-7" x="124.15" y="188.86" width="0.29" height="1.37" transform="translate(-102.27 182.63) rotate(-55)"/><rect class="cls-7" x="122.74" y="190.67" width="0.29" height="1.37" transform="translate(-102.15 158.55) rotate(-49)"/><rect class="cls-7" x="121.15" y="192.31" width="0.29" height="1.37" transform="translate(-99.04 134.57) rotate(-43)"/><rect class="cls-7" x="119.39" y="193.78" width="0.29" height="1.37" transform="translate(-92.96 111.09) rotate(-37)"/><rect class="cls-7" x="117.49" y="195.07" width="0.29" height="1.37" transform="translate(-84.01 88.54) rotate(-31)"/><rect class="cls-7" x="115.47" y="196.14" width="0.29" height="1.37" transform="translate(-72.34 67.3) rotate(-25)"/><rect class="cls-7" x="113.35" y="197" width="0.29" height="1.37" transform="matrix(0.95, -0.33, 0.33, 0.95, -58.17, 47.71)"/><rect class="cls-7" x="111.15" y="197.63" width="0.29" height="1.37" transform="translate(-41.75 30.11) rotate(-13)"/><rect class="cls-7" x="108.89" y="198.03" width="0.29" height="1.37" transform="translate(-23.4 14.77) rotate(-7)"/></g></g></svg>