<svg xmlns="http://www.w3.org/2000/svg" viewBox="0 0 668.56 114.22"><defs><style>.cls-1{fill:#e6cc45;}.cls-2{fill:#1a1a1a;}</style></defs><g id="Layer_2" data-name="Layer 2"><g id="Layer_1-2" data-name="Layer 1"><rect class="cls-1" width="668.56" height="114.22" rx="19.9"/><path class="cls-2" d="M178.94,41.78h17.89v3.77H183.31v8.24h12.8v3.63h-12.8v8.77h13.52V70H178.94Z"/><path class="cls-2" d="M203.14,41.78h3.94l14.49,20.51h.3V41.78h4.26V70h-3.95L207.71,49.49h-.32V70h-4.25Z"/><path class="cls-2" d="M231,41.78h4.74l7.54,22.91h.33l7.54-22.91h4.75L245.89,70h-4.82Z"/><path class="cls-2" d="M260.83,41.78h4.38V70h-4.38Z"/><path class="cls-2" d="M280.27,41.78H285L295.17,70h-4.61L288,62.34H277.24L274.68,70h-4.59Zm-1.86,17h8.44l-4.06-12.11h-.34Z"/><path class="cls-2" d="M300.05,41.78h11.11c5.79,0,9.38,3.36,9.38,8.59v0a8.08,8.08,0,0,1-5.47,8L321.4,70h-5.06L310.6,59.12h-6.17V70h-4.38Zm10.68,13.79c3.36,0,5.32-1.84,5.32-5v0c0-3.13-2.07-5-5.45-5h-6.17V55.57Z"/><path class="cls-2" d="M337.69,41.78H348.8c5.78,0,9.38,3.36,9.38,8.59v0a8.09,8.09,0,0,1-5.47,8L359,70H354l-5.75-10.84h-6.17V70h-4.37Zm10.68,13.79c3.36,0,5.31-1.84,5.31-5v0c0-3.13-2.07-5-5.45-5h-6.17V55.57Z"/><path class="cls-2" d="M364.41,41.78H382.3v3.77H368.78v8.24h12.79v3.63H368.78v8.77H382.3V70H364.41Z"/><path class="cls-2" d="M387.3,62.68l0-.26h4.29l0,.22c.24,2.56,3,4.2,6.72,4.2,3.6,0,6.16-1.8,6.16-4.42v0c0-2.17-1.53-3.57-5.26-4.37l-3.08-.67c-5.73-1.21-8.19-3.86-8.19-8v0c0-4.87,4.24-8.23,10.22-8.23s9.88,3.38,10.19,7.76l0,.27h-4.24l0-.25c-.37-2.31-2.57-4-6-4s-5.74,1.55-5.74,4.2v0c0,2.09,1.48,3.46,5.13,4.24l3.07.68c5.92,1.27,8.34,3.66,8.34,7.84h0c0,5.4-4.2,8.75-10.76,8.75C391.77,70.64,387.69,67.42,387.3,62.68Z"/><path class="cls-2" d="M414.64,41.78h17.89v3.77H419v8.24h12.79v3.63H419v8.77h13.51V70H414.64Z"/><path class="cls-2" d="M438.84,41.78h4l14.49,20.51h.29V41.78h4.26V70h-3.95L443.41,49.49h-.31V70h-4.26Zm10.88-4.51-.27-.26a2.25,2.25,0,0,0-1.59-.82c-.91,0-1.4.9-1.4,2.64v.06h-2.95v-.16c0-3.3,1.5-5.41,4-5.41a4.86,4.86,0,0,1,3.42,1.6l.27.26a2.25,2.25,0,0,0,1.59.82c.91,0,1.42-.88,1.42-2.64V33.3h2.93v.16c0,3.3-1.5,5.41-4,5.41A4.88,4.88,0,0,1,449.72,37.27Z"/><path class="cls-2" d="M476.91,41.78h4.72L491.81,70H487.2l-2.54-7.62H473.88L471.32,70h-4.59Zm-1.86,17h8.44l-4.06-12.11h-.34Z"/></g></g></svg>