<svg xmlns="http://www.w3.org/2000/svg" viewBox="0 0 305.5 56.92"><defs><style>.cls-1{fill:#e6cc45;stroke:#000;stroke-miterlimit:10;}</style></defs><g id="Layer_2" data-name="Layer 2"><g id="Layer_1-2" data-name="Layer 1"><polygon class="cls-1" points="29.92 46.63 12.09 56 15.5 36.15 1.07 22.09 21.01 19.19 29.92 1.13 38.84 19.19 58.77 22.09 44.35 36.15 47.75 56 29.92 46.63"/><polygon class="cls-1" points="91.34 46.63 73.51 56 76.91 36.15 62.49 22.09 82.42 19.19 91.34 1.13 100.25 19.19 120.18 22.09 105.76 36.15 109.17 56 91.34 46.63"/><polygon class="cls-1" points="152.75 46.63 134.92 56 138.33 36.15 123.9 22.09 143.84 19.19 152.75 1.13 161.66 19.19 181.6 22.09 167.17 36.15 170.58 56 152.75 46.63"/><polygon class="cls-1" points="214.16 46.63 196.33 56 199.74 36.15 185.31 22.09 205.25 19.19 214.16 1.13 223.08 19.19 243.01 22.09 228.59 36.15 231.99 56 214.16 46.63"/><polygon class="cls-1" points="275.58 46.63 257.75 56 261.15 36.15 246.73 22.09 266.66 19.19 275.58 1.13 284.49 19.19 304.43 22.09 290 36.15 293.41 56 275.58 46.63"/></g></g></svg>