<svg xmlns="http://www.w3.org/2000/svg" viewBox="0 0 262.19 184.25"><defs><style>.cls-1{fill:#f4c099;}.cls-2{fill:#6d6d6d;}.cls-3{fill:#b9b9b9;}</style></defs><g id="Layer_2" data-name="Layer 2"><g id="Layer_1-2" data-name="Layer 1"><path class="cls-1" d="M261.66,85.29c-1.43-4.64-5.56-7.62-10.83-7.62q-27.47,0-54.94,0h0q-27.78,0-55.56,0c-1.56,0-3.17-.27-3.51-1.87a6,6,0,0,1,.79-3.74,42.26,42.26,0,0,1,3.21-4.28c8.77-12.1,14-25.36,13.38-40.55a46.1,46.1,0,0,0-4.95-19.78,13,13,0,0,0-9-7.14c-6-1.33-9.88,1.83-10.3,8a92.22,92.22,0,0,1-1.85,14.28c-2.31,10-7.35,18.68-13.91,26.44-6.26,7.41-13,14.37-19.19,21.87A43.32,43.32,0,0,1,75.35,84.67a2.63,2.63,0,0,0-1.35.87H47.65v85H74v-.25a1.92,1.92,0,0,0,.6.63c3.81,2.17,7.77,4.09,11.48,6.41,5,3.11,10.16,5.69,16,6.27,5.46.54,11,.65,16.45.68,10.31.06,20.61-.11,30.92-.13,11.77,0,23.54,0,35.3,0a10.93,10.93,0,1,0,0-21.86c-1.1,0-2.21,0-3.3,0-2.31-.13-3.63-1.28-3.65-3.11s1.38-3.1,3.78-3.11c4.68,0,9.36,0,14,0,6.65,0,11.51-4.63,11.58-10.89s-4.77-11-11.57-11c-3.38,0-6.75,0-10.12-.05a3.07,3.07,0,0,1-3.3-3.19c0-1.73,1.25-2.86,3.26-3,.61,0,1.24,0,1.86,0,5.85,0,11.7.06,17.55,0,6.33-.1,10.49-4.08,10.84-10.13a11,11,0,0,0-9.68-11.66,61.67,61.67,0,0,0-7.2-.16c-3.16,0-6.34.18-9.48-.07a4.93,4.93,0,0,1-3.28-1.91c-.43-.65,0-2.35.65-3.12a4.15,4.15,0,0,1,2.9-1c7.57-.09,15.14-.05,22.72-.05,12.94,0,25.88.06,38.83,0A10.85,10.85,0,0,0,261.66,85.29Z"/><rect class="cls-2" y="126.08" width="42.97" height="42.68"/><rect class="cls-3" y="83.4" width="42.97" height="42.68"/></g></g></svg>