<svg xmlns="http://www.w3.org/2000/svg" xmlns:xlink="http://www.w3.org/1999/xlink" viewBox="0 0 818.73 306.76"><defs><style>.cls-1,.cls-5{fill:none;}.cls-2{fill:#efefef;}.cls-3{clip-path:url(#clip-path);}.cls-4{fill:#f6dc45;}.cls-4,.cls-5{stroke:#000;stroke-miterlimit:10;}.cls-6{fill:#606060;}.cls-7{fill:#1a1a1a;}</style><clipPath id="clip-path"><circle class="cls-1" cx="98.54" cy="86.87" r="45.85"/></clipPath></defs><g id="Layer_2" data-name="Layer 2"><g id="Layer_1-2" data-name="Layer 1"><rect class="cls-2" width="818.73" height="306.76" rx="35.61"/><g class="cls-3"><image width="4000" height="6000" transform="translate(51.32 16.75) scale(0.03)" xlink:href="../../pexels-abed-albaset-alhasan-7814587.jpg"/></g><path d="M171,76.05h7.78v4.59H165.07V56.24h6Z"/><path d="M199.83,72.37H186.38a4.05,4.05,0,0,0,1.16,2.76,3.54,3.54,0,0,0,2.52,1,3.13,3.13,0,0,0,3.09-1.88h6.33a8.77,8.77,0,0,1-4.94,5.84,10.15,10.15,0,0,1-4.27.87,10.39,10.39,0,0,1-5.07-1.22,8.61,8.61,0,0,1-3.48-3.47,11.88,11.88,0,0,1,0-10.57,8.56,8.56,0,0,1,3.46-3.47,11.25,11.25,0,0,1,10.11,0,8.55,8.55,0,0,1,3.43,3.37,10.25,10.25,0,0,1,1.23,5.11A15,15,0,0,1,199.83,72.37Zm-6-3.3a3.09,3.09,0,0,0-1-2.44,3.87,3.87,0,0,0-2.61-.9,3.75,3.75,0,0,0-2.52.87,3.86,3.86,0,0,0-1.27,2.47Z"/><path d="M206.43,80.05a7.75,7.75,0,0,1-3.13-2.38A6.28,6.28,0,0,1,202,74.28h5.87a2.23,2.23,0,0,0,.94,1.63,3.29,3.29,0,0,0,2,.63,2.93,2.93,0,0,0,1.72-.44,1.34,1.34,0,0,0,.61-1.13,1.31,1.31,0,0,0-.87-1.23,17.73,17.73,0,0,0-2.82-.89,25.33,25.33,0,0,1-3.47-1,6,6,0,0,1-2.4-1.7,4.67,4.67,0,0,1-1-3.15,5.38,5.38,0,0,1,.92-3,6.26,6.26,0,0,1,2.71-2.17,10.45,10.45,0,0,1,4.26-.8,8.51,8.51,0,0,1,5.75,1.81,7,7,0,0,1,2.42,4.79h-5.49a2.41,2.41,0,0,0-.89-1.6,3.09,3.09,0,0,0-2-.59,2.76,2.76,0,0,0-1.6.4,1.29,1.29,0,0,0-.56,1.1,1.35,1.35,0,0,0,.89,1.25,14.21,14.21,0,0,0,2.76.83,29.38,29.38,0,0,1,3.51,1.1,6,6,0,0,1,2.38,1.73A4.89,4.89,0,0,1,218.8,75a5.15,5.15,0,0,1-1,3,6.38,6.38,0,0,1-2.75,2.1,10.49,10.49,0,0,1-4.15.77A11.15,11.15,0,0,1,206.43,80.05Z"/><path d="M228.39,54.92V80.64h-5.94V54.92Z"/><path d="M233.14,58.31a3,3,0,0,1-1-2.28,3,3,0,0,1,1-2.31,3.61,3.61,0,0,1,2.55-.92,3.57,3.57,0,0,1,2.52.92,3,3,0,0,1,1,2.31,3,3,0,0,1-1,2.28,3.57,3.57,0,0,1-2.52.92A3.61,3.61,0,0,1,233.14,58.31Zm5.51,2.94V80.64h-6V61.25Z"/><path d="M261.13,72.37H247.68a4,4,0,0,0,1.17,2.76,3.54,3.54,0,0,0,2.52,1,3.13,3.13,0,0,0,3.09-1.88h6.32A8.72,8.72,0,0,1,259,77.65a8.87,8.87,0,0,1-3.18,2.4,10.23,10.23,0,0,1-4.28.87,10.39,10.39,0,0,1-5.07-1.22A8.74,8.74,0,0,1,243,76.23a11.84,11.84,0,0,1,0-10.57,8.44,8.44,0,0,1,3.46-3.47,11.25,11.25,0,0,1,10.11,0A8.47,8.47,0,0,1,260,65.52a10.26,10.26,0,0,1,1.24,5.11A15.05,15.05,0,0,1,261.13,72.37Zm-6-3.3a3.06,3.06,0,0,0-1-2.44,3.83,3.83,0,0,0-2.61-.9,3.79,3.79,0,0,0-2.52.87,3.85,3.85,0,0,0-1.26,2.47Z"/><path d="M284.17,80.64l-5.07-9.21h-1.43v9.21h-5.94V56.24h10a11,11,0,0,1,4.92,1,6.89,6.89,0,0,1,3,2.76,7.75,7.75,0,0,1,1,3.91,7.33,7.33,0,0,1-1.37,4.35A7.48,7.48,0,0,1,285.25,71l5.63,9.66Zm-6.5-13.42h3.69a3.35,3.35,0,0,0,2.45-.8,3,3,0,0,0,.81-2.25,2.93,2.93,0,0,0-.81-2.19,3.35,3.35,0,0,0-2.45-.8h-3.69Z"/><path d="M298.09,79.7a8.92,8.92,0,0,1-3.58-3.47,11.28,11.28,0,0,1,0-10.55,8.91,8.91,0,0,1,3.61-3.49,11.46,11.46,0,0,1,10.29,0A8.91,8.91,0,0,1,312,65.68a11.12,11.12,0,0,1,0,10.53,9.08,9.08,0,0,1-3.65,3.49,10.92,10.92,0,0,1-5.16,1.22A10.74,10.74,0,0,1,298.09,79.7Zm8-5.18a5,5,0,0,0,1.2-3.58,5.06,5.06,0,0,0-1.17-3.58,3.94,3.94,0,0,0-5.75,0,6.21,6.21,0,0,0,0,7.17,3.65,3.65,0,0,0,2.84,1.25A3.85,3.85,0,0,0,306.12,74.52Z"/><path d="M322.47,83.14q0,3.58-1.81,5.16a7.36,7.36,0,0,1-5,1.58h-2.33v-5h1.43a2,2,0,0,0,1.39-.38,1.61,1.61,0,0,0,.42-1.25v-22h5.94Zm-5.54-24.83a3,3,0,0,1-1-2.28,3,3,0,0,1,1-2.31,3.61,3.61,0,0,1,2.55-.92,3.57,3.57,0,0,1,2.52.92A3,3,0,0,1,323,56a3,3,0,0,1-1,2.28,3.57,3.57,0,0,1-2.52.92A3.61,3.61,0,0,1,316.93,58.31Z"/><path d="M326.69,65.66a8.35,8.35,0,0,1,3.08-3.47A7.92,7.92,0,0,1,334.11,61a7.53,7.53,0,0,1,3.6.83A6.24,6.24,0,0,1,340.09,64V61.25H346V80.64h-5.94V77.89a6.35,6.35,0,0,1-2.42,2.19,7.41,7.41,0,0,1-3.59.84,7.8,7.8,0,0,1-4.31-1.24,8.46,8.46,0,0,1-3.08-3.51,12.78,12.78,0,0,1,0-10.51Zm12.16,1.77a4.18,4.18,0,0,0-6,0,4.79,4.79,0,0,0-1.23,3.49,4.94,4.94,0,0,0,1.23,3.53,4.13,4.13,0,0,0,6,0,5.59,5.59,0,0,0,0-7Z"/><path d="M353.71,80.05a7.75,7.75,0,0,1-3.13-2.38,6.28,6.28,0,0,1-1.28-3.39h5.87a2.23,2.23,0,0,0,.94,1.63,3.31,3.31,0,0,0,2.05.63,2.93,2.93,0,0,0,1.72-.44,1.34,1.34,0,0,0,.61-1.13,1.31,1.31,0,0,0-.87-1.23,17.73,17.73,0,0,0-2.82-.89,25.76,25.76,0,0,1-3.47-1,6,6,0,0,1-2.4-1.7,4.67,4.67,0,0,1-1-3.15,5.38,5.38,0,0,1,.92-3,6.24,6.24,0,0,1,2.72-2.17,10.4,10.4,0,0,1,4.25-.8,8.49,8.49,0,0,1,5.75,1.81A7,7,0,0,1,366,67.57h-5.49a2.37,2.37,0,0,0-.89-1.6,3.09,3.09,0,0,0-2-.59,2.76,2.76,0,0,0-1.6.4,1.29,1.29,0,0,0-.56,1.1,1.35,1.35,0,0,0,.89,1.25,14.21,14.21,0,0,0,2.76.83,29.38,29.38,0,0,1,3.51,1.1A6,6,0,0,1,365,71.79,4.89,4.89,0,0,1,366.08,75a5.15,5.15,0,0,1-.95,3,6.32,6.32,0,0,1-2.75,2.1,10.49,10.49,0,0,1-4.15.77A11.15,11.15,0,0,1,353.71,80.05Z"/><polygon class="cls-4" points="178.49 119.49 168.77 124.6 170.62 113.78 162.76 106.11 173.63 104.53 178.49 94.68 183.35 104.53 194.22 106.11 186.35 113.78 188.21 124.6 178.49 119.49"/><polygon class="cls-4" points="218.36 119.49 208.64 124.6 210.5 113.78 202.63 106.11 213.5 104.53 218.36 94.68 223.22 104.53 234.09 106.11 226.23 113.78 228.08 124.6 218.36 119.49"/><polygon class="cls-4" points="258.24 119.49 248.51 124.6 250.37 113.78 242.5 106.11 253.38 104.53 258.24 94.68 263.1 104.53 273.97 106.11 266.1 113.78 267.96 124.6 258.24 119.49"/><polygon class="cls-4" points="298.11 119.49 288.39 124.6 290.24 113.78 282.38 106.11 293.25 104.53 298.11 94.68 302.97 104.53 313.84 106.11 305.97 113.78 307.83 124.6 298.11 119.49"/><polygon class="cls-5" points="337.98 119.49 328.26 124.6 330.12 113.78 322.25 106.11 333.12 104.53 337.98 94.68 342.84 104.53 353.71 106.11 345.85 113.78 347.7 124.6 337.98 119.49"/><path class="cls-6" d="M376.91,119.56l5-5.38c1.87-2,2.42-2.79,2.42-4.07v0a2.6,2.6,0,0,0-2.78-2.71,2.74,2.74,0,0,0-2.93,2.88v0h-1.77a4.51,4.51,0,0,1,4.83-4.48,4.23,4.23,0,0,1,4.53,4.12v0c0,1.68-.72,2.9-3.38,5.64L379.45,119v.16h7v1.65h-9.51Z"/><path class="cls-6" d="M389.55,124.49h-1.7l4.64-19h1.71Z"/><path class="cls-6" d="M403.05,107.91v-.14h-7.86v-1.64h9.73v1.7l-6.54,13h-1.92Z"/><path class="cls-6" d="M407.17,124.49h-1.7l4.64-19h1.7Z"/><path class="cls-6" d="M413.46,119.56l5-5.38c1.87-2,2.42-2.79,2.42-4.07v0a2.6,2.6,0,0,0-2.78-2.71,2.74,2.74,0,0,0-2.93,2.88v0h-1.77a4.51,4.51,0,0,1,4.83-4.48,4.23,4.23,0,0,1,4.53,4.12v0c0,1.68-.72,2.9-3.38,5.64L416,119v.16h7v1.65h-9.51Z"/><path class="cls-6" d="M429.64,108.17h-.17l-3.73,2.7v-1.93l3.91-2.81h1.82v14.69h-1.83Z"/><path class="cls-7" d="M167,181.37h10.32v1.87H169v5.34h7.81v1.85H169v5.72h8.24V198H167Z"/><path class="cls-7" d="M180.89,180.64h2V198h-2Z"/><path class="cls-7" d="M193.08,181.8a1.39,1.39,0,1,1,1.38,1.38A1.39,1.39,0,0,1,193.08,181.8Zm.36,3.78h2V198h-2Z"/><path class="cls-7" d="M199.24,185.58h2v1.87h.18a3.66,3.66,0,0,1,3.62-2.09c2.8,0,4.35,1.65,4.35,4.61V198h-2v-7.57c0-2.24-.93-3.31-2.91-3.31s-3.24,1.34-3.24,3.52V198h-2Z"/><path class="cls-7" d="M213.81,194.79v-7.55h-2v-1.66h2v-3.22h2.08v3.22h2.72v1.66h-2.72v7c0,1.47.51,2.06,1.8,2.06a7.19,7.19,0,0,0,.92-.05V198a6.51,6.51,0,0,1-1.16.11C214.88,198.11,213.81,197.17,213.81,194.79Z"/><path class="cls-7" d="M220.82,191.85h0c0-3.85,2.19-6.48,5.57-6.48s5.43,2.52,5.43,6.23v.79h-8.95c.06,2.57,1.48,4.07,3.69,4.07a3.2,3.2,0,0,0,3.06-1.54l0-.11h2l0,.09c-.43,1.69-2.2,3.35-5.13,3.35C223,198.24,220.82,195.75,220.82,191.85Zm2.08-1.07h6.88c-.21-2.46-1.57-3.63-3.4-3.63S223.12,188.41,222.9,190.78Z"/><path class="cls-7" d="M234.94,185.58h2v1.85h.18a3.26,3.26,0,0,1,3.33-2.07,7.46,7.46,0,0,1,1,.08v1.95a8.41,8.41,0,0,0-1.24-.11,3,3,0,0,0-3.27,3V198h-2Z"/><path class="cls-7" d="M243,191.77v0c0-3.86,2.22-6.38,5.7-6.38,3,0,4.84,1.75,5.21,4v.07h-2v0a3.07,3.07,0,0,0-3.21-2.22c-2.24,0-3.65,1.8-3.65,4.6v0c0,2.86,1.44,4.69,3.65,4.69a3,3,0,0,0,3.2-2.12l0-.07h2l0,.13c-.51,2.25-2.18,3.85-5.17,3.85C245.2,198.24,243,195.71,243,191.77Z"/><path class="cls-7" d="M256.08,194.55v0c0-2.22,1.64-3.5,4.53-3.67l3.57-.22v-1.13c0-1.54-.94-2.37-2.79-2.37-1.49,0-2.47.55-2.8,1.52v0h-2v-.07c.32-1.95,2.21-3.27,4.87-3.27,3,0,4.73,1.56,4.73,4.15V198h-2v-1.83H264a4.14,4.14,0,0,1-3.76,2.05C257.87,198.24,256.08,196.81,256.08,194.55Zm4.57,1.95a3.25,3.25,0,0,0,3.53-3.12v-1.13l-3.32.21c-1.9.12-2.73.78-2.73,2v0C258.13,195.76,259.21,196.5,260.65,196.5Z"/><path class="cls-7" d="M269.86,185.58h2v1.9h.19a3.39,3.39,0,0,1,3.36-2.12,3.6,3.6,0,0,1,3.44,2.18H279a4.18,4.18,0,0,1,3.81-2.18c2.54,0,4,1.46,4,4.07V198h-2v-8.13c0-1.84-.84-2.75-2.6-2.75a2.79,2.79,0,0,0-2.87,2.89v8h-2v-8.44a2.35,2.35,0,0,0-2.58-2.44,3,3,0,0,0-2.87,3.17V198h-2Z"/><path class="cls-7" d="M292.73,196h-.19v2h-2V180.64h2v6.9h.19a4.29,4.29,0,0,1,3.87-2.18c3.17,0,5.22,2.53,5.22,6.43v0c0,3.88-2.07,6.43-5.22,6.43A4.25,4.25,0,0,1,292.73,196Zm7-4.23v0c0-2.9-1.35-4.65-3.63-4.65s-3.64,1.78-3.64,4.65v0c0,2.88,1.38,4.65,3.64,4.65S299.77,194.71,299.77,191.81Z"/><path class="cls-7" d="M304.61,181.8a1.39,1.39,0,1,1,2.77,0,1.39,1.39,0,0,1-2.77,0Zm.37,3.78h2V198h-2Z"/><path class="cls-7" d="M310.15,191.81v0c0-4,2.19-6.43,5.74-6.43s5.73,2.44,5.73,6.43v0c0,4-2.19,6.43-5.73,6.43S310.15,195.79,310.15,191.81Zm9.42,0v0c0-2.94-1.33-4.65-3.68-4.65s-3.68,1.71-3.68,4.65v0c0,2.93,1.32,4.65,3.68,4.65S319.57,194.74,319.57,191.81Z"/><path class="cls-7" d="M330.76,191.77v0c0-3.86,2.22-6.38,5.7-6.38,3,0,4.84,1.75,5.2,4l0,.07h-2v0a3.07,3.07,0,0,0-3.21-2.22c-2.24,0-3.65,1.8-3.65,4.6v0c0,2.86,1.43,4.69,3.65,4.69a3,3,0,0,0,3.2-2.12l0-.07h2l0,.13c-.51,2.25-2.18,3.85-5.17,3.85C333,198.24,330.76,195.71,330.76,191.77Z"/><path class="cls-7" d="M344,191.81v0c0-4,2.2-6.43,5.74-6.43s5.73,2.44,5.73,6.43v0c0,4-2.19,6.43-5.73,6.43S344,195.79,344,191.81Zm9.42,0v0c0-2.94-1.33-4.65-3.68-4.65s-3.68,1.71-3.68,4.65v0c0,2.93,1.32,4.65,3.68,4.65S353.4,194.74,353.4,191.81Z"/><path class="cls-7" d="M358.57,185.58h2v1.87h.18a3.67,3.67,0,0,1,3.63-2.09c2.79,0,4.35,1.65,4.35,4.61V198h-2v-7.57c0-2.24-.93-3.31-2.91-3.31s-3.24,1.34-3.24,3.52V198h-2Z"/><path class="cls-7" d="M384.07,181.37h2.05L392.26,198h-2.18l-1.67-4.76h-6.62L380.11,198h-2.18Zm-1.67,10.12h5.4l-2.61-7.43H385Z"/><path class="cls-7" d="M394.93,185.58h2v1.87h.18a3.66,3.66,0,0,1,3.62-2.09c2.8,0,4.35,1.65,4.35,4.61V198h-2v-7.57c0-2.24-.93-3.31-2.91-3.31s-3.24,1.34-3.24,3.52V198h-2Z"/><path class="cls-7" d="M408.61,199h2.12c.22,1,1.32,1.62,3.11,1.62,2.23,0,3.56-1,3.56-2.89v-2.51h-.19a4.32,4.32,0,0,1-3.9,2.15c-3.22,0-5.21-2.5-5.21-6v0c0-3.49,2-6,5.26-6a4.24,4.24,0,0,1,3.87,2.28h.14v-2.06h2v12.27c0,2.78-2.15,4.56-5.54,4.56C410.84,202.41,408.93,201.06,408.61,199Zm8.83-7.61v0c0-2.47-1.39-4.24-3.69-4.24s-3.6,1.77-3.6,4.24v0c0,2.47,1.29,4.2,3.6,4.2S417.44,193.87,417.44,191.4Z"/><path class="cls-7" d="M422.5,191.85h0c0-3.85,2.19-6.48,5.57-6.48s5.43,2.52,5.43,6.23v.79h-8.95c.06,2.57,1.48,4.07,3.69,4.07a3.2,3.2,0,0,0,3.06-1.54l.05-.11h2l0,.09c-.43,1.69-2.2,3.35-5.13,3.35C424.64,198.24,422.5,195.75,422.5,191.85Zm2.08-1.07h6.88c-.21-2.46-1.57-3.63-3.4-3.63S424.8,188.41,424.58,190.78Z"/><path class="cls-7" d="M436.74,180.64h2V198h-2Z"/><path class="cls-7" d="M450.07,187.24H448v-1.66h2.06V184.2c0-2.48,1.25-3.67,3.62-3.67a7,7,0,0,1,1.33.11v1.61a5,5,0,0,0-.93-.06c-1.43,0-2,.7-2,2.07v1.32h2.83v1.66h-2.83V198h-2Z"/><path class="cls-7" d="M457.68,193.64v-8.06h2v7.57c0,2.24.8,3.31,2.79,3.31,2.19,0,3.36-1.33,3.36-3.52v-7.36h2V198h-2v-1.86h-.19a3.73,3.73,0,0,1-3.69,2.08C459.13,198.24,457.68,196.58,457.68,193.64Z"/><path class="cls-7" d="M471,191.85h0c0-3.85,2.19-6.48,5.57-6.48s5.44,2.52,5.44,6.23v.79h-9c.06,2.57,1.48,4.07,3.7,4.07a3.19,3.19,0,0,0,3.05-1.54l.05-.11h2l0,.09c-.43,1.69-2.21,3.35-5.14,3.35C473.11,198.24,471,195.75,471,191.85Zm2.09-1.07h6.88c-.21-2.46-1.57-3.63-3.41-3.63S473.27,188.41,473.05,190.78Z"/><path class="cls-7" d="M491.73,185.58h2v1.9h.18a3.4,3.4,0,0,1,3.36-2.12,3.59,3.59,0,0,1,3.44,2.18h.18a4.18,4.18,0,0,1,3.81-2.18c2.54,0,4,1.46,4,4.07V198h-2v-8.13c0-1.84-.84-2.75-2.59-2.75a2.8,2.8,0,0,0-2.88,2.89v8h-2v-8.44a2.35,2.35,0,0,0-2.58-2.44,3,3,0,0,0-2.86,3.17V198h-2Z"/><path class="cls-7" d="M512.18,193.64v-8.06h2v7.57c0,2.24.8,3.31,2.79,3.31,2.19,0,3.36-1.33,3.36-3.52v-7.36h2V198h-2v-1.86h-.19a3.73,3.73,0,0,1-3.69,2.08C513.63,198.24,512.18,196.58,512.18,193.64Z"/><path class="cls-7" d="M526.26,202.31v-1.65a4.38,4.38,0,0,0,.83.06c1.14,0,1.83-.52,2.28-1.95l.23-.74L525,185.58h2.14l3.42,10.24h.18l3.41-10.24h2.11l-4.86,13.2c-1,2.8-2,3.6-4.26,3.6A5.3,5.3,0,0,1,526.26,202.31Z"/><path class="cls-7" d="M545.56,185.58h2v1.85h.18a3.26,3.26,0,0,1,3.33-2.07,7.46,7.46,0,0,1,1,.08v1.95a8.39,8.39,0,0,0-1.23-.11,3,3,0,0,0-3.28,3V198h-2Z"/><path class="cls-7" d="M553.82,194.55v0c0-2.22,1.64-3.5,4.54-3.67l3.56-.22v-1.13c0-1.54-.93-2.37-2.79-2.37-1.49,0-2.47.55-2.79,1.52v0h-2v-.07c.32-1.95,2.22-3.27,4.87-3.27,3,0,4.73,1.56,4.73,4.15V198h-2v-1.83h-.18a4.16,4.16,0,0,1-3.76,2.05C555.61,198.24,553.82,196.81,553.82,194.55Zm4.57,1.95a3.25,3.25,0,0,0,3.53-3.12v-1.13l-3.32.21c-1.89.12-2.72.78-2.72,2v0C555.88,195.76,557,196.5,558.39,196.5Zm-.18-12.65,2-3.92h2.38L560,183.85Z"/><path class="cls-7" d="M567.6,185.58h2v2h.18a4.25,4.25,0,0,1,3.88-2.21c3.15,0,5.22,2.55,5.22,6.43v0c0,3.9-2.06,6.43-5.22,6.43a4.27,4.27,0,0,1-3.88-2.18h-.18v6.12h-2Zm9.23,6.23v0c0-2.9-1.35-4.65-3.62-4.65s-3.65,1.78-3.65,4.65v0c0,2.88,1.39,4.65,3.65,4.65S576.83,194.71,576.83,191.81Z"/><path class="cls-7" d="M581.7,181.8a1.39,1.39,0,1,1,1.39,1.38A1.39,1.39,0,0,1,581.7,181.8Zm.37,3.78h2V198h-2Z"/><path class="cls-7" d="M587.24,191.81v0c0-3.9,2-6.43,5.22-6.43a4.29,4.29,0,0,1,3.87,2.18h.19v-6.9h2V198h-2v-2h-.19a4.25,4.25,0,0,1-3.87,2.2C589.3,198.24,587.24,195.69,587.24,191.81Zm9.32,0v0c0-2.87-1.38-4.65-3.64-4.65s-3.63,1.75-3.63,4.65v0c0,2.9,1.35,4.65,3.63,4.65S596.56,194.69,596.56,191.81Z"/><path class="cls-7" d="M601.76,191.81v0c0-4,2.19-6.43,5.73-6.43s5.74,2.44,5.74,6.43v0c0,4-2.2,6.43-5.74,6.43S601.76,195.79,601.76,191.81Zm9.41,0v0c0-2.94-1.33-4.65-3.68-4.65s-3.68,1.71-3.68,4.65v0c0,2.93,1.33,4.65,3.68,4.65S611.17,194.74,611.17,191.81Z"/><path class="cls-7" d="M166.87,235.68V234a5.45,5.45,0,0,0,.83.05c1.14,0,1.84-.51,2.29-2l.23-.73L165.61,219h2.15l3.41,10.23h.19l3.4-10.23h2.11L172,232.15c-1,2.79-2.06,3.6-4.26,3.6A6.8,6.8,0,0,1,166.87,235.68Z"/><path class="cls-7" d="M185.54,228.21h2.05c.34,1,1.33,1.72,2.92,1.72s2.87-.8,2.87-1.93v0c0-.84-.64-1.43-2.17-1.8l-1.93-.46c-2.33-.55-3.38-1.57-3.38-3.36h0c0-2.07,2-3.62,4.63-3.62s4.42,1.3,4.69,3.33h-2a2.57,2.57,0,0,0-2.74-1.66c-1.47,0-2.56.76-2.56,1.86v0c0,.84.63,1.37,2.09,1.73l1.92.46c2.34.57,3.47,1.58,3.47,3.36v0c0,2.22-2.16,3.75-5,3.75S185.77,230.27,185.54,228.21Z"/><path class="cls-7" d="M197.92,225.21h0c0-3.84,2.19-6.47,5.58-6.47s5.43,2.51,5.43,6.23v.78h-9c.05,2.58,1.47,4.08,3.69,4.08a3.22,3.22,0,0,0,3.06-1.55l0-.1h2l0,.09c-.43,1.68-2.21,3.34-5.14,3.34C200.07,231.6,197.92,229.11,197.92,225.21Zm2.09-1.07h6.88c-.21-2.46-1.57-3.63-3.41-3.63S200.23,221.77,200,224.14Z"/><path class="cls-7" d="M211.94,232.38h2.11c.22.94,1.33,1.61,3.12,1.61,2.23,0,3.55-1.05,3.55-2.88v-2.52h-.18a4.31,4.31,0,0,1-3.9,2.15c-3.22,0-5.22-2.49-5.22-6v0c0-3.49,2-6,5.26-6a4.23,4.23,0,0,1,3.88,2.27h.14V219h2v12.26c0,2.78-2.15,4.56-5.54,4.56C214.17,235.77,212.25,234.42,211.94,232.38Zm8.83-7.62v0c0-2.47-1.4-4.24-3.69-4.24s-3.6,1.77-3.6,4.24v0c0,2.47,1.29,4.2,3.6,4.2S220.77,227.23,220.77,224.76Z"/><path class="cls-7" d="M226.33,227V219h2v7.57c0,2.23.81,3.31,2.79,3.31,2.19,0,3.36-1.34,3.36-3.52V219h2v12.43h-2v-1.85h-.19a3.73,3.73,0,0,1-3.69,2.07C227.79,231.6,226.33,229.94,226.33,227Z"/><path class="cls-7" d="M240.24,219h2v1.84h.19a3.24,3.24,0,0,1,3.32-2.06,6.23,6.23,0,0,1,1,.08v1.95a7.24,7.24,0,0,0-1.24-.12,3,3,0,0,0-3.28,3v7.7h-2Z"/><path class="cls-7" d="M248.27,225.18v0c0-4,2.19-6.42,5.73-6.42s5.74,2.43,5.74,6.42v0c0,4-2.2,6.42-5.74,6.42S248.27,229.16,248.27,225.18Zm9.41,0v0c0-2.94-1.32-4.65-3.68-4.65s-3.68,1.71-3.68,4.65v0c0,2.93,1.33,4.65,3.68,4.65S257.68,228.11,257.68,225.18Z"/><path class="cls-7" d="M263.06,230a1.6,1.6,0,1,1,1.6,1.6A1.55,1.55,0,0,1,263.06,230Zm.44-15.27h2.31l-.2,11.13h-1.92Z"/><path class="cls-7" d="M281.92,214.73H284l6.14,16.65h-2.18l-1.68-4.76h-6.62L278,231.38h-2.18Zm-1.68,10.12h5.4L283,217.42h-.18Z"/><path class="cls-7" d="M292.77,219h2v1.89H295a3.38,3.38,0,0,1,3.35-2.11,3.57,3.57,0,0,1,3.44,2.18H302a4.15,4.15,0,0,1,3.8-2.18c2.54,0,4,1.45,4,4.06v8.59h-2v-8.13c0-1.83-.85-2.75-2.6-2.75a2.8,2.8,0,0,0-2.87,2.89v8h-2v-8.44a2.36,2.36,0,0,0-2.59-2.44,3,3,0,0,0-2.86,3.18v7.7h-2Z"/><path class="cls-7" d="M315.64,229.4h-.18v2h-2V214h2v6.9h.18a4.27,4.27,0,0,1,3.88-2.18c3.16,0,5.22,2.52,5.22,6.42v0c0,3.87-2.07,6.42-5.22,6.42A4.27,4.27,0,0,1,315.64,229.4Zm7-4.22v0c0-2.89-1.35-4.65-3.62-4.65s-3.65,1.78-3.65,4.65v0c0,2.87,1.39,4.65,3.65,4.65S322.68,228.07,322.68,225.18Z"/><path class="cls-7" d="M327.23,225.18v0c0-4,2.19-6.42,5.73-6.42s5.74,2.43,5.74,6.42v0c0,4-2.19,6.42-5.74,6.42S327.23,229.16,327.23,225.18Zm9.42,0v0c0-2.94-1.33-4.65-3.69-4.65s-3.68,1.71-3.68,4.65v0c0,2.93,1.33,4.65,3.68,4.65S336.65,228.11,336.65,225.18Z"/><path class="cls-7" d="M341.18,228.21h2.05c.34,1,1.33,1.72,2.92,1.72s2.86-.8,2.86-1.93v0c0-.84-.63-1.43-2.16-1.8l-1.93-.46c-2.33-.55-3.38-1.57-3.38-3.36h0c0-2.07,2-3.62,4.62-3.62s4.42,1.3,4.7,3.33h-2a2.57,2.57,0,0,0-2.74-1.66c-1.47,0-2.56.76-2.56,1.86v0c0,.84.62,1.37,2.09,1.73l1.92.46c2.34.57,3.47,1.58,3.47,3.36v0c0,2.22-2.16,3.75-5,3.75S341.41,230.27,341.18,228.21Z"/><path class="cls-7" d="M360.09,227.91v0c0-2.22,1.64-3.5,4.54-3.67l3.56-.22v-1.13c0-1.54-.93-2.37-2.79-2.37-1.49,0-2.47.56-2.79,1.53v0h-2V222c.32-2,2.22-3.26,4.87-3.26,3,0,4.73,1.55,4.73,4.14v8.51h-2v-1.83H368a4.14,4.14,0,0,1-3.76,2C361.88,231.6,360.09,230.17,360.09,227.91Zm4.57,2a3.25,3.25,0,0,0,3.53-3.11v-1.13l-3.32.2c-1.89.12-2.72.79-2.72,2v0C362.15,229.12,363.22,229.86,364.66,229.86Z"/><path class="cls-7" d="M373.25,225.13v0c0-3.87,2.21-6.38,5.7-6.38,3,0,4.83,1.74,5.2,4v.07h-2v0A3.08,3.08,0,0,0,379,220.5c-2.24,0-3.65,1.8-3.65,4.61v0c0,2.86,1.43,4.7,3.65,4.7a3,3,0,0,0,3.19-2.13l0-.07h2l0,.13c-.51,2.25-2.18,3.85-5.17,3.85C375.47,231.6,373.25,229.08,373.25,225.13Z"/><path class="cls-7" d="M386.47,225.18v0c0-4,2.19-6.42,5.74-6.42s5.73,2.43,5.73,6.42v0c0,4-2.19,6.42-5.73,6.42S386.47,229.16,386.47,225.18Zm9.42,0v0c0-2.94-1.33-4.65-3.68-4.65s-3.69,1.71-3.69,4.65v0c0,2.93,1.33,4.65,3.69,4.65S395.89,228.11,395.89,225.18Z"/><path class="cls-7" d="M401.06,219h2v1.84h.19a3.24,3.24,0,0,1,3.32-2.06,6.23,6.23,0,0,1,1,.08v1.95a7.24,7.24,0,0,0-1.24-.12,3,3,0,0,0-3.28,3v7.7h-2Z"/><path class="cls-7" d="M409.09,225.18v0c0-3.9,2.05-6.42,5.21-6.42a4.27,4.27,0,0,1,3.88,2.18h.18V214h2v17.37h-2v-2h-.18a4.26,4.26,0,0,1-3.88,2.2C411.15,231.6,409.09,229.05,409.09,225.18Zm9.32,0v0c0-2.87-1.38-4.65-3.65-4.65s-3.62,1.76-3.62,4.65v0c0,2.89,1.35,4.65,3.62,4.65S418.41,228.05,418.41,225.18Z"/><path class="cls-7" d="M423.49,227.91v0c0-2.22,1.64-3.5,4.53-3.67l3.57-.22v-1.13c0-1.54-.94-2.37-2.79-2.37-1.49,0-2.47.56-2.8,1.53v0h-2l0-.07c.32-2,2.21-3.26,4.87-3.26,3,0,4.73,1.55,4.73,4.14v8.51h-2v-1.83h-.19a4.12,4.12,0,0,1-3.76,2C425.28,231.6,423.49,230.17,423.49,227.91Zm4.57,2a3.25,3.25,0,0,0,3.53-3.11v-1.13l-3.32.2c-1.9.12-2.73.79-2.73,2v0C425.54,229.12,426.62,229.86,428.06,229.86Z"/><path class="cls-7" d="M437.27,219h2v1.89h.19a3.39,3.39,0,0,1,3.36-2.11,3.57,3.57,0,0,1,3.43,2.18h.19a4.16,4.16,0,0,1,3.81-2.18c2.54,0,4,1.45,4,4.06v8.59h-2v-8.13c0-1.83-.84-2.75-2.6-2.75a2.8,2.8,0,0,0-2.87,2.89v8h-2v-8.44a2.36,2.36,0,0,0-2.58-2.44,3,3,0,0,0-2.87,3.18v7.7h-2Z"/><path class="cls-7" d="M457.21,225.18v0c0-4,2.19-6.42,5.73-6.42s5.74,2.43,5.74,6.42v0c0,4-2.2,6.42-5.74,6.42S457.21,229.16,457.21,225.18Zm9.41,0v0c0-2.94-1.33-4.65-3.68-4.65s-3.68,1.71-3.68,4.65v0c0,2.93,1.33,4.65,3.68,4.65S466.62,228.11,466.62,225.18Z"/><path class="cls-7" d="M471.16,228.21h2c.33,1,1.33,1.72,2.92,1.72s2.86-.8,2.86-1.93v0c0-.84-.63-1.43-2.17-1.8l-1.93-.46c-2.33-.55-3.38-1.57-3.38-3.36h0c0-2.07,2-3.62,4.63-3.62s4.42,1.3,4.7,3.33h-2c-.26-1-1.23-1.66-2.73-1.66s-2.56.76-2.56,1.86v0c0,.84.62,1.37,2.09,1.73l1.91.46c2.34.57,3.48,1.58,3.48,3.36v0c0,2.22-2.16,3.75-5,3.75S471.39,230.27,471.16,228.21Z"/><path class="cls-7" d="M490.69,227V219h2v7.57c0,2.23.81,3.31,2.79,3.31,2.19,0,3.36-1.34,3.36-3.52V219h2v12.43h-2v-1.85h-.18a3.75,3.75,0,0,1-3.7,2.07C492.15,231.6,490.69,229.94,490.69,227Z"/><path class="cls-7" d="M504.6,219h2v1.86h.19a3.65,3.65,0,0,1,3.62-2.08c2.79,0,4.35,1.65,4.35,4.6v8h-2v-7.56c0-2.24-.92-3.32-2.9-3.32s-3.25,1.34-3.25,3.52v7.36h-2Z"/><path class="cls-7" d="M525.82,228.15v-7.54h-2V219h2v-3.22h2.07V219h2.73v1.66h-2.73v7c0,1.46.51,2,1.8,2a7.34,7.34,0,0,0,.93,0v1.71a6.73,6.73,0,0,1-1.17.12C526.89,231.48,525.82,230.53,525.82,228.15Z"/><path class="cls-7" d="M533.29,215.16a1.39,1.39,0,1,1,1.39,1.39A1.39,1.39,0,0,1,533.29,215.16Zm.37,3.79h2v12.43h-2Z"/><path class="cls-7" d="M539.46,219h2v2h.19a4.25,4.25,0,0,1,3.88-2.2c3.15,0,5.21,2.55,5.21,6.42v0c0,3.9-2,6.42-5.21,6.42a4.27,4.27,0,0,1-3.88-2.18h-.19v6.12h-2Zm9.23,6.23v0c0-2.89-1.35-4.65-3.63-4.65s-3.64,1.78-3.64,4.65v0c0,2.87,1.38,4.65,3.64,4.65S548.69,228.07,548.69,225.18Z"/><path class="cls-7" d="M553.26,225.18v0c0-4,2.19-6.42,5.73-6.42s5.74,2.43,5.74,6.42v0c0,4-2.2,6.42-5.74,6.42S553.26,229.16,553.26,225.18Zm9.41,0v0c0-2.94-1.32-4.65-3.68-4.65s-3.68,1.71-3.68,4.65v0c0,2.93,1.33,4.65,3.68,4.65S562.67,228.11,562.67,225.18Z"/><path class="cls-7" d="M573.87,225.18v0c0-3.9,2-6.42,5.21-6.42a4.27,4.27,0,0,1,3.88,2.18h.18V214h2v17.37h-2v-2H583a4.26,4.26,0,0,1-3.88,2.2C575.93,231.6,573.87,229.05,573.87,225.18Zm9.32,0v0c0-2.87-1.39-4.65-3.65-4.65s-3.62,1.76-3.62,4.65v0c0,2.89,1.35,4.65,3.62,4.65S583.19,228.05,583.19,225.18Z"/><path class="cls-7" d="M588.38,225.21h0c0-3.84,2.19-6.47,5.58-6.47s5.43,2.51,5.43,6.23v.78h-8.95c0,2.58,1.47,4.08,3.69,4.08a3.22,3.22,0,0,0,3.06-1.55l0-.1h2l0,.09c-.43,1.68-2.21,3.34-5.14,3.34C590.53,231.6,588.38,229.11,588.38,225.21Zm2.09-1.07h6.88c-.21-2.46-1.57-3.63-3.41-3.63S590.69,221.77,590.47,224.14Z"/><path class="cls-7" d="M608.53,225.13v0c0-3.87,2.21-6.38,5.7-6.38,3,0,4.83,1.74,5.2,4l0,.07h-2v0a3.08,3.08,0,0,0-3.21-2.22c-2.24,0-3.65,1.8-3.65,4.61v0c0,2.86,1.43,4.7,3.65,4.7a3,3,0,0,0,3.2-2.13l0-.07h2l0,.13c-.51,2.25-2.18,3.85-5.17,3.85C610.76,231.6,608.53,229.08,608.53,225.13Z"/><path class="cls-7" d="M621.64,227.91v0c0-2.22,1.64-3.5,4.53-3.67l3.57-.22v-1.13c0-1.54-.94-2.37-2.79-2.37-1.49,0-2.47.56-2.8,1.53v0h-2l0-.07c.32-2,2.21-3.26,4.86-3.26,3,0,4.74,1.55,4.74,4.14v8.51h-2v-1.83h-.19a4.13,4.13,0,0,1-3.76,2C623.43,231.6,621.64,230.17,621.64,227.91Zm4.57,2a3.25,3.25,0,0,0,3.53-3.11v-1.13l-3.33.2c-1.89.12-2.72.79-2.72,2v0C623.69,229.12,624.76,229.86,626.21,229.86Z"/><path class="cls-7" d="M635.42,219h2v1.89h.19a3.39,3.39,0,0,1,3.36-2.11,3.57,3.57,0,0,1,3.43,2.18h.19a4.16,4.16,0,0,1,3.81-2.18c2.54,0,4,1.45,4,4.06v8.59h-2v-8.13c0-1.83-.85-2.75-2.6-2.75a2.8,2.8,0,0,0-2.87,2.89v8h-2v-8.44a2.36,2.36,0,0,0-2.59-2.44,3,3,0,0,0-2.86,3.18v7.7h-2Z"/><path class="cls-7" d="M658.29,229.4h-.19v2h-2V214h2v6.9h.19a4.26,4.26,0,0,1,3.87-2.18c3.16,0,5.22,2.52,5.22,6.42v0c0,3.87-2.07,6.42-5.22,6.42A4.25,4.25,0,0,1,658.29,229.4Zm7-4.22v0c0-2.89-1.35-4.65-3.62-4.65s-3.65,1.78-3.65,4.65v0c0,2.87,1.39,4.65,3.65,4.65S665.32,228.07,665.32,225.18Z"/><path class="cls-7" d="M670.17,215.16a1.39,1.39,0,1,1,1.39,1.39A1.38,1.38,0,0,1,670.17,215.16Zm.37,3.79h2v12.43h-2Z"/><path class="cls-7" d="M675.71,225.18v0c0-4,2.19-6.42,5.73-6.42s5.74,2.43,5.74,6.42v0c0,4-2.19,6.42-5.74,6.42S675.71,229.16,675.71,225.18Zm9.42,0v0c0-2.94-1.33-4.65-3.69-4.65s-3.68,1.71-3.68,4.65v0c0,2.93,1.33,4.65,3.68,4.65S685.13,228.11,685.13,225.18Z"/><path class="cls-7" d="M167.53,254h-2.07v-1.66h2.07v-1.39c0-2.48,1.24-3.67,3.61-3.67a7.11,7.11,0,0,1,1.34.12V249a6.33,6.33,0,0,0-.94-.05c-1.43,0-2,.7-2,2.06v1.33h2.82V254h-2.82v10.78h-2Z"/><path class="cls-7" d="M174.16,261.27v0c0-2.21,1.64-3.5,4.54-3.67l3.56-.22v-1.13c0-1.53-.93-2.36-2.79-2.36-1.49,0-2.47.55-2.79,1.52v0h-2v-.07c.32-1.95,2.22-3.26,4.87-3.26,3,0,4.73,1.56,4.73,4.14v8.52h-2v-1.84h-.18a4.15,4.15,0,0,1-3.76,2.06C176,265,174.16,263.54,174.16,261.27Zm4.57,2a3.24,3.24,0,0,0,3.53-3.11V259l-3.32.21c-1.89.11-2.72.78-2.72,2v0C176.22,262.49,177.29,263.22,178.73,263.22Z"/><path class="cls-7" d="M186.39,252.31h2.13l3.4,10.25h.19l3.4-10.25h2.12L193,264.75h-2Z"/><path class="cls-7" d="M199.2,258.54v0c0-4,2.2-6.43,5.74-6.43s5.73,2.43,5.73,6.43v0c0,4-2.19,6.43-5.73,6.43S199.2,262.52,199.2,258.54Zm9.42,0v0c0-2.95-1.33-4.65-3.68-4.65s-3.68,1.7-3.68,4.65v0c0,2.93,1.32,4.65,3.68,4.65S208.62,261.47,208.62,258.54Z"/><path class="cls-7" d="M213.79,252.31h2v1.84H216a3.24,3.24,0,0,1,3.32-2.06,7.63,7.63,0,0,1,1,.08v2a7.24,7.24,0,0,0-1.24-.12,3,3,0,0,0-3.27,3v7.71h-2Z"/><path class="cls-7" d="M222.05,261.27v0c0-2.21,1.64-3.5,4.54-3.67l3.56-.22v-1.13c0-1.53-.93-2.36-2.79-2.36-1.49,0-2.47.55-2.79,1.52l0,0h-2v-.07c.32-1.95,2.21-3.26,4.87-3.26,3,0,4.73,1.56,4.73,4.14v8.52h-2v-1.84H230A4.16,4.16,0,0,1,226.2,265C223.84,265,222.05,263.54,222.05,261.27Zm4.57,2a3.25,3.25,0,0,0,3.53-3.11V259l-3.32.21c-1.89.11-2.73.78-2.73,2v0C224.1,262.49,225.18,263.22,226.62,263.22Z"/><path class="cls-7" d="M238.14,262.76H238v2h-2V247.37h2v6.9h.19a4.27,4.27,0,0,1,3.87-2.18c3.16,0,5.22,2.53,5.22,6.43v0c0,3.88-2.07,6.43-5.22,6.43A4.24,4.24,0,0,1,238.14,262.76Zm7-4.22v0c0-2.9-1.35-4.65-3.62-4.65s-3.64,1.77-3.64,4.65v0c0,2.87,1.38,4.65,3.64,4.65S245.17,261.44,245.17,258.54Z"/><path class="cls-7" d="M250.46,247.37h2v17.38h-2Z"/><path class="cls-7" d="M255.7,258.57h0c0-3.84,2.19-6.47,5.57-6.47s5.44,2.51,5.44,6.23v.79h-9c.06,2.57,1.48,4.07,3.69,4.07a3.2,3.2,0,0,0,3.06-1.55l.05-.1h2l0,.09c-.42,1.69-2.2,3.35-5.13,3.35C257.84,265,255.7,262.47,255.7,258.57Zm2.09-1.07h6.87c-.2-2.46-1.57-3.62-3.4-3.62S258,255.14,257.79,257.5Z"/><path class="cls-7" d="M276.47,252.31h2v2h.18a4.26,4.26,0,0,1,3.88-2.2c3.15,0,5.21,2.55,5.21,6.43v0c0,3.9-2.05,6.43-5.21,6.43a4.29,4.29,0,0,1-3.88-2.18h-.18v6.11h-2Zm9.23,6.23v0c0-2.9-1.35-4.65-3.62-4.65s-3.65,1.77-3.65,4.65v0c0,2.87,1.39,4.65,3.65,4.65S285.7,261.44,285.7,258.54Z"/><path class="cls-7" d="M290.15,261.27v0c0-2.21,1.64-3.5,4.54-3.67l3.56-.22v-1.13c0-1.53-.93-2.36-2.79-2.36-1.49,0-2.47.55-2.79,1.52v0h-2v-.07c.32-1.95,2.22-3.26,4.87-3.26,3,0,4.73,1.56,4.73,4.14v8.52h-2v-1.84h-.18a4.14,4.14,0,0,1-3.76,2.06C291.94,265,290.15,263.54,290.15,261.27Zm4.57,2a3.24,3.24,0,0,0,3.53-3.11V259l-3.32.21c-1.89.11-2.72.78-2.72,2v0C292.21,262.49,293.28,263.22,294.72,263.22Z"/><path class="cls-7" d="M303.93,252.31h2v1.84h.18a3.25,3.25,0,0,1,3.33-2.06,7.31,7.31,0,0,1,1,.08v2a7,7,0,0,0-1.23-.12,3,3,0,0,0-3.28,3v7.71h-2Z"/><path class="cls-7" d="M312.19,261.27v0c0-2.21,1.64-3.5,4.54-3.67l3.56-.22v-1.13c0-1.53-.93-2.36-2.79-2.36-1.49,0-2.47.55-2.79,1.52v0h-2v-.07c.32-1.95,2.22-3.26,4.87-3.26,3,0,4.73,1.56,4.73,4.14v8.52h-2v-1.84h-.18a4.15,4.15,0,0,1-3.76,2.06C314,265,312.19,263.54,312.19,261.27Zm4.57,2a3.24,3.24,0,0,0,3.53-3.11V259l-3.32.21c-1.89.11-2.72.78-2.72,2v0C314.25,262.49,315.32,263.22,316.76,263.22Z"/><path class="cls-7" d="M332.73,247.37h2v17.38h-2Z"/><path class="cls-7" d="M338,258.54v0c0-4,2.19-6.43,5.74-6.43s5.73,2.43,5.73,6.43v0c0,4-2.19,6.43-5.73,6.43S338,262.52,338,258.54Zm9.42,0v0c0-2.95-1.33-4.65-3.68-4.65s-3.68,1.7-3.68,4.65v0c0,2.93,1.32,4.65,3.68,4.65S347.39,261.47,347.39,258.54Z"/><path class="cls-7" d="M351.92,261.57H354c.33,1,1.32,1.72,2.92,1.72s2.86-.79,2.86-1.92v0c0-.84-.64-1.43-2.17-1.8l-1.93-.46c-2.33-.55-3.38-1.57-3.38-3.36h0c0-2.06,2-3.62,4.63-3.62s4.42,1.3,4.69,3.33h-2c-.26-1-1.23-1.66-2.73-1.66s-2.57.76-2.57,1.86v0c0,.85.63,1.38,2.09,1.73l1.92.47c2.34.56,3.47,1.58,3.47,3.35v0c0,2.21-2.16,3.75-5,3.75S352.15,263.63,351.92,261.57Z"/><path class="cls-7" d="M371.56,263.32l5.63-6.1c2.13-2.29,2.75-3.16,2.75-4.61v0a3,3,0,0,0-3.15-3.07,3.1,3.1,0,0,0-3.32,3.26l0,0h-2c0-2.95,2.29-5.08,5.48-5.08,2.91,0,5.13,2,5.13,4.67v0c0,1.9-.82,3.29-3.83,6.39l-3.78,3.91v.19h7.89v1.87H371.56Z"/></g></g></svg>