<svg xmlns="http://www.w3.org/2000/svg" viewBox="0 0 668.56 114.22"><defs><style>.cls-1{fill:#e6cc45;}.cls-2{fill:#1a1a1a;}</style></defs><g id="Layer_2" data-name="Layer 2"><g id="Layer_1-2" data-name="Layer 1"><rect class="cls-1" width="668.56" height="114.22" rx="19.9"/><path class="cls-2" d="M184,41.78h4.37V70H184Z"/><path class="cls-2" d="M195.44,41.78h3.95l14.49,20.51h.29V41.78h4.26V70h-3.94L200,49.49h-.31V70h-4.26Z"/><path class="cls-2" d="M225.5,41.78h4.38V70H225.5Z"/><path class="cls-2" d="M235.77,55.9v0c0-9.1,4.87-14.76,12.7-14.76,6.21,0,11,3.92,11.72,9.53l0,.09h-4.34v0A7.26,7.26,0,0,0,248.47,45c-5.06,0-8.22,4.2-8.22,10.9v0c0,6.68,3.16,10.88,8.24,10.88,3.73,0,6.52-2,7.32-5.18l0-.07h4.34v.11c-.82,5.41-5.41,9-11.7,9C240.66,70.65,235.77,65,235.77,55.9Z"/><path class="cls-2" d="M265.93,41.78h4.38V70h-4.38Z"/><path class="cls-2" d="M285.36,41.78h4.73L300.27,70h-4.61l-2.54-7.61H282.34L279.78,70h-4.59Zm-1.85,17H292l-4.07-12.11h-.33Z"/><path class="cls-2" d="M305.15,41.78h11.11c5.78,0,9.38,3.36,9.38,8.59v0a8.08,8.08,0,0,1-5.47,8L326.5,70h-5.06L315.7,59.12h-6.18V70h-4.37Zm10.68,13.79c3.36,0,5.32-1.84,5.32-5v0c0-3.12-2.08-5-5.45-5h-6.18V55.57Z"/><path class="cls-2" d="M341.48,62.68l0-.26h4.29l0,.22c.24,2.56,3,4.2,6.72,4.2,3.6,0,6.16-1.8,6.16-4.42v0c0-2.16-1.53-3.57-5.26-4.37l-3.08-.66c-5.73-1.22-8.19-3.87-8.19-8v0c0-4.87,4.24-8.22,10.22-8.22s9.88,3.37,10.19,7.75l0,.27h-4.24l0-.25c-.37-2.31-2.57-4-6-4s-5.74,1.55-5.74,4.2v0c0,2.09,1.48,3.46,5.13,4.24l3.07.68c5.92,1.27,8.34,3.66,8.34,7.84v0c0,5.39-4.2,8.75-10.76,8.75C346,70.65,341.87,67.42,341.48,62.68Z"/><path class="cls-2" d="M368.82,41.78h17.89v3.77H373.2v8.24H386v3.63H373.2v8.77h13.51V70H368.82Z"/><path class="cls-2" d="M391.71,62.68l0-.26H396l0,.22c.23,2.56,2.95,4.2,6.72,4.2,3.59,0,6.15-1.8,6.15-4.42v0c0-2.16-1.52-3.57-5.25-4.37l-3.09-.66c-5.72-1.22-8.18-3.87-8.18-8v0c0-4.87,4.23-8.22,10.21-8.22s9.88,3.37,10.2,7.75l0,.27h-4.24l0-.25c-.37-2.31-2.58-4-6-4s-5.74,1.55-5.74,4.2v0c0,2.09,1.48,3.46,5.14,4.24L405,54c5.92,1.27,8.34,3.66,8.34,7.84v0c0,5.39-4.2,8.75-10.76,8.75C396.18,70.65,392.1,67.42,391.71,62.68Z"/><path class="cls-2" d="M419.06,41.78h4.37V70h-4.37Z"/><path class="cls-2" d="M429.33,55.88v0c0-9.06,5.08-14.74,13.16-14.74s13.15,5.7,13.15,14.74v0c0,9-5,14.77-13.15,14.77S429.33,64.92,429.33,55.88Zm21.83,0v0c0-6.66-3.34-10.88-8.67-10.88s-8.69,4.22-8.69,10.88v0c0,6.6,3.26,10.9,8.69,10.9S451.16,62.48,451.16,55.88ZM440.66,39l3.26-6.41h4.41L443.92,39Z"/><path class="cls-2" d="M461.56,41.78h3.94L480,62.29h.3V41.78h4.25V70H480.6L466.13,49.49h-.32V70h-4.25Z"/></g></g></svg>