<svg xmlns="http://www.w3.org/2000/svg" viewBox="0 0 668.56 114.22"><defs><style>.cls-1{fill:#e6cc45;}.cls-2{fill:#1a1a1a;}</style></defs><g id="Layer_2" data-name="Layer 2"><g id="Layer_1-2" data-name="Layer 1"><rect class="cls-1" width="668.56" height="114.22" rx="19.9"/><path class="cls-2" d="M200.16,41.78h11.11c5.78,0,9.38,3.36,9.38,8.59v0a8.08,8.08,0,0,1-5.47,8L221.51,70h-5.06l-5.74-10.84h-6.18V70h-4.37Zm10.68,13.79c3.36,0,5.31-1.84,5.31-5v0c0-3.13-2.07-5-5.44-5h-6.18V55.57Z"/><path class="cls-2" d="M226.88,41.78h17.89v3.77H231.25v8.24h12.8v3.63h-12.8v8.77h13.52V70H226.88Z"/><path class="cls-2" d="M249.92,55.88v0c0-8.94,5.1-14.75,13-14.75,6.41,0,11,3.64,12,9.09l0,.19h-4.37l-.06-.19c-1-3.34-3.71-5.22-7.58-5.22-5.21,0-8.51,4.22-8.51,10.86v0c0,6.74,3.32,10.92,8.61,10.92,4.61,0,7.75-2.91,7.79-7.25v-.62h-7.24V55.37h11.56v3.5c0,7.15-4.79,11.78-12.17,11.78C255,70.65,249.92,64.94,249.92,55.88Z"/><path class="cls-2" d="M281.14,41.78h4.37V70h-4.37Z"/><path class="cls-2" d="M291.25,62.68l0-.26h4.3l0,.22c.23,2.56,2.95,4.2,6.72,4.2,3.59,0,6.15-1.8,6.15-4.42v0c0-2.16-1.52-3.57-5.25-4.37l-3.09-.67c-5.72-1.21-8.18-3.86-8.18-8v0c0-4.87,4.24-8.23,10.21-8.23s9.88,3.38,10.2,7.76l0,.27h-4.24l0-.25c-.37-2.31-2.58-4-6-4s-5.74,1.55-5.74,4.2v0c0,2.09,1.49,3.46,5.14,4.24l3.06.68c5.92,1.27,8.34,3.66,8.34,7.84v0c0,5.39-4.2,8.75-10.76,8.75C295.72,70.65,291.64,67.42,291.25,62.68Z"/><path class="cls-2" d="M325.74,45.55h-8.86V41.78H339v3.77h-8.85V70h-4.38Z"/><path class="cls-2" d="M344.32,41.78h11.11c5.78,0,9.38,3.36,9.38,8.59v0a8.08,8.08,0,0,1-5.47,8L365.67,70h-5.06l-5.74-10.84h-6.18V70h-4.37ZM355,55.57c3.36,0,5.31-1.84,5.31-5v0c0-3.13-2.07-5-5.44-5h-6.18V55.57Z"/><path class="cls-2" d="M379.05,41.78h4.72L394,70h-4.61l-2.54-7.62H376L373.46,70h-4.59Zm-1.86,17h8.44l-4.07-12.11h-.33Z"/><path class="cls-2" d="M398.83,41.78h11.11c5.78,0,9.38,3.36,9.38,8.59v0a8.08,8.08,0,0,1-5.47,8L420.18,70h-5.06l-5.74-10.84h-6.17V70h-4.38Zm10.68,13.79c3.36,0,5.32-1.84,5.32-5v0c0-3.13-2.07-5-5.45-5h-6.17V55.57Z"/><path class="cls-2" d="M432.7,45.55h-8.87V41.78h22.09v3.77h-8.85V70H432.7Z"/><path class="cls-2" d="M451.27,41.78h17.89v3.77H455.65v8.24h12.79v3.63H455.65v8.77h13.51V70H451.27Z"/></g></g></svg>