<svg xmlns="http://www.w3.org/2000/svg" viewBox="0 0 193.11 33.7"><defs><style>.cls-1{fill:#e6cc45;}</style></defs><g id="Layer_2" data-name="Layer 2"><g id="Layer_1-2" data-name="Layer 1"><path class="cls-1" d="M8,37.39a9.25,9.25,0,0,1-4-3.12,8,8,0,0,1-1.44-4.73H8.1a4.94,4.94,0,0,0,1.6,3.33,5.65,5.65,0,0,0,4,1.31,6.11,6.11,0,0,0,4.14-1.29,4.14,4.14,0,0,0,1.48-3.3A3.6,3.6,0,0,0,18.38,27a6.15,6.15,0,0,0-2.29-1.53,34.89,34.89,0,0,0-3.8-1.17,36.25,36.25,0,0,1-5-1.64,8.3,8.3,0,0,1-3.26-2.59A7.48,7.48,0,0,1,2.7,15.41a8.3,8.3,0,0,1,1.35-4.72A8.63,8.63,0,0,1,7.83,7.58,13.73,13.73,0,0,1,13.46,6.5,11.74,11.74,0,0,1,20.9,8.77,8.39,8.39,0,0,1,24.12,15H18.45a4.12,4.12,0,0,0-1.62-2.93,6,6,0,0,0-3.91-1.21A5.52,5.52,0,0,0,9.32,12a3.89,3.89,0,0,0-1.4,3.24,3.26,3.26,0,0,0,.88,2.36A6,6,0,0,0,11,19.06a33.56,33.56,0,0,0,3.68,1.17,38.42,38.42,0,0,1,5.07,1.71,8.45,8.45,0,0,1,3.33,2.63,7.59,7.59,0,0,1,1.37,4.75,8.58,8.58,0,0,1-1.28,4.5,9.22,9.22,0,0,1-3.74,3.39,12.23,12.23,0,0,1-5.78,1.29A13.92,13.92,0,0,1,8,37.39Z" transform="translate(-2.61 -4.88)"/><path class="cls-1" d="M34,19.06A11.32,11.32,0,0,1,44.14,13a10.76,10.76,0,0,1,5.11,1.15A10.27,10.27,0,0,1,52.74,17v-3.6h5.17V38.18H52.74V34.49a10.22,10.22,0,0,1-3.56,2.93,11.48,11.48,0,0,1-11-.48A11.53,11.53,0,0,1,34,32.35a14,14,0,0,1-1.56-6.68A13.65,13.65,0,0,1,34,19.06Zm17.68,2.25a7.39,7.39,0,0,0-2.77-2.88,7.24,7.24,0,0,0-3.69-1,7.41,7.41,0,0,0-3.69,1,7.33,7.33,0,0,0-2.76,2.84,8.78,8.78,0,0,0-1.06,4.43,9.18,9.18,0,0,0,1.06,4.5,7.43,7.43,0,0,0,2.79,2.95,7.16,7.16,0,0,0,3.66,1,7.24,7.24,0,0,0,3.69-1,7.32,7.32,0,0,0,2.77-2.9,9.08,9.08,0,0,0,1.06-4.48A8.91,8.91,0,0,0,51.68,21.31Z" transform="translate(-2.61 -4.88)"/><path class="cls-1" d="M73.39,4.88v33.3H68.26V4.88Z" transform="translate(-2.61 -4.88)"/><path class="cls-1" d="M89.73,17.57V31.3a2.65,2.65,0,0,0,.65,2,3.29,3.29,0,0,0,2.23.61h3.15v4.27H91.71a7.81,7.81,0,0,1-5.31-1.62q-1.84-1.62-1.85-5.26V17.57H81.63V13.39h2.92V7.22h5.18v6.17h6v4.18Z" transform="translate(-2.61 -4.88)"/><path class="cls-1" d="M103.93,19.06A11.32,11.32,0,0,1,114.07,13a10.76,10.76,0,0,1,5.11,1.15A10.27,10.27,0,0,1,122.67,17v-3.6h5.17V38.18h-5.17V34.49a10.22,10.22,0,0,1-3.56,2.93,11.48,11.48,0,0,1-11-.48,11.53,11.53,0,0,1-4.2-4.59,14,14,0,0,1-1.56-6.68A13.65,13.65,0,0,1,103.93,19.06Zm17.68,2.25a7.39,7.39,0,0,0-2.77-2.88,7.24,7.24,0,0,0-3.69-1,7.41,7.41,0,0,0-3.69,1,7.33,7.33,0,0,0-2.76,2.84,8.78,8.78,0,0,0-1.06,4.43,9.18,9.18,0,0,0,1.06,4.5,7.43,7.43,0,0,0,2.79,2.95,7.16,7.16,0,0,0,3.66,1,7.24,7.24,0,0,0,3.69-1,7.32,7.32,0,0,0,2.77-2.9,9.08,9.08,0,0,0,1.06-4.48A8.91,8.91,0,0,0,121.61,21.31Z" transform="translate(-2.61 -4.88)"/><path class="cls-1" d="M146.32,14A8.78,8.78,0,0,1,150.75,13v5.31h-1.31a6.22,6.22,0,0,0-4.56,1.53q-1.56,1.53-1.56,5.31V38.18h-5.13V13.39h5.13V17A8,8,0,0,1,146.32,14Z" transform="translate(-2.61 -4.88)"/><g id="Forward"><polygon class="cls-1" points="177.05 33.3 174.47 30.73 187.96 17.24 174.47 3.76 177.05 1.18 193.11 17.24 177.05 33.3"/></g></g></g></svg>